<svg width="187" height="207" viewBox="0 0 187 207" fill="none" xmlns="http://www.w3.org/2000/svg">
<path d="M26.6265 48.0787V50.9196C26.6265 51.4337 26.9242 51.8936 27.3844 52.1101C27.4656 52.1642 27.5468 52.1913 27.628 52.1913C27.7363 52.2183 27.8445 52.2454 27.9528 52.2454H185.674C186.405 52.2454 187 51.6501 187 50.9196V48.0787C187 47.3482 186.405 46.7529 185.674 46.7529H27.9799C27.222 46.7529 26.6265 47.3482 26.6265 48.0787Z" fill="#EEEDEE"/>
<path opacity="0.42" d="M180.964 52.2724H181.289C182.669 50.3514 184.104 47.9434 184.78 46.7529H184.455C183.427 48.5386 182.101 50.649 180.964 52.2724Z" fill="#BDD3DE"/>
<path opacity="0.42" d="M179.827 47.7537C179.259 48.9172 178.501 50.5405 178.176 52.2451H178.447C178.771 50.5676 179.502 48.9983 180.071 47.862C180.287 47.402 180.477 47.0232 180.585 46.7256H180.287C180.152 47.0503 179.962 47.4291 179.827 47.7537Z" fill="#BDD3DE"/>
<path opacity="0.42" d="M175.36 52.2724H175.658C176.01 51.3796 176.335 50.135 176.605 48.6469C176.741 47.8352 177.011 47.2129 177.363 46.7529H177.038C176.741 47.1858 176.497 47.7811 176.335 48.5928C176.01 50.2973 175.685 51.4878 175.36 52.2724Z" fill="#BDD3DE"/>
<path opacity="0.42" d="M175.036 50.4596C174.685 51.0819 174.36 51.7042 174.17 52.2724H174.468C174.658 51.7583 174.982 51.1902 175.28 50.5949C175.984 49.2962 176.688 47.9434 176.444 46.7529H176.173V46.78C176.444 47.8622 175.74 49.1609 175.036 50.4596Z" fill="#BDD3DE"/>
<path opacity="0.42" d="M173.52 52.2722H173.818C174.17 51.3794 174.684 49.8913 175.415 47.4021L175.604 46.7798H175.334L175.171 47.348C174.386 49.8913 173.872 51.4064 173.52 52.2722Z" fill="#BDD3DE"/>
<path opacity="0.42" d="M173.601 49.5397C173.899 50.8114 173.52 51.2443 173.168 51.6772C173.033 51.8666 172.87 52.0289 172.762 52.2724H173.06C173.141 52.1371 173.249 52.0019 173.358 51.8666C173.737 51.4066 174.17 50.8925 173.845 49.4856C173.628 48.5657 173.168 47.5376 172.6 46.7529H172.275C172.87 47.5105 173.358 48.5657 173.601 49.5397Z" fill="#BDD3DE"/>
<path opacity="0.42" d="M170.706 49.8914C170.814 50.7031 170.462 51.5689 169.948 52.2453H170.272C170.76 51.5418 171.084 50.676 170.976 49.8373C170.814 48.7009 170.3 48.1598 169.921 47.7269C169.569 47.3481 169.379 47.1316 169.569 46.6987H169.271C169.081 47.2399 169.352 47.5375 169.704 47.8892C170.083 48.3492 170.543 48.8632 170.706 49.8914Z" fill="#BDD3DE"/>
<path opacity="0.42" d="M167.538 52.2722H167.836C168.079 51.8934 168.431 51.6499 168.81 51.4605C169.487 51.0547 170.218 50.6488 169.487 49.1878C169.081 48.3491 168.54 47.5103 167.971 46.7798H167.619C168.215 47.5103 168.81 48.4302 169.243 49.3231C169.839 50.5677 169.352 50.8382 168.675 51.2441C168.269 51.4335 167.782 51.7311 167.538 52.2722Z" fill="#BDD3DE"/>
<path opacity="0.42" d="M161.746 52.2724H162.044C162.342 51.6231 162.694 50.622 163.154 49.3233C163.452 48.4304 163.776 47.5105 164.074 46.7529H163.776C163.479 47.4835 163.181 48.3763 162.883 49.2421C162.531 50.2432 162.125 51.5148 161.746 52.2724Z" fill="#BDD3DE"/>
<path opacity="0.42" d="M159.554 46.7526C159.797 47.6184 160.014 48.7548 160.176 49.7018C160.366 50.7029 160.528 51.6228 160.718 52.2451H160.988C160.799 51.6228 160.609 50.6488 160.42 49.6477C160.203 48.4843 159.987 47.4832 159.797 46.7256H159.554V46.7526Z" fill="#BDD3DE"/>
<path opacity="0.42" d="M158.498 46.7529C158.606 47.4293 158.796 48.2951 159.066 49.3503C159.31 50.3785 159.608 51.569 159.662 52.2724H159.933C159.906 51.6231 159.662 50.5949 159.337 49.2692C159.121 48.4304 158.904 47.4835 158.796 46.7529H158.498Z" fill="#BDD3DE"/>
<path opacity="0.42" d="M158.038 46.7529H157.767C157.794 47.0505 157.849 47.3752 157.876 47.6999C158.119 49.648 158.336 51.2984 158.688 52.2724H158.985C158.579 51.2172 158.336 49.0798 158.173 47.6728C158.092 47.3211 158.065 47.0235 158.038 46.7529Z" fill="#BDD3DE"/>
<path opacity="0.42" d="M156.901 52.2724H157.172C157.226 51.6501 157.226 50.7573 157.226 49.6209C157.226 48.6469 157.199 47.6187 157.28 46.7529H157.01C156.955 47.5917 156.955 48.6198 156.955 49.6209C156.955 50.5138 156.983 51.569 156.901 52.2724Z" fill="#BDD3DE"/>
<path opacity="0.42" d="M154.817 46.7529H154.546C154.736 47.4023 154.871 48.2681 155.006 49.1339C155.196 50.2703 155.385 51.4337 155.71 52.2724H156.008C155.683 51.4878 155.494 50.2703 155.304 49.1068C155.142 48.214 155.006 47.4023 154.817 46.7529Z" fill="#BDD3DE"/>
<path opacity="0.42" d="M151.894 52.2724H152.164C152.219 51.7583 152.246 51.109 152.246 50.4326C152.246 49.1339 152.273 47.727 152.679 46.7529H152.381C152.002 47.7811 151.975 49.1609 151.975 50.4326C151.948 51.109 151.948 51.7583 151.894 52.2724Z" fill="#BDD3DE"/>
<path opacity="0.42" d="M149.701 48.728C149.539 49.9726 149.377 51.2984 149.674 52.2724H149.972C149.647 51.3525 149.837 49.9997 149.972 48.7551C150.053 48.0246 150.161 47.3211 150.134 46.7529H149.864C149.864 47.3211 149.783 47.9975 149.701 48.728Z" fill="#BDD3DE"/>
<path opacity="0.42" d="M141.04 52.2724H141.391C141.879 51.7313 142.393 51.109 142.934 50.4596C144.017 49.1609 145.181 47.754 146.345 46.7529H145.939C144.829 47.754 143.719 49.0798 142.718 50.2973C142.149 51.0008 141.581 51.6772 141.04 52.2724Z" fill="#BDD3DE"/>
<path opacity="0.42" d="M137.359 52.2724H137.629C137.386 51.0008 137.927 49.5938 138.387 48.3222C138.604 47.754 138.793 47.2399 138.901 46.7529H138.631C138.522 47.1858 138.333 47.6728 138.143 48.214C137.683 49.4586 137.142 50.9196 137.359 52.2724Z" fill="#BDD3DE"/>
<path opacity="0.42" d="M109.371 50.2159C109.75 49.8912 110.075 49.6206 110.075 49.2689C110.075 49.0254 109.912 48.7548 109.56 48.4031C109.127 47.9972 108.613 47.4561 108.126 46.915C108.072 46.8609 108.018 46.7797 107.964 46.7256H108.342C108.857 47.2667 109.317 47.7808 109.75 48.1866C110.156 48.5925 110.345 48.9172 110.345 49.2418C110.345 49.7018 109.966 49.9994 109.533 50.3782C108.992 50.8382 108.424 51.3522 108.37 52.218H108.099C108.18 51.244 108.857 50.6758 109.371 50.2159ZM98.517 46.7526C100.114 48.6736 101.522 50.9193 102.198 52.2721H101.9C101.224 50.8923 99.7892 48.6466 98.1922 46.7526H98.517ZM104.905 46.7526H105.176C105.392 48.836 104.932 50.8923 104.282 52.2721H103.985C104.607 50.9464 105.149 48.863 104.905 46.7526ZM94.2133 47.2397C93.2931 47.1585 92.4269 47.0773 91.8856 46.7526H92.6164C93.0765 46.8609 93.6449 46.915 94.2404 46.9691C95.4855 47.0773 96.7847 47.2126 97.3532 47.9702C97.6509 48.376 97.705 48.863 97.5697 49.5395C97.3802 50.3511 97.2719 51.2981 97.1637 52.2721H96.893C97.0013 51.2981 97.1095 50.3241 97.299 49.4853C97.4344 48.9172 97.3802 48.4843 97.1366 48.1325C96.6494 47.4561 95.4043 47.3479 94.2133 47.2397ZM89.9638 46.7526C90.7758 48.0784 91.5608 49.5936 92.2916 51.1628C92.481 51.5687 92.6435 51.9204 92.8059 52.2721H92.5081C92.3457 51.9475 92.2104 51.6228 92.048 51.2711C91.1818 49.4042 90.3969 47.9161 89.6931 46.7526H89.9638ZM85.7142 46.7526C86.7157 48.8089 88.3939 50.8652 89.5578 52.2721H89.2059C88.0149 50.8382 86.3638 48.7819 85.4165 46.7526H85.7142ZM83.9819 46.7526C84.2797 47.1585 84.6315 47.6185 85.0376 48.1866C86.012 49.5395 87.1488 51.0817 88.1503 52.2721H87.7984C86.7969 51.1087 85.7413 49.6477 84.7939 48.349C84.415 47.8078 84.009 47.2397 83.6301 46.7526H83.9819ZM82.7639 46.7526C83.2511 47.9431 84.1173 49.4853 84.8481 50.784C85.1729 51.3793 85.4436 51.8663 85.6601 52.2721H85.3624C85.1188 51.8392 84.8481 51.3522 84.6045 50.9193C83.8195 49.5124 82.9263 47.9702 82.4662 46.7526H82.7639ZM79.8948 46.7526C80.6527 47.6726 81.4105 48.7278 82.1955 49.7559C82.8722 50.6758 83.5218 51.5416 84.1173 52.2721H83.7654C83.197 51.5687 82.6015 50.757 81.979 49.9182C81.194 48.836 80.3549 47.7267 79.5429 46.7526H79.8948ZM31.9045 46.7526C32.5 48.4301 33.0684 50.5946 33.4744 52.2721H33.2038C32.6624 50.0265 32.1211 48.1325 31.6339 46.7526H31.9045ZM40.5931 46.8338C40.5931 46.8068 40.6202 46.7797 40.6202 46.7526H40.9179C40.8909 46.8338 40.8638 46.8879 40.8367 46.942C40.2412 48.2678 39.2127 50.4052 38.1029 52.2721H37.7781C38.6443 50.8382 39.5916 48.9983 40.5931 46.8338ZM28.9271 46.7526H29.1978C28.5482 48.7819 27.9256 51.0546 27.6008 52.218C27.5196 52.191 27.4384 52.1639 27.3572 52.1369C27.682 50.9734 28.3046 48.7548 28.9271 46.7526ZM43.2457 51.4875C44.0577 50.2429 44.978 48.863 44.1119 47.4832C43.9765 47.2397 43.8412 46.9961 43.7329 46.7256H44.0307C44.1119 46.942 44.2201 47.1314 44.3555 47.3208C45.3028 48.836 44.3284 50.3241 43.4893 51.6228C43.354 51.8392 43.2186 52.0286 43.0833 52.2451H42.7585C42.8938 52.0016 43.0833 51.7581 43.2457 51.4875ZM46.4667 46.7526H46.7374C46.4396 48.6195 45.5464 50.757 44.6261 52.2721H44.2743C45.1946 50.8111 46.169 48.7007 46.4667 46.7526ZM49.3358 46.7526C50.1208 47.862 51.0411 49.3771 52.0967 51.0817C52.3403 51.4875 52.5839 51.8933 52.8275 52.2721H52.5027C52.3132 51.9475 52.0967 51.5957 51.8802 51.244C51.0681 49.9182 49.9855 48.1325 49.0381 46.7797H49.3358V46.7526ZM57.4019 47.6996C57.4831 47.3749 57.5643 47.0503 57.6455 46.7526H57.9162C57.835 47.0773 57.7538 47.4291 57.6455 47.7808C57.2124 49.5124 56.8064 51.0817 56.3733 52.2721H56.0756C56.5899 50.8923 57.0229 49.1607 57.4019 47.6996ZM60.7041 46.7526C61.0289 47.2126 61.3808 47.7537 61.7597 48.349C62.6529 49.7288 63.6544 51.244 64.5747 52.2721H64.2228C63.3025 51.244 62.3823 49.81 61.5161 48.5113C61.1372 47.9161 60.7312 47.2938 60.3522 46.7797H60.7041V46.7526ZM69.2844 49.1065C69.5551 48.2407 69.8528 47.4291 70.1506 46.7256H70.4483C70.1235 47.4291 69.8258 48.3219 69.5551 49.1877C69.2032 50.27 68.8243 51.4063 68.3641 52.2451H68.0664C68.5265 51.4334 68.9055 50.2429 69.2844 49.1065ZM72.4513 50.1347C72.9385 48.9713 73.4528 47.8078 73.94 46.7526H74.2106C73.6964 47.8349 73.1821 49.0524 72.6678 50.2429C72.343 51.0005 72.0453 51.6769 71.8017 52.2451H71.5039C71.8287 51.5416 72.1535 50.8111 72.4513 50.1347ZM70.746 49.1065C70.9626 48.349 71.2603 47.4832 71.4227 46.7526H71.6934C71.531 47.3749 71.2874 48.1866 70.9896 49.1877C70.6648 50.2159 70.34 51.2981 70.0964 52.2721H69.8258C70.0964 51.244 70.4483 50.1347 70.746 49.1065ZM113.133 46.7526C113.133 46.7797 113.16 46.7797 113.16 46.8068C114.189 48.5654 115.488 50.8382 116.652 52.2721H116.3C115.163 50.8382 113.918 48.6466 112.917 46.942C112.89 46.8879 112.836 46.8068 112.809 46.7526H113.133ZM111.726 46.7526H111.997C112.132 48.6195 111.699 50.7299 111.049 52.2721H110.779C111.401 50.757 111.861 48.5925 111.726 46.7526ZM116.679 46.7526C117.112 47.4832 117.627 48.4572 118.249 49.6747C118.736 50.6217 119.223 51.5416 119.63 52.2721H119.305C118.899 51.5687 118.466 50.7029 117.978 49.81C117.491 48.863 116.869 47.6996 116.327 46.7526H116.679ZM115.353 46.7526C115.705 48.1866 116.652 49.9994 117.356 51.4063C117.518 51.731 117.654 52.0016 117.789 52.2451H117.491C117.383 52.0016 117.248 51.7581 117.112 51.5146C116.381 50.0806 115.434 48.1866 115.082 46.7256H115.353V46.7526ZM124.258 49.9453C125.395 48.5654 126.478 47.2397 127.398 46.7526H128.643C129.509 47.3208 129.022 48.4301 128.535 49.5936C128.156 50.4594 127.75 51.4063 127.804 52.2721H127.533C127.479 51.3522 127.912 50.3782 128.291 49.4853C128.887 48.1325 129.211 47.2667 128.318 46.8609C127.452 46.4821 125.936 48.3219 124.475 50.1076C123.825 50.8923 123.202 51.6498 122.634 52.2451H122.255C122.878 51.6228 123.554 50.784 124.258 49.9453ZM131.918 47.4561C132.026 47.1855 132.108 46.942 132.189 46.7526H132.486C132.405 46.9691 132.27 47.2667 132.162 47.5643C131.458 49.323 130.754 51.0817 130.05 52.2721H129.726C130.592 50.8923 131.431 48.7278 131.918 47.4561ZM133.244 46.7526C133.407 47.3749 133.569 48.376 133.759 49.8371C133.894 50.7299 134.002 51.6769 134.138 52.2721H133.867C133.732 51.6769 133.623 50.784 133.488 49.8641C133.353 48.863 133.163 47.4832 132.974 46.7526H133.244ZM135.383 46.7526H135.653C135.437 48.5384 135.112 51.0005 134.733 52.2721H134.462C134.76 51.244 135.112 48.9713 135.383 46.7526Z" fill="#BDD3DE"/>
<path opacity="0.42" d="M142.61 52.2726H143.07C144.423 51.2444 146.534 49.5399 147.13 48.3223C147.644 47.3483 148.267 47.0778 148.537 47.213C148.781 47.3213 148.808 47.7271 148.592 48.2141C148.131 49.3234 148.51 51.2174 148.781 52.2726H149.052C148.781 51.2715 148.375 49.3775 148.808 48.3223C149.133 47.5377 148.916 47.1048 148.619 46.9695C148.159 46.7531 147.428 47.1319 146.859 48.2141C146.237 49.4317 143.882 51.2985 142.61 52.2726Z" fill="#BDD3DE"/>
<path opacity="0.42" d="M162.477 52.2721H162.801C163.397 51.3522 164.94 48.8089 165.102 47.6185C165.156 47.2667 165.292 47.0232 165.508 46.942C165.995 46.7526 166.807 47.2397 167.376 47.6996C167.944 48.1596 168.513 49.0524 168.458 49.81C168.431 50.1347 168.296 50.3782 168.025 50.5405C167.213 51.0275 166.889 51.8663 166.753 52.2721H167.051C167.186 51.8663 167.511 51.1628 168.161 50.757C168.486 50.5405 168.702 50.2159 168.729 49.81C168.783 48.9983 168.161 47.9972 167.565 47.4832C167.376 47.3208 166.889 46.942 166.347 46.7256H165.292C165.048 46.8609 164.913 47.1585 164.831 47.5643C164.642 48.7548 162.937 51.5146 162.477 52.2721Z" fill="#BDD3DE"/>
<path opacity="0.42" d="M105.013 52.2724H105.284C105.663 51.2172 106.556 48.6739 106.935 47.754C107.043 47.5105 107.179 47.5105 107.233 47.5105C107.531 47.5105 107.91 47.9164 108.153 48.4034C108.262 48.6739 108.478 49.3233 108.045 49.7832C107.395 50.4867 107.206 51.5419 107.179 52.2454H107.449C107.504 51.569 107.666 50.5679 108.262 49.9456C108.64 49.5397 108.695 48.9174 108.397 48.2681C108.18 47.754 107.693 47.2129 107.233 47.2129C107.098 47.2129 106.854 47.267 106.692 47.6187C106.286 48.5928 105.365 51.2713 105.013 52.2724Z" fill="#BDD3DE"/>
<path opacity="0.42" d="M73.0466 52.2726H73.3714C73.9669 51.3526 75.3744 49.2693 76.2135 48.3223C76.2947 48.2412 76.4029 48.1871 76.5653 48.1871C77.8104 48.1871 80.5984 51.1091 81.654 52.2726H82.0059C81.1126 51.2715 77.9999 47.9436 76.5383 47.9165C76.3217 47.9165 76.1323 47.9977 75.9969 48.133C75.1308 49.1611 73.5879 51.4609 73.0466 52.2726Z" fill="#BDD3DE"/>
<path opacity="0.42" d="M75.1583 52.2722H75.4831C75.7267 51.9205 76.0786 51.5146 76.5387 51.1088C77.2154 50.5136 78.6771 51.5146 79.5432 52.2722H79.9492C79.2455 51.5958 77.3508 50.0265 76.3763 50.8923C75.8079 51.3794 75.4019 51.8664 75.1583 52.2722Z" fill="#BDD3DE"/>
<path opacity="0.42" d="M33.6909 46.7528C33.9345 47.781 34.4759 49.4585 35.5585 50.8925C35.8022 51.2171 36.0728 51.3795 36.3706 51.3795C36.4247 51.3795 36.4788 51.3795 36.533 51.3524C37.1826 51.2171 37.8322 50.2161 38.4818 48.3762C38.6983 47.781 38.8608 47.1857 38.9961 46.6987H38.7254C38.2382 48.4033 37.372 50.8925 36.4788 51.0819C36.2352 51.136 36.0187 51.0007 35.8021 50.7031C34.7465 49.2961 34.2323 47.7269 33.9886 46.6987H33.6909V46.7528Z" fill="#BDD3DE"/>
<path opacity="0.42" d="M35.234 46.7529C35.4235 47.1588 35.7483 47.7811 36.2355 48.5657C36.3979 48.8092 36.5603 48.9445 36.7227 48.9445C36.7498 48.9445 36.7768 48.9445 36.8039 48.9445C37.2641 48.8363 37.5077 47.5917 37.5889 46.78H37.3182C37.2099 47.727 36.9663 48.6469 36.7227 48.701C36.6686 48.728 36.5603 48.6198 36.452 48.4575C36.019 47.754 35.6941 47.1858 35.5317 46.78H35.234V46.7529Z" fill="#BDD3DE"/>
<path d="M115.434 36.9582C115.759 33.7114 119.386 33.1162 121.119 28.6249C122.391 25.324 121.768 22.0231 121.119 19.8315H127.723C127.073 22.0231 126.451 25.324 127.723 28.6249C129.428 33.1162 133.082 33.7114 133.407 36.9582C133.705 39.9073 131.161 44.3175 126.884 45.5892V46.8879H121.985V45.5892C117.708 44.3175 115.164 39.9344 115.434 36.9582Z" fill="#EEEDEE"/>
<path d="M101.982 9.46899H103.038V6.87158H108.316V9.46899H109.398C111.185 9.46899 112.646 10.93 112.646 12.7158V43.4247C112.646 45.2104 111.185 46.6715 109.398 46.6715H101.982C100.196 46.6715 98.7339 45.2104 98.7339 43.4247V12.7158C98.7339 10.93 100.196 9.46899 101.982 9.46899Z" fill="#EBDEDE"/>
<path d="M137.981 0H166.51V46.8345H137.981V0Z" fill="#EBDEDE"/>
<path d="M139.768 2.00244H164.751V44.8056H139.768V2.00244Z" fill="white"/>
<path opacity="0.42" d="M145.126 23.4307C141.743 27.4891 142.961 34.172 147.806 38.2305C152.678 42.2889 159.472 42.2889 162.855 38.2575C156.955 33.3062 151.027 28.3549 145.126 23.4307Z" fill="#BDD3DE"/>
<path d="M158.823 19.3721C162.477 17.6676 163.993 13.0951 162.206 9.22602C160.393 5.35696 155.9 3.5983 152.246 5.30285C154.438 9.98359 156.631 14.6643 158.823 19.3721Z" fill="#EEEDEE"/>
<path d="M158.768 29.7887C159.607 29.7887 160.528 29.6805 161.529 29.464C161.746 29.4099 161.881 29.1935 161.854 28.977C161.8 28.7606 161.583 28.6253 161.367 28.6523C158.579 29.2205 156.603 28.977 155.493 27.8948C154.573 27.0019 154.573 25.8114 154.6 24.4316C154.627 22.9705 154.627 21.293 153.436 19.7238C152.407 18.3709 151.162 17.938 149.944 17.5051C148.78 17.0993 147.671 16.6934 146.886 15.4488C146.155 14.2313 145.965 12.662 146.399 10.741C146.453 10.5246 146.317 10.3081 146.074 10.254C145.857 10.1999 145.641 10.3352 145.587 10.5787C145.126 12.7162 145.343 14.4748 146.182 15.8818C147.102 17.3698 148.402 17.8298 149.647 18.2627C150.811 18.6686 151.893 19.0473 152.759 20.2108C153.788 21.5636 153.761 22.9976 153.761 24.4045C153.734 25.8385 153.734 27.2995 154.898 28.4359C155.791 29.3558 157.09 29.7887 158.768 29.7887Z" fill="#EBDEDE"/>
<path d="M143.503 43.2904C142.89 43.2904 142.393 42.7937 142.393 42.1811C142.393 41.5684 142.89 41.0718 143.503 41.0718C144.115 41.0718 144.612 41.5684 144.612 42.1811C144.612 42.7937 144.115 43.2904 143.503 43.2904Z" fill="#EEEDEE"/>
<path d="M142.42 17.5322C142.001 17.5322 141.662 17.1931 141.662 16.7747C141.662 16.3563 142.001 16.0171 142.42 16.0171C142.838 16.0171 143.178 16.3563 143.178 16.7747C143.178 17.1931 142.838 17.5322 142.42 17.5322Z" fill="#EEEDEE"/>
<path d="M61.0284 11.3637C61.0555 11.3637 61.0555 11.3637 61.0826 11.3637C61.1367 11.3366 61.1367 11.2825 61.1096 11.2284C60.839 10.7414 60.8931 10.6061 60.9202 10.579C60.9472 10.552 60.9743 10.552 61.0014 10.5249C61.0555 10.4979 61.1638 10.4438 61.1908 10.3355C61.2179 10.2273 61.2179 10.1191 61.1367 9.98379C61.1096 9.92968 61.0555 9.92968 61.0014 9.95674C60.9472 9.98379 60.9472 10.0379 60.9743 10.092C61.0284 10.1732 61.0284 10.2273 61.0284 10.2544C61.0284 10.2814 61.0014 10.3085 60.9472 10.3355C60.8931 10.3626 60.839 10.3896 60.8119 10.4437C60.6766 10.6061 60.7307 10.8767 60.9743 11.3096C60.9743 11.3637 61.0014 11.3637 61.0284 11.3637Z" fill="#EBDEDE"/>
<path d="M60.2163 31.1958H62.084V10.8765C62.0028 10.8765 61.8674 10.8765 61.7592 10.9306C61.5697 11.0388 61.5426 11.2282 61.4344 11.2282C61.272 11.2282 61.2449 10.9306 61.0284 10.9035C60.893 10.8765 60.8389 11.0388 60.6494 11.0659C60.487 11.0929 60.3246 10.9847 60.2434 10.9035C60.2163 17.6406 60.2163 24.4046 60.2163 31.1958Z" fill="#EEEDEE"/>
<path opacity="0.42" d="M60.2163 31.1958H62.084V10.8765C62.0028 10.8765 61.8674 10.8765 61.7592 10.9306C61.5697 11.0388 61.5426 11.2282 61.4344 11.2282C61.272 11.2282 61.2449 10.9306 61.0284 10.9035C60.893 10.8765 60.8389 11.0388 60.6494 11.0659C60.487 11.0929 60.3246 10.9847 60.2434 10.9035C60.2163 17.6406 60.2163 24.4046 60.2163 31.1958Z" fill="#BDD3DE"/>
<path d="M59.7297 26.6236C59.486 26.4883 59.3236 26.2177 59.3236 25.9201C59.3236 25.4601 59.7026 25.1084 60.1357 25.1084H62.1116C62.5717 25.1084 62.9236 25.4872 62.9236 25.9201C62.9236 26.2177 62.7612 26.4612 62.5176 26.6236L65.5762 46.6994H61.1101H56.644L59.7297 26.6236Z" fill="#EEEDEE"/>
<path d="M50.8786 15.5302C50.9327 15.5302 50.9598 15.5032 50.9869 15.449C51.0139 15.2596 51.041 15.0703 51.041 14.8809C51.041 14.7185 51.0139 14.6373 50.9869 14.5562C50.9598 14.448 50.9057 14.3938 50.8515 14.3668C50.8245 14.3397 50.7974 14.3127 50.7974 14.2856C50.7703 14.2044 50.7974 14.0962 50.8515 13.9609C50.8786 13.9068 50.8515 13.8527 50.8245 13.8257C50.7703 13.7986 50.7162 13.8257 50.6891 13.8527C50.5809 14.0421 50.5538 14.2045 50.6079 14.3397C50.635 14.4209 50.6891 14.448 50.7162 14.5021C50.7433 14.5291 50.7703 14.5832 50.7974 14.6374C50.8245 14.6644 50.8245 14.7185 50.8245 14.8809C50.8245 15.0703 50.7974 15.2326 50.7703 15.422C50.7703 15.4761 50.7974 15.5302 50.8786 15.5302Z" fill="#EBDEDE"/>
<path d="M50.0124 32.4405H51.6094V15.1244C51.6094 14.9892 51.5011 14.8809 51.3928 14.8539C51.3116 14.8268 51.2034 14.8539 51.1222 14.908C51.041 15.0162 51.1222 15.1515 51.041 15.2056C50.9598 15.2597 50.7973 15.2056 50.6891 15.1515C50.5267 15.0433 50.4725 14.908 50.4184 14.935C50.3643 14.935 50.3643 15.0162 50.3101 15.0703C50.2289 15.1515 50.1207 15.1515 50.0124 15.1244C50.0124 20.8874 50.0124 26.6504 50.0124 32.4405Z" fill="#EEEDEE"/>
<path opacity="0.42" d="M50.0124 32.4405H51.6094V15.1244C51.6094 14.9892 51.5011 14.8809 51.3928 14.8539C51.3116 14.8268 51.2034 14.8539 51.1222 14.908C51.041 15.0162 51.1222 15.1515 51.041 15.2056C50.9598 15.2597 50.7973 15.2056 50.6891 15.1515C50.5267 15.0433 50.4725 14.908 50.4184 14.935C50.3643 14.935 50.3643 15.0162 50.3101 15.0703C50.2289 15.1515 50.1207 15.1515 50.0124 15.1244C50.0124 20.8874 50.0124 26.6504 50.0124 32.4405Z" fill="#BDD3DE"/>
<path d="M49.6603 30.2758C49.4708 30.1676 49.3355 29.9512 49.3355 29.7077C49.3355 29.3289 49.6332 29.0312 50.0121 29.0312H51.6091C51.9881 29.0312 52.2858 29.3289 52.2858 29.7077C52.2858 29.9512 52.1505 30.1676 51.961 30.2758L54.4512 46.672H50.7971H47.143L49.6603 30.2758Z" fill="#EEEDEE"/>
<path d="M42.6234 13.2574C42.6775 13.2574 42.7046 13.2304 42.7317 13.1763C42.7587 13.041 42.7587 12.9057 42.7317 12.7704C42.7046 12.6622 42.6504 12.6081 42.6234 12.554C42.5963 12.4999 42.5692 12.4458 42.5422 12.3646C42.5151 12.2564 42.5422 12.1752 42.5422 12.067C42.5692 11.9317 42.5963 11.8235 42.6505 11.7152C42.6775 11.6611 42.6505 11.607 42.5963 11.5799C42.5422 11.5529 42.488 11.58 42.461 11.6341C42.4068 11.7693 42.3527 11.9046 42.3527 12.0399C42.3256 12.1752 42.3256 12.2834 42.3527 12.4187C42.3798 12.5269 42.4339 12.6081 42.461 12.6622C42.488 12.7163 42.5151 12.7434 42.5422 12.8245C42.5692 12.9057 42.5692 13.0139 42.5422 13.1222C42.5151 13.1763 42.5422 13.2304 42.6234 13.2574Z" fill="#EBDEDE"/>
<path d="M41.7575 30.1675H43.3545V12.8514C43.2462 12.6079 43.165 12.5809 43.138 12.5809C43.0297 12.6079 43.0297 12.8785 42.9485 12.8785C42.8673 12.8785 42.8943 12.4727 42.759 12.4185C42.6778 12.3915 42.6237 12.5538 42.4342 12.6079C42.3259 12.635 42.2718 12.5809 42.1906 12.6621C42.1094 12.7162 42.1094 12.7973 42.0823 12.7973C42.0553 12.7973 42.0553 12.6891 42.0282 12.6621C42.0011 12.6621 41.947 12.6891 41.8117 12.8514C41.7575 18.6144 41.7575 24.3774 41.7575 30.1675Z" fill="#EEEDEE"/>
<path opacity="0.42" d="M41.7575 30.1675H43.3545V12.8514C43.2462 12.6079 43.165 12.5809 43.138 12.5809C43.0297 12.6079 43.0297 12.8785 42.9485 12.8785C42.8673 12.8785 42.8943 12.4727 42.759 12.4185C42.6778 12.3915 42.6237 12.5538 42.4342 12.6079C42.3259 12.635 42.2718 12.5809 42.1906 12.6621C42.1094 12.7162 42.1094 12.7973 42.0823 12.7973C42.0553 12.7973 42.0553 12.6891 42.0282 12.6621C42.0011 12.6621 41.947 12.6891 41.8117 12.8514C41.7575 18.6144 41.7575 24.3774 41.7575 30.1675Z" fill="#BDD3DE"/>
<path d="M41.4054 30.2758C41.2159 30.1676 41.0806 29.9512 41.0806 29.7077C41.0806 29.3289 41.3783 29.0312 41.7573 29.0312H43.3542C43.7332 29.0312 44.0309 29.3289 44.0309 29.7077C44.0309 29.9512 43.8956 30.1676 43.7061 30.2758L46.1963 46.672H42.5422H38.8881L41.4054 30.2758Z" fill="#EEEDEE"/>
<path d="M3.01704 121.481C7.39721 123.837 12.4865 127.548 13.1331 132.761C13.4877 135.638 12.1528 136.138 12.0277 139.829C11.8608 144.895 14.2386 147.752 15.8864 151.046C14.8226 146.709 13.7589 145.708 13.5294 142.08C13.0914 134.971 16.8876 134.033 16.0324 128.507C15.1564 122.774 10.7762 121.94 9.83758 115.852C9.25356 112.12 10.3382 108.825 11.3394 106.636C18.3059 110.91 21.7058 116.102 23.1867 118.812C31.5298 133.949 24.4173 151.213 19.62 156.696C18.8691 157.551 14.5306 158.009 14.5932 157.884C16.2827 154.882 2.12015 144.103 0.222073 133.887C-0.257662 131.239 -0.215942 127.131 3.01704 121.481Z" fill="#EEEDEE"/>
<path d="M12.1549 161.366L9.56851 154.923H17.1608H24.7531L22.1667 161.366C26.526 163.284 29.5713 167.642 29.5713 172.729C29.5713 177.816 26.5052 182.174 22.125 184.092V187.136H12.1758V184.092C7.79559 182.174 4.72947 177.795 4.72947 172.729C4.75032 167.662 7.79559 163.305 12.1549 161.366Z" fill="#EBDEDE"/>
<path d="M178.279 189.735C178.279 189.913 178.279 190.071 178.259 190.249C178.16 192.463 177.389 194.518 176.164 196.197C175.946 196.514 175.689 196.81 175.432 197.087C173.949 198.707 171.992 199.893 169.778 200.406C169.323 200.505 168.849 200.584 168.375 200.644C168.019 200.683 167.663 200.703 167.287 200.703C163.393 200.703 159.973 198.668 158.016 195.605C157.838 195.308 157.66 195.012 157.502 194.715C156.731 193.213 156.315 191.534 156.315 189.735C156.315 185.092 159.202 181.12 163.294 179.519C163.61 179.4 163.946 179.282 164.282 179.183C165.231 178.906 166.24 178.768 167.287 178.768C169.62 178.768 171.775 179.499 173.554 180.724C173.949 181.001 174.305 181.297 174.661 181.614C176.757 183.511 178.101 186.218 178.239 189.222C178.279 189.4 178.279 189.577 178.279 189.735Z" fill="#EBDEDE"/>
<path d="M164.718 185.191L162.899 186.574C162.701 186.732 162.405 186.693 162.266 186.495L162.207 186.416C162.049 186.218 162.088 185.922 162.286 185.784L164.105 184.4C164.302 184.242 164.599 184.282 164.737 184.479L164.797 184.558C164.955 184.736 164.915 185.033 164.718 185.191Z" fill="white"/>
<path d="M164.263 196.652L162.444 198.035C162.246 198.193 161.95 198.154 161.811 197.956L161.752 197.877C161.594 197.679 161.633 197.383 161.831 197.245L163.65 195.861C163.847 195.703 164.144 195.743 164.282 195.94L164.342 196.019C164.5 196.197 164.46 196.494 164.263 196.652Z" fill="white"/>
<path d="M158.371 195.11C158.371 195.268 158.312 195.407 158.174 195.505L158.055 195.604C157.877 195.308 157.699 195.011 157.541 194.715L157.561 194.695C157.778 194.537 158.095 194.577 158.272 194.794C158.332 194.893 158.371 194.992 158.371 195.11Z" fill="white"/>
<path d="M164.025 181.396C164.005 181.396 163.985 181.396 163.985 181.396C163.728 181.396 163.511 181.198 163.471 180.941L163.333 179.519C163.649 179.4 163.985 179.281 164.321 179.183L164.48 180.823C164.499 181.119 164.302 181.376 164.025 181.396Z" fill="white"/>
<path d="M171.518 190.447L169.68 189.103C169.482 188.945 169.443 188.668 169.581 188.471L169.64 188.392C169.798 188.194 170.075 188.155 170.273 188.293L172.111 189.637C172.309 189.795 172.349 190.071 172.21 190.269L172.151 190.348C172.013 190.565 171.736 190.605 171.518 190.447Z" fill="white"/>
<path d="M169.778 200.426C169.324 200.525 168.849 200.604 168.375 200.664L168.118 200.486C167.9 200.328 167.841 200.011 168.019 199.774C168.118 199.636 168.276 199.577 168.434 199.577C168.533 199.577 168.651 199.616 168.73 199.675L169.778 200.426Z" fill="white"/>
<path d="M170.944 185.408L169.106 184.064C168.908 183.906 168.868 183.629 169.007 183.432L169.066 183.353C169.224 183.155 169.501 183.115 169.699 183.254L171.537 184.598C171.735 184.756 171.774 185.032 171.636 185.23L171.577 185.309C171.438 185.507 171.162 185.546 170.944 185.408Z" fill="white"/>
<path d="M178.279 189.735C178.279 189.913 178.279 190.071 178.259 190.249L177.231 190.348C176.954 190.368 176.698 190.17 176.678 189.894C176.678 189.874 176.678 189.854 176.678 189.834C176.678 189.577 176.875 189.36 177.132 189.34L178.259 189.222C178.279 189.4 178.279 189.577 178.279 189.735Z" fill="white"/>
<path d="M174.681 181.614L173.831 181.693C173.554 181.713 173.297 181.515 173.277 181.238C173.277 181.219 173.277 181.199 173.277 181.179C173.277 180.982 173.396 180.804 173.574 180.725C173.969 181.001 174.325 181.298 174.681 181.614Z" fill="white"/>
<path d="M170.51 195.861L168.236 196.079C167.979 196.099 167.762 195.921 167.742 195.664L167.722 195.565C167.702 195.308 167.88 195.091 168.137 195.071L170.411 194.854C170.668 194.834 170.885 195.012 170.905 195.269L170.925 195.367C170.925 195.604 170.747 195.842 170.51 195.861Z" fill="white"/>
<path d="M164.698 191.949L163.847 189.834C163.749 189.597 163.867 189.34 164.104 189.241L164.203 189.202C164.441 189.103 164.698 189.222 164.796 189.459L165.646 191.573C165.745 191.81 165.627 192.067 165.389 192.166L165.291 192.206C165.053 192.285 164.796 192.166 164.698 191.949Z" fill="white"/>
<path d="M176.163 196.197C175.946 196.514 175.689 196.81 175.432 197.087L174.898 195.743C174.799 195.486 174.918 195.19 175.175 195.091C175.234 195.071 175.293 195.051 175.372 195.051C175.57 195.051 175.768 195.17 175.847 195.367L176.163 196.197Z" fill="white"/>
<path d="M159.558 189.755L157.285 189.973C157.028 189.993 156.811 189.815 156.791 189.558L156.771 189.459C156.751 189.202 156.929 188.985 157.186 188.965L159.46 188.748C159.717 188.728 159.934 188.906 159.954 189.163L159.974 189.261C159.993 189.518 159.796 189.736 159.558 189.755Z" fill="white"/>
<path d="M143.321 78.4183C142.857 77.9543 142.366 77.4903 141.847 76.9716C137.314 72.5771 130.378 66.381 120.22 62.6142C118.336 61.9318 116.342 61.304 114.24 60.7854C86.9332 54.2345 64.2415 71.9493 60.282 75.0337C59.2717 75.8252 58.316 76.6168 57.3875 77.4357C32.2655 99.354 32.0197 131.535 32.0471 135.111C32.1017 140.434 33.0028 174.826 61.4016 194.615C66.781 198.382 72.6792 201.276 78.8505 203.295C102.061 210.965 129.013 206.489 146.68 190.412C165.521 173.27 166.887 149.141 167.351 140.952C167.542 137.732 168.935 103.53 143.321 78.4183ZM84.8033 108.798C84.2845 108.634 83.7657 108.498 83.2468 108.334C83.3288 108.198 83.3834 108.061 83.438 107.925C84.066 106.669 84.7214 105.441 85.131 104.267C85.0218 105.796 84.9125 107.297 84.8033 108.798Z" fill="#336859"/>
<path opacity="0.42" d="M41.577 136.257C41.8227 150.014 70.167 160.032 81.8269 163.089C98.2108 167.402 111.646 165.464 122.35 163.935C133.109 162.379 138.543 161.533 141.929 157.794C149.547 149.305 132.617 133.91 138.57 111.145C139.471 107.679 139.416 104.731 138.816 102.193C137.177 95.3413 131.88 91.0832 129.613 89.3363C115.523 78.3635 76.6386 71.6488 64.7603 88.4902C60.6097 94.386 64.023 97.1155 59.4628 108.607C52.4996 126.076 41.4132 127.632 41.577 136.257Z" fill="#0D2A28"/>
<path opacity="0.2" d="M167.351 141.007C166.887 149.195 165.522 173.325 146.68 190.466C129.013 206.543 102.089 211.02 78.8508 203.35C66.3444 194.26 64.8152 189.211 65.6071 186.29C67.5459 179.302 84.1756 180.312 113.121 174.553C139.526 169.285 152.715 166.664 159.241 158.912C176.39 138.495 149.52 90.1823 141.82 76.9985C142.339 77.5172 142.83 77.9812 143.294 78.4452C168.935 103.53 167.542 137.731 167.351 141.007Z" fill="url(#paint0_linear)"/>
<path d="M143.293 113.22C127.811 109.617 122.459 111.446 120.684 114.203C120.137 116.796 119.646 119.607 119.236 122.583C119.154 123.129 119.1 123.702 119.018 124.248C118.472 128.779 118.226 132.982 118.171 136.831C110.99 138.687 103.835 140.543 96.6538 142.427C93.3497 143.082 86.9054 143.791 79.8876 141.034C77.4027 140.052 75.3547 138.851 73.7436 137.677C70.4668 132.136 70.6306 129.243 71.5045 127.605C73.6071 123.674 74.5901 122.31 74.5901 122.31C74.7813 122.037 75.382 121.191 75.4366 120.017C75.4366 119.962 75.4366 119.908 75.4366 119.799C75.4366 118.406 75.4366 117.697 75.1635 117.287C74.0713 115.65 69.0469 115.759 52.1987 123.101C51.5161 121.846 50.8607 120.099 51.1338 118.133C51.2976 116.905 51.7891 115.895 54.001 112.674C55.6394 110.3 56.5132 109.153 57.2777 108.061C60.063 104.213 62.2748 101.156 64.2682 98.5353C67.1081 94.7412 69.4838 91.766 72.3783 88.5178C73.6071 87.153 74.7539 85.8701 75.8462 84.7237C86.7142 73.1777 91.3563 71.8402 94.4693 71.4854C96.8176 71.2124 98.811 71.4035 100.067 71.6219C100.067 71.6219 104.245 71.9767 108.505 73.7236C108.505 73.7236 108.641 73.7782 108.833 73.8601C108.833 73.8601 109.215 74.0239 109.57 74.1876C110.444 74.5971 111.481 75.2522 112.601 76.071C120.083 81.5847 131.907 94.9323 131.907 94.9323C133.709 96.9794 135.265 98.6991 136.603 100.337C137.177 101.019 137.696 101.702 138.187 102.357C138.214 102.411 138.269 102.439 138.296 102.493C138.351 102.575 138.406 102.657 138.487 102.739C138.515 102.766 138.515 102.793 138.542 102.793C138.624 102.903 138.706 103.012 138.761 103.094C139.225 103.749 139.744 104.513 140.29 105.414C140.317 105.441 140.344 105.496 140.372 105.523C141.027 106.642 141.655 107.816 142.283 109.153C142.42 109.426 142.529 109.699 142.638 109.945C142.829 110.491 142.993 111.037 143.13 111.664C143.13 112.047 143.239 112.565 143.293 113.22Z" fill="#640042"/>
<path opacity="0.42" d="M120.684 114.176C120.684 114.176 120.684 114.203 120.684 114.176C120.684 114.203 120.684 114.203 120.684 114.176C120.111 116.796 119.62 119.58 119.21 122.555C118.118 119.853 117.025 117.151 115.933 114.449C114.349 109.672 114.431 108.498 114.814 108.307C115.25 108.089 116.315 109.262 118.445 111.664C119.183 112.511 119.947 113.357 120.684 114.176Z" fill="url(#paint1_linear)"/>
<path opacity="0.35" d="M136.548 100.309C134.664 100.009 132.644 99.5176 130.459 98.8079C120.765 95.6962 115.085 83.304 112.546 76.0161C120.028 81.5298 131.852 94.8773 131.852 94.8773C133.681 96.9518 135.21 98.6714 136.548 100.309Z" fill="url(#paint2_linear)"/>
<path opacity="0.31" d="M81.7718 101.428C81.5534 102.165 81.2803 102.82 80.9799 103.284C77.9216 108.416 64.596 107.843 63.6402 104.677C62.548 101.046 77.4028 92.3117 81.4441 93.4308C81.4441 94.5226 81.4714 95.5052 81.526 96.2968C81.6353 97.9891 81.7172 99.6815 81.7718 101.428Z" fill="url(#paint3_linear)"/>
<path d="M113.147 94.632C113.147 94.8231 113.147 95.0415 113.12 95.2326C113.093 95.8331 113.093 96.4608 113.065 97.1159C113.038 97.7164 113.038 98.3442 113.011 98.972C113.011 99.4088 112.983 99.8455 112.983 100.282C112.983 100.719 112.956 101.183 112.956 101.647C112.956 101.702 112.956 101.756 112.956 101.811C112.929 102.411 112.929 103.012 112.902 103.612C112.902 103.694 112.902 103.749 112.902 103.831C112.874 104.431 112.874 105.032 112.847 105.659C112.847 106.096 112.82 106.533 112.792 106.97C112.738 109.126 112.656 111.419 112.574 113.794C112.574 114.203 112.547 114.585 112.519 114.995C112.492 115.622 112.492 116.277 112.465 116.933C112.437 117.342 112.437 117.751 112.41 118.161C112.383 118.925 112.355 119.689 112.328 120.481C112.328 120.754 112.301 121.027 112.301 121.3C112.301 121.518 112.273 121.737 112.273 121.955C112.273 122.255 112.246 122.528 112.246 122.828C112.219 123.402 112.192 124.002 112.192 124.603C112.192 124.903 112.164 125.203 112.164 125.503C112.137 125.913 112.137 126.295 112.11 126.704C112.082 127.168 112.082 127.632 112.055 128.096C112.028 128.724 112 129.379 111.973 130.034C111.973 130.335 111.946 130.635 111.918 130.935C111.891 131.672 111.864 132.436 111.809 133.173C111.7 135.63 111.591 138.196 111.454 140.789C111.482 140.789 111.482 140.762 111.482 140.762C111.482 140.789 110.662 142.017 109.215 143.709C108.587 144.446 107.822 145.293 106.976 146.139C105.611 147.531 104 148.977 102.225 150.233C101.515 150.752 100.75 151.216 99.9855 151.652C98.6475 152.417 97.2275 153.017 95.7803 153.372C95.4799 153.454 95.0976 153.536 94.6607 153.59C94.0327 153.7 93.2954 153.754 92.4216 153.754C90.9197 153.754 89.0356 153.536 86.8237 152.826C86.1138 152.608 85.3765 152.308 84.5846 151.98C82.5639 151.107 80.3248 149.851 77.8672 148.049C78.6045 144.365 79.2598 140.543 79.8332 136.585C79.9698 135.685 80.079 134.784 80.1882 133.91C80.2429 133.364 80.3248 132.819 80.3794 132.3C80.434 131.918 80.4613 131.508 80.5159 131.126C80.5432 130.826 80.5705 130.553 80.6251 130.253C80.7617 129.052 80.8709 127.878 80.9801 126.704C81.0074 126.377 81.0347 126.049 81.062 125.749C81.062 125.585 81.0894 125.421 81.1167 125.23C81.144 124.848 81.1713 124.466 81.1986 124.084C81.3351 122.474 81.4443 120.89 81.5263 119.307C81.5536 119.007 81.5536 118.707 81.5809 118.406C81.5809 118.243 81.6082 118.079 81.6082 117.888C81.6355 117.615 81.6355 117.315 81.6628 117.042C81.7174 116.086 81.7447 115.131 81.772 114.176C81.7993 113.657 81.7993 113.138 81.7993 112.62C81.7993 112.156 81.8266 111.664 81.8266 111.2C81.8266 111.119 81.8266 111.037 81.8266 110.955C81.8266 110.491 81.8266 109.999 81.8539 109.535C81.8539 109.017 81.8539 108.525 81.8539 108.034C81.8539 107.516 81.8539 107.024 81.8539 106.533C81.8539 106.26 81.8539 105.96 81.8539 105.687C81.8539 105.386 81.8539 105.059 81.8539 104.759V104.704C81.8539 104.185 81.8266 103.64 81.8266 103.121C81.8266 102.575 81.7993 102.056 81.772 101.511C81.7174 99.7636 81.6355 98.0713 81.5536 96.379C81.499 95.5874 81.4443 94.6048 81.4716 93.5129C81.4716 93.2673 81.4717 92.9943 81.499 92.7214C81.499 92.5849 81.499 92.4484 81.5263 92.3119C81.5263 92.1754 81.5536 92.039 81.5536 91.9025C81.5536 91.8752 81.5536 91.8752 81.5536 91.8479C81.5536 91.6295 81.5809 91.4112 81.6082 91.1928C81.6082 91.1109 81.6082 91.029 81.6355 90.9472C81.6355 90.8107 81.6628 90.7015 81.6628 90.5923C81.6628 90.4831 81.6901 90.3466 81.6901 90.2102C81.6901 90.1556 81.7174 90.0737 81.7174 90.0191C81.7447 89.8553 81.7447 89.6916 81.772 89.5278C81.8266 89.2002 81.8539 88.9 81.9086 88.5451C81.9359 88.3814 81.9632 88.2176 81.9905 88.0538C82.0178 87.8901 82.0451 87.7263 82.0997 87.5625C82.127 87.3987 82.1543 87.235 82.2089 87.0439C82.2362 86.8801 82.2908 86.7163 82.3182 86.5253C82.3455 86.3615 82.4001 86.1977 82.4274 86.034C82.4274 86.0067 82.4274 86.0067 82.4547 85.9794C82.5093 85.8156 82.5366 85.6518 82.5912 85.488C82.6185 85.3516 82.6731 85.2151 82.7004 85.0786C82.7277 84.9967 82.7551 84.8875 82.7824 84.8057C82.837 84.6692 82.8643 84.5327 82.9189 84.3962C82.9462 84.287 82.9735 84.1779 83.0281 84.096C83.0554 84.0141 83.0827 83.9322 83.11 83.8776C83.1646 83.7411 83.2193 83.5774 83.2739 83.4409C83.3285 83.2498 83.4104 83.086 83.4923 82.9223C83.5743 82.7585 83.6289 82.5674 83.7108 82.4037C83.7927 82.2399 83.8746 82.0488 83.9565 81.885C84.0385 81.7213 84.0931 81.5575 84.175 81.421C84.3115 81.1208 84.4754 80.8205 84.6392 80.5203C84.7757 80.2746 84.9123 80.0562 85.0488 79.8106C85.158 79.6468 85.2673 79.4557 85.3492 79.292C85.5676 78.9371 85.7861 78.6096 86.0318 78.2547C86.2776 77.8999 86.578 77.4904 86.8784 77.1083C87.916 75.7435 89.3086 74.2969 91.4112 73.2323C91.7662 73.0413 92.1212 72.9048 92.4762 72.7683C93.2408 72.4681 93.978 72.277 94.7153 72.1405C96.6541 71.7857 98.5109 71.8949 100.04 72.1678C100.914 72.3316 101.678 72.5227 102.279 72.7137C102.716 72.8502 103.071 72.9867 103.344 73.0959C103.426 73.1232 103.535 73.1777 103.672 73.2323C105.037 73.8328 106.157 74.679 107.031 75.5798C108.041 76.617 108.778 77.7361 109.27 78.6096C109.515 79.019 109.679 79.3738 109.816 79.6468C109.925 79.8925 110.062 80.1108 110.171 80.3565C110.225 80.4657 110.28 80.6021 110.335 80.7113C110.553 81.1753 110.744 81.6667 110.935 82.1307C110.99 82.2399 111.017 82.3764 111.072 82.4855C111.208 82.8404 111.318 83.1952 111.454 83.5501C111.563 83.8503 111.645 84.1779 111.727 84.4781C111.755 84.5873 111.782 84.6965 111.809 84.7784C111.837 84.8603 111.864 84.9967 111.891 85.1059C111.918 85.1605 111.918 85.2424 111.946 85.297C111.946 85.3243 111.946 85.3243 111.946 85.3516C112.028 85.6518 112.11 85.9521 112.164 86.2523C112.164 86.3069 112.192 86.3615 112.192 86.3888C112.192 86.4434 112.219 86.4707 112.219 86.5253C112.301 86.9074 112.383 87.2896 112.465 87.6444C112.492 87.7809 112.519 87.89 112.547 88.0265C112.574 88.163 112.601 88.2722 112.601 88.3814C112.601 88.436 112.628 88.4906 112.628 88.5451C112.71 88.9546 112.765 89.364 112.82 89.7461C112.847 89.9372 112.874 90.101 112.874 90.2921C112.901 90.4285 112.901 90.565 112.929 90.7015C112.983 91.0836 113.011 91.4385 113.038 91.766C113.038 91.9025 113.065 92.039 113.065 92.1482C113.093 92.5849 113.12 92.967 113.12 93.3219C113.12 93.3765 113.12 93.4038 113.12 93.4583C113.12 93.5948 113.12 93.7313 113.12 93.8405C113.12 93.8678 113.12 93.9224 113.12 93.9497C113.12 94.0315 113.12 94.0861 113.12 94.168C113.147 94.441 113.147 94.632 113.147 94.632Z" fill="white"/>
<path d="M86.8505 76.9985V152.771C86.1405 152.553 85.4032 152.252 84.6113 151.925V80.4105C84.7479 80.1648 84.8844 79.9464 85.0209 79.7008C85.1302 79.537 85.2394 79.346 85.3213 79.1822C85.5398 78.8273 85.7582 78.4998 86.004 78.1449C86.277 77.7901 86.5501 77.3807 86.8505 76.9985Z" fill="#19233D"/>
<path d="M94.6874 72.0039V153.536C94.0593 153.645 93.3221 153.699 92.4482 153.699V72.659C93.2128 72.3587 93.9501 72.1404 94.6874 72.0039Z" fill="#FC860A"/>
<path d="M102.224 72.6044V150.178C101.515 150.697 100.75 151.161 99.9854 151.598V72.0312C100.859 72.195 101.624 72.4134 102.224 72.6044Z" fill="#19233D"/>
<path d="M109.215 78.5005V143.655C108.587 144.392 107.822 145.238 106.976 146.084V75.4434C108.013 76.5079 108.723 77.627 109.215 78.5005Z" fill="#FC860A"/>
<path d="M111.453 140.734C111.481 140.734 111.481 140.707 111.481 140.707C111.481 140.816 104.272 151.188 95.8067 153.317C93.3764 153.918 87.1232 154.764 77.9209 148.022C78.6582 144.337 79.3135 140.516 79.887 136.558C80.0235 135.657 80.1327 134.756 80.242 133.883C84.3652 135.111 90.1269 136.176 96.9263 135.439C103.207 134.756 108.258 132.791 111.918 130.88C111.781 134.019 111.617 137.322 111.453 140.734Z" fill="#271C41"/>
<path d="M85.3767 101.019C85.3221 100.801 85.2128 100.61 85.1036 100.419C84.8852 100.009 84.3117 98.9994 83.1375 98.3443C82.4822 97.9621 81.6903 97.7984 80.8438 97.8257C78.3043 97.853 75.0275 99.4634 71.7234 101.784C68.3101 104.158 64.8968 107.297 62.2753 110.245C61.4834 111.119 60.6369 112.074 59.7904 113.084C59.0259 113.985 58.2613 114.94 57.5513 115.923C56.6229 117.206 55.831 118.543 55.2302 119.88C54.6295 121.218 54.2472 122.61 54.2199 123.948C54.1926 124.794 54.3018 125.667 54.5749 126.486C55.0118 127.823 55.8856 129.188 57.0871 130.253C57.6878 130.799 58.3705 131.29 59.1351 131.645C62.1388 133.146 65.4975 132.6 66.9174 131.809C66.9994 131.754 67.4363 131.508 68.0097 131.154C68.0097 131.154 69.1293 130.417 70.2215 129.434C71.2046 128.588 73.2799 126.24 75.6555 122.774C75.8467 122.501 76.0378 122.228 76.229 121.928C76.3382 121.764 76.4474 121.573 76.5567 121.409L78.0039 118.898C80.2977 114.176 82.018 110.736 83.2195 108.362C83.3014 108.225 83.356 108.089 83.4106 107.952C84.0387 106.697 84.694 105.468 85.1036 104.295C85.5405 103.121 85.7044 102.029 85.3767 101.019Z" fill="#640042"/>
<path d="M143.321 115.295C143.239 116.496 143.048 119.143 141.081 121.436C138.023 125.012 133.081 124.794 132.48 124.684C132.016 124.602 131.579 124.493 131.579 124.493C131.306 124.411 131.06 124.33 130.842 124.22C130.76 124.193 130.678 124.138 130.596 124.111C129.695 123.702 128.903 123.101 127.947 122.173C126.309 120.617 124.288 118.133 120.738 114.23C120.711 114.203 120.711 114.176 120.683 114.176C115.523 108.525 111.836 104.922 109.652 102.138C107.74 99.6817 107.003 97.8529 107.576 95.8057C107.713 95.3144 108.013 94.168 108.996 93.3218C113.584 89.3367 126.281 97.0613 128.247 98.2623C128.985 98.699 129.067 98.7809 129.613 99.163C129.613 99.163 130.159 99.5725 131.606 100.501C132.862 101.292 135.729 101.592 138.187 102.329C138.214 102.384 138.269 102.411 138.296 102.466C138.351 102.548 138.405 102.63 138.487 102.711C138.515 102.739 138.515 102.766 138.542 102.766C138.624 102.875 138.706 102.984 138.76 103.066C139.225 103.721 139.743 104.486 140.29 105.386C140.317 105.414 140.344 105.468 140.372 105.496C141.327 107.079 142.092 108.389 142.638 109.917C142.747 110.218 142.829 110.491 142.911 110.818C142.993 111.091 143.048 111.364 143.102 111.637C143.184 111.992 143.293 112.538 143.348 113.166C143.348 113.821 143.375 114.503 143.321 115.295Z" fill="#640042"/>
<path opacity="0.22" d="M127.947 122.201C126.308 120.645 124.288 118.161 120.738 114.258C120.711 114.231 120.711 114.203 120.683 114.203C115.522 108.553 111.836 104.95 109.651 102.166C115.604 105.032 127.728 112.156 127.947 120.918C127.974 121.355 127.974 121.792 127.947 122.201Z" fill="url(#paint4_linear)"/>
<path opacity="0.31" d="M143.321 115.295C143.239 116.496 143.048 119.144 141.082 121.436C138.023 125.012 133.081 124.794 132.48 124.685C132.016 124.603 131.579 124.493 131.579 124.493C131.306 124.412 131.06 124.33 130.842 124.221C131.934 117.806 139.006 112.947 142.829 110.846C142.911 111.119 142.966 111.392 143.021 111.665C143.102 112.019 143.212 112.565 143.266 113.193C143.348 113.821 143.376 114.503 143.321 115.295Z" fill="url(#paint5_linear)"/>
<path opacity="0.31" d="M76.2564 121.927C76.0652 122.228 75.8741 122.5 75.6829 122.773C73.3073 126.24 71.2319 128.587 70.2489 129.434C69.1293 130.416 68.0371 131.153 68.0371 131.153C67.491 131.535 67.054 131.781 66.9721 131.836C65.5522 132.627 62.1935 133.173 59.1898 131.672C58.4252 131.29 57.7425 130.826 57.1418 130.252C55.9403 129.161 55.0665 127.796 54.6296 126.486C54.3565 125.639 54.2473 124.793 54.2746 123.947C54.3019 122.582 54.6842 121.218 55.2849 119.88C55.8857 118.515 56.7049 117.205 57.606 115.922C62.9581 115.677 71.3685 116.468 76.2564 121.927Z" fill="url(#paint6_linear)"/>
<path opacity="0.09" d="M71.7494 101.729C71.8586 102.548 71.9678 103.531 72.0224 104.704C72.3228 111.201 63.8032 112.675 59.8164 113.002C60.6629 111.992 61.5094 111.037 62.3013 110.163C64.9227 107.243 68.3361 104.131 71.7494 101.729Z" fill="url(#paint7_linear)"/>
<path d="M83.5198 48.8027L81.5537 69.4655C85.6497 70.3935 89.7457 71.3216 93.8417 72.2496C94.3878 66.4629 94.9612 60.7036 95.5074 54.9169L83.5198 48.8027Z" fill="url(#paint8_linear)"/>
<path d="M103.645 76.1801C101.842 79.4283 93.514 79.592 91.6298 76.4531C91.111 75.5796 91.4114 74.9791 91.739 73.7508C91.7663 73.6689 91.7663 73.6143 91.7937 73.5324C91.821 73.4505 91.8483 73.3414 91.8483 73.2595C91.8756 73.2049 91.8756 73.123 91.9029 73.0684C91.9302 72.9865 91.9302 72.9046 91.9575 72.8227C91.9575 72.7682 91.9848 72.6863 91.9848 72.6317C92.094 72.0585 92.1486 71.4034 92.1759 70.6118C92.2032 70.0113 92.1486 69.2743 92.094 68.51C92.094 68.4555 92.094 68.4555 92.094 68.4555C92.0394 67.309 95.4254 66.654 97.4734 65.3165C101.078 62.9691 100.941 58.3015 101.815 58.438C103.099 58.6291 102.88 67.7458 103.317 71.7582C103.699 74.7607 104.164 75.1975 103.645 76.1801Z" fill="url(#paint9_linear)"/>
<path opacity="0.33" d="M98.8936 65.562C98.8936 65.562 98.0471 72.2767 92.1762 73.6688C92.0123 73.6961 91.8758 73.7234 91.7393 73.7507C91.7666 73.6688 91.7666 73.6142 91.7939 73.5323C91.8212 73.4504 91.8485 73.3412 91.8485 73.2594C91.8758 73.2048 91.8758 73.1229 91.9031 73.0683C91.9304 72.9864 91.9304 72.9045 91.9577 72.8226C91.9577 72.768 91.985 72.6861 91.985 72.6316C92.1488 71.84 92.2581 71.1849 92.1762 70.6117C92.2035 70.0112 92.1489 69.2742 92.0942 68.5099C92.9134 68.5372 93.6234 68.4553 94.1149 68.3734C94.743 68.2643 95.5622 68.1278 96.5179 67.6092C97.7467 66.9814 98.484 66.1079 98.8936 65.562Z" fill="#153E5C"/>
<path d="M103.864 52.2964C105.202 58.4106 102.936 66.4628 97.7746 68.6464C97.2831 68.8648 96.027 69.3834 94.4159 69.1923C88.9819 68.6191 85.3501 60.8126 84.6402 54.9441C83.9848 49.6487 85.159 40.996 89.8284 39.5221C94.7709 37.9389 102.226 44.872 103.864 52.2964Z" fill="url(#paint10_linear)"/>
<path d="M91.0031 55.0806C90.9212 55.8994 90.7574 57.155 90.4843 58.6836C90.1566 60.5397 89.8836 61.4131 90.2932 61.7407C90.457 61.8499 90.9485 62.0955 92.5323 61.0583C92.0135 59.0384 91.522 57.0731 91.0031 55.0806Z" fill="#B47365"/>
<path d="M94.8252 55.8183C95.2173 55.8183 95.5352 55.5006 95.5352 55.1086C95.5352 54.7167 95.2173 54.3989 94.8252 54.3989C94.4331 54.3989 94.1152 54.7167 94.1152 55.1086C94.1152 55.5006 94.4331 55.8183 94.8252 55.8183Z" fill="black"/>
<path d="M87.835 56.6367C88.2271 56.6367 88.5449 56.3189 88.5449 55.927C88.5449 55.535 88.2271 55.2173 87.835 55.2173C87.4429 55.2173 87.125 55.535 87.125 55.927C87.125 56.3189 87.4429 56.6367 87.835 56.6367Z" fill="black"/>
<path d="M92.5594 64.4158C92.4774 64.4158 92.3955 64.3339 92.3955 64.252C92.3955 64.1701 92.4774 64.0883 92.5594 64.0883C92.9143 64.0883 93.8155 64.0064 94.6073 63.324C95.5085 62.5324 95.645 61.4679 95.6723 61.1403C95.6723 61.0584 95.7542 60.9766 95.8634 60.9766C95.9454 60.9766 96.0273 61.0584 96.0273 61.1676C96 61.5225 95.8634 62.6962 94.8531 63.5696C93.9793 64.3339 92.969 64.4158 92.5594 64.4158Z" fill="black"/>
<path d="M89.1987 52.0785C88.598 52.3787 87.9699 52.7063 87.3692 53.0065C86.6592 53.3613 85.9492 53.7162 85.2393 54.0983C85.4304 53.8254 86.0038 53.0338 87.1234 52.5152C88.0245 52.0512 88.8437 52.0512 89.1987 52.0785Z" fill="black"/>
<path d="M93.2119 51.7509C93.8673 51.9147 94.5499 52.0511 95.2053 52.2149C95.9699 52.406 96.7618 52.5698 97.5264 52.7608C97.2806 52.5425 96.516 51.9147 95.3145 51.669C94.3315 51.4779 93.5396 51.6417 93.2119 51.7509Z" fill="black"/>
<path d="M94.6882 37.6388C89.5819 37.5296 85.4586 40.9961 85.4586 40.9961C81.7995 43.9167 80.5434 47.6835 80.1611 49.1029C81.4445 49.5123 83.3014 50.0036 85.5678 50.2493C86.1959 48.0929 86.7966 45.9639 87.4247 43.8075C86.9605 45.9366 86.4963 48.0929 86.032 50.222C87.2062 50.3585 88.6808 50.4131 90.3192 50.3039C90.483 48.3113 90.6196 46.346 90.7834 44.3535C90.7834 46.3187 90.7834 48.2567 90.7834 50.222C90.9745 50.222 91.1657 50.222 91.3295 50.222C93.241 50.1674 94.934 49.7034 96.3539 49.1029C96.1901 48.2294 95.9443 47.1649 95.5074 46.0185C94.9886 44.6537 94.3879 43.5346 93.8417 42.6611C94.3059 43.2889 94.7975 44.0532 95.2344 44.8994C96.0262 46.4006 96.5178 47.7927 96.8181 48.9937C97.5008 48.748 98.1835 48.4751 98.8934 48.2021C99.0846 48.1202 99.2484 48.0657 99.4396 47.9838C100.122 54.0434 100.75 60.0757 101.406 66.1353C101.679 68.8376 101.979 71.5398 102.252 74.2421C106.266 69.8748 110.253 65.4802 114.267 61.1129C110.717 47.2468 102.689 37.8298 94.6882 37.6388Z" fill="url(#paint11_linear)"/>
<path d="M115.196 173.625C114.541 174.69 111.127 173.68 109.271 173.134C104.71 171.824 98.5118 168.985 95.9177 166.146C95.0439 165.191 94.5797 164.208 94.7435 163.307C94.9073 162.379 95.7265 161.533 96.8188 160.905C97.1192 160.742 97.4195 160.578 97.7199 160.469C98.0476 160.332 98.3753 160.223 98.7302 160.114C100.205 159.704 101.761 159.704 102.69 160.359C103.7 161.069 103.509 162.188 104.246 163.526C104.41 163.826 104.656 164.154 104.956 164.481C106.349 165.982 107.605 165.682 109.735 166.774C112.766 168.302 115.087 171.332 115.278 172.915C115.333 173.188 115.305 173.434 115.196 173.625Z" fill="#BDD3DE"/>
<path d="M91.1934 165.055C91.2753 168.876 80.9807 172.043 74.2633 172.807C72.3792 173.025 68.9385 173.435 68.092 172.479C68.0374 172.425 67.9828 172.343 67.9555 172.261C67.4094 170.896 70.7954 167.32 74.8641 166.038C77.8132 165.11 78.5504 165.765 80.2708 164.482C80.6257 164.209 80.9261 163.936 81.1446 163.663C82.3461 162.271 82.2368 160.879 83.766 160.305C84.9402 159.841 86.3328 160.142 87.5616 160.797C88.4354 161.261 89.2546 161.889 89.8281 162.571C90.5107 163.308 91.1934 164.1 91.1934 165.055Z" fill="#BDD3DE"/>
<path opacity="0.36" d="M91.1932 165.055C91.2478 168.876 80.9805 172.042 74.2631 172.807C72.379 173.025 68.9383 173.434 68.1191 172.479C74.8912 171.223 85.9776 164.864 89.8825 162.543C90.647 163.335 91.1932 164.208 91.1932 165.055Z" fill="url(#paint12_linear)"/>
<path opacity="0.36" d="M115.196 173.625C114.541 174.69 111.1 173.68 109.271 173.134C104.711 171.824 98.5121 168.985 95.918 166.146L96.8191 160.933L97.0921 159.377C97.0921 159.377 97.2833 159.786 97.7202 160.496C99.3859 163.116 104.465 169.749 115.278 172.943C115.333 173.188 115.306 173.434 115.196 173.625Z" fill="url(#paint13_linear)"/>
<path d="M87.589 160.769C87.5343 160.987 87.4251 161.206 87.2886 161.451C86.0052 163.553 83.1653 163.772 81.1992 163.662C82.4007 162.27 82.2915 160.878 83.8207 160.305C84.9402 159.841 86.3329 160.141 87.589 160.769Z" fill="#FC860A"/>
<path d="M104.274 163.526C100.396 164.754 99.1128 161.56 98.7305 160.114C100.205 159.704 101.761 159.704 102.69 160.359C103.728 161.069 103.509 162.216 104.274 163.526Z" fill="#FC860A"/>
<path d="M101.951 160.004C101.542 161.26 100.832 162.98 99.5209 164.754C98.729 165.846 97.9098 166.692 97.1725 167.32C94.0869 165.655 91.1924 163.935 88.5163 162.215C88.5163 162.215 88.5163 162.215 88.489 162.215C76.8291 154.791 68.7191 147.094 63.367 141.28C56.7861 134.101 46.1639 122.528 49.6591 115.294C49.8775 114.858 50.1506 114.421 50.451 114.039C51.9528 112.101 54.4651 110.763 56.9226 110.545C57.7418 110.49 59.0252 110.49 61.5101 112.264C64.9235 114.694 70.5213 120.399 80.1059 133.719C82.4816 137.022 84.1746 139.505 85.7584 141.716C86.9052 143.327 87.9975 144.801 89.2263 146.357C90.2093 147.612 91.0831 148.649 91.7112 149.359C91.7112 149.359 92.1754 149.905 92.6942 150.478C94.0323 151.952 97.391 155.473 101.951 160.004Z" fill="#39215A"/>
<path opacity="0.28" d="M99.5219 164.754C98.73 165.6 97.9381 166.473 97.1735 167.319C94.8524 165.982 91.876 164.262 88.5173 162.215C88.5173 162.215 88.5173 162.215 88.49 162.215C76.8301 154.791 68.72 147.093 63.368 141.28C56.7871 134.101 46.1648 122.527 49.6601 115.294C49.8785 114.857 50.1516 114.421 50.452 114.039C53.5649 119.252 57.2513 124.766 61.675 130.389C74.4817 146.629 88.4354 157.575 99.5219 164.754Z" fill="url(#paint14_linear)"/>
<path d="M135.211 137.104C117.38 150.014 93.6508 165.273 88.1349 168.821C87.343 167.92 86.5238 166.828 85.7046 165.573C84.5577 163.744 83.7659 162.052 83.2197 160.578C92.2036 153.508 98.8664 147.012 103.399 142.262C104.41 141.198 105.529 140.024 106.758 138.714C111.072 134.21 116.861 128.505 125.108 122.719C131.307 118.379 135.621 116.277 139.389 117.806C139.881 117.997 140.345 118.27 140.782 118.57C142.748 119.907 144.195 122.2 144.414 124.52C144.96 129.925 138.789 134.51 135.211 137.104Z" fill="#39215A"/>
<path opacity="0.28" d="M135.212 137.104C117.381 150.015 93.6513 165.273 88.1354 168.821C87.3162 167.73 86.5243 166.638 85.7051 165.573C95.945 157.739 106.513 149.223 117.271 139.915C125.573 132.737 133.437 125.613 140.81 118.598C142.776 119.935 144.223 122.228 144.442 124.548C144.96 129.925 138.789 134.511 135.212 137.104Z" fill="url(#paint15_linear)"/>
<path opacity="0.08" d="M125.054 126.759C123.662 132.6 116.535 136.967 106.786 138.687C111.101 134.183 116.89 128.479 125.136 122.692C125.409 124.302 125.327 125.64 125.054 126.759Z" fill="url(#paint16_linear)"/>
<path opacity="0.08" d="M85.8146 141.744C73.9909 145.866 64.8978 122.419 61.5664 112.292C64.9797 114.722 70.5776 120.427 80.1622 133.747C82.5378 137.05 84.2308 139.533 85.8146 141.744Z" fill="url(#paint17_linear)"/>
<path d="M98.1285 99.8998C98.1558 99.8725 98.1558 99.8179 98.1285 99.7633L92.8584 88.7086C92.7218 88.4083 92.0938 88.1354 91.4657 88.1081L85.4583 87.7805C85.0487 87.7533 84.7483 87.8624 84.6664 88.0262C84.6664 88.0535 84.2295 88.7905 84.2295 88.7905L84.9941 88.7632L89.7454 96.9246L90.865 98.8625C90.9742 99.0809 91.493 99.2993 92.0119 99.3539L97.2001 100.009L97.7189 100.664L98.1285 99.8998Z" fill="#BDD3DE"/>
<path d="M97.6652 100.582L92.3951 89.5274C92.2585 89.2272 91.6305 88.9542 91.0024 88.9269L84.995 88.5994C84.5854 88.5721 84.285 88.6813 84.2031 88.845C84.2031 88.8723 84.1758 88.8996 84.1758 88.9269C84.1758 88.9542 84.2031 89.0088 84.2031 89.0361L85.4046 91.1379L86.7426 93.4307L89.2548 97.7434L90.3744 99.6814C90.4836 99.8997 91.0024 100.118 91.5213 100.173L96.8187 100.828C97.2283 100.882 97.5287 100.828 97.6106 100.719C97.6925 100.691 97.6925 100.664 97.6652 100.582Z" fill="url(#paint18_linear)"/>
<path d="M112.848 95.8603C112.712 96.1879 112.52 96.4608 112.275 96.7065C112.22 96.7611 112.138 96.843 112.056 96.8976C111.647 97.2524 111.128 97.4981 110.609 97.58C110.5 97.6073 110.418 97.6073 110.309 97.58C110.254 97.58 110.199 97.58 110.172 97.5527C110.145 97.5527 110.117 97.5254 110.063 97.5254C109.981 97.4981 109.926 97.4981 109.844 97.4708C109.817 97.4708 109.763 97.4435 109.735 97.4162C109.681 97.3889 109.653 97.3889 109.599 97.3616C109.544 97.3343 109.462 97.307 109.38 97.2797C109.298 97.2524 109.244 97.1978 109.162 97.1705C109.08 97.1432 108.998 97.0886 108.916 97.0341C108.588 96.843 108.206 96.6246 107.796 96.3517C107.687 96.2971 107.605 96.2152 107.496 96.1606C107.278 96.0241 107.059 95.8876 106.841 95.7239C104.929 94.4956 104.602 94.1134 104.465 93.5675C104.383 93.1854 104.356 92.6395 104.438 92.1209C104.438 92.039 104.465 91.9844 104.465 91.9298C104.492 91.8206 104.492 91.6841 104.52 91.5749C104.52 91.5476 104.52 91.5476 104.52 91.5203C104.602 91.1109 104.738 90.7834 104.738 90.4558C104.711 90.4558 104.711 90.4558 104.683 90.4831C104.574 90.5104 104.465 90.5377 104.329 90.565C104.247 90.5923 104.165 90.5923 104.11 90.6196C103.7 90.7015 103.264 90.8107 102.854 90.8926C101.243 91.2747 99.8229 91.6022 99.5226 91.6841C99.2222 91.7933 98.9764 91.7933 98.7853 91.7114C98.5122 91.6022 98.1845 91.3293 98.1572 91.1109C98.1572 90.8107 100.287 90.1283 102.608 89.5278C103.1 89.3913 103.591 89.2821 104.083 89.1729C105.53 88.8454 106.923 88.5997 107.687 88.5178C107.96 88.4905 108.452 88.4632 108.998 88.6543C109.162 88.7089 109.599 88.8727 110.145 89.3913C110.746 89.9372 112.466 92.9124 112.821 94.7412C112.93 95.2053 112.957 95.5874 112.848 95.8603Z" fill="url(#paint19_linear)"/>
<path d="M96.4368 95.0959C96.6279 95.2597 96.5187 95.6145 96.4914 95.751C96.4641 95.8329 96.4095 95.9421 96.3275 96.0512C96.191 96.215 95.9999 96.3788 95.7268 96.5426C94.6891 97.1704 92.7231 97.88 90.6751 98.617C90.4293 98.6989 90.1836 98.8081 89.9105 98.89C89.2005 99.1629 88.4906 99.4359 87.8079 99.7361C87.2345 99.9818 86.7156 100.227 86.306 100.419C85.9237 100.61 85.5961 100.773 85.3776 100.883C85.3776 100.91 85.3776 100.964 85.3776 100.992C85.323 100.773 85.2138 100.582 85.1046 100.391C84.9953 100.2 84.8042 99.818 84.4765 99.4359C84.1488 99.0537 83.7392 98.617 83.1385 98.2895C82.4831 97.9073 81.6912 97.7436 80.8447 97.7709C81.0905 97.1704 81.2816 96.7336 81.4455 96.4334C81.5001 96.3515 81.5274 96.2696 81.582 96.1877C81.7458 95.9148 81.8824 95.6964 81.8824 95.6964C82.3739 94.9321 82.8108 94.3862 83.5208 93.5128C84.0669 92.885 84.7223 92.1207 85.4868 91.2472C85.6507 91.4929 85.8691 91.875 86.1422 92.3117C86.3333 92.6393 86.4426 92.8577 86.5518 93.0487C86.5518 93.0487 86.5518 93.076 86.5791 93.076C86.6337 93.2125 86.7156 93.2944 86.743 93.3763C86.7976 93.4582 86.8522 93.5127 86.9341 93.5673C87.0706 93.6492 87.3164 93.7857 87.8625 93.7311C88.1629 93.7038 88.5452 93.5946 89.064 93.4309C89.5828 93.2398 90.8389 92.7485 92.9961 91.138C93.0508 91.1107 93.0781 91.0835 93.1327 91.0562C93.3238 90.9197 93.5423 90.7559 93.7607 90.6194C94.2795 90.2646 94.8803 89.937 95.6722 89.7733C96.0272 89.6914 96.546 89.6095 96.6552 89.7733C96.7644 89.9643 96.3002 90.5102 94.3888 91.9296C94.1976 92.0661 93.9792 92.2299 93.7607 92.3663C92.8323 93.0487 91.6035 93.8676 90.0197 94.9048C90.3201 94.8502 90.7843 94.7683 91.3031 94.5773C91.6035 94.4681 92.6139 94.1133 93.9792 93.2398C94.0338 93.2125 94.0884 93.1852 94.143 93.1306C94.3888 92.9668 94.5799 92.8304 94.7711 92.6939C95.208 92.3936 95.481 92.2572 95.7541 92.3663C95.9726 92.4482 96.1364 92.6939 96.1637 92.9123C96.191 93.4036 95.4264 93.813 95.3718 93.8949C95.3718 93.8949 95.3718 93.8949 95.3718 93.9222C95.3991 93.8949 95.5083 93.813 95.6449 93.7584C95.7541 93.7038 95.8906 93.6765 96.0272 93.7038C96.2456 93.7584 96.3822 93.9222 96.4641 94.086C96.5733 94.3862 96.3822 94.7956 95.9999 94.9867C96.0818 94.9867 96.3002 94.9594 96.4368 95.0959Z" fill="url(#paint20_linear)"/>
<path opacity="0.25" d="M112.056 96.8973C111.646 97.2522 111.127 97.4978 110.608 97.5797C110.499 97.607 110.417 97.607 110.308 97.5797C110.253 97.5797 110.199 97.5797 110.172 97.5524C110.144 97.5524 110.117 97.5251 110.062 97.5251C109.98 97.4978 109.926 97.4978 109.844 97.4706C109.817 97.4706 109.762 97.4433 109.735 97.416C109.68 97.3887 109.653 97.3887 109.598 97.3614C109.543 97.3341 109.462 97.3068 109.38 97.2795C109.298 97.2522 109.243 97.1976 109.161 97.1703C109.079 97.143 108.997 97.0884 108.915 97.0338C108.588 96.8427 108.205 96.6244 107.796 96.3514C107.687 96.2968 107.605 96.2149 107.495 96.1604C107.277 96.0239 107.059 95.8874 106.84 95.7236C104.929 94.4953 104.601 94.1132 104.464 93.5673C104.383 93.1851 104.355 92.6392 104.437 92.1206C104.437 92.0387 104.464 91.9841 104.464 91.9295C104.492 91.7931 104.519 91.7385 104.519 91.5747C104.519 91.5474 104.519 91.5474 104.519 91.5201C104.601 91.1107 104.738 90.7831 104.738 90.4556C104.71 90.4556 104.71 90.4556 104.683 90.4829C104.874 90.2918 105.093 90.128 105.311 90.1553C106.185 90.2645 105.884 93.0487 107.304 94.8502C107.987 95.7509 109.298 96.679 112.056 96.8973Z" fill="url(#paint21_linear)"/>
<path opacity="0.25" d="M96.4914 95.7513C96.4641 95.8332 96.4095 95.9424 96.3276 96.0515C96.191 96.2153 95.9999 96.3791 95.7268 96.5428C94.6892 97.1706 92.7231 97.8803 90.6751 98.6173C90.4293 98.6992 90.1836 98.8084 89.9105 98.8903C89.2006 99.1632 88.4906 99.4362 87.8079 99.7364C86.6884 100.2 85.8418 100.664 85.3503 100.91C85.3503 100.937 85.3503 100.992 85.3503 101.019C85.2957 100.801 85.1865 100.61 85.0773 100.419C84.968 100.228 84.7769 99.8456 84.4492 99.4635C87.6168 98.0168 93.0781 95.3691 95.563 93.786C95.6722 93.7314 95.8087 93.7041 95.9453 93.7314C96.1637 93.786 96.3003 93.9498 96.3822 94.1135C96.4914 94.4138 96.3003 94.8232 95.918 95.0143C96.0272 94.987 96.273 94.9597 96.3822 95.0962C96.6279 95.26 96.5187 95.6148 96.4914 95.7513Z" fill="url(#paint22_linear)"/>
<path opacity="0.24" d="M86.3334 100.419C85.9511 100.61 85.6234 100.774 85.405 100.883C85.405 100.91 85.405 100.965 85.405 100.992C85.3503 100.774 85.2411 100.583 85.1319 100.391C85.0227 100.2 84.8315 99.8183 84.5038 99.4361C84.1762 99.054 83.7666 98.6173 83.1658 98.2897C82.5105 97.9076 81.7186 97.7438 80.8721 97.7711C81.1178 97.1706 81.309 96.7339 81.4728 96.4336C81.5274 96.3518 81.5547 96.2699 81.6093 96.188C83.3023 96.5428 85.9238 97.4982 86.3334 100.2C86.3061 100.282 86.3334 100.364 86.3334 100.419Z" fill="#153E5C"/>
<path opacity="0.24" d="M112.848 95.8604C112.712 96.1879 112.52 96.4609 112.275 96.7065C112.22 96.7611 112.138 96.843 112.056 96.8976C111.647 97.2524 111.128 97.4981 110.609 97.58C110.172 97.6346 109.681 97.4708 108.916 97.0341C110.063 96.8157 112.056 96.2425 112.848 94.7686C112.93 95.2053 112.957 95.5874 112.848 95.8604Z" fill="#153E5C"/>
<defs>
<linearGradient id="paint0_linear" x1="65.4424" y1="141.99" x2="167.435" y2="141.99" gradientUnits="userSpaceOnUse">
<stop offset="0.4713" stop-color="#19233D"/>
<stop offset="1" stop-color="#271C41"/>
</linearGradient>
<linearGradient id="paint1_linear" x1="114.582" y1="115.438" x2="120.686" y2="115.438" gradientUnits="userSpaceOnUse">
<stop offset="0.00478766" stop-color="#640042" stop-opacity="0.2"/>
<stop offset="0.9388" stop-color="#002544"/>
</linearGradient>
<linearGradient id="paint2_linear" x1="112.548" y1="88.1756" x2="136.558" y2="88.1756" gradientUnits="userSpaceOnUse">
<stop offset="0.00478766" stop-color="#640042" stop-opacity="0.2"/>
<stop offset="0.9388" stop-color="#002544"/>
</linearGradient>
<linearGradient id="paint3_linear" x1="63.6029" y1="100.227" x2="81.7734" y2="100.227" gradientUnits="userSpaceOnUse">
<stop offset="0.00478766" stop-color="#640042" stop-opacity="0.2"/>
<stop offset="0.9388" stop-color="#002544"/>
</linearGradient>
<linearGradient id="paint4_linear" x1="109.655" y1="112.177" x2="127.958" y2="112.177" gradientUnits="userSpaceOnUse">
<stop stop-color="white"/>
<stop offset="0.7781" stop-color="#87AEB4"/>
</linearGradient>
<linearGradient id="paint5_linear" x1="130.857" y1="117.81" x2="143.356" y2="117.81" gradientUnits="userSpaceOnUse">
<stop offset="0.00478766" stop-color="#640042" stop-opacity="0.2"/>
<stop offset="0.9388" stop-color="#002544"/>
</linearGradient>
<linearGradient id="paint6_linear" x1="54.6698" y1="126.622" x2="75.258" y2="119.171" gradientUnits="userSpaceOnUse">
<stop offset="0.00478766" stop-color="#640042" stop-opacity="0.2"/>
<stop offset="0.9388" stop-color="#002544"/>
</linearGradient>
<linearGradient id="paint7_linear" x1="58.8583" y1="110.395" x2="73.0251" y2="105.268" gradientUnits="userSpaceOnUse">
<stop stop-color="white"/>
<stop offset="0.7781" stop-color="#87AEB4"/>
</linearGradient>
<linearGradient id="paint8_linear" x1="81.5502" y1="60.5441" x2="95.526" y2="60.5441" gradientUnits="userSpaceOnUse">
<stop stop-color="#002544"/>
<stop offset="0.1924" stop-color="#00172A"/>
<stop offset="0.4174" stop-color="#000A13"/>
<stop offset="0.6287" stop-color="#000305"/>
<stop offset="0.8106"/>
</linearGradient>
<linearGradient id="paint9_linear" x1="91.3495" y1="68.5667" x2="103.879" y2="68.5667" gradientUnits="userSpaceOnUse">
<stop stop-color="#EFDDCB"/>
<stop offset="0.331" stop-color="#F1BDAF"/>
<stop offset="0.6278" stop-color="#F2A89C"/>
<stop offset="0.8209" stop-color="#F2A095"/>
</linearGradient>
<linearGradient id="paint10_linear" x1="84.4725" y1="54.2521" x2="104.247" y2="54.2521" gradientUnits="userSpaceOnUse">
<stop stop-color="#EFDDCB"/>
<stop offset="0.331" stop-color="#F1BDAF"/>
<stop offset="0.6278" stop-color="#F2A89C"/>
<stop offset="0.8209" stop-color="#F2A095"/>
</linearGradient>
<linearGradient id="paint11_linear" x1="80.1526" y1="55.9323" x2="114.254" y2="55.9323" gradientUnits="userSpaceOnUse">
<stop stop-color="#002544"/>
<stop offset="0.1924" stop-color="#00172A"/>
<stop offset="0.4174" stop-color="#000A13"/>
<stop offset="0.6287" stop-color="#000305"/>
<stop offset="0.8106"/>
</linearGradient>
<linearGradient id="paint12_linear" x1="67.8469" y1="168.699" x2="91.3445" y2="167.092" gradientUnits="userSpaceOnUse">
<stop stop-color="#153E5C"/>
<stop offset="0.9956" stop-color="#AAC0DC"/>
</linearGradient>
<linearGradient id="paint13_linear" x1="95.9447" y1="166.868" x2="115.215" y2="166.573" gradientUnits="userSpaceOnUse">
<stop stop-color="#153E5C"/>
<stop offset="0.9956" stop-color="#AAC0DC"/>
</linearGradient>
<linearGradient id="paint14_linear" x1="48.993" y1="140.685" x2="99.5292" y2="140.685" gradientUnits="userSpaceOnUse">
<stop stop-color="#153E5C"/>
<stop offset="1" stop-color="#271C41"/>
</linearGradient>
<linearGradient id="paint15_linear" x1="85.7074" y1="143.697" x2="144.473" y2="143.697" gradientUnits="userSpaceOnUse">
<stop stop-color="#153E5C"/>
<stop offset="1" stop-color="#271C41"/>
</linearGradient>
<linearGradient id="paint16_linear" x1="106.786" y1="130.714" x2="125.304" y2="130.714" gradientUnits="userSpaceOnUse">
<stop stop-color="white"/>
<stop offset="0.7781" stop-color="#87AEB4"/>
</linearGradient>
<linearGradient id="paint17_linear" x1="61.549" y1="127.255" x2="85.8028" y2="127.255" gradientUnits="userSpaceOnUse">
<stop stop-color="white"/>
<stop offset="0.7781" stop-color="#87AEB4"/>
</linearGradient>
<linearGradient id="paint18_linear" x1="83.2438" y1="91.1015" x2="98.9308" y2="97.8006" gradientUnits="userSpaceOnUse">
<stop offset="0.4713" stop-color="#19233D"/>
<stop offset="1" stop-color="#271C41"/>
</linearGradient>
<linearGradient id="paint19_linear" x1="98.1571" y1="93.0458" x2="112.922" y2="93.0458" gradientUnits="userSpaceOnUse">
<stop stop-color="#EFDDCB"/>
<stop offset="0.331" stop-color="#F1BDAF"/>
<stop offset="0.6278" stop-color="#F2A89C"/>
<stop offset="0.8209" stop-color="#F2A095"/>
</linearGradient>
<linearGradient id="paint20_linear" x1="80.8446" y1="95.3307" x2="96.6748" y2="95.3307" gradientUnits="userSpaceOnUse">
<stop stop-color="#EFDDCB"/>
<stop offset="0.331" stop-color="#F1BDAF"/>
<stop offset="0.6278" stop-color="#F2A89C"/>
<stop offset="0.8209" stop-color="#F2A095"/>
</linearGradient>
<linearGradient id="paint21_linear" x1="104.382" y1="93.8698" x2="112.066" y2="93.8698" gradientUnits="userSpaceOnUse">
<stop offset="0.1545" stop-color="#691B26"/>
<stop offset="0.8731" stop-color="#CD907F"/>
</linearGradient>
<linearGradient id="paint22_linear" x1="84.5001" y1="97.3654" x2="96.5506" y2="97.3654" gradientUnits="userSpaceOnUse">
<stop offset="0.1545" stop-color="#691B26"/>
<stop offset="0.8731" stop-color="#CD907F"/>
</linearGradient>
</defs>
</svg>
