<svg width="186" height="198" viewBox="0 0 186 198" fill="none" xmlns="http://www.w3.org/2000/svg">
<path d="M38.8395 150.626L39.7559 158.212L40.6724 165.951C40.7233 166.307 41.0033 166.587 41.3597 166.638C44.389 167.02 57.5756 168.674 57.9065 167.529C58.2629 166.231 49.4294 164.449 47.6984 163.15C46.8838 162.539 46.2983 159.535 45.9164 156.532C45.4837 153.171 45.28 149.811 45.28 149.811L38.8395 150.626Z" fill="url(#paint0_linear)"/>
<path d="M6.30596 162.87C8.62251 164.881 18.7288 173.588 19.6452 172.798C20.6635 171.907 14.2739 165.518 13.5356 163.456C13.3065 162.845 13.7138 161.445 14.4012 159.79C15.954 156.022 18.907 150.982 18.907 150.982L13.1029 148.105L7.98609 158.263L6.15323 161.903C5.94957 162.234 6.02594 162.641 6.30596 162.87Z" fill="url(#paint1_linear)"/>
<path d="M38.9934 161.98L40.0881 161.114L40.0372 160.681L39.5789 160.299C39.528 160.274 39.528 160.198 39.5535 160.172C39.5789 160.121 39.6553 160.121 39.6808 160.147L39.9862 160.401L39.7317 158.186C41.7682 157.525 43.9829 156.965 45.8667 156.506C45.9431 157.015 45.994 157.499 46.0704 158.008L46.4522 157.295C46.4777 157.245 46.5286 157.219 46.5795 157.245C46.6304 157.27 46.6559 157.321 46.6304 157.372L46.1213 158.314C46.1468 158.543 46.1977 158.772 46.2486 159.001L46.7577 159.154C46.8086 159.179 46.8341 159.23 46.8341 159.281C46.8341 159.332 46.7832 159.357 46.7322 159.357H46.7068L46.274 159.23C46.6304 161.139 47.0887 162.718 47.6487 163.151C47.7251 163.201 47.8269 163.278 47.9287 163.329L48.1833 162.921C48.2087 162.87 48.2596 162.87 48.3106 162.896C48.3615 162.921 48.3615 162.972 48.336 163.023L48.0814 163.405C50.5253 164.678 58.1877 166.307 57.8568 167.529C57.6022 168.471 48.7433 167.529 43.8557 166.944C42.761 166.816 41.87 166.689 41.31 166.613C40.9536 166.562 40.6736 166.282 40.6227 165.925L40.1644 162.209L40.0626 161.369L39.0443 162.158C39.0189 162.183 39.0189 162.183 38.9934 162.183C38.968 162.183 38.9425 162.183 38.9171 162.158C38.9425 162.081 38.968 162.03 38.9934 161.98Z" fill="#F58CBA"/>
<path d="M6.12964 161.903L7.35155 159.51L7.65703 158.925L7.40247 158.594C7.37701 158.543 7.37702 158.492 7.42793 158.467C7.47885 158.441 7.52976 158.441 7.55522 158.492L7.75887 158.747L7.98797 158.289L14.4285 159.816C13.7412 161.471 13.3339 162.871 13.563 163.482C13.5884 163.584 13.6648 163.711 13.7157 163.838L14.6067 162.667C14.6321 162.616 14.7085 162.616 14.734 162.642C14.7849 162.667 14.7849 162.743 14.7594 162.769L13.8175 164.016C13.8684 164.093 13.9194 164.169 13.9703 164.271L14.6067 164.551C14.6576 164.576 14.6831 164.627 14.6576 164.678C14.6321 164.729 14.6067 164.729 14.5558 164.729H14.5303L14.1739 164.576C15.9304 167.224 20.5635 172.061 19.698 172.824C18.9852 173.461 12.392 168.038 8.59893 164.805C7.63158 163.991 6.84242 163.304 6.3842 162.896C6.02781 162.642 5.95144 162.234 6.12964 161.903Z" fill="#F58CBA"/>
<path d="M39.8085 164.347C39.834 164.296 39.8849 164.296 39.9358 164.322L40.5213 164.678L40.2158 162.209C42.3033 162.285 43.9834 164.016 43.9834 166.104C43.9834 166.384 43.9579 166.664 43.8816 166.944C42.7869 166.817 41.896 166.689 41.3359 166.613C40.9795 166.562 40.6995 166.282 40.6486 165.926L40.5213 164.907L39.8085 164.475C39.7831 164.449 39.7831 164.398 39.8085 164.347Z" fill="#640042"/>
<path d="M6.30854 162.871C6.76676 163.278 7.55592 163.966 8.52327 164.78C9.10877 164.348 9.54153 163.66 9.66882 162.871C9.92338 161.293 8.87966 159.816 7.32681 159.511L6.10489 161.904C5.95215 162.235 6.02852 162.642 6.30854 162.871Z" fill="#640042"/>
<path d="M50.4751 167.708V163.329C59.7922 164.271 58.8503 168.471 58.8503 168.471H51.7988H50.4751H38.2814V167.708H50.4751Z" fill="#002544"/>
<path d="M3.78767 165.544L4.16952 164.882L14.8104 170.941L16.9742 167.123C24.6112 172.57 21.7346 175.778 21.7346 175.778L15.5995 172.29L3.78767 165.544Z" fill="#002544"/>
<path d="M33.8771 75.7065C33.8771 75.7065 54.6243 117.43 53.886 154.011L33.8771 157.422C33.8771 157.422 33.6226 130.82 26.0619 111.32C18.5013 91.8206 33.8771 75.7065 33.8771 75.7065Z" fill="#271C41"/>
<path d="M0.70713 151.568C3.94012 153.223 7.14765 154.877 10.3806 156.532C13.4863 158.136 16.6175 159.74 19.7232 161.318C25.0946 150.372 31.6115 133.799 34.1062 112.772C35.5827 100.324 35.3027 89.2502 34.3862 80.1622C34.2335 78.6094 34.0553 77.1075 33.8771 75.6819C26.1383 73.0853 18.4249 70.4887 10.7116 67.8667C9.6424 71.0997 8.44594 75.9364 8.52231 81.766C8.64959 94.0615 14.1991 95.7417 15.5992 106.408C17.3048 119.442 10.9661 131.814 3.43099 146.528C2.33635 148.666 1.369 150.397 0.70713 151.568Z" fill="#39215A"/>
<path opacity="0.12" d="M3.89011 153.273C7.60678 155.132 11.3234 157.016 15.0656 158.925C16.6184 159.714 18.1967 160.529 19.7496 161.318C25.1209 150.371 31.6378 133.799 34.1326 112.772C35.609 100.324 35.329 89.2501 34.4126 80.1621C34.1835 88.7919 32.8597 101.138 27.7939 115.012C20.997 133.57 10.6361 146.222 3.89011 153.273Z" fill="url(#paint2_linear)"/>
<path d="M36.0904 54.7834V56.3872C36.0904 56.4126 36.1158 56.4381 36.1413 56.4381H36.5486C36.7777 58.3982 36.9813 60.4093 37.1341 62.4713C37.3377 64.9151 37.465 67.2826 37.5668 69.5737H43.6001C44.0074 65.1952 44.4401 60.8166 44.8474 56.4126H45.2547C45.2802 56.4126 45.3057 56.3872 45.3057 56.3617V54.7579C45.3057 54.7325 45.2802 54.707 45.2547 54.707H39.7561H39.1706H36.0904C36.1158 54.7325 36.0904 54.7579 36.0904 54.7834Z" fill="#F07125"/>
<path opacity="0.42" d="M36.0922 54.7825V56.3862C36.0922 56.4117 36.1176 56.4372 36.1431 56.4372H36.5504C36.7795 58.3973 36.9832 60.4084 37.1359 62.4704C37.3396 64.9142 37.4668 67.2817 37.5687 69.5728H39.707C39.3506 67.3326 39.0961 64.8124 38.9942 62.0122C38.9179 59.3392 39.0197 56.8699 39.1979 54.6807C38.1796 54.7316 37.1359 54.757 36.0922 54.7825Z" fill="#271C41"/>
<path d="M45.2301 39.4829C42.1498 39.3811 41.0806 39.1519 40.3424 39.9156C39.5278 40.7812 39.706 42.2831 39.9351 43.3523L36.473 41.8503C37.1858 40.0938 38.0768 38.9228 38.8914 38.1337C39.6805 37.37 40.3679 36.9881 40.7752 36.8099C40.9534 36.7336 41.1061 36.6572 41.3097 36.5808C42.8117 35.9953 44.39 35.7153 44.5682 35.6898C45.7901 35.4862 48.4885 35.028 48.6158 35.4353C48.6922 35.7408 47.292 36.3263 47.2411 36.3517C46.3501 36.7336 45.5101 36.8099 45.0264 36.7845C45.3064 37.039 45.7392 37.3954 46.3501 37.6755C47.2157 38.0573 47.9794 38.1082 48.794 38.1082C49.2777 38.1337 50.1432 38.1082 51.2378 37.8791C52.8416 37.5482 53.7835 37.0136 53.9108 37.2172C54.0126 37.37 53.5289 37.8282 53.478 37.8791C51.8233 39.4829 48.1321 39.5593 45.2301 39.4829Z" fill="url(#paint3_linear)"/>
<path d="M33.8767 59.8481H36.8806L36.9824 60.9428C38.9935 61.4774 40.5718 61.681 41.6664 61.7319C42.4301 61.7828 43.9321 61.8083 44.1103 62.3938C44.1357 62.4447 44.1612 62.5211 44.1103 62.6229C43.9066 63.0557 42.481 62.6993 40.1136 62.3938C39.2735 62.292 38.5607 62.2156 38.1025 62.1647C39.0953 62.5211 39.9608 62.7247 40.5463 62.8266C42.2774 63.1575 43.7029 63.1066 43.8811 63.7176C43.9066 63.7685 43.9321 63.8448 43.8811 63.9467C43.7029 64.303 42.532 64.0485 40.7754 63.7176C39.8335 63.5394 37.6952 63.1575 37.6697 63.2848C37.6443 63.3612 38.8407 63.9212 40.3427 64.1758C41.8192 64.4303 43.0665 64.3285 43.2447 64.8376C43.2447 64.8631 43.2956 64.9649 43.2447 65.0667C43.1938 65.194 42.9392 65.4741 40.5718 65.0667C38.7389 64.7358 37.4915 64.3285 37.4661 64.4049C37.4406 64.4558 37.8734 64.6594 38.3571 64.8376C40.3936 65.6522 41.7173 65.4995 41.921 66.1614C41.9464 66.2378 41.9719 66.3141 41.921 66.3905C41.5901 66.976 37.9752 65.4741 37.4661 65.2704C35.9132 64.634 33.724 63.5648 31.2292 61.7065C32.1202 61.0955 33.0112 60.4591 33.8767 59.8481Z" fill="url(#paint4_linear)"/>
<path d="M25.8326 51.5501C26.4944 53.9175 27.1309 56.2596 27.7927 58.627C30.2111 55.9286 32.6549 53.1538 35.1242 50.3282C37.5426 47.5534 39.9101 44.7786 42.2012 42.0293C41.3611 40.8329 40.521 39.6364 39.681 38.4399C39.5537 38.2617 39.4264 38.0581 39.2737 37.8799C37.1353 39.5855 34.8188 41.5965 32.4513 43.9895C31.9167 44.5241 31.4076 45.0587 30.8984 45.5932C28.9383 47.6552 27.2581 49.6663 25.8326 51.5501Z" fill="#640042"/>
<path opacity="0.12" d="M31.9419 44.4731C32.1201 46.2551 32.5274 47.2225 33.1638 47.4007C34.4367 47.7316 36.6005 44.7532 39.6553 38.4399C39.528 38.2617 39.4007 38.0581 39.248 37.8799C38.1788 38.72 37.0587 39.6618 35.9131 40.6801C34.3348 42.0802 33.1384 43.2767 32.4256 43.9895C32.2219 44.1931 32.0438 44.3459 31.9419 44.4731Z" fill="url(#paint5_linear)"/>
<path d="M10.7103 67.8928C15.9035 69.6493 21.0966 71.3804 26.2898 73.1369C28.8354 74.0024 31.3556 74.8425 33.9013 75.708C28.6827 56.8701 28.6063 50.4041 30.0064 48.6222C30.1592 48.444 30.8974 47.553 31.4829 46.1784C32.323 44.1927 32.2721 42.3853 32.2212 40.5779C32.0684 35.9703 31.9921 33.6792 31.9666 33.501C31.7629 31.0826 31.8393 27.7987 33.1376 23.5983C33.3667 22.8601 33.6213 22.0964 33.9268 21.2818C33.5195 21.4345 30.0064 22.631 27.1044 20.5435C25.8825 19.678 25.2206 18.5579 24.9151 17.8706C21.1475 25.9913 17.3036 35.9703 14.427 47.6294C12.5687 54.9354 11.4231 61.7323 10.7103 67.8928Z" fill="#640042"/>
<path opacity="0.23" d="M23.8715 44.7271C23.8715 49.4111 24.4825 50.8367 25.2207 59.8992C25.6535 65.0924 26.0354 69.9546 26.2645 73.1621C28.8101 74.0276 31.3303 74.8677 33.876 75.7332C28.6574 56.8953 28.581 50.4293 29.9811 48.6474C30.1339 48.4692 30.8721 47.5782 31.4576 46.2035C32.2977 44.2179 32.2468 42.4105 32.1958 40.6031C32.0431 35.9954 31.9667 33.7044 31.9413 33.5262C31.7376 31.1078 31.814 27.8239 33.1123 23.6235C31.8394 24.1581 29.9811 25.1509 28.301 26.9329C23.9734 31.4133 23.8715 37.7265 23.8715 44.7271Z" fill="url(#paint6_linear)"/>
<path d="M7.52934 49.3603C8.92945 52.8479 11.806 54.7062 17.5338 58.3974C23.3124 62.1141 28.6329 64.227 32.4259 65.4744L33.5714 62.4196L33.8769 61.6304L34.2079 60.7394L34.6406 59.6193C32.2732 58.7029 29.0402 57.3283 25.3744 55.2154C24.8144 54.9099 24.3052 54.6044 23.7961 54.3244C19.2648 51.7278 16.9737 50.2004 16.5919 47.9093C16.1846 45.4909 18.1957 44.7527 21.7087 37.6503C24.8398 31.3116 24.3052 29.7842 23.8979 29.1223C23.287 28.0786 22.0141 27.4931 20.6904 27.2385C19.8758 27.0858 19.0357 27.0603 18.272 27.1622C16.821 27.3658 15.37 28.0277 14.0208 29.0714C8.7258 33.119 4.83093 42.6143 7.52934 49.3603Z" fill="url(#paint7_linear)"/>
<path d="M37.9507 4.35352C37.9507 4.35352 45.104 11.0741 42.5074 13.2379C41.6928 13.8997 41.0309 14.4343 40.8782 15.5799C40.6745 17.26 42.7111 17.8201 43.1693 20.0857C43.5257 21.8167 42.762 23.7514 41.4637 24.9734C41.26 25.177 39.5035 26.7553 37.0597 26.4498C35.6087 26.2462 34.6668 25.4825 34.3867 25.2279C34.0303 24.9225 33.2667 24.2351 32.9103 23.0387C32.5793 21.944 32.783 21.0021 32.9103 20.5948C34.5904 15.1726 36.2705 9.75032 37.9507 4.35352Z" fill="url(#paint8_linear)"/>
<path d="M25.9607 11.1757C28.0736 7.02628 33.6741 4.63336 37.0343 6.59352C39.5291 8.07 39.9364 11.4812 39.9618 11.7612C40.2164 14.3578 39.0199 16.267 38.6635 16.8016C38.6126 17.2344 38.5617 17.8708 38.5363 18.6345C38.5108 19.8309 38.6126 20.3655 38.2817 20.5947C38.1544 20.6965 37.8235 20.7983 37.0598 20.3401C36.9325 20.7219 36.7289 21.2565 36.3215 21.8166C36.2452 21.9184 35.2524 23.2676 33.6486 23.7767C31.3575 24.4895 29.2446 23.1149 28.8119 22.8348C25.6043 20.7728 23.8224 15.376 25.9607 11.1757Z" fill="url(#paint9_linear)"/>
<path d="M37.273 16.834C37.0411 16.7327 36.9444 16.4417 37.057 16.184C37.1696 15.9264 37.4488 15.7997 37.6807 15.901C37.9126 16.0023 38.0093 16.2933 37.8967 16.551C37.7841 16.8086 37.5049 16.9354 37.273 16.834Z" fill="black"/>
<path d="M39.9618 10.1828C38.7908 13.1104 34.6414 11.6593 32.1721 14.8669C29.3464 18.5072 31.943 24.6167 28.7864 26.5769C28.43 26.806 27.8954 26.9842 27.6154 27.5443C26.9535 28.8934 28.4554 30.1663 28.2009 32.4319C27.9972 34.163 26.9026 35.2321 26.7498 35.3594C25.2988 36.7086 23.4914 36.3777 23.2623 36.3268C21.2258 35.9195 21.3021 34.2648 19.4693 33.7048C17.2545 33.0429 16.2872 35.334 13.3597 35.003C12.876 34.9521 10.8395 34.723 9.56663 33.0429C7.32645 30.039 9.33753 24.8968 9.59209 24.2858C9.89757 23.5476 10.203 22.9875 10.4322 22.6057C13.3342 19.6782 8.39562 20.3146 9.56663 16.3943C10.7376 12.4739 15.0907 15.096 16.5417 7.91721C17.2291 4.45511 18.731 3.18228 19.7747 2.21493C21.2767 0.840268 22.9823 0.611159 24.6879 0.432963C26.088 0.254767 33.4958 -0.636212 37.5434 3.41139C38.9181 4.8115 40.9292 7.78993 39.9618 10.1828Z" fill="url(#paint10_linear)"/>
<path d="M34.5645 22.1476C34.5645 22.1476 33.2407 21.2057 33.6226 19.4746" stroke="black" stroke-width="1.2" stroke-miterlimit="10" stroke-linecap="round"/>
<path d="M38.79 14.1287L36.5753 14.7906C36.5499 14.7906 37.2372 13.4668 38.79 14.1287Z" fill="black"/>
<path d="M128.728 173.854L128.017 173.617C134.889 152.972 147.897 113.553 148.055 112.158L148.819 112.21C148.74 113.659 130.781 167.718 128.728 173.854Z" fill="#002544"/>
<path d="M154.033 179.831L153.27 179.805C153.823 158.239 154.823 117.055 154.56 115.739L155.297 115.581C155.639 116.897 154.191 173.406 154.033 179.831Z" fill="#002544"/>
<path d="M181.629 171.694C173.835 151.234 158.878 112.237 158.141 111.052L158.746 110.604C159.536 111.631 180.023 165.322 182.34 171.431L181.629 171.694Z" fill="#002544"/>
<path d="M184.211 75.4507C182.763 67.7617 179.445 50.0402 166.173 43.8258C165.726 43.6152 165.252 43.4045 164.778 43.2202C161.96 42.1142 158.616 41.5086 155.193 41.5613C154.693 41.5613 154.192 41.5876 153.666 41.6139C153.481 41.6403 153.297 41.6403 153.113 41.6666C152.56 41.7193 152.033 41.7983 151.48 41.8773C146.661 42.6672 141.895 44.9054 138.288 49.1712C135.233 52.7524 133.364 57.3605 132.758 62.311C132.468 64.5755 132.442 66.9454 132.705 69.3153C132.89 70.9742 133.206 72.6595 133.653 74.3184C134.101 76.0037 134.707 77.6626 135.47 79.2952C136.313 81.1384 137.34 82.929 138.577 84.6406C137.498 85.7728 136.471 86.9578 135.496 88.1427C134.391 89.512 133.39 90.9339 132.468 92.3559C132.258 92.6982 132.047 93.0405 131.836 93.3828C131.757 93.4881 131.705 93.6198 131.626 93.7251C131.573 93.8305 131.52 93.9095 131.468 94.0148C131.415 94.0938 131.389 94.1465 131.336 94.2254C131.283 94.3044 131.257 94.3571 131.204 94.4361C131.099 94.6204 130.967 94.8311 130.862 95.0154C130.757 95.1997 130.651 95.3841 130.546 95.5684C130.362 95.937 130.177 96.2794 129.993 96.648C129.993 96.648 129.993 96.648 129.993 96.6743C129.914 96.806 129.861 96.9376 129.782 97.0693C129.572 97.4906 129.361 97.9119 129.177 98.3332C129.098 98.4912 129.019 98.6756 128.94 98.8336C128.255 100.361 127.702 101.888 127.255 103.389C127.044 104.074 126.86 104.732 126.702 105.417C126.307 107.049 126.07 108.655 125.964 110.209C125.727 113.843 126.28 117.161 127.676 119.926C127.755 120.057 127.834 120.215 127.913 120.347C128.045 120.584 128.176 120.795 128.308 121.032C129.572 123.059 131.336 124.692 133.416 125.982C136.076 127.588 139.262 128.641 142.711 129.142C142.975 129.168 143.212 129.221 143.475 129.247C146.977 129.668 150.743 129.537 154.456 128.878C154.719 128.826 154.956 128.799 155.219 128.747C156.878 128.431 158.537 128.01 160.143 127.457C160.591 127.299 161.039 127.141 161.486 126.983C162.329 126.667 163.172 126.324 164.014 125.956C164.251 125.85 164.462 125.745 164.699 125.64C167.306 124.402 169.728 122.875 171.835 121.058C174.995 118.319 176.838 115.502 178.154 113.474C188.319 97.4643 184.843 78.8738 184.211 75.4507Z" fill="#E6E3F4"/>
<path opacity="0.71" d="M169.832 109.182C169.806 109.182 169.78 109.182 169.753 109.182C166.541 108.182 160.037 107.945 159.984 107.918C159.852 107.918 159.747 107.787 159.747 107.655C159.747 107.523 159.879 107.392 160.01 107.418C160.274 107.418 166.646 107.681 169.911 108.682C170.043 108.735 170.122 108.866 170.069 108.998C170.017 109.103 169.938 109.182 169.832 109.182Z" fill="#002544"/>
<path d="M98.1933 122.348L85.8436 192.655C86.8705 193.076 87.5815 194.051 87.5815 195.236C87.5815 196.763 86.3439 198.001 84.8166 198.001C83.2894 198.001 82.0518 196.763 82.0518 195.236C82.0518 193.866 83.0524 192.734 84.3427 192.497L96.7187 122.112L100.116 102.836L101.616 103.1L98.1933 122.348Z" fill="#E6E3F4"/>
<path d="M100.089 102.863L101.59 103.126L98.2197 122.349C97.7194 122.27 97.2191 122.217 96.7188 122.138L100.089 102.863Z" fill="url(#paint11_linear)"/>
<path d="M83.8588 180.174C83.4375 181.28 82.7792 183.097 82.0682 185.335C80.8833 189.101 80.9622 189.496 80.3566 190.101C79.2507 191.207 77.4337 191.339 75.4588 191.049C72.5096 190.602 69.2708 189.18 67.7172 188.469C67.0062 188.153 59.8176 184.914 60.3179 182.886C60.5286 181.965 62.2401 181.649 62.6878 181.57C67.7962 180.596 71.0087 186.178 74.4056 185.546C74.4582 185.546 74.5372 185.52 74.5899 185.493C75.9592 185.151 77.6444 183.676 78.8294 178.621C80.5146 179.147 82.1999 179.674 83.8588 180.174Z" fill="#271C41"/>
<path d="M131.257 183.176C131.205 184.73 129.941 186.073 128.308 187.179C125.833 188.837 122.489 189.996 120.856 190.523C120.119 190.786 112.64 193.261 111.613 191.418C111.166 190.575 112.193 189.206 112.456 188.837C115.563 184.677 121.699 186.599 123.779 183.808C123.805 183.755 123.858 183.703 123.884 183.65C124.437 182.807 124.727 181.412 123.884 179.042C123.858 178.937 123.805 178.831 123.779 178.726C123.779 178.7 123.753 178.673 123.753 178.673C123.384 177.62 123.015 176.593 122.647 175.592C124.121 174.881 125.596 174.197 127.07 173.486C127.386 174.276 127.86 175.408 128.466 176.777C128.703 177.33 128.966 177.883 129.256 178.489C130.915 182.07 131.284 182.307 131.257 183.176Z" fill="#271C41"/>
<path opacity="0.39" d="M79.2241 180.675C79.1452 181.043 78.7502 181.307 78.3815 181.201C78.3025 181.175 78.2235 181.149 78.1445 181.096C78.2762 180.701 78.4079 180.28 78.5395 179.806C78.5922 179.806 78.6185 179.806 78.6712 179.832C79.0662 179.911 79.3031 180.306 79.2241 180.675Z" fill="white"/>
<path opacity="0.39" d="M62.3187 185.098C62.2923 185.203 62.2397 185.309 62.1607 185.414C61.7657 185.124 61.3707 184.809 61.0811 184.493C61.239 184.282 61.5024 184.203 61.792 184.256C62.1607 184.361 62.424 184.73 62.3187 185.098Z" fill="white"/>
<path opacity="0.39" d="M63.9777 181.464C63.9777 181.491 63.9777 181.517 63.9777 181.543C63.8987 181.912 63.5037 182.149 63.135 182.07C62.8717 182.017 62.6874 181.833 62.6084 181.596C62.6611 181.596 62.6874 181.57 62.7137 181.57C63.135 181.491 63.5564 181.464 63.9777 181.464Z" fill="white"/>
<path opacity="0.39" d="M83.8581 180.174C83.7265 180.543 83.5685 180.964 83.3841 181.438C83.1735 181.28 83.0418 180.99 83.1208 180.701C83.1998 180.385 83.5158 180.148 83.8581 180.174Z" fill="white"/>
<path opacity="0.39" d="M123.883 177.857C123.752 177.488 123.594 177.067 123.409 176.646C123.646 176.646 123.857 176.777 123.988 176.988C124.146 177.304 124.094 177.646 123.883 177.857Z" fill="white"/>
<path opacity="0.39" d="M127.596 174.75C127.333 174.776 127.043 174.644 126.912 174.408C126.727 174.092 126.806 173.723 127.096 173.512C127.228 173.855 127.412 174.276 127.596 174.75Z" fill="white"/>
<path d="M143.765 111.053C136.892 114.976 133.68 117.267 129.756 119.295C126.491 121.006 121.857 123.639 116.459 127.457C117.67 129.38 119.329 132.25 120.83 135.963C123.568 142.783 123.99 148.076 124.753 154.369C125.411 159.714 126.491 167.324 128.44 176.672C127.913 176.988 127.386 177.278 126.833 177.594C125.833 178.147 124.858 178.621 123.911 179.042C123.884 178.937 123.832 178.831 123.805 178.726C123.805 178.7 123.779 178.673 123.779 178.673C123.41 177.62 123.042 176.593 122.673 175.593C117.591 161.61 111.613 149.366 108.401 142.967C101.792 129.801 99.6587 127.457 101.081 123.771C102.503 120.085 106.663 117.32 112.114 113.659C114.115 112.317 116.064 111.237 119.934 109.051C123.858 106.866 127.123 105.154 129.361 103.996C129.941 104.022 130.862 104.075 131.994 104.075C135.786 104.075 137.551 103.258 142.106 103.443C144.318 103.522 146.214 103.811 147.504 104.285C148.505 104.654 149.137 105.128 149.295 105.76C149.532 106.839 148.241 108.472 143.765 111.053Z" fill="url(#paint12_linear)"/>
<path d="M161.75 110.684C161.539 113.475 161.091 114.765 160.486 115.845C160.486 115.871 160.459 115.897 160.407 115.976C159.09 118.188 156.378 118.82 155.641 119.005C154.666 119.268 151.664 120.19 147.109 121.611C139.394 124.008 127.176 127.879 112.351 132.539C111.929 133.777 111.245 135.62 110.27 137.832C106.716 146.021 102.687 151.472 101.081 153.71C97.2887 158.977 91.838 167.298 83.596 181.543C82.7271 181.543 81.8318 181.57 80.9628 181.57C79.9885 181.57 78.9879 181.596 77.9873 181.596C86.2029 152.736 93.4442 137.2 98.263 129.063C102.16 122.48 104.504 120.769 104.504 120.769C109.954 116.74 116.853 113.712 122.067 111.658C123.515 111.079 124.832 110.605 125.938 110.183C134.838 106.839 142.685 105.101 148.399 104.127C149.584 104.311 150.769 104.496 151.954 104.654C152.165 104.68 152.375 104.706 152.586 104.759C152.981 104.812 153.35 104.864 153.718 104.943C156.352 105.338 158.958 105.733 161.565 106.128C161.618 106.128 161.697 106.155 161.75 106.155C161.75 106.207 161.75 106.26 161.75 106.286C161.881 108.05 161.829 109.525 161.75 110.684Z" fill="#F07125"/>
<path d="M161.751 110.684C161.54 113.475 161.092 114.765 160.487 115.845C160.487 115.871 160.46 115.898 160.408 115.977C159.091 118.189 156.379 118.82 155.642 119.005C154.667 119.268 151.666 120.19 147.11 121.612C139.395 124.008 127.177 127.879 112.352 132.54C111.93 133.777 111.246 135.62 110.271 137.832C106.717 146.022 102.688 151.472 101.082 153.711C97.2898 158.977 91.839 167.298 83.5971 181.544C82.7281 181.544 81.8328 181.57 80.9639 181.57C83.6234 175.803 87.3362 167.746 91.6547 158.082C102.925 132.908 102.872 131.592 106.137 129.327C116.749 121.954 141.449 118.768 147.057 116.056C148.269 115.476 149.111 114.66 149.19 114.581C150.928 112.922 151.639 110.684 151.876 108.788C152.166 106.523 151.85 104.707 151.85 104.707C151.876 104.707 151.902 104.68 151.955 104.68C152.166 104.707 152.376 104.733 152.587 104.785C152.982 104.838 153.351 104.891 153.719 104.97C156.353 105.365 158.959 105.76 161.566 106.155C161.619 106.155 161.698 106.181 161.751 106.181C161.751 106.234 161.751 106.286 161.751 106.313C161.882 108.051 161.83 109.525 161.751 110.684Z" fill="url(#paint13_linear)"/>
<path opacity="0.29" d="M161.75 110.684C161.539 113.475 161.092 114.765 160.486 115.845C160.486 115.871 160.46 115.898 160.407 115.977C159.09 118.189 156.378 118.821 155.641 119.005C154.667 119.268 151.665 120.19 147.109 121.612C152.191 116.082 152.981 113.212 152.191 111.685C151.48 110.368 149.558 109.894 149.427 108.393C149.295 106.918 151.165 105.576 152.613 104.733C153.008 104.786 153.376 104.838 153.745 104.917C156.378 105.312 158.985 105.707 161.592 106.102C161.645 106.102 161.724 106.129 161.776 106.129C161.776 106.181 161.776 106.234 161.776 106.26C161.882 108.051 161.829 109.525 161.75 110.684Z" fill="#365588"/>
<path opacity="0.42" d="M98.2363 129.09C102.133 122.507 104.477 120.795 104.477 120.795C109.928 116.767 116.827 113.738 122.041 111.685C123.515 115.766 106.452 127.773 98.2363 129.09Z" fill="url(#paint14_linear)"/>
<path d="M142.474 56.2022C142.158 57.0975 142.184 57.8084 142.105 58.3614C141.552 62.0479 140.999 65.7344 140.446 69.4209C139.762 71.3168 136.128 81.0333 129.808 84.9305C128.439 85.7731 126.964 86.3261 125.332 86.4841C123.594 86.6421 122.172 86.2734 121.145 85.9574C114.509 83.8509 108.743 78.8478 107.294 77.5575C106.083 76.4779 104.371 74.8453 102.476 72.7387C102.634 72.3174 102.818 71.8961 102.976 71.4748L103.318 70.7112L103.819 69.5525L104.161 68.7626L104.24 68.6046C104.556 68.8416 104.872 69.0786 105.214 69.3156C107.821 71.1588 111.481 73.4497 116.168 75.4246C120.408 77.2152 122.593 78.1105 124.463 77.5575C127.359 76.7149 127.991 74.0027 134.443 61.1789C135.259 59.5727 135.996 58.0981 136.813 56.8078C138.287 54.4116 139.946 52.5683 142.448 51.4361C144.633 50.4618 146.766 50.3564 146.977 50.8041C147.214 51.3834 143.659 52.6737 142.474 56.2022Z" fill="#002544"/>
<path d="M104.134 68.7624L103.292 70.711L102.949 71.4746L102.844 71.7379L102.449 72.6332C102.449 72.6332 102.449 72.6332 102.423 72.6596C102.291 72.7649 102.159 72.8702 101.975 72.9492C101.685 73.1072 101.317 73.2389 100.869 73.5285C100.659 73.6602 100.501 73.7655 100.343 73.8708C100.343 73.8708 100.343 73.8708 100.316 73.8708C99.7632 74.2132 99.4999 74.3975 99.4736 74.3975C98.7626 74.1868 97.8936 73.8445 96.9457 73.2915C96.5507 73.0545 96.1821 72.7912 95.8661 72.5542C95.5238 72.2909 95.2078 72.0276 94.9444 71.7643C94.7075 71.5273 94.4705 71.3166 94.2861 71.106C93.1802 71.0006 92.3639 71.1323 91.8373 71.2903C90.2837 71.738 89.3884 72.6859 88.3614 72.3172C88.2034 72.2646 88.0718 72.1856 87.9664 72.1066C87.8611 72.0276 87.7558 71.9486 87.7031 71.8696C88.2034 71.6589 88.7301 71.4746 89.2567 71.2903C91.1526 70.6057 99.1049 68.6044 102.238 68.2094C102.265 68.2094 102.317 68.2094 102.344 68.1831C102.37 68.1831 102.423 68.1831 102.449 68.1831L104.134 68.7624Z" fill="#E6A67F"/>
<path opacity="0.17" d="M101.975 72.8967C101.686 73.0547 101.317 73.1864 100.869 73.476C100.659 73.6077 100.501 73.713 100.343 73.8184C100.343 73.8184 100.343 73.8184 100.316 73.8184C99.7634 74.1607 99.5 74.345 99.4737 74.345C98.7627 74.1343 97.8938 73.792 96.9458 73.239C96.5508 73.0021 96.1822 72.7387 95.8662 72.5017C97.4461 73.0547 98.6311 72.9757 99.421 72.7387C100.343 72.4754 101.317 71.8961 101.712 72.2911C101.87 72.3701 102.002 72.6071 101.975 72.8967Z" fill="url(#paint15_linear)"/>
<path opacity="0.17" d="M136.787 56.7817C135.918 63.3384 134.522 68.5522 133.311 72.265C131.626 77.4261 130.573 78.9534 128.993 79.9013C125.254 82.1395 119.908 80.3753 118.223 79.8487C117.723 79.6907 116.222 79.1903 114.273 78.0581C112.14 76.8205 108.48 74.2663 105.188 69.3158C107.795 71.1591 111.456 73.4499 116.143 75.4249C120.382 77.2154 122.568 78.1107 124.437 77.5578C127.334 76.7151 127.966 74.0029 134.417 61.1792C135.207 59.5729 135.971 58.0983 136.787 56.7817Z" fill="url(#paint16_linear)"/>
<path opacity="0.38" d="M104.134 68.7624L103.292 70.711L102.949 71.4746L102.844 71.7379L102.449 72.6332C102.449 72.6332 102.449 72.6332 102.423 72.6595L102.238 68.1831C102.265 68.1831 102.317 68.1831 102.344 68.1567C102.37 68.1567 102.423 68.1567 102.449 68.1567L104.134 68.7624Z" fill="#365588"/>
<path d="M174.731 87.432C174.547 88.0639 174.31 88.6959 174.073 89.3015C173.019 91.8821 171.439 94.1467 169.175 95.8846C168.596 96.3322 167.779 97.3065 167.042 98.3335C166.752 98.7284 166.489 99.1234 166.226 99.4921C165.515 100.545 164.935 101.441 164.804 101.704C164.461 102.257 164.093 102.81 163.75 103.363C163.145 104.285 162.566 105.232 161.96 106.154C161.907 106.154 161.828 106.154 161.776 106.154C160.564 106.101 159.327 106.049 158.115 105.996C157.641 105.97 157.167 105.943 156.667 105.943C155.114 105.864 153.534 105.812 151.98 105.733C151.717 105.733 151.48 105.706 151.216 105.706C150.558 105.68 149.926 105.654 149.268 105.627C147.003 105.522 144.739 105.417 142.474 105.311C137.708 105.101 132.968 104.89 128.202 104.653L128.228 104.627C128.439 104.285 128.676 103.863 128.913 103.389C129.203 102.81 129.492 102.125 129.703 101.362C129.782 101.151 129.914 100.203 130.098 98.8338C130.124 98.6758 130.151 98.4914 130.177 98.3335C130.23 97.9385 130.282 97.5172 130.335 97.0695C130.361 96.9379 130.361 96.8062 130.388 96.6745C130.388 96.6745 130.388 96.6745 130.388 96.6482C130.44 96.3059 130.467 95.9636 130.519 95.5949C130.546 95.3579 130.572 95.1209 130.598 94.884C130.625 94.6996 130.651 94.489 130.677 94.3046C130.677 94.2783 130.677 94.252 130.677 94.2257C130.756 93.62 130.835 92.988 130.914 92.3561C131.099 90.9341 131.257 89.5122 131.415 88.2746C131.625 86.484 131.81 85.0621 131.862 84.5091C131.862 84.4564 131.889 84.4038 131.889 84.3511C131.889 84.3248 131.889 84.2985 131.889 84.2721C131.915 84.0878 131.941 83.9035 131.968 83.7455C131.994 83.5612 132.02 83.3768 132.047 83.2188C132.099 82.9029 132.152 82.5869 132.205 82.2972C132.205 82.2709 132.205 82.2182 132.231 82.1919C132.257 82.0076 132.284 81.8232 132.31 81.6389C132.389 81.1913 132.442 80.77 132.521 80.3486C132.547 80.1906 132.573 80.0063 132.6 79.8483C132.731 79.1374 132.837 78.4264 132.968 77.7681C132.995 77.6101 133.021 77.4521 133.047 77.2941C133.205 76.3725 133.39 75.4772 133.548 74.6082C133.574 74.5293 133.574 74.4502 133.6 74.3713C133.653 74.1343 133.706 73.8709 133.758 73.634C133.811 73.397 133.864 73.16 133.916 72.923C133.969 72.6597 134.022 72.37 134.101 72.1067C134.153 71.896 134.206 71.6854 134.232 71.4747C134.285 71.2377 134.338 71.0008 134.39 70.7638C134.417 70.6321 134.443 70.5005 134.496 70.3688C134.522 70.2108 134.575 70.0791 134.601 69.9211C134.838 68.8942 135.075 67.9199 135.338 67.0246C135.391 66.8403 135.443 66.6823 135.47 66.5243C135.522 66.2873 135.601 66.0503 135.654 65.8133C135.68 65.7343 135.707 65.6553 135.733 65.5763C135.759 65.471 135.786 65.3657 135.812 65.2604C135.838 65.1814 135.865 65.1024 135.865 65.0497C135.891 64.918 135.944 64.8127 135.97 64.7074C136.023 64.5494 136.049 64.4177 136.102 64.2597C136.181 64.0228 136.26 63.7858 136.312 63.5488C136.365 63.4171 136.391 63.2855 136.444 63.1275C136.497 62.9958 136.523 62.8641 136.576 62.7325C136.655 62.4692 136.76 62.2058 136.839 61.9425C136.892 61.8109 136.918 61.6792 136.971 61.5739C136.997 61.4949 137.023 61.4159 137.05 61.3369C137.181 61.0209 137.287 60.7049 137.392 60.3889C137.471 60.1519 137.576 59.9413 137.655 59.7306C137.734 59.52 137.84 59.3093 137.919 59.0986C138.024 58.809 138.156 58.5457 138.261 58.2824C138.287 58.2034 138.314 58.1507 138.366 58.0717C138.419 57.9664 138.472 57.8347 138.524 57.7294C138.551 57.6504 138.603 57.5714 138.63 57.5187C138.682 57.4397 138.709 57.3344 138.761 57.2554C138.814 57.1764 138.84 57.0711 138.893 56.9921C138.972 56.8341 139.077 56.6498 139.156 56.4918C139.209 56.4128 139.235 56.3338 139.288 56.2548C139.341 56.1495 139.393 56.0441 139.446 55.9651C139.499 55.8598 139.578 55.7545 139.63 55.6491C139.736 55.4912 139.815 55.3332 139.92 55.1752C139.999 55.0435 140.078 54.9118 140.157 54.8065C140.21 54.7539 140.236 54.6749 140.289 54.6222C140.315 54.5695 140.368 54.5169 140.394 54.4379C140.42 54.3852 140.473 54.3325 140.499 54.2799C140.578 54.1745 140.657 54.0692 140.736 53.9639C140.921 53.7006 141.105 53.4899 141.289 53.2793C141.421 53.1213 141.579 52.9633 141.711 52.8316C142.421 52.0943 143.08 51.6467 143.58 51.3833C143.712 51.3044 143.817 51.2517 143.949 51.199C144.08 51.1464 144.186 51.0937 144.317 51.041C144.765 50.8567 145.265 50.6987 145.871 50.5407C145.976 50.5144 146.082 50.4881 146.187 50.4617C146.213 50.4617 146.24 50.4354 146.266 50.4354C146.292 50.4354 146.345 50.4091 146.371 50.4091C146.371 50.4091 146.371 50.4091 146.398 50.4091C146.766 50.3301 147.135 50.2511 147.556 50.1984C147.609 50.1984 147.662 50.1721 147.714 50.1721C147.767 50.1721 147.793 50.1721 147.846 50.1457C147.899 50.1457 147.951 50.1194 147.978 50.1194C148.03 50.1194 148.083 50.1194 148.136 50.0931C148.267 50.0667 148.425 50.0667 148.557 50.0404C148.662 50.0141 148.794 50.0141 148.899 49.9877C148.952 49.9877 149.057 49.9614 149.136 49.9614C149.162 49.9614 149.162 49.9614 149.189 49.9614C149.215 49.9614 149.215 49.9614 149.241 49.9614H149.294C149.557 49.9351 149.794 49.9088 150.084 49.8824C150.11 49.8824 150.11 49.8824 150.137 49.8824C150.163 49.8824 150.163 49.8824 150.189 49.8824C150.295 49.8824 150.4 49.8561 150.479 49.8561C150.769 49.8298 151.058 49.8034 151.348 49.7771C151.559 49.7508 151.796 49.7244 152.033 49.7244C152.085 49.7244 152.112 49.7244 152.164 49.7244C152.27 49.6981 152.401 49.6981 152.533 49.6981C152.612 49.6981 152.691 49.6718 152.77 49.6718C152.928 49.6454 153.112 49.6454 153.27 49.6191C153.534 49.5928 153.797 49.5664 154.06 49.5401C154.324 49.5138 154.613 49.4874 154.903 49.4611C156.035 49.3558 157.088 49.3031 158.036 49.2505C158.484 49.2241 158.932 49.2241 159.353 49.2241H159.406C159.432 49.2241 159.458 49.2241 159.485 49.2241C159.511 49.2241 159.537 49.2241 159.564 49.2241C159.722 49.2241 159.88 49.2241 160.038 49.2241C160.275 49.2241 160.485 49.2241 160.696 49.2241C160.749 49.2241 160.775 49.2241 160.828 49.2241C161.012 49.2241 161.17 49.2241 161.328 49.2241C161.539 49.2241 161.749 49.2505 161.96 49.2505C162.197 49.2505 162.408 49.2768 162.618 49.3031C162.724 49.3031 162.803 49.3031 162.881 49.3294C162.934 49.3294 162.96 49.3294 163.013 49.3294C163.066 49.3294 163.092 49.3294 163.145 49.3294C163.224 49.3294 163.303 49.3558 163.382 49.3558C163.382 49.3558 163.382 49.3558 163.408 49.3558C163.698 49.3821 163.987 49.4084 164.251 49.4611C164.277 49.4611 164.277 49.4611 164.303 49.4611C167.937 49.9877 169.122 51.1464 169.702 51.8047C170.333 52.5683 170.623 53.3056 170.807 53.8059C172.019 56.9921 178.47 75.0032 174.731 87.432Z" fill="#365588"/>
<path opacity="0.12" d="M145.582 80.4013C140.947 88.5116 134.232 88.6432 131.336 88.2482C131.52 86.958 131.705 85.615 131.889 84.2721C133.6 72.6596 135.549 65.1813 137.419 60.3099C138.814 56.7024 140.131 54.5432 141.289 53.2266C144.976 60.9155 149.61 73.3706 145.582 80.4013Z" fill="url(#paint17_linear)"/>
<path opacity="0.2" d="M165.226 62.127C164.62 64.2335 163.83 67.604 163.856 71.7908C163.883 77.6366 165.41 79.9011 164.304 82.824C163.461 85.1149 160.907 88.0114 152.797 89.723C158.853 93.9098 166.279 93.6728 170.518 89.723C174.021 86.4578 174.205 81.7444 174.205 80.5331C171.229 74.3977 168.227 68.2623 165.226 62.127Z" fill="#002544"/>
<path d="M164.304 49.382C163.856 54.4904 160.46 58.4666 156.352 59.1249C154.008 59.4935 151.112 58.8616 148.979 56.8077C146.319 54.2535 146.293 50.9356 146.293 50.3563C146.319 50.3563 146.372 50.33 146.398 50.33C146.398 50.33 146.398 50.33 146.425 50.33C146.793 50.251 147.162 50.172 147.583 50.1193C147.636 50.1193 147.689 50.093 147.741 50.093C147.794 50.093 147.82 50.093 147.873 50.0666C147.926 50.0666 147.978 50.0403 148.005 50.0403C148.057 50.0403 148.11 50.0403 148.163 50.014C148.294 49.9877 148.452 49.9876 148.584 49.9613C148.689 49.935 148.821 49.935 148.926 49.9087C148.979 49.9087 149.084 49.8823 149.163 49.8823C149.19 49.8823 149.19 49.8823 149.216 49.8823C149.242 49.8823 149.242 49.8823 149.268 49.8823H149.321C149.584 49.856 149.821 49.8297 150.111 49.8033C150.137 49.8033 150.137 49.8033 150.164 49.8033C150.19 49.8033 150.19 49.8033 150.216 49.8033C150.322 49.8033 150.427 49.777 150.506 49.777C150.796 49.7507 151.085 49.7243 151.375 49.698C151.586 49.6717 151.823 49.6453 152.06 49.6453C152.112 49.6453 152.139 49.6453 152.191 49.6453C152.297 49.619 152.428 49.619 152.56 49.619C152.639 49.619 152.718 49.5927 152.797 49.5927C152.955 49.5663 153.139 49.5663 153.297 49.54C153.561 49.5137 153.824 49.4873 154.087 49.461C154.351 49.4347 154.64 49.4083 154.93 49.382C156.062 49.2767 157.115 49.224 158.063 49.1714C158.511 49.145 158.959 49.145 159.38 49.145H159.433C159.459 49.145 159.485 49.145 159.512 49.145C159.538 49.145 159.564 49.145 159.591 49.145C159.749 49.145 159.907 49.145 160.065 49.145C160.302 49.145 160.512 49.145 160.723 49.145C160.776 49.145 160.802 49.145 160.855 49.145C161.039 49.145 161.197 49.145 161.355 49.145C161.566 49.145 161.776 49.1714 161.987 49.1714C162.224 49.1714 162.435 49.1977 162.645 49.224C162.751 49.224 162.83 49.224 162.909 49.2504C162.961 49.2504 162.988 49.2504 163.04 49.2504C163.093 49.2504 163.119 49.2504 163.172 49.2504C163.251 49.2504 163.33 49.2767 163.409 49.2767H163.435C163.751 49.303 164.041 49.3294 164.304 49.382Z" fill="#002544"/>
<path opacity="0.32" d="M157.296 33.3726C157.349 33.3989 157.375 33.3989 157.349 33.3726C157.349 33.3726 157.323 33.3726 157.296 33.3726Z" fill="url(#paint18_linear)"/>
<path opacity="0.32" d="M153.11 36.7694C154.137 35.8741 156.243 34.0836 157.033 33.5306C156.954 33.4516 156.849 33.3726 156.744 33.3199C156.454 33.1356 156.112 33.0039 155.743 32.9776C154.347 32.8196 153.11 33.9519 152.952 35.4792C152.925 35.9268 152.978 36.3744 153.11 36.7694Z" fill="url(#paint19_linear)"/>
<path d="M143.103 37.5068C143.366 37.9281 143.603 38.2178 143.788 38.4284C143.656 39.8504 143.709 41.009 143.788 41.8779C143.84 42.6152 143.919 43.2472 143.998 43.8002C144.156 44.8271 144.42 45.5118 145.052 46.0121C145.71 46.5387 146.474 46.644 147.184 46.6967C148.027 46.7494 148.975 46.644 149.949 46.3807L150.476 48.1186L150.675 49.768C150.357 49.7878 150.061 49.7952 149.747 49.8284C148.715 49.9024 148.658 49.9685 148.316 49.9949C148.237 50.4162 148.185 52.2264 149.923 54.412C151.371 56.2026 153.399 56.5186 154.478 56.6766C155.321 56.8082 158.876 57.2822 161.061 54.965C161.14 54.886 161.219 54.7806 161.298 54.7017C162.088 53.7274 162.273 52.6478 162.352 52.0948C162.431 51.6471 162.483 50.9362 162.325 50.0672C161.957 49.9882 161.562 49.9092 161.114 49.8566C160.693 49.8039 160.324 49.7776 159.982 49.7776L159.245 48.066L157.375 43.6948L156.69 42.1149C156.822 41.9569 156.954 41.7989 157.085 41.6409C157.77 40.772 158.349 39.824 158.744 38.7971C159.192 37.6121 159.455 36.3219 159.508 34.9789C159.666 31.1608 158.191 27.1846 155.058 25.631C154.32 25.2624 153.478 25.0254 152.609 24.9464C151.029 24.7884 149.37 25.1307 148.027 26.026C147.922 26.0787 147.79 26.184 147.606 26.342C147.026 26.8686 146.131 28.0273 145.341 30.6868C145.131 31.3978 144.92 32.2141 144.736 33.1357C144.709 33.1883 144.709 33.2673 144.683 33.32C144.367 34.2416 143.946 34.8209 143.577 35.1632C143.129 35.6109 142.708 35.8215 142.655 36.3219C142.603 36.7168 142.787 37.0065 143.103 37.5068Z" fill="#E6A67F"/>
<path d="M145.315 30.7398C145.763 30.0815 146.421 29.6865 147.159 29.6865C148.028 29.6865 148.791 30.2658 149.239 31.1085C149.344 31.3191 149.45 31.5298 149.502 31.7668C149.608 32.1354 149.687 32.5567 149.687 32.978C149.687 34.7949 148.554 36.2695 147.159 36.2695C145.868 36.2695 144.815 35.0056 144.657 33.3993C144.657 33.2677 144.631 33.136 144.631 33.0044C144.631 32.1091 144.894 31.3191 145.315 30.7398ZM147.159 35.7429C148.265 35.7429 149.186 34.5053 149.186 32.978C149.186 31.4508 148.291 30.2132 147.159 30.2132C146.053 30.2132 145.131 31.4508 145.131 32.978C145.157 34.479 146.053 35.7429 147.159 35.7429Z" fill="#271C41"/>
<path d="M149.226 31.1078L157.419 34.377L157.234 34.8416L149.04 31.5725L149.226 31.1078Z" fill="#271C41"/>
<path opacity="0.38" d="M149.949 46.3277C150.212 47.1704 150.519 48.0849 150.571 48.8212C151.361 48.5316 152.767 47.9866 154.004 46.828C154.873 46.0117 155.426 45.1954 155.769 44.5635C153.82 45.1691 151.871 45.7484 149.949 46.3277Z" fill="#365588"/>
<path d="M147.553 26.3156C147.553 26.3419 147.553 26.3419 147.579 26.3683C147.816 26.6842 149.528 25.9206 151.055 26.9476C152.556 27.9745 151.95 29.4754 153.399 33.5306C154.61 36.8748 155.505 37.1907 155.347 39.0603C155.242 40.4296 154.636 41.4302 155.216 42.4572C155.637 43.2208 156.401 43.5894 156.848 43.7211C156.875 43.7211 156.901 43.7474 156.927 43.7474C157.111 43.8001 157.243 43.8264 157.243 43.8264C157.269 43.8001 157.296 43.7474 157.348 43.6948C158.507 42.2728 163.063 36.3218 161.43 29.5544C161.088 28.1325 160.298 24.8673 157.559 23.4191C157.454 23.3664 157.375 23.3137 157.269 23.2874C152.898 21.3125 147.316 25.394 147.553 26.3156Z" fill="#002544"/>
<path d="M153.109 36.7694C153.135 36.9011 153.188 37.0064 153.267 37.1117C153.662 37.849 154.346 38.402 155.189 38.481C156.585 38.639 157.822 37.5067 157.98 35.9794C158.086 34.9788 157.717 34.0835 157.059 33.5042C156.98 33.4252 156.874 33.3462 156.769 33.2936C156.479 33.1092 156.137 32.9776 155.768 32.9512C154.373 32.7933 153.135 33.9255 152.977 35.4528C152.924 35.9268 152.977 36.3744 153.109 36.7694Z" fill="#E6A67F"/>
<path d="M146.21 33.3725C145.89 33.3725 145.63 33.1131 145.63 32.7932C145.63 32.4732 145.89 32.2139 146.21 32.2139C146.53 32.2139 146.789 32.4732 146.789 32.7932C146.789 33.1131 146.53 33.3725 146.21 33.3725Z" fill="black"/>
<path d="M147.64 28.0438L150.702 29.6323L150.375 30.2635L147.313 28.675L147.64 28.0438Z" fill="black"/>
<path d="M148.291 40.3765C148.159 40.7188 147.896 41.2454 147.369 41.7457C146.632 42.483 145.789 42.6937 145.421 42.7727" stroke="black" stroke-width="1.2" stroke-miterlimit="10" stroke-linecap="round"/>
<path d="M133.811 96.2271C133.706 96.2534 133.548 96.2798 133.363 96.3061C131.204 96.7011 126.491 97.1224 125.332 95.2001C124.7 94.1732 125.437 92.8829 125.648 91.9086C125.753 91.4873 125.727 91.1187 125.49 90.8553C125.279 90.6447 124.937 90.5657 124.568 90.592C124.173 90.6183 123.831 90.6973 123.173 90.908C123.147 90.908 123.147 90.908 123.12 90.9343C122.883 91.0133 122.699 91.0923 122.567 91.1187C122.33 91.4346 122.014 91.856 121.646 92.4353C121.646 92.4353 121.646 92.4353 121.646 92.4616C120.908 93.5675 120.54 93.9362 120.355 94.0942C120.329 94.1205 120.224 94.2258 120.039 94.3312C119.881 94.4365 119.671 94.5682 119.513 94.6471C119.381 94.6998 119.276 94.7262 119.223 94.6735C119.091 94.5682 119.276 94.1205 119.75 93.2252C120.092 92.5933 120.54 91.777 121.172 90.8027C121.277 90.6447 121.382 90.4867 121.488 90.3024C122.093 89.802 122.91 89.2227 123.963 88.6961C124.726 88.3275 125.437 88.0641 126.069 87.8798C126.122 87.8535 126.175 87.8535 126.227 87.8271H126.254C126.438 87.9851 126.622 88.1168 126.807 88.2748C127.755 89.0648 128.755 90.0127 129.756 91.066C130.704 92.0666 131.546 93.0936 132.284 94.0415C132.442 94.2522 132.6 94.4628 132.731 94.6471C133.126 95.1738 133.495 95.7268 133.811 96.2271Z" fill="#E6A67F"/>
<path d="M129.414 94.041C127.097 94.831 125.412 94.673 124.306 94.357C123.437 94.12 122.041 93.5144 120.856 94.12C120.725 94.199 120.382 94.357 120.409 94.5677C120.409 94.9627 121.541 95.226 122.7 95.4893C126.07 96.2266 127.755 96.5953 129.151 96.6479C130.099 96.6743 131.363 96.6479 132.837 96.4109C131.679 95.621 130.547 94.831 129.414 94.041Z" fill="#E6A67F"/>
<path opacity="0.17" d="M133.811 96.2271C133.705 96.2535 133.547 96.2798 133.363 96.3062C131.204 96.7011 126.49 97.1224 125.332 95.2002C124.7 94.1733 125.437 92.883 125.648 91.9087C126.701 92.6987 127.096 93.6466 128.649 94.0943C129.887 94.4366 131.177 94.2786 132.257 94.0153C132.863 94.7789 133.363 95.5425 133.811 96.2271Z" fill="url(#paint20_linear)"/>
<path d="M123.752 88.8535C123.752 88.8535 122.462 89.9858 122.462 90.4334C122.462 90.8811 121.935 93.5933 122.304 93.7513C122.672 93.9093 123.831 90.2228 123.831 90.2228L123.752 88.8535Z" fill="#E6A67F"/>
<path d="M124.068 89.0381C124.068 89.0381 122.909 91.1183 123.383 91.566C123.831 92.0136 124.99 92.9352 124.99 92.4876C124.99 92.04 124.305 91.1183 124.305 91.1183C124.305 91.1183 124.542 90.7233 124.99 89.9597C124.884 89.4857 124.621 89.1171 124.305 89.0381C124.226 89.0381 124.147 89.0381 124.068 89.0381Z" fill="#E6A67F"/>
<path opacity="0.38" d="M132.732 94.6471C129.624 95.1211 127.254 90.355 126.228 87.8271H126.254C126.438 87.9851 126.623 88.1168 126.807 88.2748C127.755 89.0648 128.755 90.0127 129.756 91.066C130.704 92.0666 131.547 93.0936 132.284 94.0415C132.416 94.2258 132.574 94.4365 132.732 94.6471Z" fill="#365588"/>
<path d="M171.23 98.7021C168.122 100.335 165.831 99.2814 156.958 98.2545C146.056 96.9642 137.05 96.6746 130.968 96.6482C131.126 95.674 131.284 94.6997 131.468 93.7254C131.547 93.3304 131.6 92.9091 131.679 92.5141C138.446 91.3028 144.002 90.6182 148.005 90.1969C153.297 89.6439 155.931 89.3806 158.353 89.2753C165.226 89.0119 166.253 89.6439 167.543 88.5906C170.413 86.2471 168.754 80.375 166.384 68.5782C165.015 61.8109 163.962 55.7018 163.119 50.3828C163.067 49.9878 162.988 49.6191 162.935 49.2505C163.014 49.2505 163.093 49.2505 163.172 49.2505C164.989 49.3295 167.859 49.7245 170.519 51.5414C173.994 53.9376 175.627 57.7294 176.733 62.8115C177.233 65.1287 182.895 92.5668 171.23 98.7021Z" fill="#002544"/>
<path opacity="0.17" d="M174.73 87.4321C173.94 97.2013 138.234 94.3574 131.44 93.7518C131.519 93.3568 131.572 92.9355 131.651 92.5405C138.418 91.3292 143.975 90.6446 147.977 90.2233C153.27 89.6703 155.903 89.407 158.325 89.3016C165.198 89.0383 166.225 89.6703 167.515 88.617C170.386 86.2734 168.727 80.4014 166.357 68.6046C164.988 61.8373 163.934 55.7282 163.092 50.4091L163.144 49.2769C163.381 49.7245 175.573 76.7149 174.73 87.4321Z" fill="url(#paint21_linear)"/>
<path d="M123.646 88.8535C123.014 89.4592 122.382 90.0648 121.75 90.6704C121.671 91.2761 121.592 91.908 121.513 92.5137C121.487 93.33 121.487 94.3043 121.75 94.3569C122.013 94.4096 122.382 93.5406 122.435 93.4353C122.856 92.4873 122.724 91.8554 122.882 90.9074C122.988 90.3808 123.172 89.6698 123.646 88.8535Z" fill="#E6A67F"/>
<path d="M174.099 193.708C174.099 195.236 172.94 196.473 171.518 196.473C170.096 196.473 168.938 195.236 168.938 193.708C168.938 192.55 169.622 191.549 170.57 191.128L162.381 141.044L155.93 101.599L157.325 101.335L163.856 141.255L171.992 190.97C173.177 191.207 174.099 192.339 174.099 193.708Z" fill="#E6E3F4"/>
<path d="M163.856 141.255C163.355 141.176 162.881 141.097 162.381 141.018L155.93 101.599L157.325 101.335L163.856 141.255Z" fill="url(#paint22_linear)"/>
<path d="M169.155 99.4755V102.434C169.155 102.927 168.894 103.322 168.563 103.322H79.8015C79.4709 103.322 79.21 102.927 79.21 102.434V99.4755C79.21 98.9824 79.4709 98.5879 79.8015 98.5879H168.581C168.894 98.5879 169.155 98.9824 169.155 99.4755Z" fill="url(#paint23_linear)"/>
<path d="M123.294 98.834H86.3536C85.5827 98.834 84.9081 98.3522 84.6833 97.6134L74.5326 65.9086C74.3399 65.3304 74.6611 64.7201 75.2393 64.5594C75.8175 64.3667 76.4278 64.6879 76.5884 65.2661L86.6748 96.6818H123.326C123.937 96.6818 124.419 97.1637 124.419 97.774C124.419 98.3843 123.905 98.834 123.294 98.834Z" fill="#E6E3F4"/>
<path d="M114.695 26.4603C113.083 26.5734 111.359 25.7818 110.369 24.5097C109.493 23.4072 109.691 22.5591 109.267 20.8912C107.967 15.7744 103.67 14.163 104.574 11.534C104.659 11.3078 104.857 10.6859 105.422 10.4314C107.514 9.49855 111.755 15.209 112.405 16.0854C112.009 14.9829 108.051 3.90116 111.726 1.15901C111.924 1.01766 112.518 0.565345 113.225 0.650154C116.363 0.989389 117.38 10.6859 117.522 11.9863C117.748 7.94372 119.133 4.86233 121.225 4.3252C121.423 4.26867 122.158 4.07078 122.808 4.43828C124.476 5.34291 124.391 9.10277 123.458 11.8449C122.752 13.9369 121.564 15.3504 121.734 15.52C122.045 15.7744 124.815 11.1947 127.19 11.6753C128.349 11.9297 129.452 13.3715 129.48 14.8132C129.536 17.725 125.126 17.7815 119.048 23.6616C117.663 25.0186 116.532 26.319 114.695 26.4603Z" fill="#EBDEDE"/>
<path opacity="0.42" d="M121.367 23.8877V26.5168H120.632C120.604 27.0822 120.547 27.6193 120.519 28.1847C120.491 28.6087 120.463 29.061 120.434 29.5133C120.236 32.5099 120.039 35.4782 119.812 38.4748H109.579C109.296 35.5065 109.042 32.5099 108.759 29.5416C108.731 29.0893 108.674 28.6653 108.646 28.2129C108.589 27.6476 108.533 27.0822 108.504 26.545H107.741V23.916H121.367V23.8877Z" fill="#BDD3DE"/>
<path opacity="0.42" d="M120.519 28.1846C120.491 28.6086 120.462 29.0609 120.434 29.5132C118.964 29.7959 117.098 30.0786 114.865 30.1069C112.434 30.1352 110.342 29.8525 108.787 29.5415C108.759 29.0892 108.702 28.6652 108.674 28.2128C110.257 28.5238 112.377 28.8348 114.893 28.8065C117.126 28.75 119.049 28.4955 120.519 28.1846Z" fill="#BDD3DE"/>
<path opacity="0.42" d="M81.1953 38.8989L83.8809 39.1534L87.4146 1.15897C87.1602 0.59358 86.5948 0.226074 86.0011 0.226074C85.2096 0.226074 84.7573 0.876276 84.729 0.932815C83.5417 13.5693 82.3544 26.2341 81.1953 38.8989Z" fill="#BDD3DE"/>
<path opacity="0.5" d="M83.9658 38.7011L86.6514 38.9555L90.2134 0.932899C89.959 0.367506 89.3936 0 88.7999 0C88.0084 0 87.5561 0.650201 87.5278 0.706741C86.3405 13.3433 85.1531 26.0081 83.9658 38.7011Z" fill="white"/>
<path d="M75.8809 38.7011L81.45 39.2099L84.3617 8.02852C84.1639 7.80236 83.1744 6.75638 81.5348 6.67158C80.093 6.58677 79.0753 7.29351 78.8209 7.51966C77.8315 17.8946 76.842 28.2978 75.8809 38.7011Z" fill="#EBDEDE"/>
<path opacity="0.42" d="M92.9551 38.3054L99.2027 38.8991L101.323 16.142C101.097 15.9724 99.9377 15.1809 98.1002 15.0395C96.4888 14.9264 95.358 15.407 95.0753 15.5484C94.3686 23.1246 93.6618 30.7009 92.9551 38.3054Z" fill="#BDD3DE"/>
<path d="M86.708 38.7859L94.0016 39.4644L96.8851 8.28299C96.6306 8.05683 95.302 6.98259 93.1535 6.84124C91.2594 6.72816 89.959 7.40663 89.6198 7.60452C88.6304 17.9795 87.6692 28.3827 86.708 38.7859Z" fill="#EBDEDE"/>
<path opacity="0.5" d="M124.476 38.1636H59.3428V42.5171H124.476V38.1636Z" fill="#EEEDEE"/>
<defs>
<linearGradient id="paint0_linear" x1="48.0461" y1="167.639" x2="48.7258" y2="149.935" gradientUnits="userSpaceOnUse">
<stop stop-color="#EFDDCB"/>
<stop offset="0.528" stop-color="#EFD8C7"/>
<stop offset="0.6959" stop-color="#F0BDAF"/>
<stop offset="0.8709" stop-color="#F2A89C"/>
<stop offset="0.985" stop-color="#F2A095"/>
</linearGradient>
<linearGradient id="paint1_linear" x1="12.0974" y1="171.368" x2="16.565" y2="148.763" gradientUnits="userSpaceOnUse">
<stop stop-color="#EFDDCB"/>
<stop offset="0.2108" stop-color="#EFD8C7"/>
<stop offset="0.4952" stop-color="#F0BDAF"/>
<stop offset="0.7916" stop-color="#F2A89C"/>
<stop offset="0.985" stop-color="#F2A095"/>
</linearGradient>
<linearGradient id="paint2_linear" x1="35.1666" y1="120.756" x2="3.87876" y2="120.756" gradientUnits="userSpaceOnUse">
<stop stop-color="white" stop-opacity="0.5"/>
<stop offset="0.8362" stop-color="#F07125"/>
</linearGradient>
<linearGradient id="paint3_linear" x1="37.5536" y1="37.6592" x2="52.8714" y2="41.5183" gradientUnits="userSpaceOnUse">
<stop stop-color="#EFDDCB"/>
<stop offset="0.2108" stop-color="#EFD8C7"/>
<stop offset="0.4952" stop-color="#F0BDAF"/>
<stop offset="0.7916" stop-color="#F2A89C"/>
<stop offset="0.985" stop-color="#F2A095"/>
</linearGradient>
<linearGradient id="paint4_linear" x1="37.5206" y1="66.3781" x2="37.7703" y2="59.8758" gradientUnits="userSpaceOnUse">
<stop stop-color="#EFDDCB"/>
<stop offset="0.2108" stop-color="#EFD8C7"/>
<stop offset="0.4952" stop-color="#F0BDAF"/>
<stop offset="0.7916" stop-color="#F2A89C"/>
<stop offset="0.985" stop-color="#F2A095"/>
</linearGradient>
<linearGradient id="paint5_linear" x1="39.6534" y1="42.656" x2="31.9341" y2="42.656" gradientUnits="userSpaceOnUse">
<stop stop-color="white" stop-opacity="0.5"/>
<stop offset="0.8362" stop-color="#F07125"/>
</linearGradient>
<linearGradient id="paint6_linear" x1="33.8852" y1="49.6502" x2="23.8823" y2="49.6502" gradientUnits="userSpaceOnUse">
<stop stop-color="white" stop-opacity="0.5"/>
<stop offset="0.8362" stop-color="#F07125"/>
</linearGradient>
<linearGradient id="paint7_linear" x1="34.6181" y1="46.2714" x2="6.65541" y2="46.2714" gradientUnits="userSpaceOnUse">
<stop stop-color="#002544"/>
<stop offset="0.9935" stop-color="#640042"/>
</linearGradient>
<linearGradient id="paint8_linear" x1="37.7947" y1="26.4694" x2="38.6427" y2="4.38305" gradientUnits="userSpaceOnUse">
<stop stop-color="#002544"/>
<stop offset="0.0164411" stop-color="#002340"/>
<stop offset="0.1897" stop-color="#00101D"/>
<stop offset="0.3317" stop-color="#000408"/>
<stop offset="0.4241"/>
<stop offset="0.8106"/>
</linearGradient>
<linearGradient id="paint9_linear" x1="32.1125" y1="23.9351" x2="32.8081" y2="5.81727" gradientUnits="userSpaceOnUse">
<stop stop-color="#EFDDCB"/>
<stop offset="0.331" stop-color="#F1BDAF"/>
<stop offset="0.6278" stop-color="#F2A89C"/>
<stop offset="0.8209" stop-color="#F2A095"/>
</linearGradient>
<linearGradient id="paint10_linear" x1="23.762" y1="34.7714" x2="25.1015" y2="-0.118476" gradientUnits="userSpaceOnUse">
<stop stop-color="#002544"/>
<stop offset="0.1924" stop-color="#00172A"/>
<stop offset="0.4174" stop-color="#000A13"/>
<stop offset="0.6287" stop-color="#000305"/>
<stop offset="0.8106"/>
</linearGradient>
<linearGradient id="paint11_linear" x1="104.303" y1="104.973" x2="93.9464" y2="120.26" gradientUnits="userSpaceOnUse">
<stop offset="0.3525" stop-color="#002544"/>
<stop offset="1" stop-color="#E6E3F4"/>
</linearGradient>
<linearGradient id="paint12_linear" x1="129.639" y1="99.1965" x2="108.254" y2="174.647" gradientUnits="userSpaceOnUse">
<stop offset="0.6191" stop-color="#B56819"/>
<stop offset="1" stop-color="#3C0055"/>
</linearGradient>
<linearGradient id="paint13_linear" x1="149.615" y1="97.928" x2="89.1721" y2="187.151" gradientUnits="userSpaceOnUse">
<stop stop-color="#F07125"/>
<stop offset="1" stop-color="#9E5625"/>
</linearGradient>
<linearGradient id="paint14_linear" x1="118.242" y1="109.105" x2="102.672" y2="132.089" gradientUnits="userSpaceOnUse">
<stop stop-color="white" stop-opacity="0.5"/>
<stop offset="0.8362" stop-color="#F07125"/>
</linearGradient>
<linearGradient id="paint15_linear" x1="100.015" y1="71.0802" x2="98.0584" y2="73.968" gradientUnits="userSpaceOnUse">
<stop stop-color="white" stop-opacity="0.5"/>
<stop offset="0.8362" stop-color="#F07125"/>
</linearGradient>
<linearGradient id="paint16_linear" x1="105.187" y1="68.8915" x2="136.779" y2="68.8915" gradientUnits="userSpaceOnUse">
<stop stop-color="white" stop-opacity="0.5"/>
<stop offset="0.8362" stop-color="#F07125"/>
</linearGradient>
<linearGradient id="paint17_linear" x1="149.079" y1="58.4898" x2="129.68" y2="87.1251" gradientUnits="userSpaceOnUse">
<stop stop-color="white" stop-opacity="0.5"/>
<stop offset="0.8362" stop-color="#F07125"/>
</linearGradient>
<linearGradient id="paint18_linear" x1="157.366" y1="33.3848" x2="157.304" y2="33.3848" gradientUnits="userSpaceOnUse">
<stop stop-color="white" stop-opacity="0.5"/>
<stop offset="0.8362" stop-color="#F07125"/>
</linearGradient>
<linearGradient id="paint19_linear" x1="157.051" y1="34.8694" x2="152.951" y2="34.8694" gradientUnits="userSpaceOnUse">
<stop stop-color="white" stop-opacity="0.5"/>
<stop offset="0.8362" stop-color="#F07125"/>
</linearGradient>
<linearGradient id="paint20_linear" x1="125.094" y1="94.2902" x2="133.824" y2="94.2902" gradientUnits="userSpaceOnUse">
<stop stop-color="white" stop-opacity="0.5"/>
<stop offset="0.8362" stop-color="#F07125"/>
</linearGradient>
<linearGradient id="paint21_linear" x1="131.447" y1="71.9215" x2="174.77" y2="71.9215" gradientUnits="userSpaceOnUse">
<stop stop-color="white" stop-opacity="0.5"/>
<stop offset="1" stop-color="#002544" stop-opacity="0.4"/>
</linearGradient>
<linearGradient id="paint22_linear" x1="168.409" y1="108.86" x2="151.569" y2="133.719" gradientUnits="userSpaceOnUse">
<stop offset="0.3525" stop-color="#002544"/>
<stop offset="1" stop-color="#E6E3F4"/>
</linearGradient>
<linearGradient id="paint23_linear" x1="127.93" y1="82.219" x2="113.939" y2="117.049" gradientUnits="userSpaceOnUse">
<stop offset="0.3511" stop-color="#271C41"/>
<stop offset="1"/>
</linearGradient>
</defs>
</svg>
