<svg width="196" height="198" viewBox="0 0 196 198" fill="none" xmlns="http://www.w3.org/2000/svg">
<path d="M196 175V174.88C196 173.296 195.066 172 193.927 172H2.07259C0.9336 172 0 173.296 0 174.88V175H196Z" fill="#EEEDEE"/>
<path d="M188.319 4.83887H137.848V35.3528H188.319V4.83887Z" fill="white"/>
<path d="M141.06 4.83887H140.76V35.3528H141.06V4.83887Z" fill="#EEEDEE"/>
<path d="M145.064 4.83887H144.765V35.3528H145.064V4.83887Z" fill="#EEEDEE"/>
<path d="M149.325 4.83887H149.025V35.3528H149.325V4.83887Z" fill="#EEEDEE"/>
<path d="M153.33 4.83887H153.03V35.9095H153.33V4.83887Z" fill="#EEEDEE"/>
<path d="M157.763 4.83887H157.463V35.3528H157.763V4.83887Z" fill="#EEEDEE"/>
<path d="M161.745 4.83887H161.445V35.3528H161.745V4.83887Z" fill="#EEEDEE"/>
<path d="M166.028 4.83887H165.729V35.3528H166.028V4.83887Z" fill="#EEEDEE"/>
<path d="M170.032 4.83887H169.732V35.3528H170.032V4.83887Z" fill="#EEEDEE"/>
<path d="M174.101 4.83887H173.801V35.3528H174.101V4.83887Z" fill="#EEEDEE"/>
<path d="M178.104 4.83887H177.805V35.3528H178.104V4.83887Z" fill="#EEEDEE"/>
<path d="M182.517 4.83887H182.217V35.3528H182.517V4.83887Z" fill="#EEEDEE"/>
<path d="M186.52 4.83887H186.221V35.3528H186.52V4.83887Z" fill="#EEEDEE"/>
<path d="M188.319 8.09375H137.848V8.37212H188.319V8.09375Z" fill="#EEEDEE"/>
<path d="M188.319 11.7339H137.848V12.0123H188.319V11.7339Z" fill="#EEEDEE"/>
<path d="M188.319 15.3955H137.848V15.6739H188.319V15.3955Z" fill="#EEEDEE"/>
<path d="M188.319 19.0356H137.848V19.314H188.319V19.0356Z" fill="#EEEDEE"/>
<path d="M188.319 22.6978H137.848V22.9761H188.319V22.6978Z" fill="#EEEDEE"/>
<path d="M188.319 26.3379H137.848V26.6163H188.319V26.3379Z" fill="#EEEDEE"/>
<path d="M188.319 29.9995H137.848V30.2779H188.319V29.9995Z" fill="#EEEDEE"/>
<path d="M188.319 33.6396H137.848V33.918H188.319V33.6396Z" fill="#EEEDEE"/>
<path opacity="0.42" d="M159.261 32.3553H188.34V5.24609L159.261 32.3553ZM183.907 28.3938H169.582L183.907 15.032V28.3938Z" fill="#BDD3DE"/>
<path d="M137.846 1.11328H116.904V33.9398H137.846V1.11328Z" fill="#EEEDEE"/>
<path opacity="0.42" d="M137.846 1.15625H116.904V33.9828H137.846V1.15625Z" fill="#BDD3DE"/>
<path d="M117.996 1.11328H116.904V33.9827H117.996V1.11328Z" fill="white"/>
<path d="M117.44 3.53323C117.653 3.53323 117.826 3.37025 117.826 3.1692C117.826 2.96816 117.653 2.80518 117.44 2.80518C117.227 2.80518 117.055 2.96816 117.055 3.1692C117.055 3.37025 117.227 3.53323 117.44 3.53323Z" fill="#EEEDEE"/>
<path d="M117.44 8.69338C117.653 8.69338 117.826 8.5304 117.826 8.32936C117.826 8.12831 117.653 7.96533 117.44 7.96533C117.227 7.96533 117.055 8.12831 117.055 8.32936C117.055 8.5304 117.227 8.69338 117.44 8.69338Z" fill="#EEEDEE"/>
<path d="M117.44 13.833C117.653 13.833 117.826 13.6701 117.826 13.469C117.826 13.268 117.653 13.105 117.44 13.105C117.227 13.105 117.055 13.268 117.055 13.469C117.055 13.6701 117.227 13.833 117.44 13.833Z" fill="#EEEDEE"/>
<path d="M117.44 18.8008C117.653 18.8008 117.826 18.6378 117.826 18.4368C117.826 18.2357 117.653 18.0728 117.44 18.0728C117.227 18.0728 117.055 18.2357 117.055 18.4368C117.055 18.6378 117.227 18.8008 117.44 18.8008Z" fill="#EEEDEE"/>
<path d="M117.44 23.7686C117.653 23.7686 117.826 23.6056 117.826 23.4046C117.826 23.2035 117.653 23.0405 117.44 23.0405C117.227 23.0405 117.055 23.2035 117.055 23.4046C117.055 23.6056 117.227 23.7686 117.44 23.7686Z" fill="#EEEDEE"/>
<path d="M117.44 28.7149C117.653 28.7149 117.826 28.5519 117.826 28.3508C117.826 28.1498 117.653 27.9868 117.44 27.9868C117.227 27.9868 117.055 28.1498 117.055 28.3508C117.055 28.5519 117.227 28.7149 117.44 28.7149Z" fill="#EEEDEE"/>
<path d="M117.44 33.6831C117.653 33.6831 117.826 33.5202 117.826 33.3191C117.826 33.1181 117.653 32.9551 117.44 32.9551C117.227 32.9551 117.055 33.1181 117.055 33.3191C117.055 33.5202 117.227 33.6831 117.44 33.6831Z" fill="#EEEDEE"/>
<path d="M133.201 11.2842H119.496V35.7381H133.201C134.293 35.7381 135.192 34.9673 135.192 34.0251V12.9972C135.192 12.0551 134.293 11.2842 133.201 11.2842Z" fill="#EBDEDE"/>
<path d="M132.665 15.6953H122.022V19.0358H132.665V15.6953Z" fill="white"/>
<path d="M120.138 12.6976C120.095 12.6976 120.053 12.6762 120.01 12.6548L118.489 11.4556C118.404 11.3914 118.382 11.2415 118.447 11.1559C118.511 11.0702 118.661 11.0488 118.746 11.113L120.267 12.3122C120.352 12.3764 120.374 12.5263 120.309 12.612C120.267 12.6548 120.202 12.6976 120.138 12.6976Z" fill="#EEEDEE"/>
<path d="M120.138 14.4105C120.095 14.4105 120.053 14.3891 120.01 14.3677L118.489 13.1685C118.404 13.1043 118.382 12.9544 118.447 12.8688C118.511 12.7831 118.661 12.7617 118.746 12.8259L120.267 14.0251C120.352 14.0893 120.374 14.2392 120.309 14.3249C120.267 14.3891 120.202 14.4105 120.138 14.4105Z" fill="#EEEDEE"/>
<path d="M120.138 16.038C120.095 16.038 120.053 16.0165 120.01 15.9951L118.489 14.796C118.404 14.7317 118.382 14.5818 118.447 14.4962C118.511 14.4105 118.661 14.3891 118.746 14.4534L120.267 15.6525C120.352 15.7168 120.374 15.8666 120.309 15.9523C120.267 16.0165 120.202 16.038 120.138 16.038Z" fill="#EEEDEE"/>
<path d="M120.138 17.7508C120.095 17.7508 120.053 17.7294 120.01 17.708L118.489 16.5089C118.404 16.4446 118.382 16.2947 118.447 16.2091C118.511 16.1234 118.661 16.102 118.746 16.1663L120.267 17.3654C120.352 17.4296 120.374 17.5795 120.309 17.6652C120.267 17.7294 120.202 17.7508 120.138 17.7508Z" fill="#EEEDEE"/>
<path d="M120.138 19.4852C120.095 19.4852 120.053 19.4638 120.01 19.4424L118.489 18.2432C118.404 18.179 118.382 18.0291 118.447 17.9435C118.511 17.8578 118.661 17.8364 118.746 17.9006L120.267 19.0998C120.352 19.164 120.374 19.3139 120.309 19.3996C120.267 19.4424 120.202 19.4852 120.138 19.4852Z" fill="#EEEDEE"/>
<path d="M120.138 21.1986C120.095 21.1986 120.053 21.1772 120.01 21.1558L118.489 19.9566C118.404 19.8924 118.382 19.7425 118.447 19.6568C118.511 19.5712 118.661 19.5498 118.746 19.614L120.267 20.8132C120.352 20.8774 120.374 21.0273 120.309 21.1129C120.267 21.1772 120.202 21.1986 120.138 21.1986Z" fill="#EEEDEE"/>
<path d="M120.138 22.826C120.095 22.826 120.053 22.8046 120.01 22.7832L118.489 21.5841C118.404 21.5198 118.382 21.3699 118.447 21.2843C118.511 21.1986 118.661 21.1772 118.746 21.2415L120.267 22.4406C120.352 22.5048 120.374 22.6547 120.309 22.7404C120.267 22.8046 120.202 22.826 120.138 22.826Z" fill="#EEEDEE"/>
<path d="M120.138 24.5389C120.095 24.5389 120.053 24.5175 120.01 24.4961L118.489 23.297C118.404 23.2327 118.382 23.0828 118.447 22.9972C118.511 22.9115 118.661 22.8901 118.746 22.9543L120.267 24.1535C120.352 24.2177 120.374 24.3676 120.309 24.4533C120.267 24.5175 120.202 24.5389 120.138 24.5389Z" fill="#EEEDEE"/>
<path d="M120.138 26.0379C120.095 26.0379 120.053 26.0165 120.01 25.9951L118.489 24.796C118.404 24.7317 118.382 24.5818 118.447 24.4962C118.511 24.4105 118.661 24.3891 118.746 24.4534L120.267 25.6525C120.352 25.7168 120.374 25.8666 120.309 25.9523C120.267 26.0165 120.202 26.0379 120.138 26.0379Z" fill="#EEEDEE"/>
<path d="M120.138 27.7723C120.095 27.7723 120.053 27.7509 120.01 27.7295L118.489 26.5304C118.404 26.4661 118.382 26.3162 118.447 26.2306C118.511 26.1449 118.661 26.1235 118.746 26.1877L120.267 27.3869C120.352 27.4511 120.374 27.601 120.309 27.6867C120.267 27.7295 120.202 27.7723 120.138 27.7723Z" fill="#EEEDEE"/>
<path d="M120.138 29.3783C120.095 29.3783 120.053 29.3569 120.01 29.3355L118.489 28.1363C118.404 28.0721 118.382 27.9222 118.447 27.8365C118.511 27.7509 118.661 27.7295 118.746 27.7937L120.267 28.9928C120.352 29.0571 120.374 29.207 120.309 29.2926C120.267 29.3569 120.202 29.3783 120.138 29.3783Z" fill="#EEEDEE"/>
<path d="M120.138 31.1127C120.095 31.1127 120.053 31.0912 120.01 31.0698L118.489 29.8707C118.404 29.8064 118.382 29.6566 118.447 29.5709C118.511 29.4852 118.661 29.4638 118.746 29.5281L120.267 30.7272C120.352 30.7915 120.374 30.9413 120.309 31.027C120.267 31.0912 120.202 31.1127 120.138 31.1127Z" fill="#EEEDEE"/>
<path d="M120.138 32.826C120.095 32.826 120.053 32.8046 120.01 32.7832L118.489 31.5841C118.404 31.5198 118.382 31.3699 118.447 31.2843C118.511 31.1986 118.661 31.1772 118.746 31.2415L120.267 32.4406C120.352 32.5048 120.374 32.6547 120.309 32.7404C120.267 32.8046 120.202 32.826 120.138 32.826Z" fill="#EEEDEE"/>
<path d="M120.138 34.5604C120.095 34.5604 120.053 34.539 120.01 34.5176L118.489 33.3184C118.404 33.2542 118.382 33.1043 118.447 33.0187C118.511 32.933 118.661 32.9116 118.746 32.9758L120.267 34.175C120.352 34.2392 120.374 34.3891 120.309 34.4748C120.267 34.539 120.202 34.5604 120.138 34.5604Z" fill="#EEEDEE"/>
<path d="M154.935 8.715V33.276C154.935 34.3895 153.822 35.2889 152.43 35.2889H135.171V6.70215H152.43C153.822 6.70215 154.935 7.60151 154.935 8.715Z" fill="#EBDEDE"/>
<path d="M152.73 15.9741H140.289V17.9227H152.73V15.9741Z" fill="white"/>
<path d="M152.73 18.6294H140.289V20.578H152.73V18.6294Z" fill="white"/>
<path d="M138.233 6.70215H135.171V35.2675H138.233V6.70215Z" fill="#EEEDEE"/>
<path d="M188.318 16.9805V24.7535H116.905V16.9805H112.473V31.4773V34.368V34.625H112.494C112.623 35.246 113.222 35.7385 113.929 35.7385H191.295C192.002 35.7385 192.601 35.2674 192.73 34.625H192.751V34.368V31.4773V16.9805H188.318ZM188.318 27.473V30.1068H116.905V27.473H188.318Z" fill="#EEEDEE"/>
<g opacity="0.42">
<path opacity="0.42" d="M116.904 18.4365V18.6507C115.726 18.6935 113.906 19.186 112.472 19.6571V19.4429C113.885 18.9504 115.684 18.4579 116.904 18.4365Z" fill="#BDD3DE"/>
<path opacity="0.42" d="M114.356 22.2912C115.277 21.7987 116.198 21.2848 116.904 20.728V20.985C116.198 21.5203 115.32 21.9914 114.463 22.4625C113.756 22.8479 113.071 23.2334 112.472 23.6188V23.3619C113.05 22.9978 113.692 22.6338 114.356 22.2912Z" fill="#BDD3DE"/>
<path opacity="0.42" d="M117.889 24.7534C115.898 25.8027 113.864 26.8733 112.472 27.0232V26.8091C113.756 26.6592 115.662 25.6956 117.44 24.7534H117.889Z" fill="#BDD3DE"/>
<path opacity="0.42" d="M120.095 30.1069C119.838 30.4924 119.603 30.8992 119.346 31.2847C118.318 32.8907 117.183 34.6465 116.669 35.7386H116.434C116.862 34.775 117.825 33.2547 119.174 31.1776C119.389 30.835 119.624 30.471 119.86 30.1283H120.095V30.1069Z" fill="#BDD3DE"/>
<path opacity="0.42" d="M123.135 24.7534C122.835 25.5243 122.343 26.4665 121.743 27.4729H121.486C122.086 26.4665 122.6 25.5243 122.9 24.7534H123.135Z" fill="#BDD3DE"/>
<path opacity="0.42" d="M123.371 30.1069C121.744 32.2697 120.052 34.4324 118.639 35.7172H118.317C119.731 34.4538 121.487 32.2483 123.114 30.1069H123.371Z" fill="#BDD3DE"/>
<path opacity="0.42" d="M127.525 24.7534C126.926 25.3958 126.155 26.4022 125.341 27.4729H125.084C125.983 26.2952 126.69 25.3744 127.247 24.7534H127.525Z" fill="#BDD3DE"/>
<path opacity="0.42" d="M128.06 35.7387H127.846C127.739 34.4325 127.996 32.2912 128.253 30.1284H128.467C128.21 32.2269 127.953 34.4539 128.06 35.7387Z" fill="#BDD3DE"/>
<path opacity="0.42" d="M128.767 27.4729H128.553C128.66 26.3808 128.745 25.3958 128.724 24.7534H128.938C128.96 25.3744 128.895 26.2952 128.767 27.4729Z" fill="#BDD3DE"/>
<path opacity="0.42" d="M132.3 30.1069C131.936 30.8136 131.551 31.7558 131.208 32.6337C130.737 33.79 130.288 34.9249 129.817 35.7386H129.56C130.052 34.9035 130.545 33.6829 130.994 32.548C131.358 31.6487 131.701 30.7922 132.044 30.1069H132.3Z" fill="#BDD3DE"/>
<path opacity="0.42" d="M135.362 35.7386H135.148C134.955 35.032 134.827 34.0898 134.677 33.0834C134.527 32.0555 134.356 30.9421 134.142 30.1069H134.356C134.57 30.8992 134.72 31.9699 134.891 33.0406C135.02 33.9827 135.169 34.9892 135.362 35.7386Z" fill="#BDD3DE"/>
<path opacity="0.42" d="M143.349 30.1069C141.722 31.3702 139.966 33.2546 138.574 34.7321C138.231 35.0962 137.932 35.4174 137.653 35.7171H137.354C137.675 35.3959 138.039 35.0105 138.424 34.5822C139.752 33.1475 141.422 31.3702 143.007 30.0854H143.349V30.1069Z" fill="#BDD3DE"/>
<path opacity="0.42" d="M153.97 35.7386H153.649C152.857 34.9677 151.979 33.9613 151.101 32.9121C150.244 31.9271 149.388 30.9206 148.574 30.1069H148.874C149.645 30.8992 150.459 31.8414 151.251 32.7622C152.193 33.8543 153.135 34.9463 153.97 35.7386Z" fill="#BDD3DE"/>
<path opacity="0.42" d="M154.528 33.2119C155.234 34.1327 155.92 35.0321 156.284 35.7387H156.048C155.663 35.0535 154.999 34.1541 154.356 33.3404C153.414 32.0984 152.515 30.9207 152.279 30.1284H152.493C152.75 30.8779 153.671 32.0984 154.528 33.2119Z" fill="#BDD3DE"/>
<path opacity="0.42" d="M159.559 35.7387H159.26C158.746 35.182 158.146 34.4967 157.461 33.683C156.39 32.4196 155.191 30.9849 154.185 30.1284H154.506C155.448 30.9849 156.54 32.2697 157.611 33.5545C158.275 34.2826 158.96 35.0963 159.559 35.7387Z" fill="#BDD3DE"/>
<path opacity="0.42" d="M160.395 27.4729H160.181C160.116 26.3594 160.138 25.4172 160.373 24.7534H160.587C160.352 25.3744 160.309 26.3594 160.395 27.4729Z" fill="#BDD3DE"/>
<path opacity="0.42" d="M161.551 35.7386H161.337C161.273 34.8179 161.059 33.5116 160.844 32.2911C160.716 31.563 160.588 30.835 160.48 30.1069H160.695C160.802 30.835 160.93 31.563 161.037 32.2483C161.316 33.7472 161.508 34.9035 161.551 35.7386Z" fill="#BDD3DE"/>
<path opacity="0.42" d="M163.328 27.4729H163.114C162.857 26.338 162.579 25.3744 162.236 24.7534H162.472C162.814 25.4172 163.093 26.3808 163.328 27.4729Z" fill="#BDD3DE"/>
<path opacity="0.42" d="M164.806 35.7386H164.592C164.399 34.9035 164.206 33.7258 163.971 32.2268C163.863 31.5416 163.756 30.835 163.628 30.1069H163.842C163.949 30.7922 164.078 31.4988 164.185 32.184C164.377 33.4902 164.592 34.7964 164.806 35.7386Z" fill="#BDD3DE"/>
<path opacity="0.42" d="M165.791 35.7386H165.555C165.555 35.7172 165.534 35.6958 165.512 35.6744C165.106 34.8607 164.442 33.5116 164.784 30.1069H164.999C164.656 33.4474 165.298 34.775 165.705 35.5673C165.727 35.6316 165.748 35.6744 165.791 35.7386Z" fill="#BDD3DE"/>
<path opacity="0.42" d="M166.005 24.7534C165.791 25.5243 165.577 26.4451 165.384 27.4729H165.17C165.363 26.4665 165.577 25.5457 165.791 24.7534H166.005Z" fill="#BDD3DE"/>
<path opacity="0.42" d="M167.225 24.7534C167.14 25.5457 167.075 26.4665 167.032 27.4729H166.818C166.861 26.4665 166.947 25.5457 167.011 24.7534H167.225Z" fill="#BDD3DE"/>
<path opacity="0.42" d="M167.547 35.7387H167.333C166.948 34.4967 166.798 32.7194 166.755 31.2205C166.755 30.8565 166.733 30.4924 166.733 30.1284H166.948C166.948 30.4924 166.948 30.8565 166.969 31.2205C167.033 33.2119 167.226 34.7323 167.547 35.7387Z" fill="#BDD3DE"/>
<path opacity="0.42" d="M168.768 35.7387H168.532C168.147 34.9036 168.125 33.7687 168.232 32.8051C168.275 32.3554 168.404 31.3276 168.575 30.1284H168.789C168.661 30.9635 168.554 31.8843 168.468 32.8265C168.339 33.7901 168.339 34.9464 168.768 35.7387Z" fill="#BDD3DE"/>
<path opacity="0.42" d="M169.945 24.7534C169.688 25.4601 169.453 26.3808 169.239 27.4729H169.024C169.217 26.4879 169.453 25.5457 169.731 24.7534H169.945Z" fill="#BDD3DE"/>
<path opacity="0.42" d="M173.307 27.4729H173.093C172.75 26.4237 172.45 25.4815 172.172 24.7534H172.407C172.664 25.5029 172.986 26.4451 173.307 27.4729Z" fill="#BDD3DE"/>
<path opacity="0.42" d="M176.262 35.7387H176.026C175.298 34.2398 174.592 32.1841 173.928 30.1284H174.142C174.806 32.1413 175.534 34.2398 176.262 35.7387Z" fill="#BDD3DE"/>
<path opacity="0.42" d="M179.731 24.7534C179.645 24.8819 179.56 25.0104 179.495 25.1603C179.174 25.7813 178.981 26.5735 178.874 27.4729H178.66C178.767 26.5521 178.981 25.717 179.303 25.0746C179.367 24.9676 179.41 24.8605 179.474 24.7534H179.731Z" fill="#BDD3DE"/>
<path opacity="0.42" d="M180.352 35.7387H180.116C180.009 35.4817 179.902 35.2034 179.774 34.9036C179.153 33.3618 178.789 31.6916 178.639 30.1284H178.853C178.981 31.6702 179.367 33.319 179.966 34.8393C180.116 35.1605 180.245 35.4603 180.352 35.7387Z" fill="#BDD3DE"/>
<path opacity="0.42" d="M182.536 35.7386H182.214C181.765 35.3318 181.358 34.9035 180.994 34.5181C179.816 33.2119 179.773 31.6915 180.373 30.1069H180.608C180.009 31.6273 180.03 33.1048 181.165 34.3682C181.593 34.8393 182.064 35.3104 182.536 35.7386Z" fill="#BDD3DE"/>
<path opacity="0.42" d="M184.442 24.7534C184.42 24.7748 184.399 24.7962 184.378 24.8177C183.607 25.6528 182.814 26.5521 182.151 27.4729H181.894C182.579 26.5307 183.371 25.6099 184.163 24.7534H184.442Z" fill="#BDD3DE"/>
<path opacity="0.42" d="M185.191 35.7387H184.934C184.463 35.0749 184.013 34.5396 183.628 34.047C182.429 32.5695 181.679 31.6488 182.236 30.1284H182.472C181.893 31.5845 182.6 32.4411 183.799 33.9186C184.206 34.4325 184.699 35.0106 185.191 35.7387Z" fill="#BDD3DE"/>
<path opacity="0.42" d="M186.647 24.7534C186.39 25.096 186.048 25.4386 185.662 25.8669C185.255 26.3166 184.763 26.8305 184.228 27.4729H183.949C184.527 26.7663 185.063 26.1881 185.512 25.717C185.855 25.353 186.155 25.0318 186.39 24.7534H186.647Z" fill="#BDD3DE"/>
<path opacity="0.42" d="M192.75 19.9355V20.171C191.551 19.6785 190.03 19.1432 188.317 18.6507V18.4365H188.339C189.709 18.8005 191.379 19.3573 192.75 19.9355Z" fill="#BDD3DE"/>
<path opacity="0.42" d="M192.75 21.7343V21.9485C191.058 21.7771 189.409 21.3489 188.317 21.0491V20.835C189.388 21.1347 191.037 21.563 192.75 21.7343Z" fill="#BDD3DE"/>
<path opacity="0.42" d="M188.617 21.7987C190.116 22.8051 191.615 23.8329 192.75 24.7323V25.0107C191.444 23.94 189.688 22.7837 188.51 21.9914C188.446 21.9486 188.382 21.9057 188.317 21.8629V21.606C188.403 21.6488 188.51 21.7344 188.617 21.7987Z" fill="#BDD3DE"/>
<path opacity="0.42" d="M192.686 34.7108C192.665 34.775 192.643 34.8607 192.601 34.9249C191.68 34.1112 190.502 33.169 189.431 32.3339C188.339 31.4774 187.354 30.6851 186.712 30.1069H187.033C187.654 30.6851 188.596 31.4131 189.56 32.1626C190.823 33.1262 191.873 33.9827 192.686 34.7108Z" fill="#BDD3DE"/>
<path opacity="0.42" d="M192.75 27.7944V28.0086C192.022 28.1156 191.165 28.1799 190.33 28.2655C189.666 28.3298 188.96 28.394 188.317 28.4582V28.2441C188.917 28.1799 189.581 28.1156 190.309 28.0514C191.144 27.9872 192 27.9015 192.75 27.7944Z" fill="#BDD3DE"/>
<path opacity="0.42" d="M187.782 35.7387H187.525C186.583 34.3254 184.956 31.7772 184.271 30.1284H184.506C185.17 31.6702 186.712 34.1327 187.782 35.7387Z" fill="#BDD3DE"/>
<path opacity="0.42" d="M191.594 35.6958C191.508 35.7172 191.401 35.7172 191.294 35.7172C190.138 34.6894 188.81 33.2761 187.568 31.9485C186.969 31.3275 186.348 30.6637 185.812 30.1069H186.112C186.562 30.578 187.097 31.1348 187.718 31.82C188.939 33.0834 190.374 34.6251 191.594 35.6958Z" fill="#BDD3DE"/>
<path opacity="0.42" d="M116.904 28.0083V28.2224C115.684 28.3295 113.692 28.9933 112.472 29.5072V29.3145C113.714 28.8006 115.641 28.1154 116.904 28.0083Z" fill="#BDD3DE"/>
<path opacity="0.42" d="M117.696 30.1069C117.011 31.8842 115.855 34.4324 115.255 35.7172H115.02C115.598 34.4752 116.754 31.9056 117.461 30.1069H117.696Z" fill="#BDD3DE"/>
<path opacity="0.42" d="M137.868 27.4729H137.632C137.29 26.7663 137.033 25.717 136.861 24.7534H137.075C137.247 25.7384 137.504 26.8091 137.868 27.4729Z" fill="#BDD3DE"/>
<path opacity="0.42" d="M141.101 24.7534C141.037 24.9247 140.951 25.0746 140.887 25.2459C140.844 25.3316 140.823 25.3958 140.78 25.4815C140.758 25.5457 140.737 25.6099 140.694 25.6528C140.63 25.8027 140.544 25.974 140.48 26.1239C140.437 26.2309 140.394 26.3166 140.33 26.4237C140.223 26.6164 140.116 26.8091 140.009 27.0018C139.945 27.1089 139.88 27.2159 139.816 27.323C139.773 27.3873 139.752 27.4301 139.709 27.4943H139.452C139.902 26.8947 140.309 25.9954 140.673 25.1817C140.737 25.0532 140.801 24.9033 140.865 24.7748H141.101V24.7534Z" fill="#BDD3DE"/>
<path opacity="0.42" d="M147.589 27.473H147.204C147.14 27.4301 147.054 27.3659 146.99 27.3231C146.968 27.3017 146.947 27.3017 146.926 27.2803C146.819 27.216 146.733 27.1304 146.626 27.0661C146.562 27.0233 146.519 26.9805 146.454 26.9376C146.369 26.8734 146.262 26.8092 146.176 26.7235C145.834 26.4666 145.491 26.1882 145.17 25.9098C145.063 25.8027 144.934 25.7171 144.827 25.61C144.763 25.5458 144.699 25.503 144.634 25.4387C144.57 25.3745 144.506 25.3316 144.442 25.2674C144.377 25.2032 144.313 25.1603 144.249 25.0961C144.142 24.989 144.035 24.882 143.928 24.7749H144.228C145.17 25.6528 146.39 26.7021 147.589 27.473Z" fill="#BDD3DE"/>
<path opacity="0.42" d="M153.35 24.7534C153.178 25.0532 152.986 25.3744 152.793 25.717C152.772 25.7598 152.729 25.8241 152.707 25.8669C152.557 26.1453 152.408 26.4451 152.236 26.7449C152.172 26.8733 152.108 26.9804 152.043 27.1089C151.979 27.2374 151.915 27.3444 151.851 27.4729H151.615C151.765 27.1945 151.894 26.9376 152.043 26.6592C152.408 25.974 152.75 25.3102 153.071 24.7534H153.35Z" fill="#BDD3DE"/>
<path opacity="0.42" d="M156.648 27.4729H156.412C156.305 27.1945 156.198 26.8305 156.069 26.4237C156.027 26.2952 155.984 26.1453 155.941 25.9954C155.898 25.8669 155.855 25.7384 155.812 25.6314C155.791 25.5457 155.748 25.4601 155.727 25.3744C155.705 25.3102 155.684 25.2245 155.663 25.1603C155.62 25.0318 155.556 24.8819 155.513 24.7534H155.748C155.941 25.2673 156.134 25.8241 156.284 26.3594C156.391 26.7234 156.519 27.1517 156.648 27.4729Z" fill="#BDD3DE"/>
<path opacity="0.42" d="M157.611 24.7534C157.568 25.6528 157.482 26.7449 157.354 27.4729H157.14C157.247 26.8519 157.332 25.8455 157.375 24.7534H157.611Z" fill="#BDD3DE"/>
<path opacity="0.42" d="M126.134 35.7387H125.92C125.705 34.7537 125.277 33.062 124.549 31.8415C124.442 31.6488 124.314 31.5631 124.121 31.5631C123.222 31.6059 121.658 34.1113 120.759 35.7387H120.523C120.78 35.2676 121.166 34.6038 121.573 33.94C122.665 32.2483 123.521 31.3704 124.121 31.349C124.378 31.3276 124.571 31.456 124.742 31.7344C125.491 32.9978 125.941 34.7537 126.134 35.7387Z" fill="#BDD3DE"/>
<path opacity="0.42" d="M149.838 35.7387H149.517C148.467 34.7537 146.712 33.1048 145.47 31.9699C145.17 31.6916 144.827 31.6059 144.42 31.713C143.114 32.077 141.615 34.4325 140.951 35.7387H140.716C141.38 34.4111 142.964 31.8843 144.377 31.4988C144.849 31.3704 145.277 31.4774 145.641 31.82C146.926 33.0192 148.81 34.7751 149.838 35.7387Z" fill="#BDD3DE"/>
<path opacity="0.42" d="M189.538 26.4452C189.195 26.7664 188.617 27.1518 188.082 27.473H187.675C187.718 27.4516 187.76 27.4302 187.803 27.3873C187.868 27.3445 187.91 27.3231 187.975 27.2803C187.996 27.2589 188.017 27.2589 188.039 27.2375C188.167 27.1518 188.296 27.0661 188.424 26.9805C188.51 26.9163 188.596 26.852 188.681 26.8092C188.724 26.7664 188.788 26.7449 188.831 26.7021C188.895 26.6593 188.96 26.6165 189.002 26.5736C189.131 26.4666 189.259 26.3809 189.345 26.2953C189.495 26.1668 189.516 25.9955 189.452 25.7814C189.452 25.7385 189.431 25.7171 189.431 25.6743C189.431 25.6315 189.409 25.61 189.388 25.5672C189.366 25.5244 189.366 25.503 189.345 25.4816C189.324 25.4602 189.302 25.4173 189.281 25.3745C189.238 25.3317 189.217 25.2674 189.174 25.2246C189.088 25.0961 188.96 24.9676 188.853 24.8392C188.831 24.8178 188.81 24.7963 188.788 24.7749C188.745 24.7321 188.703 24.6893 188.66 24.6464C188.531 24.518 188.403 24.4109 188.274 24.3038V24.0469C188.81 24.4323 189.516 25.139 189.666 25.7385C189.795 25.9955 189.73 26.2524 189.538 26.4452Z" fill="#BDD3DE"/>
</g>
<path d="M70.5932 0H11V100H70.5932V0Z" fill="#EEEDEE"/>
<path opacity="0.42" d="M68.7303 1.92725H13.0771V97.923H68.7303V1.92725Z" fill="#BDD3DE"/>
<path d="M62.2844 46.8951V69.4861C62.2844 70.8352 61.0424 71.9487 59.5221 71.9487H23.0553C21.5349 71.9487 20.293 70.8566 20.293 69.4861V46.8951C20.293 45.5461 21.5349 44.4326 23.0553 44.4326H59.5221C61.0424 44.4326 62.2844 45.5247 62.2844 46.8951Z" fill="#EEEDEE"/>
<path d="M62.2844 47.1949V49.9144H20.293V47.1949C20.293 45.6746 21.5349 44.4326 23.0553 44.4326H59.5221C61.0424 44.4326 62.2844 45.6746 62.2844 47.1949Z" fill="white"/>
<path d="M24.854 44.4326V71.9487H23.0553C21.5349 71.9487 20.293 70.8566 20.293 69.4861V46.8951C20.293 45.5461 21.5349 44.4326 23.0553 44.4326H24.854Z" fill="white"/>
<path opacity="0.42" d="M33.5481 51.5205H27.4453V53.8546H33.5481V51.5205Z" fill="#BDD3DE"/>
<path opacity="0.42" d="M41.8352 51.5205H35.7324V53.8546H41.8352V51.5205Z" fill="#BDD3DE"/>
<path opacity="0.42" d="M49.7366 51.5205H43.6338V53.8546H49.7366V51.5205Z" fill="#BDD3DE"/>
<path opacity="0.42" d="M57.9377 51.5205H51.835V53.8546H57.9377V51.5205Z" fill="#BDD3DE"/>
<path opacity="0.42" d="M33.5481 56.2739H27.4453V58.608H33.5481V56.2739Z" fill="#BDD3DE"/>
<path opacity="0.42" d="M41.8352 56.2739H35.7324V58.608H41.8352V56.2739Z" fill="#BDD3DE"/>
<path opacity="0.42" d="M49.7366 56.2739H43.6338V58.608H49.7366V56.2739Z" fill="#BDD3DE"/>
<path opacity="0.42" d="M57.9377 56.2739H51.835V58.608H57.9377V56.2739Z" fill="#BDD3DE"/>
<path opacity="0.42" d="M33.5481 61.0063H27.4453V63.3404H33.5481V61.0063Z" fill="#BDD3DE"/>
<path opacity="0.42" d="M41.8352 61.0063H35.7324V63.3404H41.8352V61.0063Z" fill="#BDD3DE"/>
<path opacity="0.42" d="M49.7366 61.0063H43.6338V63.3404H49.7366V61.0063Z" fill="#BDD3DE"/>
<path opacity="0.42" d="M57.9377 61.0063H51.835V63.3404H57.9377V61.0063Z" fill="#BDD3DE"/>
<path opacity="0.42" d="M33.5481 65.7817H27.4453V68.1158H33.5481V65.7817Z" fill="#BDD3DE"/>
<path opacity="0.42" d="M41.8352 65.7817H35.7324V68.1158H41.8352V65.7817Z" fill="#BDD3DE"/>
<path opacity="0.42" d="M49.7366 65.7817H43.6338V68.1158H49.7366V65.7817Z" fill="#BDD3DE"/>
<path opacity="0.42" d="M57.9377 65.7817H51.835V68.1158H57.9377V65.7817Z" fill="#BDD3DE"/>
<path d="M34.598 49.6144C34.5337 49.6144 34.4909 49.5715 34.4909 49.5073C34.5123 47.7514 34.5337 45.0533 34.4909 44.8606C34.4695 44.7964 34.5123 44.7535 34.5766 44.7321C34.6408 44.7107 34.6836 44.7535 34.7051 44.8178C34.7693 45.0747 34.7051 49.0576 34.7051 49.5073C34.7051 49.5715 34.6408 49.6144 34.598 49.6144Z" fill="#EEEDEE"/>
<path d="M42.6703 49.6144C42.606 49.6144 42.5632 49.5715 42.5632 49.5073C42.5846 47.7514 42.606 45.0533 42.5632 44.8606C42.5418 44.7964 42.5846 44.7535 42.6488 44.7321C42.7131 44.7107 42.7559 44.7535 42.7773 44.8178C42.8416 45.0747 42.7773 49.0576 42.7773 49.5073C42.7773 49.5715 42.7345 49.6144 42.6703 49.6144Z" fill="#EEEDEE"/>
<path d="M50.4652 49.6144C50.4009 49.6144 50.3581 49.5715 50.3581 49.5073C50.3795 47.7514 50.4009 45.0533 50.3581 44.8606C50.3367 44.7964 50.3795 44.7535 50.4438 44.7321C50.508 44.7107 50.5508 44.7535 50.5722 44.8178C50.6365 45.0747 50.5722 49.0576 50.5722 49.5073C50.5722 49.5715 50.5294 49.6144 50.4652 49.6144Z" fill="#EEEDEE"/>
<path d="M58.6019 49.6144C58.5377 49.6144 58.4948 49.5715 58.4948 49.5073C58.5162 47.7514 58.5377 45.0533 58.4948 44.8606C58.4734 44.7964 58.5162 44.7535 58.5805 44.7321C58.6447 44.7107 58.6875 44.7535 58.709 44.8178C58.7732 45.0747 58.709 49.0576 58.709 49.5073C58.709 49.5715 58.6661 49.6144 58.6019 49.6144Z" fill="#EEEDEE"/>
<path d="M23.698 55.1394H21.0856C21.0213 55.1394 20.9785 55.0966 20.9785 55.0324C20.9785 54.9681 21.0213 54.9253 21.0856 54.9253H23.698C23.7622 54.9253 23.8051 54.9681 23.8051 55.0324C23.8051 55.0966 23.7408 55.1394 23.698 55.1394Z" fill="#EEEDEE"/>
<path d="M23.698 60.2571H21.0856C21.0213 60.2571 20.9785 60.2143 20.9785 60.15C20.9785 60.0858 21.0213 60.043 21.0856 60.043H23.698C23.7622 60.043 23.8051 60.0858 23.8051 60.15C23.8051 60.2143 23.7408 60.2571 23.698 60.2571Z" fill="#EEEDEE"/>
<path d="M23.698 64.6897H21.0856C21.0213 64.6897 20.9785 64.6469 20.9785 64.5827C20.9785 64.5184 21.0213 64.4756 21.0856 64.4756H23.698C23.7622 64.4756 23.8051 64.5184 23.8051 64.5827C23.8051 64.6469 23.7408 64.6897 23.698 64.6897Z" fill="#EEEDEE"/>
<path d="M29.222 7.94385H17.8516V19.3143H29.222V7.94385Z" fill="white"/>
<path d="M29.6392 25.6949L18.3018 24.8291L17.436 36.1666L28.7735 37.0324L29.6392 25.6949Z" fill="white"/>
<path d="M43.8664 25.0382L32.5039 25.4614L32.9271 36.8239L44.2896 36.4007L43.8664 25.0382Z" fill="white"/>
<path d="M42.149 6.83327L31.0537 9.32227L33.5427 20.4175L44.638 17.9286L42.149 6.83327Z" fill="white"/>
<path d="M59.8316 8.00835L48.4941 7.14258L47.6284 18.4801L58.9658 19.3458L59.8316 8.00835Z" fill="white"/>
<path d="M23.6974 10.3421C24.1586 10.3421 24.5325 9.96822 24.5325 9.50699C24.5325 9.04577 24.1586 8.67188 23.6974 8.67188C23.2362 8.67188 22.8623 9.04577 22.8623 9.50699C22.8623 9.96822 23.2362 10.3421 23.6974 10.3421Z" fill="#EBDEDE"/>
<path d="M36.9093 10.3421C37.3706 10.3421 37.7445 9.96822 37.7445 9.50699C37.7445 9.04577 37.3706 8.67188 36.9093 8.67188C36.4481 8.67188 36.0742 9.04577 36.0742 9.50699C36.0742 9.96822 36.4481 10.3421 36.9093 10.3421Z" fill="#EBDEDE"/>
<path d="M54.297 10.0213C54.7583 10.0213 55.1321 9.64742 55.1321 9.18619C55.1321 8.72497 54.7583 8.35107 54.297 8.35107C53.8358 8.35107 53.4619 8.72497 53.4619 9.18619C53.4619 9.64742 53.8358 10.0213 54.297 10.0213Z" fill="#EBDEDE"/>
<path d="M38.4084 27.9012C38.8696 27.9012 39.2435 27.5273 39.2435 27.0661C39.2435 26.6049 38.8696 26.231 38.4084 26.231C37.9471 26.231 37.5732 26.6049 37.5732 27.0661C37.5732 27.5273 37.9471 27.9012 38.4084 27.9012Z" fill="#EBDEDE"/>
<path d="M23.6974 27.9012C24.1586 27.9012 24.5325 27.5273 24.5325 27.0661C24.5325 26.6049 24.1586 26.231 23.6974 26.231C23.2362 26.231 22.8623 26.6049 22.8623 27.0661C22.8623 27.5273 23.2362 27.9012 23.6974 27.9012Z" fill="#EBDEDE"/>
<path opacity="0.42" d="M28.9018 79.8501H20.8076V93.1477H28.9018V79.8501Z" fill="#BDD3DE"/>
<path opacity="0.42" d="M39.3725 79.8501H31.2783V93.1477H39.3725V79.8501Z" fill="#BDD3DE"/>
<path opacity="0.91" d="M192.773 64.7967H171.852C171.445 64.7967 171.103 64.454 171.103 64.0472V43.1264C171.103 42.7196 171.445 42.377 171.852 42.377H192.773C193.18 42.377 193.522 42.7196 193.522 43.1264V64.0472C193.522 64.4755 193.201 64.7967 192.773 64.7967ZM172.601 63.2977H192.023V43.8759H172.601V63.2977Z" fill="#EEEDEE"/>
<path opacity="0.91" d="M167.313 64.7967H135.835C135.429 64.7967 135.086 64.454 135.086 64.0472V43.1264C135.086 42.7196 135.429 42.377 135.835 42.377H167.313C167.72 42.377 168.062 42.7196 168.062 43.1264V64.0472C168.062 64.4755 167.741 64.7967 167.313 64.7967ZM136.585 63.2977H166.563V43.8759H136.585V63.2977Z" fill="#EEEDEE"/>
<path d="M178.257 55.6412C178.164 55.1933 175.98 50.2848 175.98 50.2848L179.564 52.7297L180.478 47.4666L181.915 52.2258L185.798 47L185.406 51.8525L189.288 48.773L185.406 55.0813L178.257 55.6412Z" fill="#EEEDEE"/>
<path opacity="0.42" d="M178.257 55.6412C178.164 55.1933 175.98 50.2848 175.98 50.2848L179.564 52.7297L180.478 47.4666L181.915 52.2258L185.798 47L185.406 51.8525L189.288 48.773L185.406 55.0813L178.257 55.6412Z" fill="#BDD3DE"/>
<path d="M186.862 54.9319C186.862 54.2974 186.34 53.7935 185.724 53.7935H177.829C177.194 53.7935 176.69 54.316 176.69 54.9319C176.69 55.4732 177.064 55.9211 177.568 56.0518C177.96 58.5527 178.333 61.0536 178.725 63.5545H184.716C185.126 61.0536 185.556 58.5527 185.966 56.0518C186.47 55.9398 186.862 55.4918 186.862 54.9319Z" fill="#EEEDEE"/>
<path d="M154.596 46.6165C154.403 45.9956 153.076 45.6529 152.369 46.124C151.898 46.4452 151.363 47.0876 151.705 47.7086C152.219 48.6722 151.577 49.8714 150.399 51.1776C150.892 49.9998 151.213 49.3574 150.892 48.7365C150.506 47.987 149.564 48.2439 148.965 47.3018C148.472 46.5095 148.879 46.017 148.429 45.4602C147.594 44.4538 145.089 44.9249 145.003 45.4602C144.917 45.9313 146.652 46.1669 146.78 47.1733C146.909 48.0941 145.603 48.5223 145.667 49.5073C145.731 50.3853 146.802 50.3853 147.808 51.6915C149.179 53.4688 149.221 56.124 149.221 56.124C150.314 54.9677 151.299 54.1326 152.005 53.5759C153.526 52.3981 154.403 51.9913 154.446 51.1562C154.511 50.2354 153.504 49.9998 153.526 48.9292C153.526 47.7514 154.81 47.2803 154.596 46.6165Z" fill="#EEEDEE"/>
<path opacity="0.42" d="M154.596 46.6165C154.403 45.9956 153.076 45.6529 152.369 46.124C151.898 46.4452 151.363 47.0876 151.705 47.7086C152.219 48.6722 151.577 49.8714 150.399 51.1776C150.892 49.9998 151.213 49.3574 150.892 48.7365C150.506 47.987 149.564 48.2439 148.965 47.3018C148.472 46.5095 148.879 46.017 148.429 45.4602C147.594 44.4538 145.089 44.9249 145.003 45.4602C144.917 45.9313 146.652 46.1669 146.78 47.1733C146.909 48.0941 145.603 48.5223 145.667 49.5073C145.731 50.3853 146.802 50.3853 147.808 51.6915C149.179 53.4688 149.221 56.124 149.221 56.124C150.314 54.9677 151.299 54.1326 152.005 53.5759C153.526 52.3981 154.403 51.9913 154.446 51.1562C154.511 50.2354 153.504 49.9998 153.526 48.9292C153.526 47.7514 154.81 47.2803 154.596 46.6165Z" fill="#BDD3DE"/>
<path d="M152.904 54.4111H147.358V63.4904H152.904V54.4111Z" fill="#EBDEDE"/>
<path d="M83.4512 185.274C83.4294 185.513 83.4077 185.752 83.3859 186.013C83.1032 189.145 82.8205 192.276 82.5378 195.408C82.4943 195.843 82.1463 196.191 81.7114 196.234C81.6244 196.256 81.5592 196.256 81.4722 196.278C81.4287 196.278 81.3852 196.278 81.3417 196.3C81.2764 196.3 81.2112 196.321 81.146 196.321C81.1025 196.321 81.0372 196.343 80.972 196.343C80.885 196.343 80.8198 196.365 80.7328 196.365C80.5588 196.387 80.3413 196.408 80.1456 196.43C80.0803 196.43 79.9934 196.452 79.9281 196.452C79.8194 196.474 79.7324 196.474 79.6236 196.495C79.5584 196.495 79.4714 196.517 79.4062 196.517C79.2539 196.539 79.1017 196.561 78.9712 196.582H78.9495C78.8625 196.582 78.7972 196.604 78.7102 196.604C78.5145 196.626 78.3188 196.648 78.1013 196.691C78.0361 196.691 77.9491 196.713 77.8838 196.713C77.8186 196.713 77.7534 196.735 77.6881 196.735C77.5576 196.756 77.4271 196.756 77.2967 196.778C77.2097 196.778 77.1444 196.8 77.0574 196.8C76.84 196.822 76.6225 196.865 76.405 196.887C76.2963 196.909 76.1658 196.909 76.0571 196.93C75.9483 196.952 75.8178 196.952 75.6874 196.974C75.4046 197.017 75.1002 197.061 74.774 197.083C74.5565 197.104 74.3173 197.148 74.0998 197.17C73.8823 197.191 73.6431 197.235 73.4039 197.256C73.2517 197.278 73.0994 197.3 72.9472 197.322C72.5557 197.365 72.1425 197.409 71.7511 197.474C71.5988 197.496 71.4249 197.517 71.2726 197.517C71.0334 197.539 70.7942 197.561 70.555 197.604C70.2288 197.648 69.9026 197.67 69.5981 197.713C69.5111 197.713 69.4458 197.735 69.3589 197.735C69.2066 197.757 69.0544 197.757 68.8804 197.778C68.7934 197.778 68.7282 197.8 68.6412 197.8C68.6412 197.8 68.6412 197.8 68.6195 197.8C65.1616 198.083 62.2257 198.105 61.9865 197.3C61.769 196.561 63.8568 195.364 64.5962 194.951C64.6614 194.908 64.7049 194.886 64.7484 194.864C65.0746 194.69 65.3791 194.538 65.6836 194.408C67.8583 193.451 69.6416 193.451 71.1856 193.233C71.4249 193.19 71.6641 193.168 71.8816 193.124C72.2948 193.037 72.708 192.929 73.0777 192.733C73.1647 192.69 73.2299 192.646 73.3169 192.603C73.3604 192.581 73.4256 192.537 73.4691 192.516C73.5779 192.45 73.6649 192.385 73.7736 192.32C73.8171 192.298 73.8606 192.255 73.8823 192.233C73.9476 192.168 74.0346 192.102 74.0998 192.037C74.165 191.972 74.252 191.907 74.3173 191.82C75.2742 190.841 75.6874 189.558 76.0788 188.297C76.1006 188.188 76.1441 188.101 76.1658 187.992C76.2311 187.796 76.2745 187.601 76.318 187.405C76.3398 187.296 76.3615 187.209 76.3833 187.1C76.3833 187.079 76.405 187.035 76.405 187.013C76.405 186.992 76.4268 186.948 76.4268 186.926C76.4485 186.861 76.4485 186.818 76.4703 186.752C76.492 186.687 76.492 186.644 76.5138 186.579C76.5355 186.405 76.579 186.252 76.579 186.1C76.6007 185.904 76.6225 185.709 76.6442 185.513C76.666 185.382 76.666 185.252 76.666 185.121C76.666 185.078 76.666 185.034 76.666 184.991C76.666 184.947 76.666 184.882 76.666 184.839C76.666 184.599 76.6877 184.382 76.6877 184.165C77.1227 184.295 77.5576 184.426 78.0361 184.534C78.2753 184.599 78.5145 184.643 78.7755 184.708C79.0147 184.752 79.2757 184.817 79.5367 184.86C79.7106 184.904 79.8846 184.926 80.0586 184.947C80.2108 184.969 80.3631 184.991 80.5153 185.013C80.624 185.034 80.7328 185.034 80.8197 185.056C80.9285 185.078 81.059 185.078 81.1677 185.1C81.3852 185.121 81.6244 185.143 81.8419 185.165C81.9506 185.187 82.0594 185.187 82.1681 185.187C82.2986 185.208 82.4073 185.208 82.516 185.208C82.5813 185.208 82.6683 185.208 82.7335 185.23C82.7988 185.252 82.864 185.23 82.951 185.252H82.9727C83.1685 185.274 83.3207 185.274 83.4512 185.274Z" fill="#336859"/>
<path d="M117.572 184.143C117.529 186.839 117.507 189.514 117.464 192.211C117.442 192.646 117.137 193.016 116.724 193.103C116.093 193.233 115.05 193.451 113.81 193.712C112.114 194.06 109.091 194.734 106.133 195.299C102.001 196.082 97.9561 196.604 97.6081 195.647C97.3254 194.886 99.6089 193.342 100.131 192.994C104.024 190.384 106.916 191.82 109.243 189.253C110.243 188.166 110.635 186.883 110.831 186.317C110.918 186.035 110.983 185.752 111.048 185.469C111.157 185.013 111.2 184.556 111.222 184.143C111.287 182.968 111.135 181.99 111.005 181.424C111.853 181.62 112.81 181.794 113.832 181.903C115.202 182.055 116.463 182.077 117.572 182.055V184.143Z" fill="#336859"/>
<path opacity="0.14" d="M83.4517 185.274C83.1473 188.645 82.8428 192.016 82.5383 195.386C82.4948 195.821 82.1469 196.169 81.7119 196.213C81.4075 196.256 81.0378 196.3 80.5811 196.365C81.5814 193.69 81.2117 188.275 80.8638 185.035C81.7989 185.187 82.6688 185.252 83.4517 185.274Z" fill="#0B1D36"/>
<path opacity="0.14" d="M117.573 184.142C117.529 186.839 117.508 189.514 117.464 192.211C117.442 192.646 117.138 193.015 116.725 193.102C116.094 193.233 115.05 193.45 113.811 193.711C112.114 194.059 109.091 194.733 106.134 195.299C108.852 194.016 111.592 192.689 112.788 191.95C115.572 190.232 115.985 189.101 115.637 187.035C115.376 185.534 112.615 185.469 111.027 185.491C111.136 185.034 111.179 184.577 111.201 184.164C111.266 182.99 111.114 182.011 110.983 181.446C111.832 181.642 112.788 181.815 113.811 181.924C115.181 182.076 116.442 182.098 117.551 182.076L117.573 184.142Z" fill="#0B1D36"/>
<path d="M114.68 42.0884C113.049 46.2639 111.418 50.4394 109.787 54.6149C111.244 57.3116 112.701 59.3341 113.767 60.7259C115.724 63.2269 116.812 64.075 117.225 65.9453C117.529 67.4241 117.246 68.8159 115.985 71.7518C114.919 74.2093 113.245 77.6019 110.592 81.4512C112.049 82.8648 113.528 84.3001 114.985 85.7137C119.486 80.7553 121.813 75.9926 123.031 72.8827C124.554 69.0117 125.728 65.9453 125.032 62.2265C124.401 58.9644 122.857 57.8335 120.052 53.2448C118.508 50.7656 116.485 47.0685 114.68 42.0884Z" fill="#5A142A"/>
<path opacity="0.31" d="M114.68 42.0884C113.049 46.2639 111.418 50.4394 109.787 54.6149C111.244 57.3116 112.701 59.3341 113.767 60.7259C115.724 63.2269 116.812 64.075 117.225 65.9453C117.529 67.4241 117.246 68.8159 115.985 71.7518C114.919 74.2093 113.245 77.6019 110.592 81.4512C112.049 82.8648 113.528 84.3001 114.985 85.7137C119.486 80.7553 121.813 75.9926 123.031 72.8827C124.554 69.0117 125.728 65.9453 125.032 62.2265C124.401 58.9644 122.857 57.8335 120.052 53.2448C118.508 50.7656 116.485 47.0685 114.68 42.0884Z" fill="url(#paint0_linear)"/>
<path d="M85.2776 34.2595C85.0601 35.6513 84.6469 37.8043 83.777 40.3488C81.9285 45.8074 80.1234 47.0035 80.7758 49.0695C81.9285 52.7448 89.1268 53.3972 90.1055 53.4842C91.9975 53.6582 93.8243 53.8104 95.6293 52.7665C98.7392 50.9397 99.3264 46.873 99.5439 45.2637C100.653 37.3259 94.542 30.8669 93.2371 29.5186L85.2776 34.2595Z" fill="#19233D"/>
<path d="M102.937 39.1093L93.8245 43.437L92.2152 39.0006L90.9973 35.6515L89.8447 32.4546L96.5429 25.7129L102.937 39.1093Z" fill="url(#paint1_linear)"/>
<path opacity="0.09" d="M97.3483 28.3008C96.5654 33.3679 93.8687 37.1302 92.2159 39.0005L90.998 35.6297L97.3483 28.3008Z" fill="#365588"/>
<path d="M118.572 87.1275C118.442 88.8456 118.224 90.7159 117.833 92.6514C117.724 93.1516 117.616 93.6518 117.507 94.1302C110.113 93.7388 102.719 93.3691 95.3245 92.9776C94.933 90.9986 94.5633 89.1718 94.1936 87.4538C93.8456 85.8445 93.4977 84.3439 93.1715 82.9738C92.8235 81.5167 92.4756 80.1684 92.1276 78.9288C90.453 72.796 88.9742 69.1859 87.7346 66.946C87.2127 66.0108 86.0166 64.0318 85.7991 61.1829C85.6034 58.595 86.4733 58.595 87.6041 52.0707C87.9956 49.8742 88.6263 47.743 88.909 45.5248C88.9307 45.3508 89.0395 44.6549 89.3439 43.8067C89.3874 43.6762 89.4527 43.5675 89.5179 43.3935C91.3882 39.4572 96.1944 37.239 100.131 36.7606C105.154 36.1516 110.896 38.3699 113.766 42.5889C113.788 42.6106 113.81 42.6541 113.832 42.6758C114.462 43.6327 114.832 44.5244 115.028 45.3943C115.724 48.6781 115.528 51.2008 115.115 53.8105C114.701 56.4202 114.027 59.1604 113.788 62.9009C113.266 70.9257 115.68 78.3416 117.616 84.2351C117.985 85.4747 118.333 86.4751 118.572 87.1275Z" fill="#640042"/>
<path opacity="0.07" d="M108.092 54.7236C104.96 58.6382 113.746 67.1849 111.528 74.405C109.614 80.603 99.9797 84.5828 93.1728 83.017C92.8248 81.5599 92.4769 80.2116 92.1289 78.972C96.2174 78.5153 102.829 78.3631 105.699 74.8182C108.222 71.7083 108.57 65.1624 100.567 50.5481C104.96 47.9167 109.353 45.2852 113.746 42.6538C113.768 42.6756 113.789 42.7191 113.811 42.7408C114.442 43.6977 114.811 44.5893 115.007 45.4592C115.703 48.7431 115.507 51.2658 115.094 53.8755C114.572 53.5275 112.724 52.4184 110.679 52.9621C110.701 52.9403 109.201 53.3318 108.092 54.7236Z" fill="url(#paint2_linear)"/>
<path opacity="0.45" d="M77.8619 64.7278L74.665 67.8812C74.0561 68.4684 72.9034 68.1204 72.1205 67.0983L63.4433 55.9201C62.6387 54.898 62.5734 53.6584 63.2693 53.18L66.9664 50.6573C67.5971 50.2223 68.7062 50.6573 69.4456 51.6142L77.5356 62.0094C78.2533 62.9881 78.4055 64.1842 77.8619 64.7278Z" fill="url(#paint3_linear)"/>
<path d="M77.5145 62.0309L69.4245 51.6356C68.6851 50.6788 67.576 50.2438 66.9453 50.6788L63.2482 53.2015C62.9873 53.3754 62.8351 53.6582 62.7916 53.9844C62.7698 54.1148 62.7698 54.2671 62.7916 54.4193V54.8325C62.7046 55.3762 62.9003 56.0721 63.3787 56.681L71.6645 67.3373C72.3604 68.2289 73.3608 68.5769 73.9915 68.1637C74.2524 68.1419 74.4917 68.0549 74.6874 67.881L77.8843 64.7276C78.4279 64.1839 78.254 62.9878 77.5145 62.0309Z" fill="#302C34"/>
<path opacity="0.45" d="M77.8619 64.7278L74.665 67.8812C74.0561 68.4684 72.9034 68.1204 72.1205 67.0983L63.4433 55.9201C62.6387 54.898 62.5734 53.6584 63.2693 53.18L66.9664 50.6573C67.5971 50.2223 68.7062 50.6573 69.4456 51.6142L77.5356 62.0094C78.2533 62.9881 78.4055 64.1842 77.8619 64.7278Z" fill="url(#paint4_linear)"/>
<path d="M77.3186 62.6834C75.818 63.9882 74.3392 65.2713 72.8386 66.5762C72.2297 65.8803 70.8379 64.1622 69.3373 62.2702C69.1416 62.0092 68.9458 61.77 68.7284 61.509C68.5544 61.2916 68.4022 61.0958 68.2282 60.8783C67.6845 60.2042 67.1625 59.53 66.6624 58.8993C65.5532 57.464 64.5963 56.2244 64.1396 55.6155C65.7925 54.3976 67.4453 53.1798 69.0981 51.9619C69.1416 52.0272 69.1851 52.0706 69.2285 52.1359C69.62 52.6578 70.0984 53.245 70.5986 53.8974C70.7291 54.0714 70.8596 54.2236 70.9901 54.3976C71.1858 54.6586 71.3815 54.9196 71.599 55.1805C74.2522 58.5731 77.2533 62.5094 77.3186 62.6834Z" fill="url(#paint5_linear)"/>
<path opacity="0.67" d="M73.7535 63.3791C73.6665 63.3791 73.5795 63.3574 73.5143 63.3139L68.8168 60.3997C68.5994 60.2692 68.5341 59.9648 68.6646 59.7473C68.7951 59.5298 69.0996 59.4646 69.317 59.5951L72.6444 61.6611L69.1865 54.3757C69.0778 54.1365 69.1648 53.8538 69.404 53.745C69.6432 53.6363 69.926 53.7233 70.0347 53.9625L74.1884 62.705C74.2754 62.9007 74.2319 63.1181 74.0797 63.2704C73.971 63.3356 73.8622 63.3791 73.7535 63.3791Z" fill="#336859"/>
<path opacity="0.26" d="M70.6426 53.8975C69.8379 56.2245 69.0333 58.5515 68.2504 60.8567C67.7067 60.1825 67.1848 59.5084 66.6846 58.8777L69.2725 52.1143C69.6857 52.6579 70.1424 53.2669 70.6426 53.8975Z" fill="#E6E3F4"/>
<path opacity="0.26" d="M71.6424 55.1806L69.3589 62.2702C69.1632 62.0093 68.9675 61.7701 68.75 61.5091L71.0335 54.4194C71.2292 54.6587 71.4249 54.9196 71.6424 55.1806Z" fill="#E6E3F4"/>
<path d="M118.139 182.381H117.552C117.16 157.024 116.617 148.172 116.116 146.15C116.029 145.802 115.334 143.149 114.942 139.473C114.92 139.169 114.877 138.821 114.833 138.43C113.985 127.512 120.183 103.438 120.074 97.5227C119.987 93.3689 119.313 89.8241 118.574 87.1274C111.528 89.2152 104.503 91.3029 97.4572 93.3907C97.044 115.856 99.3709 131.188 101.676 141.235C102.242 143.671 103.459 148.629 105.373 157.111C107.744 167.549 109.57 176.248 110.832 182.381H110.767C110.288 182.381 109.897 182.773 109.897 183.273C109.897 183.773 110.288 184.164 110.767 184.164H111.202C113.333 184.164 115.442 184.164 117.574 184.164H118.139C118.617 184.164 119.009 183.773 119.009 183.273C119.009 182.773 118.617 182.381 118.139 182.381Z" fill="#271C41"/>
<path opacity="0.12" d="M118.139 182.381H117.552C117.16 157.024 116.617 148.172 116.116 146.15C116.029 145.802 115.334 143.149 114.942 139.473C114.92 139.169 114.877 138.821 114.833 138.43C113.985 127.512 120.183 103.438 120.074 97.5227C119.987 93.3689 119.313 89.8241 118.574 87.1274C111.528 89.2152 104.503 91.3029 97.4572 93.3907C97.044 115.856 99.3709 131.188 101.676 141.235C102.242 143.671 103.459 148.629 105.373 157.111C107.744 167.549 109.57 176.248 110.832 182.381H110.767C110.288 182.381 109.897 182.773 109.897 183.273C109.897 183.773 110.288 184.164 110.767 184.164H111.202C113.333 184.164 115.442 184.164 117.574 184.164H118.139C118.617 184.164 119.009 183.773 119.009 183.273C119.009 182.773 118.617 182.381 118.139 182.381Z" fill="url(#paint6_linear)"/>
<path d="M118.573 87.1274C118.464 88.5193 118.312 89.8459 118.116 91.0855C118.029 91.5857 117.942 92.0859 117.855 92.5643C117.747 93.108 117.638 93.6299 117.508 94.1301C117.508 94.1519 117.508 94.1736 117.486 94.1953C116.485 98.4578 114.985 101.655 113.68 103.982C108.787 112.55 98.8048 121.771 91.8891 128.861C88.4313 132.406 85.7346 135.428 84.8429 137.538C84.7125 137.864 84.6037 138.169 84.5602 138.451C84.3427 139.691 84.2775 140.952 84.2775 140.952C84.4732 142.975 84.6472 145.019 84.7994 147.107C85.7563 161.156 85.0387 174.226 83.3859 186.078C83.2989 186.078 83.2119 186.078 83.1249 186.078C82.6247 186.1 82.1245 186.122 81.6243 186.143C79.928 186.209 78.2535 186.274 76.5572 186.339C76.1657 180.163 75.4263 175.183 74.8609 171.855C73.5995 164.57 72.012 158.742 70.8594 153.414C69.337 146.28 68.6194 139.995 70.5549 132.166C71.2073 129.491 71.7075 128.73 83.7556 106.657C84.9734 104.438 86.126 102.329 87.1917 100.35C89.9318 95.348 92.1718 91.216 93.7594 88.3235C93.9116 88.0408 94.0638 87.7799 94.1943 87.5189C94.2161 87.4754 94.2378 87.4319 94.2596 87.3884C101.741 87.3232 109.222 87.2362 116.681 87.1709C117.312 87.1492 117.943 87.1492 118.573 87.1274Z" fill="#39215A"/>
<path d="M83.452 186.361H75.9492C75.4925 186.361 75.1445 185.991 75.1445 185.557V185.404C75.1445 184.948 75.5142 184.6 75.9492 184.6H83.452C83.9087 184.6 84.2567 184.969 84.2567 185.404V185.557C84.2567 185.991 83.887 186.361 83.452 186.361Z" fill="#271C41"/>
<path opacity="0.07" d="M118.574 87.1274C118.465 88.4323 118.313 89.7589 118.117 91.0855C118.03 91.5857 117.943 92.0859 117.856 92.5643C117.748 93.108 117.639 93.6299 117.508 94.1301C117.508 94.1519 117.508 94.1736 117.487 94.1953C117.291 95.0218 116.008 99.5887 113.681 103.982C108.788 112.55 98.8056 121.771 91.8899 128.861C88.4321 132.406 85.7354 135.428 84.8437 137.538C84.7132 137.864 84.6045 138.169 84.561 138.451C84.3435 139.691 84.2783 140.952 84.2783 140.952C84.474 142.975 84.648 145.019 84.8002 147.107C85.7571 161.156 85.0395 174.226 83.3866 186.078C83.2997 186.078 83.2127 186.078 83.1257 186.078C81.3859 183.447 81.5816 175.552 81.0597 161.917C80.2985 141.735 79.2329 142.518 80.3203 138.886C82.9952 129.948 88.1493 129.557 100.589 114.377C107.635 105.787 116.356 93.2385 114.05 90.6288C113.202 89.6719 111.419 90.781 107.352 91.0637C101.698 91.4334 96.957 89.8024 93.7384 88.2801C93.8907 88.0191 94.0429 87.7364 94.1734 87.4754C94.1951 87.4319 94.2169 87.3884 94.2386 87.3449C101.72 87.2797 109.201 87.1927 116.66 87.1274C117.313 87.1492 117.943 87.1492 118.574 87.1274Z" fill="#0B1D36"/>
<path opacity="0.04" d="M87.1917 100.328C85.2344 107.744 81.2546 120.357 75.0131 129.47C70.8811 135.494 70.2504 144.823 70.8594 153.414C69.337 146.28 68.6194 139.995 70.5549 132.166C71.2073 129.491 71.7075 128.73 83.7556 106.657C84.9734 104.417 86.126 102.307 87.1917 100.328Z" fill="url(#paint7_linear)"/>
<path d="M108.962 75.0791C108.266 76.1665 107.375 76.7536 106.331 77.4713C106.309 77.493 106.287 77.493 106.265 77.5148C106.265 77.5148 106.244 77.5148 106.244 77.5365C105.243 78.2107 101.438 80.5812 93.3693 79.8853C87.1713 79.3416 81.7562 77.2756 77.6459 75.2096C75.6451 74.2092 73.9706 73.187 72.6875 72.3389C73.4704 71.0558 74.2316 69.7727 75.0145 68.4679C83.0828 72.1432 89.6287 72.2084 93.2388 71.9257C95.718 71.73 98.0232 71.5342 99.2846 70.6643C99.6325 70.4034 99.9152 70.0989 100.067 69.7292C101.394 66.6628 93.8695 63.3355 89.9332 53.2447C88.8893 50.548 86.8016 45.0677 89.3678 41.5011C89.8462 40.8269 90.8466 39.7395 92.2384 38.8914C93.1953 38.326 94.3479 37.8693 95.631 37.7823C95.6963 37.7823 96.3704 37.7388 96.8489 37.804C99.8718 38.2607 101.177 43.9585 103.482 51.7441C103.939 53.3099 104.439 54.941 105.004 56.659C105.33 57.6159 105.635 58.5293 105.939 59.3992C108.94 67.7937 111.202 71.6647 108.962 75.0791Z" fill="#5A142A"/>
<path d="M75.0145 68.4674C74.6665 69.2068 74.2534 70.0115 73.7314 70.8379C73.3835 71.3816 73.0355 71.8818 72.6875 72.3167C72.0351 71.7948 71.5784 71.4251 71.2957 71.1858C71.013 70.9684 70.8825 70.8596 70.8608 70.8379C70.8608 70.8379 70.8173 70.7944 70.752 70.7291C70.752 70.7291 70.752 70.7291 70.7303 70.7074L70.7085 70.6856C68.0988 68.2499 66.5983 65.2705 66.5983 65.2705C65.2499 62.5521 64.8802 60.0512 64.7715 58.4854C65.1629 58.9638 65.7719 59.6815 66.5113 60.6166C66.5765 60.7036 66.6635 60.7906 66.707 60.8776C67.1637 61.4647 67.4899 61.8997 68.0771 62.6608C68.773 63.5742 69.4689 64.4659 70.1866 65.3793C70.3171 64.9878 70.4911 64.4006 70.5128 63.6177C70.5346 63.1393 70.4693 62.7261 70.3823 61.8997C70.2518 60.8341 70.0561 59.6162 70.4258 59.464C70.4476 59.464 70.4693 59.4422 70.4693 59.4422C70.6433 59.4422 70.8825 59.4857 71.1 59.638C71.6219 60.0294 71.6002 60.8776 71.6002 61.2473C71.6002 61.269 71.6002 62.8566 72.6006 65.401C72.8833 66.1187 73.3835 67.0321 74.4491 67.9455C74.6231 68.1629 74.8188 68.3152 75.0145 68.4674Z" fill="url(#paint8_linear)"/>
<path opacity="0.16" d="M75.0147 68.4677C74.6667 69.2071 74.2535 70.0118 73.7316 70.8382C73.3837 71.3819 73.0357 71.882 72.6877 72.317C72.0353 71.7951 71.5786 71.4254 71.2959 71.1861L74.384 68.0328L74.4493 67.9893C74.6233 68.1632 74.819 68.3155 75.0147 68.4677Z" fill="#365588"/>
<path opacity="0.16" d="M70.2078 65.4233C68.1418 65.3146 67.1849 62.9876 66.75 60.9434C67.2067 61.5305 67.5329 61.9655 68.1201 62.7266C68.7943 63.6183 69.5119 64.5317 70.2078 65.4233Z" fill="#365588"/>
<path opacity="0.07" d="M108.962 75.0788C108.114 76.188 106.7 77.1883 106.33 77.4711C106.309 77.4928 106.287 77.5145 106.265 77.5145C106.265 77.5145 106.243 77.5145 106.243 77.5363C105.243 78.2105 101.437 80.5809 93.3689 79.885C87.1709 79.3413 81.7558 77.2753 77.6455 75.2093C84.8439 76.9709 101.981 80.6462 105.004 74.9918C105.765 73.5565 105.221 71.1861 104.134 66.4451C102.046 57.4417 98.7622 52.2006 100.589 50.5695C100.85 50.3303 101.35 50.0476 102.372 50.1563C102.764 50.7 103.133 51.2219 103.503 51.7656C103.96 53.3314 104.46 54.9625 105.025 56.6805C105.352 57.6374 105.656 58.5508 105.961 59.4207C108.94 67.7935 111.202 71.6645 108.962 75.0788Z" fill="url(#paint9_linear)"/>
<path opacity="0.04" d="M99.8286 70.7948C99.6764 70.7948 99.5024 70.7296 99.285 70.6426C99.6329 70.3816 99.9156 70.0772 100.068 69.7075C101.394 66.6411 93.8699 63.3137 89.9336 53.2229C88.8897 50.5262 86.8019 45.0459 89.3681 41.4793C89.8466 40.8051 90.847 39.7178 92.2388 38.8696C91.5429 41.9795 90.2163 50.9829 96.1316 59.3992C103.439 69.7944 102.504 70.9253 99.8286 70.7948Z" fill="url(#paint10_linear)"/>
<path d="M95.9997 21.3202C96.6086 23.6037 97.2828 27.2355 96.7391 31.5415C95.9127 38.1962 92.9333 40.3709 93.7597 45.3728C94.2599 48.3305 96.1519 52.7452 99.5445 53.8108C102.807 54.8547 104.786 51.984 110.223 52.8974C112.636 53.3106 113.224 54.0283 114.442 53.5716C117.138 52.5712 118.226 47.5258 117.965 43.6113C117.486 36.7174 113.006 35.8692 108.113 25.9089C104.285 18.1016 105.221 14.9265 101.567 12.3385C97.609 9.55485 92.2374 10.2725 88.1924 11.4034C90.8021 14.7307 93.4118 18.0146 95.9997 21.3202Z" fill="#19233D"/>
<path d="M96.8046 26.9088C96.8916 27.3873 97.0003 28.1484 96.8698 29.0618C96.7393 30.0622 96.4131 30.8016 96.1522 31.2801C94.6299 34.3247 93.238 37.0649 90.9111 37.3693C89.6932 37.5216 88.7146 36.9561 87.7359 36.3907C85.4307 35.0641 84.3651 32.9981 83.9519 32.063C82.3426 32.7806 81.7119 32.6936 81.4727 32.4327C81.0812 31.9977 81.6466 31.0626 82.0816 28.7574C82.2338 27.9527 82.3208 27.2568 82.3861 26.7566C81.6902 25.7997 79.9721 23.1465 80.1461 19.5582C80.1896 18.4708 80.4071 14.1648 83.2342 12.773C85.6264 11.5986 88.5406 13.1862 90.0194 14.1648C91.9114 15.4262 93.7382 17.2747 94.9996 19.3625C95.0431 19.4277 95.0865 19.493 95.13 19.5582C95.4563 20.1236 95.739 20.6891 95.9999 21.298C97.2613 20.6021 98.8923 20.9283 99.8057 22.1026C100.11 22.4941 100.284 22.9291 100.371 23.3857C100.567 24.4514 100.175 25.604 99.262 26.3216C98.5444 26.9088 97.631 27.0828 96.8046 26.9088Z" fill="url(#paint11_linear)"/>
<path opacity="0.22" d="M99.8056 22.1465C98.218 22.451 93.5206 23.3209 93.3684 23.3644L92.8682 21.1244L95.1516 19.6021C95.4779 20.1675 95.7606 20.7329 96.0215 21.3418C97.2829 20.6459 98.8922 20.9504 99.8056 22.1465Z" fill="url(#paint12_linear)"/>
<path d="M86.692 34.5644C86.6268 34.5644 86.5615 34.4992 86.5615 34.4339C86.5615 34.347 86.605 34.2817 86.692 34.2817C86.7572 34.2817 88.2361 34.1512 88.845 32.9551C89.106 32.4549 89.106 31.9765 89.0842 31.6503C89.0842 31.5633 89.1277 31.498 89.2147 31.498C89.3017 31.498 89.3669 31.5415 89.3669 31.6285C89.4104 31.9982 89.3887 32.5419 89.106 33.1074C88.4101 34.3905 86.866 34.5427 86.692 34.5644Z" fill="black"/>
<path d="M84.7354 26.8214C85.0958 26.8214 85.3879 26.5293 85.3879 26.169C85.3879 25.8087 85.0958 25.5166 84.7354 25.5166C84.3751 25.5166 84.083 25.8087 84.083 26.169C84.083 26.5293 84.3751 26.8214 84.7354 26.8214Z" fill="black"/>
<path d="M86.3624 22.7726L82.0059 22.209L81.9249 22.8344L86.2815 23.398L86.3624 22.7726Z" fill="#19233D"/>
<path d="M80.1673 19.58C83.2554 23.6033 87.8441 25.4736 91.6934 24.321C93.8029 23.6903 95.2165 22.2984 95.9994 21.3198C96.0211 20.2977 95.9124 18.7101 95.2817 16.9268C94.8685 15.796 93.4984 12.0772 89.7144 10.6418C89.1272 10.4244 85.2779 8.96728 82.2985 11.3377C80.015 13.1428 79.1451 16.4484 80.1673 19.58Z" fill="#19233D"/>
<path d="M182.169 124.574C182.125 124.508 182.06 124.442 182.016 124.399C181.885 124.29 181.754 124.246 181.732 124.224C181.382 124.093 180.989 123.022 180.421 122.65C179.7 122.17 178.76 122.869 178.41 122.388C178.17 122.06 178.519 121.601 178.323 121.405C178.017 121.142 177.296 122.06 176.137 122.17C174.979 122.279 174.345 121.492 173.886 121.842C173.427 122.191 173.69 123.262 173.755 123.459C174.17 125.076 175.7 125.994 176.487 126.388C176.268 126.693 176.072 126.999 175.853 127.305C175.46 127.852 175.066 128.376 174.651 128.901C174.455 129.163 174.236 129.425 174.017 129.688L173.864 129.884L173.711 130.059C173.602 130.168 173.493 130.278 173.384 130.365C173.274 130.474 173.143 130.54 173.034 130.627C172.903 130.715 172.772 130.78 172.641 130.846C172.378 130.977 172.094 131.086 171.81 131.174C171.22 131.348 170.608 131.436 169.974 131.48C168.707 131.567 167.374 131.436 165.953 131.589C165.603 131.633 165.232 131.698 164.86 131.807C164.489 131.917 164.117 132.092 163.79 132.332C163.112 132.813 162.697 133.665 162.544 134.343C162.26 135.457 161.451 136.462 160.49 137.271C159.506 138.08 158.392 138.779 157.233 139.369C156.862 139.566 156.468 139.741 156.097 139.915C156.556 139.194 157.058 138.495 157.539 137.752C158.435 136.441 159.353 135.086 160.184 133.665C160.599 132.944 160.992 132.201 161.32 131.436C161.67 130.649 161.954 129.862 162.172 129.01C162.391 128.18 162.522 127.305 162.566 126.431C162.609 125.557 162.522 124.683 162.369 123.831C162.282 123.393 162.172 122.978 162.041 122.585C161.976 122.388 161.91 122.17 161.823 121.973L161.604 121.405L160.73 119.176L158.982 114.717C158.26 112.903 157.539 111.068 156.752 109.276C157.954 107.789 159.113 106.806 160.009 106.172C161.713 104.948 162.872 104.555 162.937 103.637C162.981 102.719 161.888 101.714 160.817 101.452C159.725 101.168 159.55 101.911 158.239 101.692C157.146 101.495 156.468 100.84 155.376 101.036C155.091 101.102 154.96 101.168 154.917 101.233C154.261 101.845 155.354 103.681 153.649 103.091C152.709 102.763 152.622 102.107 152.01 102.02C151.158 101.889 150.305 103.113 150.131 103.353C149.475 104.293 149.803 104.686 149.169 105.364C148.448 106.128 147.727 105.91 147.399 106.587C147.158 107.09 147.268 107.768 147.552 108.226C148.076 109.035 149.147 109.166 152.403 109.363C153.802 109.45 155.048 109.516 156.075 109.581C156.206 109.909 156.337 110.237 156.446 110.565C157.015 112.051 157.517 113.559 158.02 115.067C158.501 116.575 158.982 118.105 159.397 119.635C159.615 120.399 159.812 121.164 160.031 121.929L160.184 122.497C160.227 122.672 160.271 122.847 160.293 123.044C160.358 123.415 160.424 123.765 160.446 124.137C160.511 124.858 160.468 125.579 160.38 126.3C160.271 127.021 160.096 127.699 159.856 128.398C159.375 129.775 158.676 131.108 157.867 132.397C157.583 132.856 157.277 133.315 156.949 133.774C156.84 133.752 156.709 133.709 156.599 133.687C156.206 133.578 155.813 133.447 155.419 133.315C155.223 133.25 155.026 133.184 154.829 133.097L154.676 133.031L154.545 132.966C154.458 132.922 154.392 132.878 154.305 132.835C153.999 132.66 153.758 132.397 153.54 132.113C153.343 131.829 153.168 131.501 152.993 131.13C152.666 130.431 152.403 129.622 151.923 128.857C151.966 128.201 151.923 127.524 151.726 126.846C151.617 126.475 151.42 126.082 151.07 125.797C150.939 125.71 150.874 125.623 150.852 125.513C150.808 125.404 150.83 125.251 150.874 125.098C150.961 124.77 151.114 124.442 151.245 124.093C151.267 124.071 151.267 124.027 151.267 124.005C151.617 123.787 152.054 123.525 152.578 123.284C154.13 122.607 155.266 122.716 155.31 122.344C155.354 122.017 154.327 122.06 153.168 121.011C153.037 120.902 152.141 120.072 151.507 120.006C151.354 119.984 151.289 120.006 151.267 120.028C150.874 120.246 151.136 121.274 150.393 120.749C149.54 120.159 150.152 119.46 148.95 120.618C148.71 120.858 148.448 121.011 148.229 121.099C148.229 121.077 148.229 121.055 148.229 121.033C148.185 120.793 147.901 120.05 147.311 119.875C147.115 119.809 146.983 119.809 146.743 119.875C145.607 120.159 144.645 119.394 143.749 119.503C142.853 119.613 143.902 121.121 142.744 120.727C141.585 120.334 142.044 119.372 141.083 121.033C140.121 122.716 138.482 122.017 139.16 123.743C139.684 125.12 142.722 124.814 143.924 124.639C144.295 125.054 144.667 125.448 145.082 125.841C145.694 126.431 146.35 126.978 147.093 127.415C147.464 127.633 147.858 127.83 148.273 127.961C148.688 128.092 149.147 128.158 149.606 128.136C149.999 128.092 150.349 128.18 150.611 128.376C150.874 128.573 151.048 128.901 151.18 129.272C151.464 129.994 151.638 130.802 152.032 131.611C152.229 132.004 152.469 132.419 152.775 132.769C153.081 133.119 153.496 133.425 153.933 133.599C154.042 133.643 154.152 133.687 154.261 133.709L154.436 133.752L154.589 133.774L155.201 133.905L156.425 134.19L156.578 134.233C156.119 134.889 155.638 135.545 155.157 136.222C154.698 136.878 154.217 137.533 153.78 138.211C153.321 138.888 152.884 139.588 152.469 140.353C152.054 141.096 151.682 141.904 151.398 142.756C151.114 143.631 150.939 144.57 150.961 145.554C150.983 146.537 151.223 147.521 151.617 148.395C151.813 148.832 152.054 149.225 152.316 149.619C152.447 149.794 152.578 149.99 152.731 150.165C152.862 150.34 153.037 150.537 153.125 150.646C154.021 151.717 154.698 153.006 155.179 154.405C155.638 155.804 155.922 157.29 156.053 158.82C156.315 161.879 156.119 165.004 155.682 168.129C155.463 169.681 155.179 171.233 154.851 172.784C154.676 173.549 154.501 174.336 154.305 175.101C154.108 175.866 153.911 176.631 153.693 177.396C153.649 177.549 153.737 177.724 153.889 177.789C154.064 177.855 154.239 177.789 154.327 177.614C154.939 176.128 155.463 174.62 155.944 173.09C156.184 172.326 156.403 171.561 156.621 170.774C156.818 169.987 157.015 169.222 157.19 168.414C157.539 166.84 157.801 165.245 157.998 163.627C158.173 162.01 158.26 160.371 158.195 158.71C158.173 158.382 158.173 158.055 158.129 157.727L159.572 157.377C159.921 157.29 160.271 157.224 160.621 157.137L161.145 157.027L161.276 157.006L161.429 156.962C161.539 156.94 161.626 156.896 161.713 156.874C161.932 156.787 162.15 156.656 162.347 156.525C162.609 156.634 162.872 156.721 163.134 156.809L163.571 156.962L163.79 157.027C163.833 157.049 163.877 157.049 163.921 157.049L164.052 157.071C164.139 157.093 164.248 157.071 164.336 157.071C164.423 157.049 164.533 157.049 164.598 157.006C164.773 156.94 164.926 156.874 165.057 156.787C165.341 156.612 165.56 156.394 165.8 156.241C165.931 156.153 166.041 156.11 166.15 156.11C166.281 156.088 166.368 156.175 166.478 156.241C166.74 156.459 167.09 156.547 167.417 156.568C167.876 156.612 168.335 156.547 168.794 156.459C168.86 156.7 168.947 157.027 169.013 157.421C169.1 158.055 169.056 158.426 169.297 158.535C169.515 158.645 169.865 158.514 169.931 158.426C169.996 158.361 170.018 158.317 170.062 158.208C170.193 157.705 170.696 157.508 170.849 157.137C171.002 156.765 170.193 156.853 170.586 156.481C170.783 156.306 170.958 156.35 171.045 156.241C171.154 156.11 170.98 155.935 170.849 155.476C170.696 154.973 170.783 154.798 170.586 154.623C170.543 154.58 170.39 154.427 170.193 154.449C169.865 154.492 169.8 155.017 169.341 155.651C169.231 155.782 169.144 155.913 169.056 156C168.532 156.175 167.986 156.306 167.461 156.263C167.177 156.241 166.893 156.175 166.674 156C166.609 155.957 166.543 155.891 166.456 155.847L166.325 155.804C166.281 155.782 166.237 155.782 166.194 155.782C165.997 155.782 165.822 155.825 165.669 155.891C165.363 156.022 165.101 156.219 164.86 156.35C164.598 156.481 164.358 156.568 164.117 156.503L164.03 156.481C164.008 156.481 163.964 156.459 163.943 156.459L163.724 156.372L163.309 156.197C163.134 156.131 162.959 156.044 162.806 155.978C163.025 155.716 163.221 155.41 163.352 155.104C163.68 154.427 163.833 153.727 164.052 153.115C164.161 152.81 164.314 152.547 164.511 152.372C164.729 152.198 164.992 152.132 165.319 152.176C166.106 152.219 166.849 151.935 167.483 151.564C168.117 151.192 168.663 150.712 169.188 150.231C169.581 149.859 169.953 149.466 170.302 149.051C170.564 148.963 170.87 148.898 171.22 148.854C172.553 148.723 173.449 149.291 173.755 148.876C173.93 148.635 173.864 148.067 173.733 147.739C173.711 147.696 173.711 147.696 173.711 147.674C173.515 147.324 173.056 147.477 172.706 147.237C172.182 146.909 172.335 146.144 171.745 145.838C171.613 145.772 171.548 145.772 171.526 145.772C171.111 145.816 171.002 146.778 170.564 146.1C170.302 145.707 170.433 145.466 170.28 145.248C170.127 145.073 169.887 145.139 168.685 145.292C167.898 145.379 167.636 145.401 167.374 145.598C166.784 145.27 166.587 144.592 166.128 144.308C165.625 144.002 165.582 145.182 165.145 144.527C164.926 144.199 165.035 143.915 164.904 143.827C164.729 143.718 164.467 144.177 163.833 144.33C163.418 144.417 163.243 144.308 162.959 144.483C162.741 144.614 162.609 144.855 162.566 144.964C162.391 145.466 163.112 146.275 164.314 147.018L164.183 147.215C164.096 147.346 164.008 147.477 163.943 147.652C163.79 148.002 163.855 148.373 163.943 148.679C164.03 148.985 164.183 149.269 164.248 149.531C164.292 149.662 164.292 149.794 164.27 149.881C164.248 149.99 164.183 150.034 164.096 150.121C163.79 150.362 163.637 150.69 163.527 151.017C163.352 151.564 163.331 152.132 163.331 152.678C163.331 152.678 163.331 152.7 163.309 152.7C162.894 153.356 162.653 154.033 162.391 154.623C162.26 154.929 162.107 155.192 161.954 155.432C161.779 155.672 161.582 155.891 161.342 156.044C161.276 156.088 161.211 156.131 161.145 156.153L161.036 156.197L160.905 156.241C160.73 156.306 160.577 156.372 160.402 156.416C160.074 156.525 159.725 156.634 159.397 156.721C158.938 156.853 158.479 156.962 158.02 157.027C157.911 155.891 157.714 154.755 157.386 153.618C156.905 151.979 156.184 150.362 155.07 148.941C154.917 148.745 154.829 148.635 154.72 148.482C154.611 148.351 154.523 148.198 154.436 148.067C154.261 147.783 154.108 147.499 153.977 147.215C153.737 146.625 153.605 146.035 153.627 145.423C153.627 144.811 153.758 144.177 153.977 143.521C154.195 142.888 154.501 142.232 154.873 141.576C154.982 141.38 155.091 141.183 155.201 141.008C155.31 140.964 155.441 140.921 155.55 140.899C156.184 140.68 156.818 140.44 157.452 140.156C158.697 139.609 159.921 138.954 161.014 138.08C161.56 137.643 162.085 137.162 162.522 136.594C162.959 136.025 163.352 135.37 163.549 134.627L163.68 134.211L163.768 134.037L163.811 133.949L163.855 133.862C163.986 133.643 164.161 133.468 164.358 133.315C164.751 133.031 165.319 132.878 165.931 132.791C167.155 132.638 168.51 132.725 169.909 132.572C170.608 132.507 171.307 132.376 171.985 132.113C172.662 131.851 173.318 131.436 173.799 130.911C173.93 130.78 174.039 130.649 174.149 130.496L174.302 130.278L174.433 130.059L174.979 129.229L176.094 127.568L176.815 126.497C179.568 126.956 181.688 126.759 182.016 125.972C182.322 125.71 182.344 124.814 182.169 124.574ZM151.027 127.83C150.589 127.568 150.065 127.524 149.628 127.59C148.885 127.655 148.098 127.393 147.399 126.978C146.699 126.562 146.087 126.038 145.497 125.448C145.213 125.164 144.929 124.858 144.667 124.53C144.645 124.508 144.623 124.486 144.601 124.464C145.672 123.94 146.568 123.372 147.202 122.825C147.53 123.022 148.054 123.153 148.732 123.393C149.213 123.568 149.912 123.831 150.742 124.202C150.655 124.442 150.524 124.683 150.436 124.967C150.371 125.164 150.327 125.382 150.371 125.623C150.415 125.863 150.589 126.082 150.764 126.213C150.983 126.388 151.114 126.693 151.201 126.999C151.289 127.349 151.333 127.699 151.333 128.07C151.289 128.005 151.158 127.917 151.027 127.83ZM164.117 151.236C164.183 150.974 164.292 150.712 164.489 150.559L164.598 150.471C164.642 150.427 164.664 150.406 164.707 150.362C164.729 150.318 164.773 150.274 164.795 150.231C164.817 150.187 164.839 150.121 164.839 150.078C164.882 149.881 164.86 149.662 164.795 149.51C164.707 149.182 164.554 148.919 164.467 148.635C164.38 148.373 164.314 148.089 164.401 147.849C164.423 147.783 164.445 147.739 164.489 147.674L164.598 147.477C164.642 147.39 164.686 147.324 164.751 147.237C166.15 147.521 167.308 147.477 167.767 147.127C167.986 147.259 168.226 147.433 168.466 147.608C168.86 147.914 169.319 148.351 169.756 149.007C169.734 149.051 169.69 149.072 169.668 149.116C169.45 149.378 169.231 149.641 168.969 149.881C168.488 150.384 167.964 150.821 167.374 151.17C166.805 151.52 166.128 151.739 165.516 151.673C165.145 151.608 164.686 151.651 164.292 151.87C164.205 151.913 164.117 151.979 164.03 152.045C164.008 151.761 164.052 151.498 164.117 151.236Z" fill="#EBDEDE"/>
<path d="M144.645 162.557C145.868 171.364 147.07 180.193 148.294 189H165.231C166.455 180.193 167.657 171.364 168.881 162.557H144.645Z" fill="#EEEDEE"/>
<defs>
<linearGradient id="paint0_linear" x1="109.789" y1="63.909" x2="125.228" y2="63.909" gradientUnits="userSpaceOnUse">
<stop stop-color="#002544"/>
<stop offset="0.9935" stop-color="#640042"/>
</linearGradient>
<linearGradient id="paint1_linear" x1="89.6658" y1="33.8672" x2="103.389" y2="35.6369" gradientUnits="userSpaceOnUse">
<stop stop-color="#EFDDCB"/>
<stop offset="0.331" stop-color="#F1BDAF"/>
<stop offset="0.6278" stop-color="#F2A89C"/>
<stop offset="0.8209" stop-color="#F2A095"/>
</linearGradient>
<linearGradient id="paint2_linear" x1="92.1273" y1="62.9989" x2="115.472" y2="62.9989" gradientUnits="userSpaceOnUse">
<stop stop-color="#002544"/>
<stop offset="0.6197" stop-color="#042444" stop-opacity="0.5"/>
<stop offset="1" stop-color="#640042" stop-opacity="0.2"/>
</linearGradient>
<linearGradient id="paint3_linear" x1="62.7815" y1="59.3323" x2="78.1884" y2="59.3323" gradientUnits="userSpaceOnUse">
<stop stop-color="#002544"/>
<stop offset="0.9174" stop-color="#271C41"/>
</linearGradient>
<linearGradient id="paint4_linear" x1="62.7825" y1="59.3323" x2="78.1893" y2="59.3323" gradientUnits="userSpaceOnUse">
<stop stop-color="#002544"/>
<stop offset="0.9174" stop-color="#271C41"/>
</linearGradient>
<linearGradient id="paint5_linear" x1="64.1742" y1="59.2717" x2="77.3278" y2="59.2717" gradientUnits="userSpaceOnUse">
<stop stop-color="#D3E0DF"/>
<stop offset="0.6644" stop-color="#F1F0E2"/>
</linearGradient>
<linearGradient id="paint6_linear" x1="97.4195" y1="135.645" x2="120.078" y2="135.645" gradientUnits="userSpaceOnUse">
<stop offset="0.00645476" stop-color="#640042"/>
<stop offset="1" stop-color="#002544"/>
</linearGradient>
<linearGradient id="paint7_linear" x1="69.3822" y1="126.872" x2="87.1999" y2="126.872" gradientUnits="userSpaceOnUse">
<stop stop-color="white" stop-opacity="0.5"/>
<stop offset="0.8362" stop-color="#F07125"/>
</linearGradient>
<linearGradient id="paint8_linear" x1="64.7962" y1="65.4425" x2="75.0155" y2="65.4425" gradientUnits="userSpaceOnUse">
<stop offset="0.00112775" stop-color="#E4C9C2"/>
<stop offset="0.7693" stop-color="#FDB2A4"/>
</linearGradient>
<linearGradient id="paint9_linear" x1="77.652" y1="65.06" x2="109.872" y2="65.06" gradientUnits="userSpaceOnUse">
<stop stop-color="#002544"/>
<stop offset="0.6197" stop-color="#042444" stop-opacity="0.5"/>
<stop offset="1" stop-color="#640042" stop-opacity="0.2"/>
</linearGradient>
<linearGradient id="paint10_linear" x1="88.14" y1="54.8471" x2="101.789" y2="54.8471" gradientUnits="userSpaceOnUse">
<stop stop-color="white" stop-opacity="0.5"/>
<stop offset="0.8362" stop-color="#F07125"/>
</linearGradient>
<linearGradient id="paint11_linear" x1="79.5477" y1="23.8195" x2="100.132" y2="26.474" gradientUnits="userSpaceOnUse">
<stop stop-color="#EFDDCB"/>
<stop offset="0.331" stop-color="#F1BDAF"/>
<stop offset="0.6278" stop-color="#F2A89C"/>
<stop offset="0.8209" stop-color="#F2A095"/>
</linearGradient>
<linearGradient id="paint12_linear" x1="92.8471" y1="21.2933" x2="99.8018" y2="22.1902" gradientUnits="userSpaceOnUse">
<stop stop-color="white" stop-opacity="0.5"/>
<stop offset="0.8362" stop-color="#F07125"/>
</linearGradient>
</defs>
</svg>
