<svg width="250" height="211" viewBox="0 0 250 211" fill="none" xmlns="http://www.w3.org/2000/svg">
<path opacity="0.5" d="M127.801 101.874C127.738 101.874 127.675 101.843 127.643 101.811C127.517 101.716 127.517 101.558 127.611 101.432L163.5 56.2636C163.595 56.1374 163.753 56.1374 163.879 56.232C164.005 56.3267 164.005 56.4846 163.91 56.6108L128.022 101.748C127.959 101.843 127.896 101.874 127.801 101.874Z" fill="#153E5C"/>
<path opacity="0.5" d="M126.002 101.874C125.876 101.874 125.781 101.811 125.749 101.685L103.465 28.3607C103.433 28.2345 103.496 28.0767 103.654 28.0135C103.781 27.982 103.938 28.0451 104.002 28.2029L126.254 101.527C126.286 101.653 126.223 101.811 126.065 101.874C126.065 101.874 126.033 101.874 126.002 101.874Z" fill="#153E5C"/>
<path opacity="0.5" d="M124.644 102.663C124.612 102.663 124.581 102.663 124.549 102.632L59.3807 65C59.2545 64.9369 59.1913 64.779 59.2229 64.6528C59.286 64.5265 59.4438 64.4634 59.5701 64.495L124.739 102.158C124.865 102.221 124.928 102.379 124.897 102.506C124.833 102.6 124.739 102.663 124.644 102.663Z" fill="#153E5C"/>
<path d="M61.381 36L13.3838 36L15.381 73L61.381 73L61.381 36Z" fill="#E3EDF1"/>
<path d="M45.1197 55.2468C45.1197 58.963 41.4978 61.9756 37.0299 61.9756C32.562 61.9756 29.6445 58.963 29.6445 55.2468C29.6445 51.5306 32.562 47.0244 37.0299 47.0244C41.4978 47.0244 45.1197 51.5306 45.1197 55.2468Z" fill="#F9FDFD"/>
<path d="M36.1084 51.295C36.1084 50.8631 36.4585 50.513 36.8904 50.513C37.3223 50.513 37.6724 50.8631 37.6724 51.295V56.0392C37.6724 56.471 37.3223 56.8211 36.8904 56.8211C36.4585 56.8211 36.1084 56.471 36.1084 56.0392V51.295Z" fill="#D3E2E9"/>
<path d="M41.1426 53.8327C41.5536 53.6999 41.9944 53.9254 42.1272 54.3363C42.26 54.7473 42.0345 55.1881 41.6236 55.3209L37.1093 56.7799C36.6984 56.9127 36.2576 56.6873 36.1247 56.2763C35.9919 55.8654 36.2174 55.4245 36.6283 55.2917L41.1426 53.8327Z" fill="#D3E2E9"/>
<path d="M194.849 32.1069L141.381 33L140.381 70L194.849 71.3459V32.1069Z" fill="#E3EDF1"/>
<rect x="164.164" y="43.1664" width="6.90133" height="11.1932" rx="3.45067" fill="#F9FDFD"/>
<rect x="165.871" y="45.059" width="3.48663" height="6.57041" rx="1.74331" fill="#D3E2E9"/>
<path d="M159.551 49.2233C159.551 48.0692 160.525 47.1547 161.677 47.2273L167.608 47.6012L173.553 47.227C174.705 47.1546 175.679 48.0691 175.679 49.2231V55.8043C175.679 56.9088 174.783 57.8042 173.679 57.8042H161.551C160.446 57.8042 159.551 56.9088 159.551 55.8042V49.2233Z" fill="#F9FDFD"/>
<path d="M125.881 0H75.3731L75.373 43H125.881V0Z" fill="#E3EDF1"/>
<path d="M108.064 19.5521C108.064 25.6597 100.627 30.8853 100.627 30.8853C100.627 30.8853 93.1895 25.6597 93.1895 19.5521C93.1895 15.4446 96.5193 12.1147 100.627 12.1147C104.734 12.1147 108.064 15.4446 108.064 19.5521Z" fill="#F9FDFD"/>
<circle cx="100.627" cy="19.6353" r="2.72533" stroke="#D3E2E9" stroke-width="1.5"/>
<path d="M250 206.606V206.461C250 204.558 248.809 203 247.356 203H2.64361C1.19082 203 0 204.558 0 206.461V206.606H250Z" fill="#EEEDEE"/>
<path d="M119.954 118.294L124.46 116.615L122.222 112.138L119.954 118.294Z" fill="#C5856E"/>
<path d="M92.3862 142.829C91.0314 144.242 88.9402 144.831 86.5545 144.831H86.2305C81.3708 144.772 75.3918 142.505 71.9752 140.413C69.1183 138.676 67.9402 136.967 67.4395 136.172C65.3483 132.814 65.6428 129.074 65.9668 126.629C67.3216 116.586 76.3049 78.3262 85.5237 79.6516C86.7902 79.8283 87.6148 80.7119 88.9697 82.1257C94.0356 87.4567 92.7691 95.7036 92.4746 97.6475C91.8855 101.417 90.6191 103.95 90.0595 105.246C83.5209 120.267 98.3358 136.555 92.3862 142.829Z" fill="#E4B351"/>
<path d="M169.112 196.345C164.929 196.286 161.925 192.31 160.07 190.101C149.113 176.906 141.426 179.468 129.851 163.888C127.877 161.237 126.464 158.969 125.639 157.585C122.694 162.621 114.476 175.845 101.576 185.83C98.984 187.833 90.472 194.136 80.723 197.317C79.2209 197.817 77.7188 198.23 76.2756 198.583C70.6795 199.938 65.5547 200.321 61.1367 200.262C63.6108 195.55 66.5561 190.425 70.0316 185.094C71.6809 182.561 73.4776 179.969 75.3626 177.348C76.0105 176.464 76.6585 175.58 77.3065 174.726C81.8422 168.718 86.3486 163.564 90.5015 159.204C90.5604 159.146 90.6193 159.057 90.6782 158.998C90.8844 158.792 90.9727 158.674 90.9727 158.674C91.5912 158.026 92.2097 157.408 92.8283 156.789C101.723 147.836 108.468 142.74 113.092 139.854C114.241 139.147 115.242 138.558 116.126 138.087C119.042 136.526 120.514 136.202 120.514 136.202C120.632 136.172 120.868 136.113 121.192 136.054C121.427 135.995 121.663 135.966 121.928 135.937C121.928 135.937 122.34 135.878 122.723 135.819C133.886 134.641 166.166 181.029 166.166 181.029C168.876 184.74 171.586 188.569 174.296 192.516C174.443 192.722 174.826 193.252 174.737 193.871C174.531 195.432 171.232 196.374 169.112 196.345Z" fill="url(#paint0_linear)"/>
<path opacity="0.35" d="M116.184 138.057C115.183 142.269 113.445 147.512 110.294 152.872C107.201 158.085 104.639 162.444 99.7494 164.889C97.4521 166.038 96.3034 165.92 95.4493 167.216C93.0341 170.897 97.4521 179.291 101.605 185.86C95.8322 190.543 88.9107 194.695 80.7522 197.346C79.2501 197.847 77.748 198.259 76.3048 198.613C72.9766 194.99 70.9443 190.248 70.0312 185.123C71.6806 182.59 73.4773 179.998 75.3623 177.377C76.0102 176.493 76.6582 175.61 77.3062 174.756C82.7255 167.657 88.7634 161.089 90.5012 159.234C90.5601 159.146 90.6484 159.087 90.6779 159.028C90.8841 158.822 90.9724 158.704 90.9724 158.704C91.5909 158.056 92.2094 157.437 92.828 156.819C101.723 147.865 108.468 142.77 113.092 139.883C114.299 139.117 115.301 138.528 116.184 138.057Z" fill="#0B224C"/>
<path d="M212.172 191.485C211.436 196.256 212.113 198.76 208.049 199.29C207.725 199.349 207.342 199.379 206.959 199.437C204.838 199.702 202.04 199.997 199.684 200.233C197.18 200.498 195.207 200.674 195.207 200.674L198.152 194.106C198.359 194.077 198.565 194.018 198.741 193.959C199.978 193.665 201.068 193.341 201.981 192.958C204.279 192.074 205.663 191.014 206.517 189.983C206.87 189.571 207.136 189.129 207.342 188.746C208.814 185.889 209.521 178.997 210.582 176.67C210.699 176.435 210.964 175.816 211.406 175.551C211.524 175.492 211.612 175.433 211.76 175.433C211.76 175.433 212.084 175.404 212.437 175.698C213.792 176.759 213.262 184.652 212.172 191.485Z" fill="#C5856E"/>
<path opacity="0.25" d="M206.989 199.437C204.868 199.702 202.07 199.997 199.714 200.233L198.801 193.989C200.038 193.694 201.128 193.37 202.041 192.987L206.989 199.437Z" fill="#153E5C"/>
<path opacity="0.19" d="M210.759 188.805C209.374 191.426 207.725 190.925 206.547 190.042C206.9 189.629 207.165 189.188 207.372 188.805C208.844 185.948 209.551 179.056 210.611 176.729C210.729 176.493 210.994 175.875 211.436 175.61C212.379 178.378 212.614 185.27 210.759 188.805Z" fill="url(#paint1_linear)"/>
<path d="M201.51 200.35C198.918 200.733 196.12 201.116 193.116 201.529C192.556 201.617 191.997 201.676 191.407 201.764C187.372 202.294 183.013 202.883 178.36 203.443C178.124 203.472 177.859 203.502 177.623 203.531C175.326 203.826 172.97 204.091 170.525 204.386C170.29 204.415 170.054 204.444 169.818 204.474C165.607 204.975 161.218 205.446 156.623 205.947C156.27 205.976 155.887 206.035 155.534 206.064C151.204 206.506 146.698 206.977 142.074 207.419C141.632 207.449 141.19 207.508 140.748 207.537C140.719 207.537 140.689 207.537 140.66 207.537C136.242 207.949 132.03 208.332 128.024 208.656C127.7 208.686 127.376 208.715 127.082 208.745C122.193 209.157 117.598 209.481 113.298 209.746C112.709 209.775 112.12 209.834 111.531 209.864C106.995 210.158 102.813 210.364 98.9542 210.512C98.7186 210.512 98.4829 210.541 98.2473 210.541C96.6863 210.6 95.1842 210.63 93.741 210.659C93.5054 210.659 93.2697 210.659 93.0636 210.688C87.9682 210.806 83.5208 210.777 79.5446 210.63C79.1617 210.63 78.7494 210.6 78.3665 210.571C76.9822 210.512 75.6862 210.453 74.4197 210.335C74.0369 210.306 73.6834 210.276 73.3005 210.247C58.6623 209.098 52.9779 205.858 50.0031 201.411C49.797 201.116 49.6202 200.822 49.4435 200.527C47.4996 197.17 45.703 191.397 48.2948 181.235C48.4421 180.705 48.5894 180.175 48.7366 179.615C49.2668 177.819 49.9148 175.904 50.71 173.843C52.0354 173.99 53.3019 174.167 54.5094 174.314C64.2879 175.58 71.0326 176.759 71.2094 177.024C71.3566 177.259 71.5039 177.465 71.5039 177.465C71.5333 177.554 71.6217 177.672 71.7101 177.819C71.7101 177.819 73.7718 181.235 79.6035 182.531C79.6919 182.561 79.7802 182.561 79.8686 182.59C80.2809 182.679 81.0172 182.796 82.0776 182.914C82.1365 182.914 82.1954 182.944 82.2543 182.944C83.6386 183.12 85.5236 183.327 87.8798 183.592C88.1449 183.621 88.3805 183.651 88.6456 183.68C89.2347 183.739 89.8532 183.798 90.4717 183.857C90.7662 183.886 91.0607 183.916 91.3553 183.945C92.2094 184.033 93.1225 184.122 94.065 184.21C94.3595 184.24 94.6835 184.269 95.0075 184.299L95.5671 184.357C95.8027 184.387 96.0383 184.387 96.274 184.416C96.3623 184.416 96.4212 184.416 96.5096 184.446C96.7747 184.475 97.0103 184.505 97.2754 184.534C97.4815 184.564 97.6582 184.564 97.8644 184.593C98.4535 184.652 99.0425 184.711 99.6611 184.77C99.8672 184.799 100.073 184.799 100.28 184.829C100.427 184.829 100.545 184.858 100.692 184.858C100.751 184.858 100.839 184.858 100.898 184.888C101.31 184.917 101.752 184.976 102.165 185.005C102.312 185.005 102.459 185.035 102.577 185.035C103.225 185.094 103.902 185.153 104.55 185.212C104.845 185.241 105.169 185.27 105.463 185.3C105.846 185.329 106.2 185.359 106.583 185.418C106.7 185.418 106.818 185.447 106.936 185.447C109.97 185.742 113.239 186.036 116.714 186.331C117.215 186.39 117.716 186.419 118.246 186.478C118.806 186.537 119.336 186.566 119.895 186.625C120.249 186.655 120.632 186.684 120.985 186.714C121.191 186.743 121.368 186.743 121.574 186.773C122.104 186.831 122.664 186.861 123.194 186.92C123.695 186.979 124.225 187.008 124.726 187.067C125.02 187.097 125.344 187.126 125.639 187.155C125.933 187.185 126.257 187.214 126.552 187.244C127.17 187.303 127.789 187.362 128.407 187.421C128.731 187.45 129.026 187.479 129.35 187.509C129.379 187.509 129.438 187.509 129.468 187.509C130.086 187.568 130.675 187.627 131.294 187.656C131.588 187.686 131.912 187.715 132.236 187.745C132.737 187.803 133.238 187.833 133.738 187.862C134.504 187.921 135.24 188.01 136.006 188.068C136.949 188.157 137.921 188.245 138.922 188.334C139.04 188.334 139.158 188.363 139.275 188.363C139.658 188.392 140.012 188.422 140.395 188.451C141.543 188.54 142.692 188.658 143.87 188.746C144.253 188.775 144.636 188.805 144.989 188.834C145.372 188.864 145.785 188.893 146.168 188.923C146.55 188.952 146.963 188.982 147.346 189.011C147.493 189.011 147.611 189.04 147.758 189.04C148.17 189.07 148.583 189.099 148.995 189.158C149.967 189.247 150.939 189.306 151.911 189.394C152.529 189.453 153.177 189.512 153.825 189.541C153.973 189.541 154.12 189.571 154.297 189.571C154.974 189.63 155.681 189.688 156.358 189.747C158.921 189.953 161.513 190.189 164.163 190.395C168.228 190.719 172.41 191.073 176.681 191.426C177.27 191.485 177.859 191.515 178.448 191.573C179.715 191.691 180.952 191.78 182.248 191.897C182.483 191.927 182.748 191.927 182.984 191.956C188.786 192.428 194.736 192.899 200.832 193.399C200.862 193.399 200.862 193.399 200.891 193.399C200.891 193.458 200.891 193.488 200.891 193.547C201.009 194.813 201.127 196.109 201.245 197.376C201.245 197.493 201.274 197.611 201.274 197.729C201.333 198.318 201.392 198.907 201.451 199.496C201.451 199.791 201.48 200.056 201.51 200.35Z" fill="#87AEB4"/>
<g opacity="0.4">
<g opacity="0.4">
<path opacity="0.4" d="M96.3919 184.475L96.2152 184.564L96.1562 184.446C96.2152 184.475 96.3035 184.475 96.3919 184.475Z" fill="#271C41"/>
<path opacity="0.4" d="M102.577 185.241L101.163 186.036L100.574 184.888C100.633 184.888 100.721 184.888 100.78 184.917C101.193 184.946 101.635 185.005 102.047 185.035C102.194 185.035 102.341 185.064 102.459 185.064L102.577 185.241Z" fill="#271C41"/>
<path opacity="0.4" d="M107.525 186.714L106.111 187.509L105.375 186.095L106.524 185.447C106.641 185.447 106.759 185.477 106.877 185.477L107.525 186.714Z" fill="#271C41"/>
<path opacity="0.4" d="M111.972 188.039L111.207 186.596L109.822 187.391L110.559 188.834L111.972 188.039Z" fill="#271C41"/>
<path opacity="0.4" d="M116.921 189.512L116.155 188.068L114.771 188.864L115.507 190.307L116.921 189.512Z" fill="#271C41"/>
<path opacity="0.4" d="M121.869 190.984L121.103 189.541L119.719 190.336L120.455 191.75L121.869 190.984Z" fill="#271C41"/>
<path opacity="0.4" d="M126.817 192.428L126.081 191.014L124.667 191.809L125.403 193.223L126.817 192.428Z" fill="#271C41"/>
<path opacity="0.4" d="M131.971 193.959L131.235 192.545L129.821 193.311L130.558 194.754L131.971 193.959Z" fill="#271C41"/>
<path opacity="0.4" d="M136.92 195.432L136.183 193.989L134.77 194.784L135.506 196.227L136.92 195.432Z" fill="#271C41"/>
<path opacity="0.4" d="M141.868 196.904L141.132 195.461L139.718 196.256L140.484 197.7L141.868 196.904Z" fill="#271C41"/>
<path opacity="0.4" d="M146.816 198.348L146.08 196.934L144.666 197.729L145.432 199.143L146.816 198.348Z" fill="#271C41"/>
<path opacity="0.4" d="M151.263 199.673L150.527 198.259L149.113 199.055L149.879 200.468L151.263 199.673Z" fill="#271C41"/>
<path opacity="0.4" d="M156.212 201.146L155.475 199.702L154.062 200.498L154.827 201.941L156.212 201.146Z" fill="#271C41"/>
<path opacity="0.4" d="M161.16 202.618L160.424 201.175L159.01 201.97L159.776 203.414L161.16 202.618Z" fill="#271C41"/>
<path opacity="0.4" d="M166.137 204.062L165.372 202.648L163.987 203.443L164.724 204.857L166.137 204.062Z" fill="#271C41"/>
<path opacity="0.4" d="M170.496 204.386C170.26 204.415 170.025 204.444 169.789 204.474L170.378 204.15L170.496 204.386Z" fill="#271C41"/>
<path opacity="0.4" d="M54.363 176.552L53.6266 175.109L52.2129 175.904L52.9787 177.348L54.363 176.552Z" fill="#271C41"/>
<path opacity="0.4" d="M57.4259 178.644L58.8102 177.848L58.0739 176.435L56.6602 177.23L57.4259 178.644Z" fill="#271C41"/>
<path opacity="0.4" d="M62.3742 180.116L63.7585 179.321L63.0221 177.907L61.6084 178.702L62.3742 180.116Z" fill="#271C41"/>
<path opacity="0.4" d="M67.3223 181.589L68.736 180.794L67.9702 179.35L66.5859 180.146L67.3223 181.589Z" fill="#271C41"/>
<path opacity="0.4" d="M73.6833 182.266L72.9175 180.823L71.5332 181.618L72.2695 183.061L73.6833 182.266Z" fill="#271C41"/>
<path opacity="0.4" d="M78.6618 183.739L77.9255 182.296L76.5117 183.091L77.248 184.534L78.6618 183.739Z" fill="#271C41"/>
<path opacity="0.4" d="M83.6091 185.212L82.8727 183.768L81.459 184.564L82.2248 186.007L83.6091 185.212Z" fill="#271C41"/>
<path opacity="0.4" d="M88.5573 186.655L87.821 185.241L86.4072 186.036L87.173 187.45L88.5573 186.655Z" fill="#271C41"/>
<path opacity="0.4" d="M93.5348 188.127L92.7691 186.714L91.3848 187.509L92.1211 188.923L93.5348 188.127Z" fill="#271C41"/>
<path opacity="0.4" d="M96.5685 190.248L97.9528 189.453L97.2165 188.01L95.8027 188.805L96.5685 190.248Z" fill="#271C41"/>
<path opacity="0.4" d="M101.517 191.721L102.93 190.925L102.165 189.482L100.78 190.277L101.517 191.721Z" fill="#271C41"/>
<path opacity="0.4" d="M106.465 193.164L107.879 192.398L107.113 190.955L105.729 191.75L106.465 193.164Z" fill="#271C41"/>
<path opacity="0.4" d="M112.827 193.841L112.091 192.428L110.677 193.223L111.413 194.637L112.827 193.841Z" fill="#271C41"/>
<path opacity="0.4" d="M117.981 195.373L117.215 193.959L115.831 194.725L116.567 196.168L117.981 195.373Z" fill="#271C41"/>
<path opacity="0.4" d="M122.929 196.846L122.193 195.402L120.779 196.198L121.516 197.641L122.929 196.846Z" fill="#271C41"/>
<path opacity="0.4" d="M127.878 198.318L127.141 196.875L125.728 197.67L126.464 199.084L127.878 198.318Z" fill="#271C41"/>
<path opacity="0.4" d="M132.826 199.761L132.09 198.348L130.676 199.143L131.442 200.557L132.826 199.761Z" fill="#271C41"/>
<path opacity="0.4" d="M135.859 201.882L137.273 201.087L136.537 199.673L135.123 200.439L135.859 201.882Z" fill="#271C41"/>
<path opacity="0.4" d="M140.837 203.355L142.221 202.559L141.485 201.116L140.071 201.911L140.837 203.355Z" fill="#271C41"/>
<path opacity="0.4" d="M145.785 204.827L147.17 204.032L146.433 202.589L145.02 203.384L145.785 204.827Z" fill="#271C41"/>
<path opacity="0.4" d="M152.147 205.475L151.381 204.062L149.997 204.857L150.733 206.271L152.147 205.475Z" fill="#271C41"/>
<path opacity="0.4" d="M156.564 205.917C156.211 205.947 155.828 206.005 155.475 206.035L156.358 205.534L156.564 205.917Z" fill="#271C41"/>
<path opacity="0.4" d="M49.1791 180.676L48.1777 181.235C48.325 180.705 48.4723 180.175 48.6195 179.615L49.1791 180.676Z" fill="#271C41"/>
<path opacity="0.4" d="M52.7129 182.914L54.1266 182.148L53.3609 180.705L51.9766 181.5L52.7129 182.914Z" fill="#271C41"/>
<path opacity="0.4" d="M57.6611 184.387L59.0749 183.592L58.3386 182.178L56.9248 182.973L57.6611 184.387Z" fill="#271C41"/>
<path opacity="0.4" d="M62.6094 185.859L64.0231 185.064L63.2868 183.651L61.873 184.446L62.6094 185.859Z" fill="#271C41"/>
<path opacity="0.4" d="M67.0566 187.185L68.4704 186.39L67.7341 184.946L66.3203 185.742L67.0566 187.185Z" fill="#271C41"/>
<path opacity="0.4" d="M72.0049 188.628L73.4186 187.862L72.6823 186.419L71.2686 187.214L72.0049 188.628Z" fill="#271C41"/>
<path opacity="0.4" d="M76.9826 190.101L78.3669 189.306L77.6305 187.892L76.2168 188.687L76.9826 190.101Z" fill="#271C41"/>
<path opacity="0.4" d="M81.9308 191.573L83.3151 190.778L82.5788 189.364L81.165 190.16L81.9308 191.573Z" fill="#271C41"/>
<path opacity="0.4" d="M86.9082 193.046L88.322 192.251L87.5562 190.837L86.1719 191.632L86.9082 193.046Z" fill="#271C41"/>
<path opacity="0.4" d="M91.8564 194.519L93.2702 193.723L92.5339 192.31L91.1201 193.076L91.8564 194.519Z" fill="#271C41"/>
<path opacity="0.4" d="M96.8047 195.991L98.2184 195.196L97.4821 193.753L96.0684 194.548L96.8047 195.991Z" fill="#271C41"/>
<path opacity="0.4" d="M101.782 197.464L103.167 196.669L102.43 195.226L101.017 196.021L101.782 197.464Z" fill="#271C41"/>
<path opacity="0.4" d="M106.2 198.76L107.614 197.965L106.878 196.551L105.464 197.346L106.2 198.76Z" fill="#271C41"/>
<path opacity="0.4" d="M111.178 200.233L112.562 199.437L111.826 198.024L110.412 198.819L111.178 200.233Z" fill="#271C41"/>
<path opacity="0.4" d="M116.126 201.705L117.51 200.91L116.774 199.467L115.36 200.262L116.126 201.705Z" fill="#271C41"/>
<path opacity="0.4" d="M121.074 203.178L122.488 202.383L121.722 200.94L120.338 201.735L121.074 203.178Z" fill="#271C41"/>
<path opacity="0.4" d="M126.228 204.68L127.612 203.885L126.876 202.471L125.462 203.266L126.228 204.68Z" fill="#271C41"/>
<path opacity="0.4" d="M131.176 206.153L132.59 205.357L131.824 203.944L130.439 204.739L131.176 206.153Z" fill="#271C41"/>
<path opacity="0.4" d="M136.124 207.625L137.538 206.83L136.772 205.416L135.388 206.182L136.124 207.625Z" fill="#271C41"/>
<path opacity="0.4" d="M142.015 207.39C141.574 207.419 141.132 207.478 140.69 207.508C140.66 207.508 140.631 207.508 140.602 207.508L141.75 206.86L142.015 207.39Z" fill="#271C41"/>
<path opacity="0.4" d="M48.6191 187.273L50.0329 186.478L49.2966 185.064L47.8828 185.83L48.6191 187.273Z" fill="#271C41"/>
<path opacity="0.4" d="M52.3301 187.155L53.0664 188.599L54.4802 187.803L53.7144 186.36L52.3301 187.155Z" fill="#271C41"/>
<path opacity="0.4" d="M57.2783 188.628L58.0146 190.042L59.4284 189.276L58.6921 187.833L57.2783 188.628Z" fill="#271C41"/>
<path opacity="0.4" d="M62.2266 190.101L62.9629 191.515L64.3766 190.719L63.6403 189.306L62.2266 190.101Z" fill="#271C41"/>
<path opacity="0.4" d="M67.9406 192.987L69.3249 192.192L68.5886 190.778L67.1748 191.573L67.9406 192.987Z" fill="#271C41"/>
<path opacity="0.4" d="M72.918 194.46L74.3317 193.665L73.5659 192.251L72.1816 193.046L72.918 194.46Z" fill="#271C41"/>
<path opacity="0.4" d="M77.8662 195.932L79.28 195.137L78.5142 193.724L77.1299 194.489L77.8662 195.932Z" fill="#271C41"/>
<path opacity="0.4" d="M82.8145 197.405L84.2282 196.61L83.4919 195.167L82.0781 195.962L82.8145 197.405Z" fill="#271C41"/>
<path opacity="0.4" d="M87.7627 198.878L89.1764 198.083L88.4401 196.639L87.0264 197.435L87.7627 198.878Z" fill="#271C41"/>
<path opacity="0.4" d="M91.4736 198.76L92.21 200.174L93.6237 199.378L92.8874 197.965L91.4736 198.76Z" fill="#271C41"/>
<path opacity="0.4" d="M96.4219 200.203L97.1876 201.646L98.5719 200.851L97.8356 199.437L96.4219 200.203Z" fill="#271C41"/>
<path opacity="0.4" d="M101.37 201.676L102.136 203.119L103.52 202.324L102.784 200.881L101.37 201.676Z" fill="#271C41"/>
<path opacity="0.4" d="M107.083 204.592L108.467 203.796L107.731 202.353L106.317 203.149L107.083 204.592Z" fill="#271C41"/>
<path opacity="0.4" d="M112.237 206.094L113.622 205.299L112.885 203.885L111.472 204.68L112.237 206.094Z" fill="#271C41"/>
<path opacity="0.4" d="M117.186 207.566L118.57 206.771L117.834 205.357L116.42 206.153L117.186 207.566Z" fill="#271C41"/>
<path opacity="0.4" d="M122.134 209.039L123.548 208.244L122.782 206.83L121.397 207.596L122.134 209.039Z" fill="#271C41"/>
<path opacity="0.4" d="M127.937 208.627C127.613 208.656 127.289 208.686 126.994 208.715L127.76 208.273L127.937 208.627Z" fill="#271C41"/>
<path opacity="0.4" d="M47.8828 190.778L48.6191 192.221L50.0329 191.426L49.2671 189.983L47.8828 190.778Z" fill="#271C41"/>
<path opacity="0.4" d="M54.9811 192.899L54.2153 191.456L52.8311 192.251L53.5674 193.694L54.9811 192.899Z" fill="#271C41"/>
<path opacity="0.4" d="M59.9294 194.342L59.193 192.928L57.7793 193.724L58.5156 195.137L59.9294 194.342Z" fill="#271C41"/>
<path opacity="0.4" d="M63.6109 194.254L62.2266 195.049L62.9629 196.463L64.3766 195.667L63.6109 194.254Z" fill="#271C41"/>
<path opacity="0.4" d="M68.5886 195.697L67.1748 196.492L67.9111 197.935L69.3249 197.14L68.5886 195.697Z" fill="#271C41"/>
<path opacity="0.4" d="M73.5368 197.17L72.123 197.965L72.8594 199.408L74.2731 198.613L73.5368 197.17Z" fill="#271C41"/>
<path opacity="0.4" d="M78.485 198.642L77.0713 199.437L77.8371 200.851L79.2214 200.085L78.485 198.642Z" fill="#271C41"/>
<path opacity="0.4" d="M83.4624 200.115L82.0781 200.91L82.8145 202.353L84.2282 201.558L83.4624 200.115Z" fill="#271C41"/>
<path opacity="0.4" d="M87.0264 202.383L87.7627 203.796L89.1764 203.001L88.4107 201.587L87.0264 202.383Z" fill="#271C41"/>
<path opacity="0.4" d="M94.1247 204.474L93.3884 203.06L91.9746 203.855L92.7109 205.269L94.1247 204.474Z" fill="#271C41"/>
<path opacity="0.4" d="M99.072 205.947L98.3356 204.533L96.9219 205.299L97.6582 206.742L99.072 205.947Z" fill="#271C41"/>
<path opacity="0.4" d="M102.784 205.829L101.37 206.624L102.106 208.067L103.52 207.272L102.784 205.829Z" fill="#271C41"/>
<path opacity="0.4" d="M107.731 207.301L106.317 208.097L107.054 209.51L108.467 208.715L107.731 207.301Z" fill="#271C41"/>
<path opacity="0.4" d="M113.18 209.717C112.591 209.746 112.002 209.805 111.413 209.834L111.266 209.54L112.679 208.745L113.18 209.717Z" fill="#271C41"/>
<path opacity="0.4" d="M49.6206 195.667L48.2363 196.463L48.9727 197.876L50.3864 197.081L49.6206 195.667Z" fill="#271C41"/>
<path opacity="0.4" d="M54.5983 197.111L53.1846 197.906L53.9209 199.349L55.3347 198.554L54.5983 197.111Z" fill="#271C41"/>
<path opacity="0.4" d="M59.5466 198.583L58.1328 199.379L58.8691 200.822L60.2829 200.027L59.5466 198.583Z" fill="#271C41"/>
<path opacity="0.4" d="M64.4948 200.056L63.0811 200.851L63.8468 202.265L65.2311 201.47L64.4948 200.056Z" fill="#271C41"/>
<path opacity="0.4" d="M69.4722 201.529L68.0879 202.324L68.8242 203.738L70.238 202.972L69.4722 201.529Z" fill="#271C41"/>
<path opacity="0.4" d="M74.4204 203.001L73.0361 203.796L73.7725 205.21L75.1862 204.415L74.4204 203.001Z" fill="#271C41"/>
<path opacity="0.4" d="M79.3981 204.474L77.9844 205.269L78.7207 206.683L80.1344 205.888L79.3981 204.474Z" fill="#271C41"/>
<path opacity="0.4" d="M84.3454 205.947L82.9316 206.712L83.668 208.156L85.0817 207.36L84.3454 205.947Z" fill="#271C41"/>
<path opacity="0.4" d="M88.7936 207.242L87.3799 208.038L88.1162 209.481L89.53 208.686L88.7936 207.242Z" fill="#271C41"/>
<path opacity="0.4" d="M94.4772 210.129L93.5936 210.63C93.358 210.63 93.1224 210.63 92.9162 210.659L92.3271 209.51L93.7409 208.715L94.4772 210.129Z" fill="#271C41"/>
<path opacity="0.4" d="M98.8368 210.482C98.6011 210.482 98.3655 210.512 98.1299 210.512L98.6895 210.188L98.8368 210.482Z" fill="#271C41"/>
<path opacity="0.4" d="M54.8335 202.854L53.4492 203.649L54.1855 205.092L55.5993 204.297L54.8335 202.854Z" fill="#271C41"/>
<path opacity="0.4" d="M57.8672 204.975L58.633 206.388L60.0173 205.623L59.2809 204.179L57.8672 204.975Z" fill="#271C41"/>
<path opacity="0.4" d="M62.8447 206.447L63.5811 207.861L64.9948 207.066L64.229 205.652L62.8447 206.447Z" fill="#271C41"/>
<path opacity="0.4" d="M67.793 207.92L68.5293 209.334L69.943 208.538L69.1773 207.125L67.793 207.92Z" fill="#271C41"/>
<path opacity="0.4" d="M74.8914 210.011L74.3024 210.335C73.9195 210.306 73.566 210.276 73.1832 210.247L72.7119 209.363L74.1257 208.568L74.8914 210.011Z" fill="#271C41"/>
<path opacity="0.4" d="M79.3979 210.6C79.015 210.6 78.6026 210.571 78.2197 210.541L79.1033 210.041L79.3979 210.6Z" fill="#271C41"/>
</g>
<g opacity="0.4">
<path opacity="0.4" d="M200.863 193.576L200.774 193.429C200.804 193.429 200.804 193.429 200.833 193.429C200.833 193.458 200.863 193.517 200.863 193.576Z" fill="#271C41"/>
<path opacity="0.4" d="M178.39 191.603L177.094 192.339L176.623 191.456C177.212 191.515 177.801 191.573 178.39 191.603Z" fill="#271C41"/>
<path opacity="0.4" d="M183.485 193.046L182.071 193.841L181.335 192.428L182.189 191.956C182.425 191.986 182.69 191.986 182.925 192.015L183.485 193.046Z" fill="#271C41"/>
<path opacity="0.4" d="M187.697 193.076L186.283 193.871L187.02 195.285L188.433 194.519L187.697 193.076Z" fill="#271C41"/>
<path opacity="0.4" d="M192.645 194.548L191.231 195.343L191.997 196.757L193.382 195.962L192.645 194.548Z" fill="#271C41"/>
<path opacity="0.4" d="M197.593 196.021L196.18 196.816L196.945 198.23L198.33 197.435L197.593 196.021Z" fill="#271C41"/>
<path opacity="0.4" d="M201.422 199.526L201.393 199.555L200.656 198.112L201.275 197.759C201.304 198.348 201.363 198.937 201.422 199.526Z" fill="#271C41"/>
<path opacity="0.4" d="M147.729 189.07L147.434 189.247L147.316 189.04C147.464 189.04 147.581 189.07 147.729 189.07Z" fill="#271C41"/>
<path opacity="0.4" d="M153.973 189.983L152.559 190.778L151.853 189.423C152.471 189.482 153.119 189.541 153.767 189.571L153.973 189.983Z" fill="#271C41"/>
<path opacity="0.4" d="M158.185 190.012L156.771 190.808L157.537 192.221L158.951 191.456L158.185 190.012Z" fill="#271C41"/>
<path opacity="0.4" d="M163.133 191.485L161.749 192.28L162.485 193.694L163.899 192.899L163.133 191.485Z" fill="#271C41"/>
<path opacity="0.4" d="M168.082 192.958L166.697 193.723L167.434 195.167L168.847 194.371L168.082 192.958Z" fill="#271C41"/>
<path opacity="0.4" d="M171.145 195.049L171.881 196.492L173.295 195.697L172.529 194.254L171.145 195.049Z" fill="#271C41"/>
<path opacity="0.4" d="M176.093 196.522L176.829 197.935L178.243 197.17L177.477 195.726L176.093 196.522Z" fill="#271C41"/>
<path opacity="0.4" d="M181.041 197.994L181.777 199.408L183.191 198.613L182.455 197.199L181.041 197.994Z" fill="#271C41"/>
<path opacity="0.4" d="M185.988 199.437L186.725 200.881L188.138 200.085L187.402 198.672L185.988 199.437Z" fill="#271C41"/>
<path opacity="0.4" d="M193.117 201.499C192.557 201.588 191.998 201.646 191.408 201.735L190.996 200.91L192.41 200.115L193.117 201.499Z" fill="#271C41"/>
<path opacity="0.4" d="M124.667 187.067L123.548 187.715L123.136 186.949C123.636 186.979 124.137 187.038 124.667 187.067Z" fill="#271C41"/>
<path opacity="0.4" d="M129.881 188.392L128.467 189.188L127.73 187.774L128.349 187.421C128.673 187.45 128.967 187.479 129.291 187.509C129.321 187.509 129.38 187.509 129.409 187.509L129.881 188.392Z" fill="#271C41"/>
<path opacity="0.4" d="M132.679 189.217L133.445 190.66L134.829 189.865L134.092 188.422L132.679 189.217Z" fill="#271C41"/>
<path opacity="0.4" d="M137.833 190.749L138.599 192.192L139.983 191.397L139.247 189.954L137.833 190.749Z" fill="#271C41"/>
<path opacity="0.4" d="M142.781 192.221L143.547 193.635L144.931 192.84L144.195 191.426L142.781 192.221Z" fill="#271C41"/>
<path opacity="0.4" d="M147.759 193.694L148.495 195.108L149.909 194.313L149.143 192.899L147.759 193.694Z" fill="#271C41"/>
<path opacity="0.4" d="M152.707 195.137L153.443 196.58L154.857 195.785L154.091 194.371L152.707 195.137Z" fill="#271C41"/>
<path opacity="0.4" d="M157.154 196.463L157.891 197.906L159.304 197.111L158.539 195.667L157.154 196.463Z" fill="#271C41"/>
<path opacity="0.4" d="M162.103 197.935L162.839 199.349L164.253 198.583L163.487 197.14L162.103 197.935Z" fill="#271C41"/>
<path opacity="0.4" d="M167.051 199.408L167.787 200.822L169.201 200.026L168.465 198.613L167.051 199.408Z" fill="#271C41"/>
<path opacity="0.4" d="M171.998 200.851L172.734 202.294L174.148 201.499L173.412 200.085L171.998 200.851Z" fill="#271C41"/>
<path opacity="0.4" d="M179.126 202.972L178.33 203.414C178.095 203.443 177.83 203.473 177.594 203.502L176.976 202.324L178.389 201.529L179.126 202.972Z" fill="#271C41"/>
</g>
</g>
<path opacity="0.3" d="M164.104 190.454C162.278 190.601 160.482 190.749 158.626 190.896C158.037 190.955 157.477 190.984 156.888 191.043C152.765 191.338 148.612 191.632 144.4 191.868C144.047 191.897 143.693 191.897 143.34 191.927C141.779 192.015 140.218 192.104 138.628 192.163C138.598 192.163 138.598 192.163 138.569 192.163C134.592 192.369 130.557 192.516 126.463 192.634C126.022 192.634 125.58 192.663 125.109 192.663C122.281 192.752 119.454 192.81 116.567 192.869C115.183 192.899 113.769 192.928 112.296 192.899C111.943 192.899 111.59 192.899 111.207 192.899C109.911 192.869 108.556 192.84 107.201 192.752C106.848 192.722 106.524 192.693 106.17 192.693C100.25 192.221 93.8293 190.925 87.1435 187.479C85.7592 186.773 84.4927 186.036 83.3735 185.329C82.8433 184.976 82.3426 184.652 81.8714 184.328C80.9289 183.68 80.1042 183.091 79.4268 182.561C79.5151 182.59 79.6035 182.59 79.6918 182.62C80.1042 182.708 80.8405 182.826 81.9008 182.944C81.9597 182.944 82.0186 182.973 82.0775 182.973C83.4618 183.15 85.3468 183.356 87.7031 183.621C87.9682 183.651 88.2038 183.68 88.4689 183.709C89.0579 183.768 89.6764 183.827 90.295 183.886C90.5895 183.916 90.884 183.945 91.1785 183.975C92.0327 184.063 92.9457 184.151 93.8882 184.24C94.1828 184.269 94.5067 184.299 94.8307 184.328L95.3903 184.387C95.626 184.416 95.8616 184.416 96.0972 184.446C96.1856 184.446 96.2445 184.446 96.3328 184.475C96.5979 184.505 96.8335 184.534 97.0986 184.564C97.3048 184.593 97.4815 184.593 97.6877 184.623C98.2767 184.681 98.8658 184.74 99.4843 184.799C99.6905 184.829 99.8967 184.829 100.103 184.858C100.25 184.858 100.368 184.888 100.515 184.888C100.574 184.888 100.662 184.888 100.721 184.917C101.134 184.946 101.575 185.005 101.988 185.035C102.135 185.035 102.282 185.064 102.4 185.064C103.048 185.123 103.726 185.182 104.374 185.241C104.668 185.27 104.992 185.3 105.287 185.329C105.669 185.359 106.023 185.388 106.406 185.447C106.524 185.447 106.641 185.477 106.759 185.477C109.793 185.771 113.062 186.066 116.538 186.36C117.038 186.419 117.539 186.449 118.069 186.508C118.629 186.566 119.159 186.596 119.719 186.655C120.072 186.684 120.455 186.714 120.808 186.743C121.015 186.773 121.191 186.773 121.397 186.802C121.928 186.861 122.487 186.89 123.017 186.949C123.518 187.008 124.048 187.038 124.549 187.097C124.843 187.126 125.167 187.155 125.462 187.185C125.756 187.214 126.08 187.244 126.375 187.273C126.994 187.332 127.612 187.391 128.231 187.45C128.555 187.479 128.849 187.509 129.173 187.538C129.203 187.538 129.261 187.538 129.291 187.538C129.909 187.597 130.498 187.656 131.117 187.686C131.411 187.715 131.735 187.745 132.059 187.774C132.56 187.833 133.061 187.862 133.562 187.892C134.327 187.951 135.064 188.039 135.829 188.098C136.772 188.186 137.744 188.275 138.745 188.363C138.863 188.363 138.981 188.393 139.099 188.393C139.482 188.422 139.835 188.451 140.218 188.481C141.367 188.569 142.515 188.687 143.693 188.775C144.076 188.805 144.459 188.834 144.813 188.864C145.196 188.893 145.608 188.923 145.991 188.952C146.374 188.982 146.786 189.011 147.169 189.04C147.316 189.04 147.434 189.07 147.581 189.07C147.994 189.099 148.406 189.129 148.818 189.188C149.79 189.276 150.762 189.335 151.734 189.423C152.353 189.482 153.001 189.541 153.649 189.571C153.796 189.571 153.943 189.6 154.12 189.6C154.797 189.659 155.504 189.718 156.182 189.777C158.862 190.012 161.454 190.219 164.104 190.454Z" fill="url(#paint2_linear)"/>
<path opacity="0.17" d="M201.51 200.35C198.918 200.733 196.12 201.116 193.116 201.529C192.556 201.617 191.997 201.676 191.407 201.764C187.372 202.294 183.013 202.883 178.36 203.443C178.124 203.472 177.859 203.502 177.623 203.531C175.326 203.826 172.97 204.091 170.525 204.386C170.29 204.415 170.054 204.444 169.818 204.474C165.607 204.975 161.218 205.446 156.623 205.947C156.27 205.976 155.887 206.035 155.534 206.064C151.204 206.506 146.698 206.977 142.074 207.419C141.632 207.449 141.19 207.508 140.748 207.537C140.719 207.537 140.689 207.537 140.66 207.537C136.242 207.949 132.03 208.332 128.024 208.656C127.7 208.686 127.376 208.715 127.082 208.745C122.193 209.157 117.598 209.481 113.298 209.746C112.709 209.775 112.12 209.834 111.531 209.864C106.995 210.158 102.813 210.364 98.9542 210.512C98.7186 210.512 98.4829 210.541 98.2473 210.541C96.6863 210.6 95.1842 210.63 93.741 210.659C93.5054 210.659 93.2697 210.659 93.0636 210.688C87.9682 210.806 83.5208 210.777 79.5446 210.63C79.1617 210.63 78.7494 210.6 78.3665 210.571C76.9822 210.512 75.6862 210.453 74.4197 210.335C74.0369 210.306 73.6834 210.276 73.3005 210.247C58.6623 209.098 52.9779 205.858 50.0031 201.411C49.797 201.116 49.6202 200.822 49.4435 200.527C47.4996 197.17 45.703 191.397 48.2948 181.235C48.4421 180.705 48.5894 180.175 48.7366 179.615C49.2668 177.819 49.9148 175.904 50.71 173.843C52.0354 173.99 53.3019 174.167 54.5094 174.314C54.4211 174.932 54.3622 175.61 54.3916 176.346C54.3916 176.435 54.3916 176.523 54.3916 176.611C54.5389 180.322 56.4239 185.153 63.2865 189.571C63.581 189.747 63.8461 189.924 64.1701 190.101C65.1715 190.69 66.2612 191.279 67.4688 191.868C67.9401 192.104 68.4113 192.31 68.8826 192.516C70.0901 193.046 71.4155 193.576 72.8293 194.077C73.006 194.136 73.1827 194.195 73.3889 194.254C74.7732 194.754 76.2753 195.196 77.8658 195.638C78.013 195.667 78.1308 195.726 78.2781 195.756C79.6624 196.139 81.1351 196.522 82.6961 196.875C82.9611 196.934 83.2557 196.993 83.5502 197.052C84.7872 197.317 86.0537 197.582 87.4086 197.847C87.9976 197.965 88.5572 198.053 89.1758 198.171C90.0593 198.318 90.9429 198.465 91.8854 198.613C92.4156 198.701 92.9752 198.789 93.5054 198.848C94.9486 199.054 96.4212 199.261 97.9528 199.437C97.9528 199.437 97.9822 199.437 98.0117 199.437C103.313 200.056 109.233 200.557 115.86 200.851C116.449 200.881 117.038 200.91 117.627 200.94C118.953 200.998 120.278 201.028 121.663 201.087C121.78 201.087 121.898 201.087 122.016 201.087C126.316 201.205 130.881 201.263 135.741 201.234C136.242 201.234 136.713 201.234 137.214 201.234C138.657 201.234 140.1 201.205 141.602 201.175C141.632 201.175 141.661 201.175 141.72 201.175C145.785 201.116 149.996 200.969 154.444 200.792C155.033 200.763 155.622 200.733 156.211 200.704C159.893 200.557 163.692 200.35 167.639 200.115C168.228 200.085 168.817 200.056 169.406 199.997C173.412 199.761 177.565 199.467 181.865 199.113C182.1 199.084 182.365 199.084 182.601 199.054C184.25 198.937 185.9 198.789 187.608 198.642H187.637C190.671 198.377 193.793 198.112 196.974 197.817C197.328 197.788 197.71 197.759 198.064 197.729C199.183 197.611 200.332 197.523 201.48 197.405C201.48 197.523 201.51 197.641 201.51 197.759C201.569 198.348 201.628 198.937 201.687 199.526C201.451 199.791 201.48 200.056 201.51 200.35Z" fill="url(#paint3_linear)"/>
<path d="M121.103 117.175C116.185 136.614 109.351 150.693 103.402 150.31C101.281 150.192 98.1004 147.895 92.4749 143.123C92.2981 142.976 92.1509 142.829 91.9742 142.711C91.6502 142.446 91.3262 142.151 91.0022 141.857C90.6488 141.562 90.2953 141.238 89.9125 140.914C89.8535 140.855 89.7946 140.826 89.7357 140.767C88.3809 139.589 86.8788 138.293 85.2 136.82C79.7217 132.049 75.3037 128.279 72.8591 126.158C71.7693 124.538 70.5028 122.3 69.5014 119.443C68.3233 116.056 67.9993 113.052 67.9404 110.931C70.8563 111.078 73.242 112.168 73.8311 112.433C83.0499 116.822 90.9139 125.657 94.7133 130.341C94.7428 130.399 94.8017 130.458 94.8311 130.517C94.8606 130.547 94.9195 130.606 94.9489 130.664C95.0078 130.753 95.0667 130.812 95.0667 130.812C95.3318 131.165 95.6264 131.548 95.9503 131.96C96.0976 132.137 96.2449 132.314 96.3921 132.52C96.4805 132.608 96.5394 132.697 96.5394 132.726C96.5983 132.815 96.8045 133.021 97.1285 133.404C97.1874 133.463 97.2757 133.551 97.3641 133.639C97.8059 134.111 98.4244 134.788 99.2491 135.672C100.457 136.938 102.077 138.676 104.256 140.973C106.73 136.85 109.234 132.108 111.59 126.747C112.12 125.54 112.621 124.332 113.092 123.154C114.123 120.592 115.036 118.088 115.831 115.732C116.45 115.938 117.068 116.144 117.716 116.35C118.865 116.645 120.014 116.939 121.103 117.175Z" fill="#C5856E"/>
<path d="M96.5091 132.697C94.3001 135.436 92.0912 138.175 89.8822 140.914C88.4979 139.707 86.9369 138.352 85.1697 136.82C79.6914 132.049 75.2734 128.279 72.8288 126.158C71.7391 124.538 70.4726 122.3 69.4712 119.443C68.2931 116.056 67.9691 113.051 67.9102 110.931C70.826 111.078 73.2117 112.168 73.7713 112.433C82.9901 116.821 90.8541 125.657 94.6536 130.34C94.7125 130.399 94.7419 130.458 94.7714 130.517C94.8008 130.576 94.8597 130.606 94.8892 130.664C94.9481 130.753 95.007 130.812 95.007 130.812C95.5372 131.489 95.979 132.049 96.3324 132.52C96.4208 132.579 96.4502 132.638 96.5091 132.697Z" fill="#191535"/>
<path opacity="0.25" d="M97.0987 133.374C96.1856 134.7 95.2431 136.084 94.2712 137.439C93.1814 138.97 92.0916 140.443 91.0019 141.857C90.6484 141.562 90.295 141.238 89.9121 140.914C92.1211 138.175 94.3301 135.436 96.5096 132.697C96.5685 132.785 96.7747 132.991 97.0987 133.374Z" fill="#153E5C"/>
<path opacity="0.19" d="M113.061 123.124C113.061 123.124 111.176 143.742 103.666 143.535C99.0122 143.418 98.7177 138.97 99.1595 135.642C100.367 136.909 101.987 138.646 104.166 140.944C106.641 136.82 109.144 132.078 111.5 126.718C112.089 125.51 112.59 124.303 113.061 123.124Z" fill="url(#paint4_linear)"/>
<path d="M130.086 106.572C129.88 106.542 129.644 106.601 129.409 106.748C130.145 105.777 130.616 105.04 130.233 104.952C129.173 104.746 126.787 107.897 126.787 107.897L125.462 114.377C125.55 114.141 130.94 108.604 129.88 108.398C129.644 108.339 129.32 108.486 128.967 108.722C129.88 107.603 130.528 106.66 130.086 106.572Z" fill="#C5856E"/>
<path d="M130.734 103.685L127.818 110.46L127.465 111.314L125.315 116.321C125.167 116.645 124.873 116.88 124.549 116.939L118.894 117.911C118.658 117.941 118.481 117.882 118.334 117.764C118.305 117.764 117.716 117.028 117.716 117.028L117.686 116.998C117.686 116.969 117.657 116.969 117.657 116.939C117.568 116.763 117.539 116.556 117.657 116.321L123.43 104.068C123.547 103.803 123.842 103.568 124.136 103.479L129.468 102.183C129.762 102.124 129.998 102.213 130.145 102.36L130.675 103.008C130.822 103.155 130.881 103.42 130.734 103.685Z" fill="url(#paint5_linear)"/>
<path d="M129.231 103.185L129.055 103.597L127.553 106.955L127.14 107.897L126.316 109.753L124.46 113.964L118.746 115.054L118.776 115.025L119.689 113.11L120.13 112.138L121.78 108.663L123.753 104.539L129.231 103.185Z" fill="#BDD3DE"/>
<path opacity="0.64" d="M127.141 107.897L126.316 109.753L118.776 115.025L119.689 113.11L127.141 107.897Z" fill="url(#paint6_linear)"/>
<path opacity="0.64" d="M129.055 103.597L127.553 106.955L120.131 112.138L121.78 108.663L129.055 103.597Z" fill="url(#paint7_linear)"/>
<path d="M122.781 109.311C122.016 109.9 121.22 110.077 119.424 110.43C119.542 110.695 119.659 110.99 119.718 111.255C119.895 111.873 119.983 112.462 119.983 113.051C119.983 114.2 119.63 115.231 119.041 115.938C118.805 116.203 118.57 116.439 118.275 116.615C117.185 117.293 115.919 117.057 115.389 116.91C115.536 116.674 116.655 109.281 118.835 108.751C120.838 108.251 123.253 108.074 123.4 108.604C123.459 108.81 123.135 109.075 122.781 109.311Z" fill="#C5856E"/>
<path opacity="0.11" d="M119.984 113.051C119.984 114.2 119.63 115.231 119.041 115.938C117.392 114.878 119.041 112.197 119.719 111.255C119.895 111.873 119.984 112.492 119.984 113.051Z" fill="url(#paint8_linear)"/>
<path d="M79.7209 182.62C73.9776 181.471 69.3829 180.97 66.1725 180.705C61.136 180.293 55.9228 180.234 51.7405 177.112C51.0042 176.552 50.1206 175.787 50.0028 175.669C49.561 175.286 49.1486 174.903 48.7657 174.491C45.8793 171.634 44.3478 169.012 44.1416 168.688C44.23 167.834 44.3478 167.009 44.4361 166.185L47.7938 149.397C47.9705 148.012 48.1178 146.628 48.265 145.244C49.1781 141.032 50.0617 136.85 50.9747 132.638V132.608C52.4179 125.687 54.4207 119.678 56.7181 114.936C57.2482 113.847 57.7784 112.816 58.338 111.873C59.8106 111.52 71.4741 108.928 77.9832 115.791C81.5176 119.531 81.9299 124.303 82.195 127.807C82.6073 133.698 81.3703 138.087 79.662 142.092C79.1908 143.211 78.6901 144.301 78.1894 145.361C76.1866 149.662 74.0954 153.932 73.5653 159.705C73.094 164.948 73.7714 172.694 79.7209 182.62Z" fill="#271C41"/>
<path opacity="0.31" d="M79.7208 182.62C73.9775 181.471 69.3828 180.97 66.1724 180.705C61.1359 180.293 55.9227 180.234 51.7404 177.112C51.0041 176.552 50.1205 175.787 50.0027 175.669C49.5609 175.286 49.1485 174.903 48.7656 174.491C49.1485 171.722 49.9732 168.423 51.5931 164.977C56.6885 154.168 68.7054 144.331 78.1893 145.391C76.1865 149.691 74.0953 153.962 73.5651 159.735C73.0939 164.948 73.7713 172.694 79.7208 182.62Z" fill="url(#paint9_linear)"/>
<path d="M61.1068 132.638C60.1348 136.408 59.0156 140.708 57.8375 145.214C57.3368 147.129 56.8067 149.102 56.306 151.075C54.0675 159.558 51.7702 168.364 49.8852 175.698C47.8824 183.533 46.3214 189.718 45.8501 192.074C45.2021 195.285 43.1993 202.501 42.2863 203.09C41.6972 203.443 41.9328 203.149 35.3942 204.15C33.4503 204.444 31.1825 204.827 30.7407 203.973C30.6817 203.855 30.6818 203.738 30.6818 203.649L26.1754 205.475C25.0857 205.888 24.7322 205.888 24.7322 205.888C24.4082 205.888 23.7603 205.77 23.7014 205.475V205.446C23.2007 205.446 22.7 205.358 22.6411 205.122C22.4349 204.415 26.146 202.559 28.3844 201.588C29.4447 201.116 30.5639 200.704 31.5653 200.35C32.2133 199.938 32.7729 199.732 33.6271 199.614C33.9805 199.585 34.275 199.585 34.3339 199.585C34.7463 199.585 35.7182 199.555 37.78 199.408C38.1923 197.317 38.6046 195.196 39.017 193.105C41.1965 181.942 43.376 170.78 45.5556 159.617C46.0563 157.054 46.557 154.463 47.0577 151.9C47.47 149.691 47.9118 147.482 48.3536 145.273C48.4125 145.008 48.442 144.743 48.5009 144.448C49.2667 140.502 50.0324 136.584 50.7982 132.638V132.608H61.1068V132.638Z" fill="#C5856E"/>
<path opacity="0.25" d="M57.8085 145.185C57.3078 147.099 56.7776 149.073 56.2769 151.046C53.3905 151.282 49.3849 151.635 46.9697 151.871C47.3821 149.662 47.8239 147.453 48.2657 145.244C48.3246 144.979 48.354 144.714 48.4129 144.419C51.7117 144.714 55.6584 145.038 57.8085 145.185Z" fill="#153E5C"/>
<path d="M50.3856 127.248C48.1766 134.464 45.9971 141.65 43.7881 148.866C48.3533 149.102 52.948 149.338 57.5132 149.603C67.3506 143.889 69.4123 133.551 65.9957 129.103C63.3449 125.657 56.8064 124.833 50.3856 127.248Z" fill="#271C41"/>
<path opacity="0.19" d="M41.8151 190.307C40.7548 191.573 39.7829 192.486 38.9287 193.105C41.1082 181.942 43.2878 170.78 45.4673 159.617C47.4701 167.068 49.6496 180.941 41.8151 190.307Z" fill="url(#paint10_linear)"/>
<path d="M78.5729 102.36C77.9839 102.978 77.3064 103.744 76.6879 104.657C76.5112 104.922 76.3345 105.187 76.1578 105.482C75.8632 105.983 75.5687 106.542 75.3331 107.131C75.1858 107.455 75.068 107.809 74.9502 108.162C74.9207 108.221 74.8913 108.31 74.8913 108.368C73.6248 112.551 75.2742 114.995 73.1536 117.145C71.6514 118.677 68.8534 119.413 66.556 118.736C63.6991 117.852 61.7257 114.789 62.3443 111.343C64.9656 107.632 67.5869 103.921 70.2082 100.21C70.3555 100.004 70.5028 99.7976 70.6206 99.5914C71.4747 98.3838 72.2994 97.2057 73.1536 96.0276L78.5729 102.36Z" fill="#C5856E"/>
<path opacity="0.17" d="M76.1876 105.512C75.8931 106.012 75.5986 106.572 75.3629 107.161C75.2157 107.485 75.0978 107.838 74.98 108.192C74.9506 108.251 74.9211 108.339 74.9211 108.398C74.1848 107.927 73.1539 107.102 72.3882 105.777C71.1511 103.656 71.4751 100.239 71.7991 98.3839C72.5943 100.711 73.6546 102.36 74.067 102.979C74.656 103.862 75.3335 104.834 76.1876 105.512Z" fill="#153E5C"/>
<path d="M88.1741 94.6727V94.7022C90.2063 85.7484 87.2905 79.092 86.5247 78.4735C86.4658 78.4146 86.1123 78.179 85.7294 77.9434C85.3466 77.7077 84.9048 77.4132 84.6691 77.2954C84.4041 77.207 84.139 77.1187 83.8444 77.0303C78.8669 75.9111 73.8304 82.0373 71.9454 86.5437C71.7098 87.1033 71.5331 87.6334 71.3858 88.1636C70.2666 92.0808 70.8556 95.6741 71.7981 98.3544C72.5934 100.681 73.6537 102.331 74.066 102.949C74.7729 104.039 75.5976 105.217 76.6873 105.835C76.9819 105.983 77.247 106.101 77.512 106.189C80.2217 107.043 82.8725 105.364 83.7855 104.746C83.4321 104.51 82.3423 103.715 81.93 102.272C81.7533 101.653 81.7827 101.123 81.8122 100.74C82.902 101.417 83.9917 102.065 85.0815 102.743C85.3466 102.272 85.7589 101.447 86.2302 100.416C86.348 100.18 86.4363 99.9154 86.5541 99.6797V99.7092C86.5541 99.7092 89.1755 99.827 89.0577 98.6783C88.9398 97.5002 88.1741 94.6727 88.1741 94.6727Z" fill="#C5856E"/>
<path d="M85.8766 95.0262C86.2508 95.0262 86.5541 94.7229 86.5541 94.3488C86.5541 93.9746 86.2508 93.6714 85.8766 93.6714C85.5025 93.6714 85.1992 93.9746 85.1992 94.3488C85.1992 94.7229 85.5025 95.0262 85.8766 95.0262Z" fill="black"/>
<path d="M88.0564 89.9603C88.0564 89.8425 86.9666 89.6068 85.8179 89.8719C84.6693 90.137 83.7857 90.8439 83.8446 90.9617C83.9035 91.05 84.6693 90.6082 86.1419 90.2843C87.3495 90.0192 88.0564 90.0486 88.0564 89.9603Z" fill="black"/>
<path d="M89.0579 83.1566C88.999 84.5703 88.0859 85.395 86.7016 86.1902C86.5544 86.2786 86.4071 86.367 86.2598 86.4259C83.8741 87.6923 80.3397 88.9588 77.0999 92.3459C74.8026 94.7611 73.7422 97.0584 72.4758 99.827C66.9091 112.05 67.6749 124.45 65.7605 131.548C65.083 134.052 64.0816 135.878 62.3734 136.82C58.6034 138.911 51.5052 136.643 46.1741 131.931L45.9091 131.695C43.0816 129.133 40.7842 125.893 39.8123 122.27V122.241L39.6945 121.711C39.665 121.534 39.6061 121.357 39.5767 121.181C38.1629 113.788 41.7267 105.835 48.5893 100.77C54.2148 96.6166 54.7155 96.3516 58.7506 91.6391C59.428 90.8144 60.2527 89.8719 61.1952 88.7527C65.4365 83.7162 68.4112 78.8564 74.2135 75.6755C76.393 74.4679 78.8671 73.5843 81.4884 74.2028C82.1069 74.3501 82.6371 74.5563 83.1378 74.7624C83.2262 74.8213 83.344 74.8508 83.4323 74.9097C84.3454 75.3809 84.9933 75.9111 85.3468 76.2351C85.7591 76.5885 86.1715 76.9714 86.5544 77.4132C86.6427 77.4721 86.7016 77.5605 86.7605 77.6488C88.1154 79.3571 89.1462 81.4188 89.0579 83.1566Z" fill="#F2BE54"/>
<path d="M83.4029 74.998C69.501 85.3361 62.1672 93.6713 61.5487 99.7681L61.5192 100.033C61.4014 101.388 61.1069 104.628 58.7212 106.807C56.8362 108.516 54.6567 108.692 52.5066 108.84C51.4463 108.928 50.4449 108.987 49.4729 109.252C45.4673 110.312 42.2275 114.701 39.7828 122.329V122.3L39.665 121.77C42.1391 114.318 45.4084 109.988 49.414 108.928C50.4154 108.663 51.4757 108.604 52.5066 108.516C54.5683 108.368 56.7184 108.221 58.515 106.572C60.8124 104.451 61.1069 101.329 61.2247 99.9743L61.2542 99.7092C61.8727 93.5535 69.2065 85.1594 83.1084 74.8213C83.2262 74.8802 83.3145 74.9391 83.4029 74.998Z" fill="#F28F3F"/>
<path d="M86.7313 77.7372C72.9473 88.8999 65.7607 97.9715 65.3189 104.687L65.2895 104.981C65.2306 106.277 65.0539 109.311 63.1394 112.227C61.3133 115.025 58.9276 116.173 56.6008 117.293C55.4227 117.852 54.2446 118.441 53.1253 119.207C49.6499 121.652 47.2936 125.922 46.145 131.99L45.8799 131.754C47.058 125.716 49.4143 121.416 52.9486 118.942C54.0678 118.147 55.3049 117.558 56.4535 116.998C58.7509 115.908 61.1071 114.76 62.8743 112.05C64.7299 109.193 64.8771 106.248 64.9655 104.981L64.9949 104.687C65.4367 97.8831 72.6822 88.7526 86.5252 77.531C86.6135 77.5899 86.6724 77.6488 86.7313 77.7372Z" fill="#F28F3F"/>
<path opacity="0.37" d="M65.7605 131.548C65.083 134.051 64.0816 135.878 62.3734 136.82C58.6034 138.911 51.5052 136.643 46.1741 131.931L45.9091 131.695C43.0816 129.133 40.7842 125.893 39.8123 122.27V122.241L39.6945 121.711C39.665 121.534 39.6061 121.357 39.5767 121.18C38.1629 113.788 41.7267 105.835 48.5893 100.77C54.2148 96.6166 54.7155 96.3515 58.7506 91.639C52.4771 103.921 45.9091 121.828 57.8376 126.718C61.4898 128.279 64.0227 129.899 65.7605 131.548Z" fill="url(#paint11_linear)"/>
<defs>
<linearGradient id="paint0_linear" x1="62.2919" y1="167.018" x2="175.569" y2="170.859" gradientUnits="userSpaceOnUse">
<stop stop-color="#153E5C"/>
<stop offset="1" stop-color="#271C41"/>
</linearGradient>
<linearGradient id="paint1_linear" x1="205.969" y1="183.521" x2="212.417" y2="182.93" gradientUnits="userSpaceOnUse">
<stop offset="0.00238381" stop-color="#FF931E"/>
<stop offset="1" stop-color="white"/>
</linearGradient>
<linearGradient id="paint2_linear" x1="79.4577" y1="187.728" x2="164.109" y2="187.728" gradientUnits="userSpaceOnUse">
<stop stop-color="white"/>
<stop offset="0.7781" stop-color="#87AEB4"/>
</linearGradient>
<linearGradient id="paint3_linear" x1="46.8828" y1="192.28" x2="201.497" y2="192.28" gradientUnits="userSpaceOnUse">
<stop stop-color="#153E5C"/>
<stop offset="0.8052" stop-color="#87AEB4"/>
</linearGradient>
<linearGradient id="paint4_linear" x1="99.0405" y1="133.328" x2="113.07" y2="133.328" gradientUnits="userSpaceOnUse">
<stop offset="0.00238381" stop-color="#FF931E"/>
<stop offset="1" stop-color="white"/>
</linearGradient>
<linearGradient id="paint5_linear" x1="117.562" y1="110.019" x2="130.813" y2="110.019" gradientUnits="userSpaceOnUse">
<stop offset="0.4713" stop-color="#19233D"/>
<stop offset="1" stop-color="#271C41"/>
</linearGradient>
<linearGradient id="paint6_linear" x1="118.785" y1="111.464" x2="127.146" y2="111.464" gradientUnits="userSpaceOnUse">
<stop stop-color="white"/>
<stop offset="1" stop-color="#BDD3DE"/>
</linearGradient>
<linearGradient id="paint7_linear" x1="120.141" y1="107.875" x2="129.043" y2="107.875" gradientUnits="userSpaceOnUse">
<stop stop-color="white"/>
<stop offset="1" stop-color="#BDD3DE"/>
</linearGradient>
<linearGradient id="paint8_linear" x1="118.327" y1="113.616" x2="119.979" y2="113.616" gradientUnits="userSpaceOnUse">
<stop stop-color="white"/>
<stop offset="0.7781" stop-color="#87AEB4"/>
</linearGradient>
<linearGradient id="paint9_linear" x1="48.775" y1="163.968" x2="79.7223" y2="163.968" gradientUnits="userSpaceOnUse">
<stop stop-color="#153E5C"/>
<stop offset="1" stop-color="#271C41"/>
</linearGradient>
<linearGradient id="paint10_linear" x1="38.9317" y1="176.357" x2="47.3569" y2="176.357" gradientUnits="userSpaceOnUse">
<stop offset="0.00238381" stop-color="#FF931E"/>
<stop offset="1" stop-color="white"/>
</linearGradient>
<linearGradient id="paint11_linear" x1="39.2608" y1="114.655" x2="65.7675" y2="114.655" gradientUnits="userSpaceOnUse">
<stop offset="0.00238381" stop-color="#FF931E"/>
<stop offset="1" stop-color="white"/>
</linearGradient>
</defs>
</svg>
