<svg width="234" height="233" viewBox="0 0 234 233" fill="none" xmlns="http://www.w3.org/2000/svg">
<path d="M106.961 29.1178V35.5263C106.191 41.0889 105.422 46.6258 104.653 52.1883C103.526 50.3171 102.423 48.3432 101.321 46.2925C99.1422 42.2168 97.2709 38.2435 95.6816 34.501C95.3484 30.8353 94.9895 27.144 94.6562 23.4784C96.0148 24.2474 97.476 24.9908 98.9884 25.7342C99.1678 25.8367 99.3729 25.9136 99.5523 26.0161C102.141 27.2466 104.628 28.2719 106.961 29.1178Z" fill="#C88F80"/>
<path opacity="0.25" d="M106.96 29.1179V34.501C105.756 34.4241 104.294 34.1165 102.808 33.3475C98.2192 30.9123 97.3477 25.9393 97.2451 25.3497C97.8347 25.4779 98.3986 25.6317 98.9882 25.7599C99.1677 25.8624 99.3727 25.9393 99.5522 26.0418C102.141 27.2466 104.628 28.272 106.96 29.1179Z" fill="#2B303E"/>
<path d="M108.756 30.9123C105.654 32.963 94.76 27.1184 93.4783 18.4286C92.8374 13.9939 94.5036 7.84178 98.8357 6.12431C101.732 4.97079 105.68 5.6629 107.705 7.84178C107.91 8.07249 108.038 8.27755 108.218 8.53389C109.525 10.4052 109.986 12.3021 110.268 14.2502C111.063 19.4539 110.499 23.9911 110.012 26.8108C109.602 29.2717 109.371 30.5278 108.756 30.9123Z" fill="#C88F80"/>
<path d="M106.423 27.3491C106.013 27.3491 105.526 27.2722 104.987 27.0415C103.885 26.5288 103.372 25.606 103.219 25.2215C103.193 25.1446 103.219 25.0421 103.295 25.0164C103.372 24.9908 103.475 25.0164 103.501 25.0933C103.654 25.4522 104.116 26.2981 105.115 26.7595C105.808 27.0672 106.474 27.0672 106.91 26.9903C106.987 26.9646 107.064 27.0415 107.089 27.1184C107.115 27.1953 107.038 27.2722 106.961 27.2979C106.807 27.3235 106.628 27.3491 106.423 27.3491Z" fill="#0E0F0F"/>
<path d="M102.168 19.1207C102.522 19.1207 102.809 18.8338 102.809 18.4799C102.809 18.126 102.522 17.8391 102.168 17.8391C101.814 17.8391 101.527 18.126 101.527 18.4799C101.527 18.8338 101.814 19.1207 102.168 19.1207Z" fill="#0E0F0F"/>
<path d="M108.679 19.0438C109.033 19.0438 109.32 18.7569 109.32 18.4029C109.32 18.049 109.033 17.7621 108.679 17.7621C108.325 17.7621 108.038 18.049 108.038 18.4029C108.038 18.7569 108.325 19.0438 108.679 19.0438Z" fill="#0E0F0F"/>
<path d="M102.433 13.9622L98.2451 15.7737L98.5097 16.3853L102.697 14.5739L102.433 13.9622Z" fill="#0E0F0F"/>
<path d="M106.116 14.6477L109.753 14.8041L109.782 14.1382L106.145 13.9819L106.116 14.6477Z" fill="#0E0F0F"/>
<path d="M105.423 16.8136C105.551 17.3519 105.782 18.1722 106.192 19.1207C107.063 21.2227 108.012 22.2993 107.679 22.6581C107.499 22.8376 106.961 22.7094 105.884 22.4274C105.192 22.248 104.628 22.0429 104.192 21.8891C104.295 20.9663 104.449 19.941 104.654 18.8643C104.808 18.1466 104.987 17.4545 105.166 16.8136C105.243 16.8136 105.346 16.8136 105.423 16.8136Z" fill="#AF7266"/>
<path d="M110.807 16.8906L106.039 16.8393C105.834 16.7111 105.424 16.5317 104.885 16.5573C104.578 16.583 104.27 16.6855 103.988 16.8649C103.962 16.8649 103.962 16.8906 103.937 16.9162L98.4768 16.8393C98.4511 16.8393 98.3999 16.8393 98.3742 16.8649L93.7601 18.9157C93.632 18.9669 93.5807 19.1207 93.632 19.2489C93.6832 19.3514 93.7601 19.4027 93.8627 19.4027C93.8883 19.4027 93.9396 19.4027 93.9652 19.3771L98.2973 17.4545C98.4768 18.0697 98.9382 19.2233 100.143 19.8897C100.451 20.0435 101.194 20.4024 102.04 20.4024C102.527 20.4024 103.065 20.2743 103.552 19.9154C104.757 18.9926 104.578 17.352 104.552 17.1726C104.655 17.1469 104.783 17.0957 104.911 17.0957C105.116 17.07 105.321 17.1213 105.475 17.1726C105.424 17.5314 105.372 18.7362 106.346 19.5565C106.859 19.9923 107.5 20.1717 108.089 20.1717C108.679 20.1717 109.217 20.0179 109.653 19.7616C110.576 19.2233 111.114 18.2235 111.063 17.1469C111.063 16.9931 110.935 16.8906 110.807 16.8906ZM103.27 19.4796C102.219 20.2743 100.835 19.6334 100.425 19.4027C99.3996 18.8388 98.9894 17.8647 98.8356 17.3264L104.091 17.4033C104.091 17.8647 104.039 18.89 103.27 19.4796ZM109.397 19.3002C108.679 19.7103 107.5 19.8641 106.68 19.1464C105.987 18.5568 105.962 17.7365 105.987 17.352L110.55 17.4033C110.525 18.1979 110.089 18.9157 109.397 19.3002Z" fill="#2B303E"/>
<path d="M96.759 11.8919C98.5277 10.277 102.655 13.4812 104.962 11.4561C105.705 10.7897 106.09 9.6874 107.166 9.6105C108.038 9.53359 108.371 10.2001 109.089 9.995C110.037 9.73867 110.806 8.2519 110.499 7.12401C110.268 6.25246 109.576 6.27809 109.32 5.43217C108.961 4.22738 110.166 3.53527 109.858 2.56118C109.525 1.48456 107.628 0.818077 106.141 1.07442C104.475 1.38202 103.398 2.81752 103.193 2.61245C102.988 2.43301 104.09 1.43329 103.808 0.76681C103.449 -0.0534743 101.065 -0.386715 99.4249 0.63864C97.5536 1.79216 97.3486 4.32992 96.6308 4.22738C96.0925 4.15048 96.2463 2.58681 95.426 2.27921C94.5801 1.94597 93.0164 3.12513 92.2731 4.61189C91.2733 6.63697 91.8886 8.99528 91.6322 9.04655C91.4271 9.07218 91.3246 7.66232 90.4531 7.35471C90.0429 7.20091 89.5815 7.35471 89.4277 7.43162C88.0947 8.14936 89.0176 12.9942 90.2224 16.8905C91.1708 19.9153 93.6573 26.5545 95.1441 26.2469C96.5027 25.9649 96.5539 20.0178 96.5539 18.6593C96.6052 14.2759 95.7336 12.8404 96.759 11.8919Z" fill="#0E0F0F"/>
<path d="M97.4763 20.1204C97.22 21.1458 96.3484 21.9404 95.2205 22.043C93.8107 22.1711 92.5802 21.1201 92.4521 19.7103C92.4008 19.0182 92.6059 18.3517 93.0416 17.8646C93.4518 17.352 94.067 17.0187 94.7847 16.9418C96.1946 16.8137 97.425 17.8646 97.5532 19.2745C97.5788 19.5821 97.5532 19.8641 97.4763 20.1204Z" fill="#C88F80"/>
<path opacity="0.08" d="M97.4766 20.1204C96.4257 19.5821 94.1186 18.4542 93.042 17.8646C93.4521 17.352 94.0673 17.0187 94.7851 16.9418C96.195 16.8137 97.4254 17.8646 97.5535 19.2745C97.5792 19.5821 97.5536 19.8641 97.4766 20.1204Z" fill="#522D37"/>
<path d="M113.113 58.0842C113.062 60.9039 113.036 63.698 112.959 66.4664C112.703 76.6687 112.293 86.6147 111.703 96.2786C111.575 98.2524 111.472 100.226 111.319 102.174H87.7354C88.7094 88.3065 89.1452 73.3876 88.7607 57.5715C88.5813 50.0351 88.248 42.7551 87.7354 35.6802C88.4018 35.4495 89.0427 35.27 89.6579 35.1419C89.7604 35.1162 89.8373 35.0906 89.9399 35.0906C90.1962 35.0393 90.8627 34.8855 92.0931 34.7573C92.9903 34.6548 94.2207 34.5266 95.6819 34.501C98.4247 39.6278 101.142 44.7546 103.885 49.8813L106.961 34.501C107.781 34.7317 108.422 34.8599 108.883 34.9368C109.217 34.988 109.883 35.0906 110.806 35.27C110.857 35.27 110.934 35.2957 111.011 35.3213C111.216 35.3726 111.421 35.4495 111.626 35.5007C112.088 35.6545 112.575 35.834 113.113 36.0647C113.215 43.2934 113.215 50.6247 113.113 58.0842Z" fill="#E6E3F2"/>
<path d="M111.626 35.5264L109.371 41.3453L104.398 54.2391L89.6582 35.1419C89.7607 35.1163 89.8376 35.0906 89.9402 35.0906C90.1965 35.0393 90.863 34.8855 92.0934 34.7574C92.9906 34.6548 94.221 34.5267 95.6822 34.501C98.425 39.6278 101.142 44.7546 103.885 49.8814L106.218 38.2692L106.961 34.501C107.781 34.7317 108.422 34.8599 108.884 34.9368C109.217 34.9881 109.883 35.0906 110.806 35.2701C110.857 35.2701 110.934 35.2957 111.011 35.3213C111.191 35.3982 111.421 35.4495 111.626 35.5264Z" fill="#BBD0DB"/>
<path d="M105.679 81.411C106.104 81.411 106.448 81.0667 106.448 80.642C106.448 80.2173 106.104 79.873 105.679 79.873C105.254 79.873 104.91 80.2173 104.91 80.642C104.91 81.0667 105.254 81.411 105.679 81.411Z" fill="#2B303E"/>
<path d="M105.679 88.3321C106.104 88.3321 106.448 87.9878 106.448 87.5631C106.448 87.1384 106.104 86.7941 105.679 86.7941C105.254 86.7941 104.91 87.1384 104.91 87.5631C104.91 87.9878 105.254 88.3321 105.679 88.3321Z" fill="#2B303E"/>
<path d="M105.679 95.5096C106.104 95.5096 106.448 95.1653 106.448 94.7406C106.448 94.3159 106.104 93.9716 105.679 93.9716C105.254 93.9716 104.91 94.3159 104.91 94.7406C104.91 95.1653 105.254 95.5096 105.679 95.5096Z" fill="#2B303E"/>
<path opacity="0.09" d="M112.96 66.4665C113.985 74.695 114.267 83.9744 113.139 94.0485C112.934 95.8173 112.703 97.5347 112.447 99.2009C105.013 99.7393 97.5793 100.278 90.1454 100.816L87.9922 97.3553L112.96 66.4665Z" fill="#2B303E"/>
<path opacity="0.12" d="M111.626 35.5264L109.37 41.3453L106.191 38.2692L106.935 34.501C107.755 34.7317 108.396 34.8599 108.857 34.9368C109.191 34.9881 109.857 35.0906 110.78 35.2701C110.831 35.2701 110.908 35.2957 110.985 35.3213C111.19 35.3982 111.421 35.4495 111.626 35.5264Z" fill="#2B303E"/>
<path d="M81.3272 220.603C80.6095 221.398 79.9173 222.218 79.1996 223.013C78.6356 223.653 78.0461 224.294 77.4821 224.961C72.0221 221.577 68.946 219.68 68.7666 219.578C68.7922 219.552 68.8435 219.449 68.9717 219.27C68.9973 219.244 69.0229 219.193 69.0486 219.167C69.0742 219.116 69.0998 219.091 69.1255 219.039C69.3305 218.757 69.5869 218.373 69.9458 217.86C70.0739 217.706 70.1765 217.527 70.3303 217.322C70.4328 217.168 70.561 216.989 70.6891 216.809C70.7404 216.732 70.8173 216.63 70.8686 216.527C71.4838 215.656 72.2272 214.605 73.1244 213.297C73.7908 212.349 74.5599 211.272 75.4058 210.067C77.277 211.529 79.174 212.964 81.0452 214.425C80.994 214.476 80.9683 214.553 80.9171 214.63C80.5069 215.271 80.1224 215.938 79.7123 216.578C79.4816 216.963 79.2252 217.373 78.9945 217.758C79.2252 218.04 79.4303 218.296 79.661 218.578C79.9173 218.885 80.1737 219.219 80.43 219.526C80.7376 219.911 81.0452 220.27 81.3272 220.603Z" fill="#C88F80"/>
<path d="M132.877 218.501L130.032 223.423L121.316 222.654V213.682L128.75 213.169L128.878 215.245L128.93 216.091L129.007 217.27L132.877 218.501Z" fill="#C88F80"/>
<path opacity="0.25" d="M128.878 215.245L121.316 217.373V213.682L128.75 213.169L128.878 215.245Z" fill="#2B303E"/>
<path opacity="0.25" d="M80.9423 214.656C80.5321 215.297 80.1476 215.963 79.7375 216.604L74.2774 217.014L70.3555 217.322C70.458 217.168 70.5862 216.989 70.7143 216.809C70.7656 216.732 70.8425 216.63 70.8938 216.527C71.509 215.656 72.2524 214.605 73.1496 213.297L80.9423 214.656Z" fill="#2B303E"/>
<path d="M81.327 220.603C80.6092 221.397 79.9171 222.218 79.1994 223.012L76.7129 223.679L68.9971 219.27C69.0227 219.244 69.0483 219.193 69.074 219.167C69.0996 219.116 69.1252 219.09 69.1509 219.039C69.3559 218.757 69.6123 218.373 69.9712 217.86C70.0993 217.706 70.2019 217.527 70.3557 217.322C70.4582 217.168 70.5864 216.988 70.7145 216.809C70.7658 216.732 70.8427 216.63 70.894 216.527C71.381 216.578 72.0219 216.681 72.714 216.758C73.0729 216.809 73.4574 216.86 73.8675 216.937C73.9957 216.963 74.1495 216.988 74.2776 216.988C75.1748 217.117 76.1233 217.27 76.9948 217.424C77.4306 217.501 77.8408 217.552 78.2509 217.629C78.5329 217.681 78.7892 217.706 79.0199 217.757C79.2506 218.039 79.4557 218.296 79.6864 218.578C79.9427 218.885 80.1991 219.219 80.4554 219.526C80.7374 219.911 81.045 220.27 81.327 220.603Z" fill="#E6E3F2"/>
<path d="M132.876 218.501L130.031 223.448L121.315 222.679V219.501C121.905 219.244 122.597 218.962 123.289 218.655C123.648 218.501 124.007 218.347 124.391 218.168C125.494 217.681 126.596 217.193 127.468 216.783C127.903 216.578 128.288 216.399 128.595 216.245C128.724 216.194 128.826 216.143 128.903 216.091L128.98 217.296L132.876 218.501Z" fill="#E6E3F2"/>
<path d="M71.073 217.399C71.073 217.758 70.791 218.039 70.4321 218.039C70.2527 218.039 70.0989 217.963 69.9707 217.86C70.1758 217.552 70.4321 217.219 70.6884 216.835C70.9192 216.937 71.073 217.168 71.073 217.399Z" fill="#BBD0DB"/>
<path d="M71.9699 220.347C72.3239 220.347 72.6108 220.06 72.6108 219.706C72.6108 219.352 72.3239 219.065 71.9699 219.065C71.616 219.065 71.3291 219.352 71.3291 219.706C71.3291 220.06 71.616 220.347 71.9699 220.347Z" fill="#BBD0DB"/>
<path d="M73.893 217.142C73.893 217.501 73.611 217.783 73.2522 217.783C72.8933 217.783 72.6113 217.501 72.6113 217.142C72.6113 217.014 72.6626 216.886 72.7139 216.783C73.0727 216.835 73.4572 216.886 73.8674 216.963C73.893 217.04 73.893 217.091 73.893 217.142Z" fill="#BBD0DB"/>
<path d="M75.0461 219.578C75.4001 219.578 75.687 219.291 75.687 218.937C75.687 218.583 75.4001 218.296 75.0461 218.296C74.6922 218.296 74.4053 218.583 74.4053 218.937C74.4053 219.291 74.6922 219.578 75.0461 219.578Z" fill="#BBD0DB"/>
<path d="M78.2504 217.655C78.2504 218.014 77.9685 218.296 77.6096 218.296C77.2507 218.296 76.9688 218.014 76.9688 217.655C76.9688 217.578 76.9688 217.527 76.9944 217.45C77.4302 217.527 77.8659 217.604 78.2504 217.655Z" fill="#BBD0DB"/>
<path d="M77.3537 221.628C77.7077 221.628 77.9946 221.341 77.9946 220.987C77.9946 220.633 77.7077 220.347 77.3537 220.347C76.9998 220.347 76.7129 220.633 76.7129 220.987C76.7129 221.341 76.9998 221.628 77.3537 221.628Z" fill="#BBD0DB"/>
<path d="M121.956 220.859C122.31 220.859 122.597 220.572 122.597 220.218C122.597 219.864 122.31 219.578 121.956 219.578C121.602 219.578 121.315 219.864 121.315 220.218C121.315 220.572 121.602 220.859 121.956 220.859Z" fill="#BBD0DB"/>
<path d="M124.776 222.397C125.13 222.397 125.416 222.11 125.416 221.756C125.416 221.403 125.13 221.116 124.776 221.116C124.422 221.116 124.135 221.403 124.135 221.756C124.135 222.11 124.422 222.397 124.776 222.397Z" fill="#BBD0DB"/>
<path d="M126.314 219.834C126.668 219.834 126.955 219.547 126.955 219.193C126.955 218.839 126.668 218.552 126.314 218.552C125.96 218.552 125.673 218.839 125.673 219.193C125.673 219.547 125.96 219.834 126.314 219.834Z" fill="#BBD0DB"/>
<path d="M124.391 218.142V218.168C124.391 218.527 124.109 218.809 123.75 218.809C123.571 218.809 123.417 218.732 123.289 218.604C123.648 218.475 124.032 218.322 124.391 218.142Z" fill="#BBD0DB"/>
<path d="M128.749 216.63C128.749 216.989 128.467 217.271 128.109 217.271C127.801 217.271 127.545 217.04 127.468 216.758C127.904 216.553 128.288 216.373 128.596 216.22C128.698 216.348 128.749 216.502 128.749 216.63Z" fill="#BBD0DB"/>
<path d="M130.159 220.09C130.513 220.09 130.8 219.803 130.8 219.45C130.8 219.096 130.513 218.809 130.159 218.809C129.805 218.809 129.519 219.096 129.519 219.45C129.519 219.803 129.805 220.09 130.159 220.09Z" fill="#BBD0DB"/>
<path d="M129.134 222.654C129.488 222.654 129.775 222.367 129.775 222.013C129.775 221.659 129.488 221.372 129.134 221.372C128.78 221.372 128.493 221.659 128.493 222.013C128.493 222.367 128.78 222.654 129.134 222.654Z" fill="#BBD0DB"/>
<path d="M80.4546 219.552C80.352 219.731 80.1469 219.86 79.9162 219.86C79.5574 219.86 79.2754 219.578 79.2754 219.219C79.2754 218.937 79.4548 218.706 79.6855 218.629C79.9419 218.911 80.1982 219.244 80.4546 219.552Z" fill="#BBD0DB"/>
<path d="M91.8373 231.882C88.5818 232.958 86.0441 232.753 84.4035 232.395C82.9424 232.087 81.7376 231.523 76.9697 228.549C76.7133 228.396 76.457 228.216 76.2007 228.062C74.4832 226.986 72.5606 225.73 70.4587 224.32L71.0739 223.089L69.5871 223.884L65.7164 221.91C65.5626 221.705 65.5113 221.526 65.4857 221.346C65.4088 220.449 66.6905 219.424 68.7156 218.655C68.9975 218.552 69.3308 218.424 69.6384 218.347L76.8159 221.987C78.3283 221.526 79.8407 221.09 81.3531 220.629C82.2502 221.449 83.0449 222.218 83.7114 222.884C83.8908 223.064 84.0446 223.218 84.1984 223.371C84.6855 223.884 85.1212 224.345 85.5057 224.73C85.557 224.807 85.6339 224.858 85.6852 224.935C85.7877 225.038 85.8646 225.14 85.9415 225.217C86.7362 226.089 87.0438 226.447 87.7359 226.986C89.3252 228.191 90.2736 228.216 91.0683 229.293C91.4272 229.805 91.8117 230.6 91.8373 231.882Z" fill="#0E0F0F"/>
<path d="M84.1981 223.397L82.1986 224.55C82.0961 224.602 81.9936 224.602 81.891 224.55C81.8398 224.525 81.7885 224.474 81.7629 224.422C81.686 224.268 81.7372 224.063 81.891 223.961L83.7367 222.91C83.8648 223.089 84.0443 223.243 84.1981 223.397Z" fill="#BBD0DB"/>
<path d="M85.9404 225.268L84.7869 226.806C84.71 226.909 84.6074 226.935 84.5049 226.935C84.4536 226.935 84.3767 226.909 84.3255 226.858C84.1973 226.729 84.1717 226.524 84.2742 226.396L85.5046 224.781C85.5559 224.858 85.6328 224.909 85.6841 224.986C85.7866 225.063 85.8635 225.166 85.9404 225.268Z" fill="#BBD0DB"/>
<path d="M146.796 226.14C146.719 227.114 137.516 227.037 134.133 227.011C132.518 227.011 130.339 226.96 127.75 226.858C127.006 226.832 126.212 226.781 125.417 226.755C125.238 226.319 125.033 225.909 124.853 225.473L123.93 226.883L119.598 227.037C119.368 226.934 119.214 226.781 119.137 226.652C118.573 225.781 119.47 223.935 121.316 222.013L122.341 221.987L129.365 221.756C130.467 220.629 131.569 219.501 132.672 218.398C134.03 218.809 135.209 219.193 136.183 219.552C136.44 219.629 136.67 219.731 136.876 219.808C137.183 219.936 137.491 220.039 137.747 220.141C138.311 220.347 138.747 220.552 139.106 220.705C139.362 220.808 139.567 220.91 139.772 220.987C140.669 221.398 140.977 221.577 142.105 221.91C144.027 222.474 144.848 222.449 145.694 223.269C146.309 223.884 146.873 225.14 146.796 226.14Z" fill="#0E0F0F"/>
<path d="M136.875 219.783L135.671 221.603C135.594 221.705 135.491 221.756 135.363 221.756C135.286 221.756 135.235 221.731 135.158 221.705C134.979 221.603 134.927 221.398 135.03 221.244L136.158 219.526C136.414 219.629 136.645 219.706 136.875 219.783Z" fill="#BBD0DB"/>
<path d="M139.746 220.962L138.695 222.679C138.618 222.782 138.516 222.833 138.387 222.859C138.311 222.859 138.259 222.859 138.182 222.807C138.003 222.705 137.952 222.5 138.054 222.346L139.08 220.68C139.336 220.782 139.567 220.885 139.746 220.962Z" fill="#BBD0DB"/>
<path opacity="0.15" d="M70.4323 224.32L71.0475 223.089L69.5608 223.884L65.69 221.91C65.5362 221.705 65.485 221.526 65.4593 221.346C65.3824 220.449 66.6641 219.424 68.6892 218.655L76.1743 228.062C74.4825 226.986 72.5599 225.73 70.4323 224.32Z" fill="url(#paint0_linear)"/>
<path opacity="0.1" d="M127.75 226.883C127.006 226.858 126.212 226.806 125.417 226.781C125.238 226.345 125.033 225.935 124.853 225.499L123.93 226.909L119.598 227.063C119.368 226.96 119.214 226.806 119.137 226.678C118.573 225.807 119.47 223.961 121.316 222.038L122.341 222.013L127.75 226.883Z" fill="url(#paint1_linear)"/>
<path d="M131.826 214.297C127.545 214.63 123.29 214.938 119.009 215.271C112.524 185.946 106.013 156.621 99.5016 127.27C99.2453 126.142 98.9889 125.014 98.7582 123.886C98.7838 135.524 98.0917 148.572 96.1948 162.696C93.4007 183.459 88.6585 201.557 83.6342 216.501C78.9945 216.143 74.3548 215.758 69.7407 215.399C69.2536 215.374 68.7409 215.322 68.2539 215.271C77.1489 187.612 77.9948 168.335 76.9694 155.57C76.5336 150.161 74.8418 134.473 76.2004 113.069C76.508 108.07 76.9182 103.969 77.2258 101.277C79.661 101.123 82.0962 100.97 84.5571 100.79C95.9641 100.047 107.371 99.3034 118.753 98.5601C119.265 103.097 119.778 107.66 120.291 112.197C124.136 146.265 127.981 180.281 131.826 214.297Z" fill="#2B303E"/>
<path opacity="0.1" d="M119.572 105.763H76.7637C76.7893 105.584 76.7893 105.43 76.8149 105.25H119.495C119.521 105.43 119.547 105.609 119.572 105.763Z" fill="#E6E3F2"/>
<path opacity="0.1" d="M119.111 101.662H77.1738C77.1738 101.534 77.1995 101.405 77.2251 101.277C77.9428 101.226 78.635 101.175 79.3527 101.149H119.034C119.06 101.329 119.085 101.508 119.111 101.662Z" fill="#E6E3F2"/>
<path opacity="0.1" d="M80.5576 101.072V216.245C80.3782 216.245 80.2244 216.22 80.0449 216.194V101.123C80.2244 101.098 80.3782 101.098 80.5576 101.072Z" fill="#E6E3F2"/>
<path opacity="0.1" d="M75.9954 142.163C75.9954 142.343 76.021 142.496 76.021 142.676C76.0979 143.958 76.1492 145.137 76.2261 146.265C76.2517 146.444 76.2517 146.598 76.2517 146.777C76.303 147.726 76.3799 148.623 76.4568 149.443V146.777V146.265V142.676V142.163V138.575V138.062V134.473V133.96V130.372V129.859V126.27V125.758V122.169V121.656V118.067V117.555V113.966V113.453V109.865V109.454C76.4568 109.583 76.4311 109.736 76.4311 109.865C76.3542 110.89 76.2773 111.967 76.2004 113.069C76.2004 113.197 76.1748 113.325 76.1748 113.453C76.1748 113.633 76.1492 113.787 76.1492 113.966C76.0723 115.171 76.021 116.376 75.9697 117.555V117.785V118.067V121.656V122.169V125.758V126.27V129.859V130.372V133.96V134.473V138.062V138.575V141.138L75.9954 142.163Z" fill="#E6E3F2"/>
<path opacity="0.1" d="M76.456 178.794V216.014H75.9434V182.819C76.0972 181.716 76.251 180.665 76.3535 179.614C76.3791 179.435 76.4048 179.281 76.4048 179.102C76.4304 178.999 76.456 178.897 76.456 178.794Z" fill="#E6E3F2"/>
<path opacity="0.1" d="M72.3555 200.967V215.604C72.176 215.579 72.0222 215.579 71.8428 215.553V202.967C72.0222 202.3 72.176 201.634 72.3555 200.967Z" fill="#E6E3F2"/>
<path opacity="0.1" d="M84.4033 100.841V216.014H83.8906V100.867C84.0701 100.867 84.2239 100.841 84.4033 100.841Z" fill="#E6E3F2"/>
<path opacity="0.1" d="M87.9922 100.611V202.377C87.9153 202.634 87.8384 202.916 87.7615 203.172C87.7102 203.351 87.6589 203.505 87.6077 203.685C87.5564 203.838 87.5051 204.018 87.4795 204.172V100.611C87.6589 100.611 87.8127 100.611 87.9922 100.611Z" fill="#E6E3F2"/>
<path opacity="0.1" d="M91.8369 100.354V187.817H91.6831C91.5549 188.33 91.4524 188.868 91.3242 189.381V100.38C91.5037 100.38 91.6575 100.354 91.8369 100.354Z" fill="#E6E3F2"/>
<path opacity="0.1" d="M95.6824 100.098V166.336C95.6567 166.49 95.6311 166.618 95.6311 166.772C95.6054 166.951 95.5798 167.105 95.5542 167.284C95.426 168.079 95.3235 168.874 95.1953 169.668V100.124C95.3491 100.124 95.5029 100.098 95.6824 100.098Z" fill="#E6E3F2"/>
<path opacity="0.1" d="M99.5271 99.8417V127.373C99.4502 127.014 99.3733 126.655 99.2964 126.296C99.2451 126.116 99.2195 125.963 99.1939 125.783C99.1426 125.553 99.0913 125.296 99.04 125.065V99.893C99.1938 99.8674 99.3477 99.8674 99.5271 99.8417Z" fill="#E6E3F2"/>
<path opacity="0.1" d="M103.116 99.611V143.573C103.065 143.291 102.988 142.984 102.911 142.702C102.885 142.522 102.834 142.368 102.809 142.189C102.732 141.881 102.68 141.574 102.604 141.266V99.6367C102.783 99.6367 102.937 99.611 103.116 99.611Z" fill="#E6E3F2"/>
<path opacity="0.1" d="M106.961 99.3547V160.902C106.833 160.286 106.705 159.671 106.551 159.082C106.525 158.928 106.474 158.748 106.448 158.595V99.3803C106.628 99.3803 106.781 99.3803 106.961 99.3547Z" fill="#E6E3F2"/>
<path opacity="0.1" d="M111.062 99.0984V179.435C111.037 179.332 111.011 179.204 110.986 179.102L110.55 177.128V99.124C110.729 99.124 110.883 99.0984 111.062 99.0984Z" fill="#E6E3F2"/>
<path opacity="0.1" d="M114.907 98.842V196.763C114.856 196.507 114.805 196.251 114.728 195.994C114.702 195.815 114.651 195.661 114.625 195.482C114.548 195.148 114.471 194.79 114.395 194.456V98.8677C114.574 98.8677 114.728 98.8676 114.907 98.842Z" fill="#E6E3F2"/>
<path opacity="0.1" d="M118.752 98.5857V214.118C118.598 213.374 118.419 212.631 118.265 211.887H118.239V98.6369C118.419 98.6113 118.572 98.6113 118.752 98.5857Z" fill="#E6E3F2"/>
<path opacity="0.1" d="M122.341 130.346V215.015C122.161 215.015 122.008 215.04 121.828 215.066V125.809C121.854 125.963 121.854 126.117 121.879 126.27C122.008 127.475 122.161 128.654 122.29 129.859C122.315 130.038 122.315 130.192 122.341 130.346Z" fill="#E6E3F2"/>
<path opacity="0.1" d="M126.187 164.388V214.733C126.007 214.733 125.853 214.758 125.674 214.784V159.851C125.776 160.799 125.879 161.722 125.981 162.67C126.007 162.85 126.033 163.004 126.033 163.183C126.11 163.593 126.135 163.978 126.187 164.388Z" fill="#E6E3F2"/>
<path opacity="0.1" d="M129.775 195.994V214.451C129.596 214.451 129.442 214.476 129.263 214.502V191.611C129.263 191.713 129.288 191.816 129.288 191.893C129.416 193.098 129.545 194.277 129.698 195.482C129.724 195.661 129.75 195.841 129.775 195.994Z" fill="#E6E3F2"/>
<path opacity="0.1" d="M120.034 109.865H76.4307C76.4307 109.711 76.4563 109.583 76.4563 109.454V109.352H119.983C119.983 109.531 120.008 109.711 120.034 109.865Z" fill="#E6E3F2"/>
<path opacity="0.1" d="M120.495 113.966H76.1484C76.1484 113.787 76.1741 113.633 76.1741 113.453H120.418C120.444 113.633 120.469 113.812 120.495 113.966Z" fill="#E6E3F2"/>
<path opacity="0.1" d="M120.956 118.067H75.9434C75.9434 117.965 75.9434 117.862 75.9434 117.785V117.555H120.905C120.905 117.734 120.931 117.914 120.956 118.067Z" fill="#E6E3F2"/>
<path opacity="0.1" d="M121.418 122.169H75.79C75.79 121.989 75.79 121.836 75.8157 121.656H121.393C121.367 121.836 121.393 122.015 121.418 122.169Z" fill="#E6E3F2"/>
<path opacity="0.1" d="M98.758 125.758V126.27H75.6875C75.6875 126.091 75.6875 125.937 75.6875 125.758H98.758Z" fill="#E6E3F2"/>
<path opacity="0.1" d="M121.879 126.27H99.2959C99.2446 126.091 99.219 125.937 99.1934 125.758H121.828V125.809C121.854 125.988 121.854 126.116 121.879 126.27Z" fill="#E6E3F2"/>
<path opacity="0.1" d="M98.7067 129.859C98.7067 130.038 98.7067 130.192 98.7067 130.372H75.6875C75.6875 130.192 75.6875 130.038 75.6875 129.859H98.7067Z" fill="#E6E3F2"/>
<path opacity="0.1" d="M122.341 130.372H100.193C100.168 130.192 100.116 130.038 100.091 129.859H122.29C122.315 130.038 122.315 130.192 122.341 130.372Z" fill="#E6E3F2"/>
<path opacity="0.1" d="M98.6039 133.96C98.6039 134.14 98.6039 134.294 98.5783 134.473H75.7129C75.7129 134.294 75.7129 134.14 75.7129 133.96H98.6039Z" fill="#E6E3F2"/>
<path opacity="0.1" d="M122.803 134.473H101.091C101.04 134.294 101.014 134.14 100.988 133.96H122.751C122.777 134.14 122.777 134.319 122.803 134.473Z" fill="#E6E3F2"/>
<path opacity="0.1" d="M98.4245 138.062C98.4245 138.241 98.3989 138.395 98.3989 138.575H75.8411C75.8411 138.395 75.8411 138.241 75.8154 138.062H98.4245Z" fill="#E6E3F2"/>
<path opacity="0.1" d="M123.264 138.575H102.014C101.963 138.395 101.937 138.241 101.886 138.062H123.213C123.239 138.241 123.239 138.421 123.264 138.575Z" fill="#E6E3F2"/>
<path opacity="0.1" d="M98.194 142.163C98.194 142.343 98.1684 142.496 98.1684 142.676H76.0207C76.0207 142.496 75.9951 142.343 75.9951 142.163H98.194Z" fill="#E6E3F2"/>
<path opacity="0.1" d="M123.726 142.676H102.911C102.886 142.496 102.834 142.343 102.809 142.163H123.675C123.7 142.343 123.726 142.522 123.726 142.676Z" fill="#E6E3F2"/>
<path opacity="0.1" d="M97.9372 146.265C97.9372 146.444 97.9116 146.598 97.886 146.777H76.2766C76.2766 146.598 76.251 146.444 76.251 146.265H97.9372Z" fill="#E6E3F2"/>
<path opacity="0.1" d="M124.187 146.777H103.808C103.782 146.598 103.731 146.444 103.705 146.265H124.135C124.161 146.444 124.187 146.624 124.187 146.777Z" fill="#E6E3F2"/>
<path opacity="0.1" d="M97.5788 150.366C97.5532 150.546 97.5532 150.699 97.5276 150.879H76.5591C76.5591 150.699 76.5334 150.546 76.5078 150.366H97.5788Z" fill="#E6E3F2"/>
<path opacity="0.1" d="M124.648 150.879H104.73C104.679 150.699 104.654 150.546 104.628 150.366H124.597C124.622 150.546 124.648 150.725 124.648 150.879Z" fill="#E6E3F2"/>
<path opacity="0.1" d="M97.1682 154.467C97.1426 154.647 97.1426 154.801 97.117 154.98H76.9175C76.8918 154.826 76.8918 154.647 76.8662 154.467H97.1682Z" fill="#E6E3F2"/>
<path opacity="0.1" d="M125.135 154.98H105.654C105.602 154.801 105.577 154.647 105.525 154.467H125.058C125.084 154.647 125.11 154.826 125.135 154.98Z" fill="#E6E3F2"/>
<path opacity="0.1" d="M96.7068 158.569C96.6812 158.748 96.6812 158.902 96.6556 159.082H77.1995C77.1995 158.902 77.1738 158.748 77.1738 158.569H96.7068Z" fill="#E6E3F2"/>
<path opacity="0.1" d="M125.597 159.082H106.576C106.551 158.928 106.499 158.748 106.474 158.595V158.569H125.571C125.545 158.748 125.571 158.928 125.597 159.082Z" fill="#E6E3F2"/>
<path opacity="0.1" d="M96.1949 162.67V162.696C96.1693 162.85 96.1436 163.004 96.118 163.183H77.3027C77.3027 163.004 77.3027 162.85 77.3027 162.67H96.1949Z" fill="#E6E3F2"/>
<path opacity="0.1" d="M126.058 163.183H107.474C107.448 163.004 107.397 162.85 107.371 162.67H126.007C126.007 162.85 126.033 163.029 126.058 163.183Z" fill="#E6E3F2"/>
<path opacity="0.1" d="M95.6302 166.772C95.6046 166.951 95.579 167.105 95.5533 167.284H77.2764C77.2764 167.105 77.2764 166.951 77.2764 166.772H95.6302Z" fill="#E6E3F2"/>
<path opacity="0.1" d="M126.52 167.284H108.371C108.345 167.105 108.294 166.951 108.269 166.772H126.469C126.469 166.951 126.494 167.131 126.52 167.284Z" fill="#E6E3F2"/>
<path opacity="0.1" d="M94.9645 170.873C94.9388 171.053 94.9132 171.206 94.8876 171.386H77.0977C77.0977 171.206 77.1233 171.053 77.1233 170.873H94.9645Z" fill="#E6E3F2"/>
<path opacity="0.1" d="M126.981 171.386H109.294C109.243 171.206 109.217 171.053 109.191 170.873H126.93C126.93 171.053 126.956 171.232 126.981 171.386Z" fill="#E6E3F2"/>
<path opacity="0.1" d="M94.2723 174.975C94.2467 175.154 94.2211 175.308 94.1698 175.487H76.79C76.8157 175.308 76.8157 175.154 76.8413 174.975H94.2723Z" fill="#E6E3F2"/>
<path opacity="0.1" d="M127.442 175.487H110.191C110.165 175.308 110.114 175.154 110.062 174.975H127.365C127.417 175.154 127.417 175.333 127.442 175.487Z" fill="#E6E3F2"/>
<path opacity="0.1" d="M93.5026 179.076C93.4769 179.255 93.4513 179.409 93.4 179.589H76.3535C76.3791 179.409 76.4048 179.255 76.4048 179.076H93.5026Z" fill="#E6E3F2"/>
<path opacity="0.1" d="M127.904 179.589H111.114C111.088 179.537 111.088 179.461 111.062 179.409C111.037 179.307 111.011 179.179 110.985 179.076H127.852C127.852 179.255 127.878 179.435 127.904 179.589Z" fill="#E6E3F2"/>
<path opacity="0.1" d="M92.6825 183.177C92.6569 183.357 92.6056 183.511 92.58 183.69H75.8154C75.8411 183.511 75.8667 183.357 75.8923 183.177H92.6825Z" fill="#E6E3F2"/>
<path opacity="0.1" d="M128.365 183.69H112.011C111.96 183.511 111.934 183.357 111.883 183.177H128.288C128.34 183.357 128.34 183.536 128.365 183.69Z" fill="#E6E3F2"/>
<path opacity="0.1" d="M91.8371 187.279V187.791H75.1494C75.175 187.612 75.2007 187.458 75.2263 187.279H91.8371Z" fill="#E6E3F2"/>
<path opacity="0.1" d="M128.827 187.791H112.908C112.883 187.612 112.831 187.458 112.806 187.279H128.776C128.801 187.458 128.801 187.638 128.827 187.791Z" fill="#E6E3F2"/>
<path opacity="0.1" d="M90.8632 191.38C90.8119 191.56 90.7863 191.713 90.735 191.893H74.4062C74.4319 191.713 74.4832 191.56 74.5088 191.38H90.8632Z" fill="#E6E3F2"/>
<path opacity="0.1" d="M129.288 191.893H113.831C113.805 191.713 113.754 191.56 113.729 191.38H129.263C129.263 191.457 129.288 191.534 129.288 191.611C129.263 191.713 129.288 191.816 129.288 191.893Z" fill="#E6E3F2"/>
<path opacity="0.1" d="M89.8373 195.482C89.7861 195.661 89.7604 195.815 89.7092 195.994H73.5342C73.5598 195.815 73.6111 195.661 73.6367 195.482H89.8373Z" fill="#E6E3F2"/>
<path opacity="0.1" d="M129.749 195.994H114.728C114.702 195.815 114.651 195.661 114.625 195.482H129.698C129.723 195.661 129.749 195.841 129.749 195.994Z" fill="#E6E3F2"/>
<path opacity="0.1" d="M88.7609 199.583C88.7096 199.763 88.684 199.916 88.6327 200.096H72.5859C72.6372 199.916 72.6628 199.763 72.7141 199.583H88.7609Z" fill="#E6E3F2"/>
<path opacity="0.1" d="M130.211 200.096H115.625C115.574 199.916 115.548 199.763 115.522 199.583H130.159C130.185 199.763 130.211 199.942 130.211 200.096Z" fill="#E6E3F2"/>
<path opacity="0.1" d="M87.7614 203.172C87.7101 203.351 87.6589 203.505 87.6076 203.685H71.6377C71.689 203.505 71.7146 203.351 71.7659 203.172H87.7614Z" fill="#E6E3F2"/>
<path opacity="0.1" d="M130.621 203.685H116.445C116.42 203.505 116.368 203.351 116.343 203.172H130.595C130.595 203.351 130.595 203.531 130.621 203.685Z" fill="#E6E3F2"/>
<path opacity="0.1" d="M86.582 207.273C86.5307 207.453 86.4794 207.607 86.4282 207.786H70.5352C70.5864 207.607 70.6377 207.453 70.689 207.273H86.582Z" fill="#E6E3F2"/>
<path opacity="0.1" d="M131.083 207.786H117.343C117.292 207.607 117.266 207.453 117.215 207.273H131.006C131.057 207.453 131.083 207.632 131.083 207.786Z" fill="#E6E3F2"/>
<path opacity="0.1" d="M85.3002 211.375C85.249 211.554 85.1977 211.708 85.1464 211.887H69.3047C69.356 211.708 69.4072 211.554 69.4585 211.375H85.3002Z" fill="#E6E3F2"/>
<path opacity="0.1" d="M131.543 211.887H118.239V211.81C118.214 211.657 118.188 211.528 118.137 211.375H131.492C131.518 211.554 131.543 211.734 131.543 211.887Z" fill="#E6E3F2"/>
<path opacity="0.1" d="M84.4026 215.476V215.989H75.9434V215.886C74.7386 215.784 73.5595 215.681 72.3547 215.604C72.1752 215.579 72.0214 215.579 71.842 215.553C71.4831 215.527 71.1499 215.502 70.791 215.476H84.4026Z" fill="#E6E3F2"/>
<path opacity="0.06" d="M69.7407 215.399C69.2536 215.374 68.7409 215.322 68.2539 215.271C77.1489 187.612 77.9948 168.335 76.9694 155.57C76.5336 150.161 74.8418 134.473 76.2004 113.069C76.508 108.07 76.9182 103.969 77.2258 101.277C79.661 101.123 82.0962 100.97 84.557 100.79C86.6078 119.144 90.094 167.797 69.7407 215.399Z" fill="url(#paint2_linear)"/>
<path opacity="0.32" d="M131.825 214.297C127.544 214.63 123.289 214.938 119.008 215.271C112.523 185.946 106.012 156.621 99.501 127.27L120.29 112.223C124.135 146.265 127.98 180.281 131.825 214.297Z" fill="#212734"/>
<path d="M117.342 213.169L118.495 215.399L132.876 214.297L133.363 211.58L117.342 213.169Z" fill="#212734"/>
<path d="M68.2021 212.836C68.2278 213.656 68.2278 214.476 68.2534 215.271C73.5596 215.963 78.8402 216.655 84.1464 217.347L85.1461 215.168C79.4811 214.399 73.8416 213.605 68.2021 212.836Z" fill="#212734"/>
<path d="M93.3752 109.865C86.3772 108.147 79.3535 106.455 72.3555 104.738C72.458 103.969 72.5349 103.2 72.6374 102.431C72.74 101.585 72.8425 100.739 72.9194 99.9186C73.3808 95.8172 73.791 91.9209 74.1498 88.2809C75.2521 76.7713 75.816 67.3893 75.9698 59.3659C75.9698 59.3659 76.38 43.601 82.891 38.3461C84.4803 37.0644 86.1721 36.2441 87.7614 35.6802C88.5304 35.4238 89.2482 35.2188 89.9659 35.0906C90.735 34.9368 91.4783 34.8086 92.1192 34.7574C92.5293 48.574 92.8369 62.3907 93.0676 76.2073C93.0933 76.1817 93.0933 76.1817 93.0676 76.2073C93.0933 77.002 93.0933 77.8223 93.0933 78.6169C93.2471 88.204 93.3496 97.791 93.3752 107.378C93.3752 108.224 93.3752 109.044 93.3752 109.865Z" fill="#6F3E43"/>
<path d="M124.392 106.532C123.469 106.789 122.495 107.045 121.495 107.276C120.265 107.558 118.983 107.814 117.625 108.045C116.676 108.198 115.728 108.352 114.83 108.455C113.523 108.634 112.267 108.737 111.062 108.839C111.062 108.301 111.088 107.737 111.088 107.199C111.293 97.2527 111.395 87.153 111.395 76.8738C111.395 62.6983 111.19 48.8303 110.78 35.2957C110.832 35.3213 110.908 35.3213 110.985 35.3469C111.575 35.5007 112.293 35.7571 113.087 36.1159C113.651 36.3723 114.266 36.7055 114.882 37.09C121.162 41.1658 122.803 55.7515 123.213 61.6985C123.315 63.2878 123.341 64.2619 123.341 64.2619C123.367 65.8769 123.418 67.5174 123.443 69.1324C123.7 80.7701 124.007 92.2028 124.315 104.969C124.366 105.481 124.392 105.994 124.392 106.532Z" fill="#6F3E43"/>
<path d="M93.3752 109.865C86.3772 108.147 79.3535 106.455 72.3555 104.738C72.458 103.969 72.5349 103.2 72.6374 102.431L93.3752 107.378C93.3752 108.224 93.3752 109.044 93.3752 109.865Z" fill="#EBBB5C"/>
<path d="M124.392 106.532C122.367 107.096 120.086 107.609 117.625 108.045C115.266 108.455 113.088 108.685 111.062 108.839C111.062 108.301 111.088 107.737 111.088 107.199L124.341 104.943C124.366 105.481 124.392 105.994 124.392 106.532Z" fill="#EBBB5C"/>
<path opacity="0.26" d="M90.2733 78.6938C90.2733 78.6938 89.248 94.7918 72.8936 99.9442C73.355 95.8428 73.7651 91.9465 74.124 88.3065C79.866 85.7174 86.1719 82.385 90.2733 78.6938Z" fill="#522D37"/>
<path opacity="0.26" d="M82.3531 68.4659C80.9689 70.8755 79.6616 73.1313 77.6109 73.2082C75.4064 73.2851 73.1249 70.7986 72.8686 68.4659C72.3047 63.0572 82.7889 57.3408 84.9165 59.1095C86.5571 60.4681 83.5323 66.4152 82.3531 68.4659Z" fill="#522D37"/>
<path d="M99.5013 59.5709C99.4757 59.8785 99.2706 60.3656 99.0142 60.8526C98.6297 61.6216 98.1427 62.4163 97.9889 62.6983C97.7582 63.134 97.5275 63.7236 97.4762 64.5439C97.4506 64.9028 97.4506 65.3386 97.5018 65.8C96.6047 66.6715 95.5537 67.5687 95.1692 67.3124C94.9897 67.1842 95.0666 66.8509 95.1692 66.0307C95.4768 63.5185 95.1179 63.0315 95.6562 62.2625C95.9382 61.8523 95.9382 62.1343 97.2199 61.1602C98.4759 60.2118 99.2962 59.289 99.4756 59.4428C99.5269 59.4684 99.5013 59.5453 99.5013 59.5709Z" fill="#C88F80"/>
<path opacity="0.12" d="M99.0145 60.8783C98.63 61.6473 98.1429 62.4419 97.9891 62.7239C97.7584 63.1597 97.5277 63.7493 97.4764 64.5695C96.9638 65.0053 96.5536 65.1079 96.5793 64.2619C96.6049 62.929 97.9379 61.6729 99.0145 60.8783Z" fill="#2B303E"/>
<path d="M116.267 53.9068L114.729 60.8279L111.576 75.0035L111.063 77.3362C110.883 78.1821 110.114 78.7717 109.397 78.6691L96.8361 76.926C96.6823 76.9004 96.5541 76.8491 96.4259 76.7978C96.3747 76.7722 96.2978 76.7209 96.2465 76.6953C95.1955 76.0032 95.1186 74.6959 95.2211 74.3114L99.8609 53.471L100.784 49.3696C100.989 48.4724 101.809 47.9085 102.604 48.1392L106.449 49.1389L114.831 51.3178C115.036 51.369 115.216 51.4716 115.369 51.6254C115.369 51.6254 116.164 52.2919 116.267 53.1378C116.318 53.3429 116.318 53.6248 116.267 53.9068Z" fill="url(#paint3_linear)"/>
<path opacity="0.04" d="M114.728 60.827L111.575 75.0025C108.422 69.2349 102.834 58.9557 99.835 53.4444L100.758 49.343C100.963 48.4458 101.783 47.8819 102.578 48.1126L106.423 49.1123L114.728 60.827Z" fill="url(#paint4_linear)"/>
<path d="M168.277 44.6007C168.534 44.9852 166.355 47.7537 163.433 48.2664C163.228 48.292 162.817 48.3689 162.356 48.3945L159.229 48.9329L157.101 49.2917L154.41 49.7531L152.384 50.0864C152.077 49.9838 151.718 49.8557 151.359 49.6762C151.077 49.5481 150.795 49.3943 150.564 49.2661C150.564 49.1892 150.564 49.1123 150.564 49.0354C150.77 48.5227 150.923 48.0357 151.077 47.6512C151.231 47.241 151.333 46.8821 151.436 46.6514C151.59 46.4207 151.846 46.1644 152.308 45.7799C152.384 45.7286 152.461 45.6517 152.538 45.6005C154.358 44.2419 157.716 42.1911 158.742 41.8066C158.895 41.7554 159.664 41.4478 159.818 41.7041C160.228 42.2681 156.87 44.8314 157.357 45.6774C157.742 46.3438 160.1 45.6517 160.382 45.5748C160.715 45.4723 161.638 45.1903 162.689 44.4726C163.766 43.7548 165.048 42.8576 165.509 41.5759C165.586 41.3452 165.765 40.7813 166.278 40.3968C166.355 40.3455 166.688 40.0892 166.893 40.1917C166.97 40.243 167.021 40.3711 167.021 40.4993C167.226 40.3711 167.483 40.243 167.611 40.3199C167.97 40.6018 166.945 43.3703 164.766 45.1647C165.483 44.7033 166.201 44.1137 166.637 43.3447C166.765 43.1396 167.098 42.4731 167.842 42.1142C168.072 42.0117 168.406 41.8323 168.508 41.9348C168.739 42.1399 168.201 43.5497 167.047 44.9083C167.226 44.7802 167.432 44.6776 167.688 44.6264C167.867 44.5495 168.175 44.4726 168.277 44.6007Z" fill="#C88F80"/>
<path opacity="0.12" d="M159.229 48.9072L157.101 49.2661L154.41 49.7275L151.077 47.6255C151.231 47.2154 151.333 46.8565 151.436 46.6258C151.59 46.3951 151.846 46.1388 152.308 45.7543C152.384 45.703 152.461 45.6261 152.538 45.5748C154.435 46.5233 157.486 48.0613 159.229 48.9072Z" fill="#2B303E"/>
<path d="M158.229 49.1123C158.229 49.1379 158.229 49.1379 158.229 49.1123C158.178 49.5225 158.127 49.9326 158.05 50.3684C157.511 54.0084 156.204 59.3915 152.846 65.0053C150.923 68.2095 148.488 72.2597 145.156 74.8487C143.566 76.0791 141.798 76.9763 139.773 77.3096C137.081 77.7453 134.236 77.207 131.493 75.8741C128.622 74.4642 125.828 72.1572 123.495 69.1067C122.085 67.3124 120.829 65.236 119.804 62.9546C119.394 61.7242 119.009 60.4681 118.599 59.2377C116.01 51.2399 113.421 43.2678 110.832 35.27C115.472 35.6802 118.317 37.2438 120.06 38.6024C126.699 43.7548 125.52 52.1627 134.159 61.6729C136.492 64.2363 137.568 64.6721 138.517 64.749C144.233 65.1335 149.719 51.0605 150.59 48.856C150.667 48.6509 150.744 48.4458 150.821 48.2664C151.052 47.6512 151.231 47.1641 151.334 46.8053C152.436 47.0616 153.641 47.3948 154.922 47.8306C155.512 48.0357 156.076 48.2408 156.614 48.4458C157.152 48.6765 157.716 48.9072 158.229 49.1123Z" fill="#6F3E43"/>
<path d="M144.259 74.4386L144.515 73.9772C144.541 73.9259 144.541 73.849 144.464 73.7978C144.413 73.7721 144.336 73.7721 144.285 73.849L144.003 74.3361C143.439 74.1054 142.875 73.9003 142.362 73.7465L142.542 73.1056C142.567 73.0287 142.516 72.9775 142.439 72.9518C142.362 72.9262 142.311 72.9775 142.285 73.0544L142.131 73.6696C141.593 73.5158 141.08 73.3876 140.568 73.3107L140.619 72.8237C140.619 72.7468 140.568 72.6955 140.491 72.6955C140.414 72.6955 140.363 72.7468 140.363 72.8237L140.311 73.3107C139.671 73.2082 139.03 73.1569 138.466 73.1569L138.389 72.5673C138.389 72.4904 138.312 72.4392 138.235 72.4648C138.158 72.4648 138.107 72.5417 138.133 72.6186L138.209 73.1569C137.646 73.1569 137.133 73.2082 136.62 73.3107L136.518 72.8493C136.492 72.7724 136.441 72.7468 136.364 72.7468C136.287 72.7724 136.261 72.8237 136.261 72.9006L136.364 73.362C135.826 73.4645 135.338 73.6183 134.903 73.7721L134.646 73.4389C134.595 73.3876 134.518 73.362 134.467 73.4133C134.416 73.4645 134.39 73.5414 134.441 73.5927L134.646 73.8747C134.159 74.0541 133.724 74.2848 133.339 74.5155L133.108 74.2079C133.057 74.1566 132.98 74.131 132.929 74.1823C132.878 74.2335 132.852 74.3104 132.903 74.3617L133.108 74.6437C132.442 75.0538 131.904 75.5152 131.468 75.9254C134.211 77.284 137.056 77.7966 139.748 77.3609C141.773 77.0276 143.567 76.1304 145.131 74.9C144.849 74.6949 144.567 74.5668 144.259 74.4386Z" fill="#EBBB5C"/>
<path d="M158.229 49.1123C158.229 49.1379 158.229 49.1379 158.229 49.1123C158.178 49.5225 158.126 49.9326 158.05 50.3684L150.77 48.2408C151 47.6256 151.18 47.1385 151.282 46.7796C152.384 47.036 153.589 47.3692 154.871 47.805C156.101 48.2408 157.229 48.6765 158.229 49.1123Z" fill="#EBBB5C"/>
<path opacity="0.26" d="M158.229 49.1123C158.229 49.1379 158.229 49.1379 158.229 49.1123C158.178 49.5225 158.126 49.9326 158.05 50.3684C157.511 54.0084 156.204 59.3915 152.846 65.0053C150.923 68.2095 148.488 72.2597 145.156 74.8487C143.566 76.0791 141.798 76.9763 139.773 77.3096C137.081 77.7453 134.236 77.207 131.493 75.8741C128.622 74.4642 125.828 72.1572 123.495 69.1067C123.751 80.7445 124.059 92.1772 124.367 104.943C124.392 105.481 124.392 105.994 124.418 106.532C123.495 106.789 122.521 107.045 121.521 107.276C120.291 107.558 119.009 107.814 117.651 108.045C116.702 108.198 115.754 108.352 114.856 108.455C115.523 97.6116 117.753 61.5191 118.009 60.3912C118.163 59.6735 118.599 59.2377 118.599 59.2377C119.65 57.9047 121.111 59.4171 123.264 61.6729C126.751 65.3642 132.057 71.0549 140.311 69.8757C152.871 68.0814 156.024 52.3165 156.614 48.4458C157.127 48.6765 157.665 48.9072 158.229 49.1123Z" fill="#522D37"/>
<path d="M107.986 63.4672C108.037 63.5954 108.165 64.0568 106.191 65.7743C105.422 66.4408 104.679 67.0047 103.884 67.5687C103.551 67.7994 101.013 69.5425 98.3475 71.3368C97.6297 71.8239 96.8864 72.3366 96.1942 72.798C95.092 73.5414 94.0923 74.2335 93.3232 74.7461C93.3232 72.8749 93.3489 70.978 93.3489 69.1067C93.8359 68.4659 94.2973 67.8763 94.7587 67.3636C95.579 66.4151 96.348 65.6461 96.9633 65.0565C97.6554 64.4157 97.8092 64.3132 98.4244 63.8005C98.9114 63.416 99.1678 63.1853 99.7574 62.6982C103.269 59.6734 105.448 58.1354 105.909 58.3405C105.935 58.3405 106.115 58.4174 106.166 58.5968C106.422 59.2889 104.423 60.4168 101.808 62.9546C101.475 63.2878 101.218 63.5441 101.039 63.7236C102.705 62.8008 103.859 61.8523 104.628 61.1602C105.371 60.4681 106.602 59.2377 107.268 59.5709C107.268 59.5709 107.396 59.6222 107.448 59.8016C107.601 60.1348 106.858 60.9551 106.371 61.4678C106.858 61.1089 107.396 60.7757 107.678 60.9039C107.704 60.9039 107.858 60.9808 107.935 61.1602C108.114 61.596 107.524 62.1856 106.14 63.4672C104.807 64.6977 104.166 65.3129 103.577 65.7743C103.244 66.0306 102.859 66.3126 102.475 66.5946C103.551 66.005 104.346 65.4154 104.858 65.0053C104.858 65.0053 107.345 63.0315 107.678 63.2109C107.935 63.3134 107.986 63.4672 107.986 63.4672Z" fill="#C88F80"/>
<path opacity="0.12" d="M98.3483 71.3625C97.6305 71.8495 96.8871 72.3622 96.195 72.8236L94.7852 67.3893L98.3483 71.3625Z" fill="#2B303E"/>
<path d="M96.7074 72.4391C96.2973 72.9006 95.8615 73.362 95.3744 73.8746C91.9908 77.4634 86.6077 82.2569 79.02 86.0251C74.7392 88.1527 69.8431 90.5879 65.8699 91.1006C65.1521 91.2031 64.4856 91.2288 63.8448 91.1775C62.6913 91.1006 61.6659 90.7674 60.82 90.1265C58.9743 88.691 58.4617 86.0251 58.8462 82.3851C58.8974 81.9749 58.9487 81.5392 59 81.1034C59.5383 77.4378 60.82 72.9262 62.4605 67.7994C63.2808 65.236 64.2037 62.4932 65.1521 59.6478C65.6391 58.1611 68.9203 48.6765 75.5851 41.9861C75.8671 41.7041 76.2003 41.3709 76.6873 40.9351C78.9431 38.9869 81.3783 37.654 83.6598 36.7568C86.9409 35.4495 89.9913 34.9881 92.0677 34.783C92.1446 40.9351 92.2471 47.0872 92.324 53.2394C91.0679 54.2647 89.5556 55.5464 87.8637 57.1357C86.0693 58.8276 84.0699 60.8526 82.0705 63.2366C78.8406 67.0304 74.9442 71.6189 75.9183 72.9775C76.431 73.6696 78.3535 73.6952 84.1212 71.2087C86.6333 70.1321 89.8632 68.5684 94.0158 66.4152C94.3747 66.2101 94.7592 66.0307 95.1437 65.8256C95.682 68.0045 96.1947 70.2346 96.7074 72.4391Z" fill="#6F3E43"/>
<path d="M66.2031 90.229C66.1775 90.1521 66.1006 90.1265 66.0493 90.1521L65.6648 90.2803C65.511 89.7933 65.3315 89.2806 65.1008 88.7679L65.6135 88.5885C65.6904 88.5628 65.7161 88.4859 65.6904 88.4347C65.6648 88.3578 65.5879 88.3321 65.5366 88.3578L64.9983 88.5372C64.7163 87.922 64.3831 87.3068 63.9729 86.7172L64.5113 86.3327C64.5625 86.2814 64.5882 86.2045 64.5369 86.1532C64.4856 86.102 64.4087 86.0764 64.3575 86.1276L63.8191 86.5121C63.4859 86.0507 63.127 85.5893 62.6913 85.1535L63.1783 84.7434C63.2296 84.6921 63.2296 84.6152 63.2039 84.564C63.1527 84.5127 63.0758 84.5127 63.0245 84.5383L62.5375 84.9741C62.4349 84.8716 62.3067 84.7434 62.2042 84.6409C61.9222 84.3845 61.6403 84.1538 61.3583 83.9231L61.7428 83.2566C61.7684 83.2054 61.7684 83.1284 61.6915 83.0772C61.6403 83.0515 61.5634 83.0516 61.5121 83.1285L61.1276 83.7693C60.6918 83.4617 60.2817 83.1797 59.8715 82.949L60.051 82.4107C60.0766 82.3338 60.0253 82.2825 59.9741 82.2569C59.8972 82.2313 59.8459 82.2825 59.8203 82.3338L59.6408 82.8465C59.3845 82.6927 59.1025 82.5645 58.8462 82.462C58.4617 86.102 58.9743 88.7935 60.82 90.2034C61.6659 90.8443 62.6913 91.1775 63.8448 91.2544C64.4856 91.3057 65.1777 91.2544 65.8699 91.1775C65.8186 90.9724 65.7673 90.793 65.7161 90.5879L66.1006 90.4598C66.1775 90.3572 66.2287 90.2803 66.2031 90.229Z" fill="#EBBB5C"/>
<path d="M96.7072 72.4391C96.297 72.9005 95.8613 73.3619 95.3742 73.8746L94.0156 66.3639C94.3745 66.1588 94.759 65.9794 95.1435 65.7743C95.6818 68.0045 96.1945 70.2346 96.7072 72.4391Z" fill="#EBBB5C"/>
<path opacity="0.12" d="M83.6855 36.7311C81.9937 38.6793 79.7636 41.5503 76.7131 45.5236C72.663 50.7785 69.9714 55.2388 62.4863 67.7738C63.3066 65.2104 64.2294 62.4676 65.1779 59.6222C65.6649 58.1354 68.9461 48.6509 75.6109 41.9605C75.8928 41.6785 76.2261 41.3452 76.7131 40.9095C78.9689 38.9869 81.4041 37.654 83.6855 36.7311Z" fill="url(#paint5_linear)"/>
<path opacity="0.5" d="M170.497 152.085C170.385 152.085 170.301 152.029 170.273 151.917L110.744 74.7543C110.716 74.642 110.772 74.5017 110.913 74.4456C111.025 74.4176 111.165 74.4737 111.221 74.614L170.722 151.777C170.75 151.889 170.694 152.029 170.554 152.085C170.554 152.085 170.526 152.085 170.497 152.085Z" fill="#153E5C"/>
<path opacity="0.5" d="M178.702 93.9649C178.596 93.9298 178.455 94.0879 178.307 94.4479L111.568 75.0835C111.42 75.4435 111.87 75.6934 111.87 75.6934L178.582 95.0491C178.73 94.6891 178.828 94.2106 178.756 93.9824C178.756 93.9824 178.729 93.9736 178.702 93.9649Z" fill="#153E5C"/>
<path d="M223.874 150.619L154.825 151.772L153.533 199.554L223.874 201.292V150.619Z" fill="#E3EDF1"/>
<path d="M233.392 41.2483L176.665 43.1173L175.604 120.549L233.392 123.366V41.2483Z" fill="#E3EDF1"/>
<path opacity="0.5" d="M184.879 167.42C186.217 167.083 188.61 165.18 189.639 164.271C191.358 165.685 195.489 168.87 198.266 170.292C201.737 172.069 205.488 172.788 209.186 173.43C212.884 174.071 214.346 176.466 213.592 177.075C213.778 177.815 214.374 179.008 209.053 180.244C203.732 181.48 200.45 181.932 194.522 181.72C190.832 181.587 186.175 180.186 184.994 179.514L182.103 180.87L175.884 180.374C175.78 179.609 175.591 178.586 175.404 177.577L175.401 177.563C175.221 176.587 175.044 175.627 174.948 174.928C174.817 173.966 174.965 172.234 175.144 169.326C175.323 166.419 176.61 167.396 178.335 167.353C180.059 167.309 183.207 167.841 184.879 167.42Z" fill="#F9FDFD"/>
<path d="M180.109 171.528C181.48 171.375 184.109 169.814 185.251 169.052C186.762 170.686 190.424 174.401 192.983 176.185C196.182 178.416 199.801 179.636 203.378 180.773C206.956 181.909 208.08 184.479 207.25 184.981C207.334 185.739 207.764 187.001 202.324 187.506C196.885 188.011 193.572 188.014 187.727 187.001C184.089 186.371 179.665 184.352 178.585 183.527L175.538 184.479L169.443 183.146C169.443 182.373 169.394 181.334 169.346 180.309L169.345 180.294C169.299 179.304 169.253 178.328 169.253 177.622C169.253 176.651 169.634 174.956 170.205 172.099C170.777 169.242 171.919 170.385 173.633 170.576C175.348 170.766 178.395 171.718 180.109 171.528Z" fill="#FCFCFC"/>
<path opacity="0.67" d="M206.899 159.227C206.925 159.375 206.797 159.076 206.899 159.227L201.551 150.865C201.449 150.384 201.728 150.032 202.134 150.089C202.54 150.146 202.737 150.61 203.16 151.097L207.607 155.952L215.089 145.338C215.241 144.961 215.672 144.892 216.078 145.223C216.484 145.555 216.713 146.115 216.561 146.492L208.193 159.457C208.067 159.762 207.762 159.856 207.407 159.71C207.204 159.572 207.026 159.416 206.899 159.227Z" fill="#336859"/>
<path opacity="0.67" d="M219.785 49.0408C219.81 49.1884 219.683 48.8893 219.785 49.0408L214.437 40.6783C214.335 40.1975 214.614 39.8458 215.02 39.903C215.426 39.9602 215.622 40.4242 216.046 40.911L220.493 45.7655L227.974 35.1516C228.126 34.7751 228.558 34.7055 228.964 35.0371C229.37 35.3687 229.599 35.9291 229.447 36.3056L221.079 49.2711C220.952 49.5756 220.648 49.67 220.293 49.5239C220.09 49.3855 219.912 49.2302 219.785 49.0408Z" fill="#336859"/>
<path opacity="0.8" d="M210.777 54.7408H203.14V71.7393C203.632 75.5167 204.716 83.7121 205.11 86.2742C205.603 89.4768 205.603 107.214 205.603 108.2C205.603 109.185 208.067 109.924 210.038 109.924C211.614 109.924 213.322 109.103 213.979 108.693C213.733 102.452 213.24 87.506 213.24 77.6518C213.24 67.7976 211.598 58.2718 210.777 54.7408Z" fill="#F9FDFD"/>
<path opacity="0.8" d="M195.503 54.7408H203.14V71.7393C202.647 75.5167 201.563 83.7121 201.169 86.2742C200.676 89.4768 200.676 107.214 200.676 108.2C200.676 109.185 198.213 109.924 196.242 109.924C194.665 109.924 192.957 109.103 192.3 108.693C192.546 102.452 193.039 87.506 193.039 77.6518C193.039 67.7976 194.681 58.2718 195.503 54.7408Z" fill="#F9FDFD"/>
<path d="M24.4032 146.841C24.9457 148.031 24.8932 149.361 23.8432 152.651C23.1432 154.839 22.4607 156.414 21.8132 157.691C20.5357 160.264 19.3982 161.664 18.5582 164.376C16.5282 170.869 19.0482 175.489 17.6132 176.049C17.6132 176.049 17.5957 176.049 17.5957 176.066C17.3157 176.171 16.9657 176.084 16.5982 175.839C14.6907 174.666 11.7157 169.889 9.68569 166.599C4.08569 157.534 -1.8818 147.909 1.47819 143.604C3.47319 141.049 6.92069 142.571 8.11069 140.209C10.0182 136.429 1.56569 131.826 0.953195 122.481C0.638195 117.739 2.40569 112.524 4.89069 111.964C4.99569 111.946 5.11819 111.929 5.22319 111.911C7.13069 111.806 8.46069 114.501 10.2807 113.959C11.5932 113.574 11.9082 111.841 12.3107 109.864C12.7482 107.764 13.2732 105.384 15.1807 104.019C15.2507 103.966 15.3032 103.931 15.3732 103.896C17.3507 102.619 20.3432 102.496 21.3407 103.756C22.9157 105.699 18.6807 109.689 20.3607 112.926C21.5332 115.166 24.1232 114.309 25.6982 116.514C27.7107 119.296 25.8732 123.881 23.8782 128.729C23.7382 129.061 23.6157 129.376 23.4757 129.674C20.2382 137.129 17.0707 139.824 18.3482 142.361C18.5057 142.676 18.7157 142.939 18.9607 143.166C20.2557 144.391 22.5132 144.391 23.8432 145.966C24.0532 146.211 24.2457 146.509 24.4032 146.841Z" fill="#3D6658"/>
<path d="M17.0887 180.37C17.0712 180.37 17.0712 180.37 17.0537 180.37C16.9487 180.353 16.8787 180.265 16.8962 180.16C17.3512 177.43 17.6137 174.63 17.6487 171.865C17.7537 164.27 16.7387 157.13 14.6387 150.638C14.4637 150.095 14.2887 149.57 14.1137 149.08C13.2737 146.648 12.6262 144.74 12.8012 141.905C12.9762 139.088 13.8337 137.18 14.7612 135.15C15.6012 133.295 16.4762 131.37 16.8087 128.64C17.1412 125.84 16.8262 122.953 15.8637 120.065C15.8287 119.96 15.8812 119.873 15.9862 119.838C16.0912 119.803 16.1787 119.855 16.2137 119.96C17.1937 122.918 17.5087 125.858 17.1762 128.71C16.8437 131.493 15.9512 133.453 15.1112 135.325C14.2012 137.32 13.3612 139.21 13.1862 141.958C13.0112 144.723 13.6587 146.613 14.4812 148.993C14.6562 149.5 14.8312 150.008 15.0062 150.568C17.1237 157.095 18.1387 164.27 18.0337 171.918C17.9987 174.7 17.7362 177.518 17.2812 180.265C17.2637 180.3 17.1762 180.37 17.0887 180.37Z" fill="url(#paint6_linear)"/>
<path opacity="0.05" d="M23.8432 145.965L21.8132 157.707L18.3832 177.587C18.3832 177.587 18.0857 177.027 17.5957 176.047C15.7757 172.39 11.4007 162.922 10.8057 156.202C10.2457 149.675 16.1607 144.985 18.9607 143.147C20.2732 144.372 22.5132 144.372 23.8432 145.965Z" fill="#2A303D"/>
<path d="M35.7959 144.303C32.6634 147.208 28.8134 147.47 28.5859 149.885C28.3934 151.985 31.1934 152.528 31.4559 154.943C31.8409 158.495 26.0484 159.738 22.3909 165.827C19.4859 170.657 19.9059 175.26 19.2934 176.432C19.2059 176.625 19.0834 176.712 18.9259 176.73C18.2084 176.765 17.7184 174.84 15.2334 164.69C13.6059 158.04 12.8009 154.68 13.7109 152.405C14.9709 149.22 17.0534 149.588 20.4134 146.123C27.3434 139.018 24.3859 131.563 30.4934 128.063C32.9959 126.628 36.6184 126.068 38.5434 127.625C39.1384 128.098 39.5759 128.78 39.8909 129.603C41.3434 133.488 39.8559 140.523 35.7959 144.303Z" fill="#C78E7F"/>
<path d="M17.9629 184.22C17.9454 184.22 17.9454 184.22 17.9279 184.22C17.8229 184.202 17.7704 184.097 17.7879 184.01C18.1554 182.12 18.4179 180.177 18.5929 178.252C19.2054 171.462 18.4179 167 17.7879 163.43C17.1229 159.702 16.6504 156.99 18.3479 153.892C19.5729 151.635 21.1304 150.637 22.7754 149.587C24.6479 148.397 26.5729 147.155 28.2354 143.865C29.5479 141.293 30.2129 138.37 30.2304 135.185C30.2304 135.08 30.3179 135.01 30.4229 135.01C30.5279 135.01 30.6154 135.098 30.5979 135.203C30.5804 138.44 29.8979 141.415 28.5679 144.04C26.8529 147.4 24.8754 148.677 22.9679 149.902C21.3579 150.935 19.8529 151.897 18.6629 154.085C17.0354 157.077 17.4729 159.58 18.1379 163.395C18.7679 167 19.5554 171.462 18.9429 178.305C18.7679 180.247 18.4879 182.19 18.1204 184.097C18.1204 184.15 18.0504 184.22 17.9629 184.22Z" fill="url(#paint7_linear)"/>
<path opacity="0.09" d="M23.878 128.71C23.738 129.043 23.6155 129.358 23.4755 129.655C21.2355 125.963 20.1855 122.778 19.643 120.555C18.593 116.233 18.873 113.048 16.493 111.14C15.1105 110.038 13.4305 109.845 12.293 109.845C12.7305 107.745 13.2555 105.365 15.163 104C15.233 103.948 15.2855 103.913 15.3555 103.878C17.333 102.6 20.3255 102.478 21.323 103.738C22.898 105.68 18.663 109.67 20.343 112.908C21.5155 115.148 24.1055 114.29 25.6805 116.495C27.7105 119.278 25.873 123.863 23.878 128.71Z" fill="#2A303D"/>
<path opacity="0.09" d="M35.7952 144.303C32.6627 147.207 28.8127 147.47 28.5852 149.885C28.3927 151.985 31.1927 152.527 31.4552 154.942C31.8402 158.495 26.0477 159.737 22.3902 165.827C19.4852 170.657 19.9052 175.26 19.2927 176.432C19.2752 176.712 19.2577 176.992 19.2402 177.272C19.3802 167 22.3552 162.362 25.2602 160.052C26.9752 158.687 29.9327 157.147 29.8277 154.942C29.7227 152.667 26.5027 152.002 26.5027 149.99C26.5027 147.715 30.5802 146.665 33.5902 144.303C36.3727 142.098 39.1902 137.985 39.8727 129.638C41.3427 133.488 39.8552 140.523 35.7952 144.303Z" fill="#2A303D"/>
<path opacity="0.11" d="M16.5982 175.82C14.6907 174.648 11.7157 169.87 9.68569 166.58C4.08569 157.515 -1.8818 147.89 1.47819 143.585C3.47319 141.03 6.92069 142.553 8.11069 140.19C10.0182 136.41 1.56569 131.808 0.953195 122.463C0.638195 117.72 2.40569 112.505 4.89069 111.945C4.99569 111.928 5.11819 111.91 5.22319 111.893C3.98069 114.99 2.63319 119.733 3.66569 125.07C5.22319 133.103 11.4007 138.405 9.31819 141.503C8.02319 143.428 4.61069 142.868 3.63069 145.475C3.19319 146.648 3.45569 147.785 3.73569 148.573C5.53819 153.945 16.5107 175.663 16.5982 175.82Z" fill="url(#paint8_linear)"/>
<path d="M26.0838 192.009V211.801C26.0838 212.029 26.0663 212.239 26.0663 212.466H9.65129C9.63379 212.239 9.63379 212.029 9.63379 211.801V192.009C9.63379 189.419 10.5613 187.056 12.0488 185.341C12.6788 184.624 13.3963 184.029 14.2013 183.574L11.9263 176.416L11.5413 175.226H24.1763L23.7913 176.416L21.5163 183.574C24.2288 185.131 26.0838 188.334 26.0838 192.009Z" fill="#BACFDA"/>
<g opacity="0.35">
<path opacity="0.4" d="M12.7475 175.225V179.04L12.1875 177.307V175.225H12.7475Z" fill="#31445A"/>
<path opacity="0.4" d="M12.7475 184.622V212.465H12.1875V185.182C12.3625 184.99 12.555 184.797 12.7475 184.622Z" fill="#31445A"/>
<path opacity="0.4" d="M16.685 175.225H16.125V212.465H16.685V175.225Z" fill="#31445A"/>
<path opacity="0.4" d="M20.4125 175.522V212.465H19.8525V175.522C19.8525 175.365 19.975 175.242 20.1325 175.242C20.29 175.26 20.4125 175.382 20.4125 175.522Z" fill="#31445A"/>
<path opacity="0.4" d="M24.1752 175.225L23.8252 176.31V175.225H24.1752Z" fill="#31445A"/>
<path opacity="0.4" d="M24.3852 186.285V212.465H23.8252V185.532C24.0177 185.777 24.2102 186.022 24.3852 186.285Z" fill="#31445A"/>
<path opacity="0.4" d="M22.2324 181.35L22.0574 181.91H13.6574L13.4824 181.35H22.2324Z" fill="#31445A"/>
<path opacity="0.4" d="M25.3829 188.227H10.3154C10.3854 188.035 10.4554 187.86 10.5429 187.667H25.1554C25.2429 187.86 25.3129 188.035 25.3829 188.227Z" fill="#31445A"/>
<path opacity="0.4" d="M26.0827 193.775H9.61523V194.335H26.0827V193.775Z" fill="#31445A"/>
<path opacity="0.4" d="M26.0827 199.83H9.61523V200.39H26.0827V199.83Z" fill="#31445A"/>
<path opacity="0.4" d="M26.0827 205.902H9.61523V206.462H26.0827V205.902Z" fill="#31445A"/>
</g>
<path d="M26.0828 211.275V211.8C26.0828 212.027 26.0653 212.237 26.0653 212.465H9.65031C9.63281 212.237 9.63281 212.027 9.63281 211.8V211.275H26.0828Z" fill="#31445A"/>
<path d="M24.175 175.225L23.79 176.415H11.9075L11.54 175.225H24.175Z" fill="#31445A"/>
<path opacity="0.09" d="M26.0825 192.007V211.8C26.0825 212.027 26.065 212.237 26.065 212.465H18.96V175.225H24.1575L23.7725 176.415L21.4975 183.572C24.2275 185.13 26.0825 188.332 26.0825 192.007Z" fill="#2A303D"/>
<path opacity="0.23" d="M12.9575 191.08C13.75 191.08 14.3925 190.437 14.3925 189.645C14.3925 188.852 13.75 188.21 12.9575 188.21C12.1649 188.21 11.5225 188.852 11.5225 189.645C11.5225 190.437 12.1649 191.08 12.9575 191.08Z" fill="white"/>
<defs>
<linearGradient id="paint0_linear" x1="65.4795" y1="223.364" x2="76.1871" y2="223.364" gradientUnits="userSpaceOnUse">
<stop stop-color="white"/>
<stop offset="0.7781" stop-color="#85AAB0"/>
</linearGradient>
<linearGradient id="paint1_linear" x1="118.949" y1="224.503" x2="127.76" y2="224.503" gradientUnits="userSpaceOnUse">
<stop stop-color="white"/>
<stop offset="0.7781" stop-color="#85AAB0"/>
</linearGradient>
<linearGradient id="paint2_linear" x1="68.2539" y1="158.111" x2="86.1476" y2="158.111" gradientUnits="userSpaceOnUse">
<stop stop-color="white"/>
<stop offset="0.7781" stop-color="#85AAB0"/>
</linearGradient>
<linearGradient id="paint3_linear" x1="97.2988" y1="70.3729" x2="117.39" y2="53.9615" gradientUnits="userSpaceOnUse">
<stop stop-color="#263041"/>
<stop offset="1" stop-color="#302E41"/>
</linearGradient>
<linearGradient id="paint4_linear" x1="104.53" y1="63.2571" x2="112.605" y2="56.661" gradientUnits="userSpaceOnUse">
<stop stop-color="white"/>
<stop offset="0.7781" stop-color="#85AAB0"/>
</linearGradient>
<linearGradient id="paint5_linear" x1="62.4761" y1="52.2627" x2="83.6958" y2="52.2627" gradientUnits="userSpaceOnUse">
<stop stop-color="white" stop-opacity="0.5"/>
<stop offset="0.8362" stop-color="#DB7643"/>
</linearGradient>
<linearGradient id="paint6_linear" x1="6.57949" y1="154.028" x2="26.5616" y2="146.147" gradientUnits="userSpaceOnUse">
<stop offset="0.4985" stop-color="#3D6658"/>
<stop offset="1" stop-color="white" stop-opacity="0.6"/>
</linearGradient>
<linearGradient id="paint7_linear" x1="15.9728" y1="160.229" x2="32.4097" y2="158.983" gradientUnits="userSpaceOnUse">
<stop stop-color="#C78E7F"/>
<stop offset="1" stop-color="white" stop-opacity="0.6"/>
</linearGradient>
<linearGradient id="paint8_linear" x1="0.492735" y1="143.868" x2="16.5976" y2="143.868" gradientUnits="userSpaceOnUse">
<stop stop-color="white"/>
<stop offset="1" stop-color="#9375A1"/>
</linearGradient>
</defs>
</svg>
